G04 Layer: BottomSilkLayer*
G04 EasyEDA v6.3.53, 2020-07-02T17:27:03+02:00*
G04 4edb8fa5c3324583bf34438798551307,0d0e7d196270479aaefd99a7cd6f8dc4,10*
G04 Gerber Generator version 0.2*
G04 Scale: 100 percent, Rotated: No, Reflected: No *
G04 Dimensions in millimeters *
G04 leading zeros omitted , absolute positions ,3 integer and 3 decimal *
%FSLAX33Y33*%
%MOMM*%
G90*
G71D02*


%LPD*%

%LPD*%
G36*
G01X28153Y14091D02*
G01X27809Y14091D01*
G01X27679Y14090D01*
G01X27585Y14087D01*
G01X27520Y14081D01*
G01X27479Y14072D01*
G01X27455Y14058D01*
G01X27443Y14040D01*
G01X27436Y14015D01*
G01X27430Y13990D01*
G01X27422Y13949D01*
G01X27411Y13893D01*
G01X27398Y13826D01*
G01X27383Y13749D01*
G01X27367Y13664D01*
G01X27350Y13573D01*
G01X27332Y13480D01*
G01X27315Y13387D01*
G01X27298Y13301D01*
G01X27283Y13223D01*
G01X27269Y13154D01*
G01X27258Y13097D01*
G01X27249Y13054D01*
G01X27242Y13026D01*
G01X27239Y13015D01*
G01X27230Y13010D01*
G01X27207Y13001D01*
G01X27172Y12986D01*
G01X27126Y12967D01*
G01X27071Y12944D01*
G01X27008Y12919D01*
G01X26939Y12891D01*
G01X26866Y12862D01*
G01X26501Y12714D01*
G01X26106Y12985D01*
G01X26026Y13040D01*
G01X25949Y13093D01*
G01X25877Y13141D01*
G01X25813Y13186D01*
G01X25757Y13224D01*
G01X25711Y13255D01*
G01X25660Y13289D01*
G01X25643Y13294D01*
G01X25618Y13288D01*
G01X25585Y13270D01*
G01X25542Y13239D01*
G01X25487Y13192D01*
G01X25419Y13129D01*
G01X25334Y13047D01*
G01X25233Y12947D01*
G01X24856Y12570D01*
G01X25148Y12145D01*
G01X25206Y12059D01*
G01X25261Y11978D01*
G01X25310Y11902D01*
G01X25353Y11835D01*
G01X25389Y11778D01*
G01X25416Y11733D01*
G01X25433Y11701D01*
G01X25439Y11686D01*
G01X25436Y11671D01*
G01X25427Y11644D01*
G01X25412Y11604D01*
G01X25393Y11554D01*
G01X25370Y11497D01*
G01X25344Y11432D01*
G01X25314Y11361D01*
G01X25283Y11287D01*
G01X25232Y11170D01*
G01X25191Y11081D01*
G01X25158Y11016D01*
G01X25130Y10970D01*
G01X25103Y10940D01*
G01X25074Y10922D01*
G01X25041Y10910D01*
G01X25001Y10902D01*
G01X24968Y10896D01*
G01X24922Y10887D01*
G01X24865Y10877D01*
G01X24800Y10865D01*
G01X24727Y10851D01*
G01X24651Y10837D01*
G01X24571Y10822D01*
G01X24492Y10808D01*
G01X24108Y10737D01*
G01X24108Y9663D01*
G01X24440Y9605D01*
G01X24511Y9592D01*
G01X24583Y9579D01*
G01X24655Y9565D01*
G01X24725Y9552D01*
G01X24791Y9539D01*
G01X24850Y9527D01*
G01X24902Y9516D01*
G01X24942Y9507D01*
G01X25111Y9467D01*
G01X25256Y9108D01*
G01X25286Y9035D01*
G01X25313Y8965D01*
G01X25338Y8899D01*
G01X25359Y8838D01*
G01X25377Y8786D01*
G01X25391Y8743D01*
G01X25400Y8711D01*
G01X25403Y8692D01*
G01X25398Y8672D01*
G01X25382Y8638D01*
G01X25357Y8591D01*
G01X25324Y8533D01*
G01X25283Y8466D01*
G01X25237Y8393D01*
G01X25186Y8314D01*
G01X25131Y8233D01*
G01X24856Y7831D01*
G01X25608Y7079D01*
G01X26019Y7360D01*
G01X26429Y7642D01*
G01X26637Y7537D01*
G01X26718Y7497D01*
G01X26786Y7466D01*
G01X26833Y7447D01*
G01X26852Y7442D01*
G01X26855Y7448D01*
G01X26861Y7462D01*
G01X26871Y7484D01*
G01X26883Y7514D01*
G01X26899Y7551D01*
G01X26917Y7595D01*
G01X26962Y7700D01*
G01X26987Y7761D01*
G01X27015Y7828D01*
G01X27044Y7898D01*
G01X27075Y7973D01*
G01X27108Y8052D01*
G01X27142Y8134D01*
G01X27178Y8218D01*
G01X27213Y8305D01*
G01X27567Y9156D01*
G01X27469Y9226D01*
G01X27417Y9264D01*
G01X27369Y9303D01*
G01X27323Y9340D01*
G01X27280Y9378D01*
G01X27239Y9416D01*
G01X27202Y9453D01*
G01X27167Y9492D01*
G01X27134Y9531D01*
G01X27103Y9571D01*
G01X27075Y9611D01*
G01X27048Y9653D01*
G01X27024Y9695D01*
G01X26993Y9752D01*
G01X26970Y9802D01*
G01X26952Y9850D01*
G01X26939Y9899D01*
G01X26931Y9955D01*
G01X26926Y10020D01*
G01X26924Y10101D01*
G01X26924Y10300D01*
G01X26926Y10381D01*
G01X26931Y10447D01*
G01X26939Y10502D01*
G01X26952Y10552D01*
G01X26970Y10599D01*
G01X26993Y10649D01*
G01X27024Y10707D01*
G01X27054Y10757D01*
G01X27085Y10805D01*
G01X27119Y10851D01*
G01X27154Y10894D01*
G01X27190Y10935D01*
G01X27229Y10974D01*
G01X27269Y11010D01*
G01X27310Y11044D01*
G01X27352Y11076D01*
G01X27396Y11105D01*
G01X27441Y11132D01*
G01X27487Y11157D01*
G01X27534Y11179D01*
G01X27581Y11199D01*
G01X27630Y11217D01*
G01X27679Y11232D01*
G01X27728Y11245D01*
G01X27778Y11256D01*
G01X27829Y11264D01*
G01X27880Y11269D01*
G01X27930Y11273D01*
G01X27981Y11274D01*
G01X28032Y11273D01*
G01X28083Y11269D01*
G01X28134Y11264D01*
G01X28184Y11256D01*
G01X28234Y11245D01*
G01X28284Y11232D01*
G01X28333Y11217D01*
G01X28381Y11199D01*
G01X28429Y11179D01*
G01X28476Y11157D01*
G01X28522Y11132D01*
G01X28566Y11105D01*
G01X28610Y11076D01*
G01X28653Y11044D01*
G01X28694Y11010D01*
G01X28734Y10974D01*
G01X28772Y10935D01*
G01X28809Y10894D01*
G01X28844Y10851D01*
G01X28878Y10805D01*
G01X28909Y10757D01*
G01X28939Y10707D01*
G01X28969Y10649D01*
G01X28993Y10599D01*
G01X29011Y10552D01*
G01X29024Y10502D01*
G01X29032Y10447D01*
G01X29037Y10381D01*
G01X29039Y10300D01*
G01X29039Y10101D01*
G01X29037Y10020D01*
G01X29032Y9955D01*
G01X29024Y9899D01*
G01X29011Y9850D01*
G01X28993Y9802D01*
G01X28970Y9752D01*
G01X28939Y9695D01*
G01X28914Y9653D01*
G01X28888Y9611D01*
G01X28859Y9571D01*
G01X28829Y9531D01*
G01X28796Y9492D01*
G01X28761Y9453D01*
G01X28723Y9416D01*
G01X28683Y9378D01*
G01X28640Y9340D01*
G01X28594Y9303D01*
G01X28546Y9264D01*
G01X28494Y9226D01*
G01X28396Y9156D01*
G01X28750Y8305D01*
G01X28785Y8218D01*
G01X28821Y8134D01*
G01X28854Y8052D01*
G01X28887Y7973D01*
G01X28918Y7898D01*
G01X28948Y7828D01*
G01X28976Y7761D01*
G01X29001Y7700D01*
G01X29025Y7644D01*
G01X29045Y7595D01*
G01X29064Y7551D01*
G01X29079Y7514D01*
G01X29092Y7484D01*
G01X29102Y7462D01*
G01X29108Y7448D01*
G01X29110Y7442D01*
G01X29130Y7446D01*
G01X29176Y7466D01*
G01X29244Y7497D01*
G01X29324Y7536D01*
G01X29531Y7640D01*
G01X30355Y7080D01*
G01X31106Y7831D01*
G01X30832Y8233D01*
G01X30777Y8314D01*
G01X30726Y8392D01*
G01X30679Y8465D01*
G01X30639Y8530D01*
G01X30605Y8586D01*
G01X30580Y8631D01*
G01X30564Y8664D01*
G01X30558Y8682D01*
G01X30561Y8699D01*
G01X30569Y8729D01*
G01X30600Y8822D01*
G01X30622Y8882D01*
G01X30646Y8948D01*
G01X30673Y9019D01*
G01X30702Y9093D01*
G01X30738Y9183D01*
G01X30771Y9259D01*
G01X30801Y9324D01*
G01X30828Y9377D01*
G01X30853Y9419D01*
G01X30875Y9450D01*
G01X30896Y9471D01*
G01X30915Y9482D01*
G01X30938Y9489D01*
G01X30976Y9499D01*
G01X31029Y9510D01*
G01X31092Y9523D01*
G01X31165Y9539D01*
G01X31246Y9554D01*
G01X31331Y9571D01*
G01X31420Y9587D01*
G01X31855Y9666D01*
G01X31855Y10739D01*
G01X31727Y10762D01*
G01X31694Y10768D01*
G01X31647Y10777D01*
G01X31590Y10787D01*
G01X31524Y10799D01*
G01X31452Y10812D01*
G01X31376Y10827D01*
G01X31218Y10855D01*
G01X30836Y10927D01*
G01X30680Y11289D01*
G01X30648Y11362D01*
G01X30619Y11432D01*
G01X30593Y11497D01*
G01X30569Y11555D01*
G01X30551Y11604D01*
G01X30536Y11644D01*
G01X30527Y11671D01*
G01X30524Y11686D01*
G01X30530Y11701D01*
G01X30547Y11733D01*
G01X30574Y11778D01*
G01X30610Y11835D01*
G01X30653Y11902D01*
G01X30702Y11978D01*
G01X30757Y12059D01*
G01X30815Y12145D01*
G01X31106Y12570D01*
G01X30730Y12947D01*
G01X30628Y13047D01*
G01X30544Y13129D01*
G01X30475Y13192D01*
G01X30420Y13239D01*
G01X30377Y13270D01*
G01X30344Y13288D01*
G01X30320Y13294D01*
G01X30303Y13289D01*
G01X30284Y13277D01*
G01X30251Y13255D01*
G01X30151Y13186D01*
G01X30086Y13142D01*
G01X30015Y13093D01*
G01X29938Y13040D01*
G01X29858Y12986D01*
G01X29465Y12716D01*
G01X29090Y12863D01*
G01X29014Y12893D01*
G01X28944Y12920D01*
G01X28881Y12946D01*
G01X28825Y12969D01*
G01X28779Y12988D01*
G01X28745Y13003D01*
G01X28723Y13012D01*
G01X28715Y13017D01*
G01X28713Y13030D01*
G01X28708Y13062D01*
G01X28699Y13109D01*
G01X28688Y13170D01*
G01X28675Y13242D01*
G01X28660Y13322D01*
G01X28644Y13408D01*
G01X28627Y13497D01*
G01X28611Y13586D01*
G01X28594Y13673D01*
G01X28578Y13756D01*
G01X28563Y13832D01*
G01X28551Y13898D01*
G01X28540Y13953D01*
G01X28532Y13992D01*
G01X28527Y14015D01*
G01X28520Y14040D01*
G01X28507Y14058D01*
G01X28484Y14072D01*
G01X28442Y14081D01*
G01X28377Y14087D01*
G01X28283Y14090D01*
G01X28153Y14091D01*
G37*

%LPD*%
G36*
G01X25006Y6292D02*
G01X24946Y6304D01*
G01X24889Y6295D01*
G01X24812Y6265D01*
G01X24715Y6224D01*
G01X24783Y6139D01*
G01X24822Y6099D01*
G01X24863Y6074D01*
G01X24912Y6064D01*
G01X24976Y6066D01*
G01X25024Y6069D01*
G01X25063Y6068D01*
G01X25097Y6063D01*
G01X25125Y6052D01*
G01X25147Y6035D01*
G01X25164Y6009D01*
G01X25178Y5974D01*
G01X25187Y5928D01*
G01X25193Y5872D01*
G01X25197Y5803D01*
G01X25199Y5721D01*
G01X25200Y5623D01*
G01X25200Y5252D01*
G01X25405Y5252D01*
G01X25405Y6276D01*
G01X25302Y6276D01*
G01X25262Y6273D01*
G01X25230Y6266D01*
G01X25208Y6256D01*
G01X25200Y6243D01*
G01X25191Y6234D01*
G01X25167Y6235D01*
G01X25132Y6243D01*
G01X25089Y6259D01*
G01X25006Y6292D01*
G37*

%LPD*%
G36*
G01X29511Y6293D02*
G01X29454Y6305D01*
G01X29397Y6294D01*
G01X29314Y6261D01*
G01X29271Y6241D01*
G01X29234Y6218D01*
G01X29202Y6192D01*
G01X29175Y6161D01*
G01X29153Y6124D01*
G01X29134Y6081D01*
G01X29120Y6029D01*
G01X29108Y5970D01*
G01X29100Y5901D01*
G01X29095Y5822D01*
G01X29092Y5732D01*
G01X29091Y5629D01*
G01X29091Y5252D01*
G01X29295Y5252D01*
G01X29296Y5568D01*
G01X29297Y5657D01*
G01X29300Y5736D01*
G01X29305Y5804D01*
G01X29313Y5863D01*
G01X29323Y5912D01*
G01X29336Y5954D01*
G01X29353Y5987D01*
G01X29373Y6014D01*
G01X29397Y6034D01*
G01X29425Y6049D01*
G01X29457Y6059D01*
G01X29494Y6065D01*
G01X29539Y6068D01*
G01X29576Y6067D01*
G01X29607Y6062D01*
G01X29633Y6051D01*
G01X29654Y6033D01*
G01X29671Y6007D01*
G01X29683Y5972D01*
G01X29693Y5926D01*
G01X29699Y5870D01*
G01X29702Y5801D01*
G01X29704Y5720D01*
G01X29705Y5623D01*
G01X29705Y5252D01*
G01X29944Y5252D01*
G01X29944Y6276D01*
G01X29824Y6276D01*
G01X29778Y6273D01*
G01X29740Y6266D01*
G01X29714Y6256D01*
G01X29705Y6243D01*
G01X29696Y6234D01*
G01X29672Y6235D01*
G01X29637Y6243D01*
G01X29594Y6259D01*
G01X29511Y6293D01*
G37*

%LPD*%
G36*
G01X28144Y6291D02*
G01X28078Y6294D01*
G01X28009Y6290D01*
G01X27938Y6280D01*
G01X27870Y6264D01*
G01X27807Y6242D01*
G01X27752Y6214D01*
G01X27659Y6160D01*
G01X27729Y6084D01*
G01X27769Y6045D01*
G01X27802Y6029D01*
G01X27839Y6034D01*
G01X27890Y6057D01*
G01X27955Y6085D01*
G01X28017Y6101D01*
G01X28076Y6106D01*
G01X28128Y6101D01*
G01X28173Y6085D01*
G01X28207Y6060D01*
G01X28230Y6026D01*
G01X28237Y5983D01*
G01X28236Y5953D01*
G01X28229Y5930D01*
G01X28214Y5912D01*
G01X28189Y5897D01*
G01X28150Y5885D01*
G01X28096Y5875D01*
G01X28024Y5864D01*
G01X27930Y5853D01*
G01X27860Y5842D01*
G01X27801Y5822D01*
G01X27753Y5796D01*
G01X27718Y5762D01*
G01X27697Y5730D01*
G01X27680Y5690D01*
G01X27668Y5645D01*
G01X27660Y5596D01*
G01X27657Y5546D01*
G01X27659Y5497D01*
G01X27666Y5449D01*
G01X27678Y5407D01*
G01X27700Y5371D01*
G01X27735Y5339D01*
G01X27780Y5310D01*
G01X27835Y5287D01*
G01X27897Y5268D01*
G01X27964Y5254D01*
G01X28034Y5246D01*
G01X28105Y5244D01*
G01X28176Y5248D01*
G01X28244Y5257D01*
G01X28307Y5274D01*
G01X28364Y5298D01*
G01X28450Y5349D01*
G01X28492Y5393D01*
G01X28494Y5439D01*
G01X28459Y5491D01*
G01X28424Y5527D01*
G01X28392Y5538D01*
G01X28348Y5526D01*
G01X28277Y5489D01*
G01X28199Y5454D01*
G01X28121Y5435D01*
G01X28048Y5428D01*
G01X27983Y5435D01*
G01X27929Y5454D01*
G01X27890Y5485D01*
G01X27868Y5527D01*
G01X27867Y5578D01*
G01X27883Y5612D01*
G01X27919Y5637D01*
G01X27985Y5656D01*
G01X28089Y5672D01*
G01X28177Y5688D01*
G01X28252Y5710D01*
G01X28316Y5738D01*
G01X28367Y5773D01*
G01X28406Y5815D01*
G01X28434Y5864D01*
G01X28451Y5920D01*
G01X28456Y5983D01*
G01X28453Y6031D01*
G01X28444Y6075D01*
G01X28430Y6114D01*
G01X28408Y6150D01*
G01X28381Y6182D01*
G01X28346Y6212D01*
G01X28304Y6239D01*
G01X28254Y6264D01*
G01X28203Y6281D01*
G01X28144Y6291D01*
G37*

%LPD*%
G36*
G01X24329Y6300D02*
G01X24276Y6304D01*
G01X24218Y6296D01*
G01X24139Y6275D01*
G01X24086Y6257D01*
G01X24035Y6233D01*
G01X23991Y6206D01*
G01X23959Y6179D01*
G01X23929Y6143D01*
G01X23921Y6117D01*
G01X23933Y6091D01*
G01X23968Y6057D01*
G01X24003Y6029D01*
G01X24035Y6017D01*
G01X24066Y6019D01*
G01X24103Y6034D01*
G01X24139Y6048D01*
G01X24186Y6060D01*
G01X24239Y6068D01*
G01X24291Y6071D01*
G01X24345Y6067D01*
G01X24392Y6052D01*
G01X24430Y6029D01*
G01X24462Y5996D01*
G01X24486Y5953D01*
G01X24503Y5900D01*
G01X24514Y5837D01*
G01X24517Y5764D01*
G01X24514Y5691D01*
G01X24503Y5628D01*
G01X24486Y5575D01*
G01X24462Y5532D01*
G01X24430Y5499D01*
G01X24392Y5475D01*
G01X24345Y5461D01*
G01X24291Y5456D01*
G01X24239Y5459D01*
G01X24186Y5468D01*
G01X24139Y5479D01*
G01X24103Y5494D01*
G01X24066Y5509D01*
G01X24035Y5510D01*
G01X24003Y5498D01*
G01X23968Y5471D01*
G01X23933Y5437D01*
G01X23921Y5411D01*
G01X23929Y5385D01*
G01X23959Y5349D01*
G01X23992Y5318D01*
G01X24029Y5292D01*
G01X24072Y5272D01*
G01X24117Y5256D01*
G01X24166Y5246D01*
G01X24217Y5241D01*
G01X24271Y5240D01*
G01X24326Y5245D01*
G01X24381Y5255D01*
G01X24437Y5271D01*
G01X24492Y5291D01*
G01X24546Y5317D01*
G01X24587Y5345D01*
G01X24623Y5383D01*
G01X24655Y5430D01*
G01X24682Y5485D01*
G01X24704Y5546D01*
G01X24720Y5614D01*
G01X24729Y5687D01*
G01X24733Y5764D01*
G01X24730Y5831D01*
G01X24723Y5895D01*
G01X24711Y5955D01*
G01X24693Y6011D01*
G01X24672Y6061D01*
G01X24645Y6108D01*
G01X24615Y6150D01*
G01X24579Y6187D01*
G01X24539Y6219D01*
G01X24496Y6247D01*
G01X24448Y6269D01*
G01X24396Y6285D01*
G01X24329Y6300D01*
G37*

%LPD*%
G36*
G01X25848Y6276D02*
G01X25643Y6276D01*
G01X25643Y5252D01*
G01X25746Y5252D01*
G01X25789Y5255D01*
G01X25821Y5264D01*
G01X25841Y5279D01*
G01X25848Y5299D01*
G01X25854Y5319D01*
G01X25874Y5323D01*
G01X25914Y5311D01*
G01X25977Y5282D01*
G01X26046Y5252D01*
G01X26105Y5237D01*
G01X26164Y5239D01*
G01X26233Y5254D01*
G01X26281Y5269D01*
G01X26322Y5287D01*
G01X26358Y5309D01*
G01X26388Y5336D01*
G01X26413Y5369D01*
G01X26434Y5410D01*
G01X26451Y5459D01*
G01X26464Y5518D01*
G01X26474Y5588D01*
G01X26482Y5669D01*
G01X26488Y5764D01*
G01X26492Y5873D01*
G01X26504Y6276D01*
G01X26258Y6276D01*
G01X26258Y5907D01*
G01X26256Y5771D01*
G01X26252Y5665D01*
G01X26243Y5585D01*
G01X26227Y5529D01*
G01X26203Y5491D01*
G01X26169Y5470D01*
G01X26123Y5459D01*
G01X26065Y5456D01*
G01X26024Y5458D01*
G01X25988Y5465D01*
G01X25957Y5477D01*
G01X25931Y5495D01*
G01X25909Y5520D01*
G01X25891Y5552D01*
G01X25877Y5592D01*
G01X25865Y5641D01*
G01X25858Y5700D01*
G01X25852Y5769D01*
G01X25849Y5850D01*
G01X25848Y5942D01*
G01X25848Y6276D01*
G37*

%LPD*%
G36*
G01X27122Y6295D02*
G01X27067Y6295D01*
G01X27012Y6288D01*
G01X26960Y6274D01*
G01X26908Y6255D01*
G01X26860Y6229D01*
G01X26815Y6197D01*
G01X26775Y6159D01*
G01X26740Y6116D01*
G01X26711Y6068D01*
G01X26694Y6018D01*
G01X26681Y5944D01*
G01X26672Y5854D01*
G01X26668Y5760D01*
G01X26671Y5644D01*
G01X26683Y5557D01*
G01X26707Y5486D01*
G01X26746Y5419D01*
G01X26789Y5364D01*
G01X26839Y5319D01*
G01X26895Y5283D01*
G01X26956Y5257D01*
G01X27020Y5242D01*
G01X27087Y5236D01*
G01X27156Y5242D01*
G01X27225Y5259D01*
G01X27294Y5286D01*
G01X27352Y5320D01*
G01X27399Y5361D01*
G01X27438Y5411D01*
G01X27468Y5471D01*
G01X27490Y5542D01*
G01X27505Y5626D01*
G01X27513Y5722D01*
G01X27515Y5790D01*
G01X27513Y5852D01*
G01X27507Y5910D01*
G01X27498Y5964D01*
G01X27485Y6013D01*
G01X27468Y6058D01*
G01X27447Y6099D01*
G01X27423Y6137D01*
G01X27394Y6170D01*
G01X27361Y6201D01*
G01X27323Y6228D01*
G01X27282Y6252D01*
G01X27230Y6274D01*
G01X27176Y6288D01*
G01X27122Y6295D01*
G37*

%LPC*%
G36*
G01X27147Y6066D02*
G01X27094Y6071D01*
G01X27039Y6067D01*
G01X26993Y6053D01*
G01X26956Y6029D01*
G01X26926Y5995D01*
G01X26905Y5953D01*
G01X26888Y5896D01*
G01X26876Y5830D01*
G01X26872Y5764D01*
G01X26876Y5691D01*
G01X26886Y5629D01*
G01X26903Y5576D01*
G01X26927Y5533D01*
G01X26958Y5499D01*
G01X26996Y5476D01*
G01X27042Y5462D01*
G01X27094Y5456D01*
G01X27147Y5462D01*
G01X27192Y5476D01*
G01X27230Y5499D01*
G01X27261Y5533D01*
G01X27285Y5576D01*
G01X27302Y5629D01*
G01X27313Y5691D01*
G01X27316Y5764D01*
G01X27313Y5836D01*
G01X27302Y5899D01*
G01X27285Y5952D01*
G01X27261Y5995D01*
G01X27230Y6028D01*
G01X27192Y6052D01*
G01X27147Y6066D01*
G37*

%LPD*%
G36*
G01X32605Y6302D02*
G01X32566Y6306D01*
G01X32526Y6304D01*
G01X32484Y6296D01*
G01X32437Y6281D01*
G01X32384Y6261D01*
G01X32342Y6241D01*
G01X32304Y6217D01*
G01X32270Y6189D01*
G01X32240Y6158D01*
G01X32213Y6123D01*
G01X32190Y6085D01*
G01X32171Y6042D01*
G01X32155Y5994D01*
G01X32144Y5943D01*
G01X32135Y5886D01*
G01X32130Y5826D01*
G01X32128Y5760D01*
G01X32132Y5644D01*
G01X32144Y5557D01*
G01X32168Y5486D01*
G01X32206Y5419D01*
G01X32250Y5364D01*
G01X32300Y5319D01*
G01X32356Y5283D01*
G01X32416Y5257D01*
G01X32481Y5242D01*
G01X32548Y5236D01*
G01X32616Y5242D01*
G01X32686Y5259D01*
G01X32755Y5286D01*
G01X32812Y5320D01*
G01X32860Y5361D01*
G01X32899Y5411D01*
G01X32929Y5471D01*
G01X32951Y5542D01*
G01X32966Y5626D01*
G01X32974Y5722D01*
G01X32975Y5790D01*
G01X32973Y5853D01*
G01X32968Y5911D01*
G01X32959Y5964D01*
G01X32946Y6014D01*
G01X32929Y6058D01*
G01X32908Y6100D01*
G01X32883Y6137D01*
G01X32854Y6170D01*
G01X32821Y6200D01*
G01X32784Y6227D01*
G01X32743Y6250D01*
G01X32692Y6274D01*
G01X32647Y6291D01*
G01X32605Y6302D01*
G37*

%LPC*%
G36*
G01X32613Y6066D02*
G01X32564Y6071D01*
G01X32518Y6067D01*
G01X32471Y6054D01*
G01X32428Y6037D01*
G01X32395Y6014D01*
G01X32367Y5979D01*
G01X32347Y5931D01*
G01X32336Y5867D01*
G01X32333Y5783D01*
G01X32336Y5704D01*
G01X32346Y5636D01*
G01X32363Y5580D01*
G01X32386Y5535D01*
G01X32417Y5500D01*
G01X32455Y5476D01*
G01X32501Y5462D01*
G01X32555Y5456D01*
G01X32607Y5462D01*
G01X32652Y5476D01*
G01X32690Y5499D01*
G01X32722Y5533D01*
G01X32746Y5576D01*
G01X32763Y5629D01*
G01X32773Y5691D01*
G01X32777Y5764D01*
G01X32773Y5835D01*
G01X32763Y5897D01*
G01X32746Y5949D01*
G01X32723Y5993D01*
G01X32692Y6027D01*
G01X32656Y6051D01*
G01X32613Y6066D01*
G37*

%LPD*%
G36*
G01X23430Y6298D02*
G01X23377Y6298D01*
G01X23324Y6291D01*
G01X23274Y6277D01*
G01X23225Y6257D01*
G01X23180Y6230D01*
G01X23138Y6198D01*
G01X23100Y6161D01*
G01X23066Y6118D01*
G01X23037Y6070D01*
G01X23013Y6018D01*
G01X22996Y5962D01*
G01X22985Y5903D01*
G01X22981Y5840D01*
G01X22981Y5696D01*
G01X23306Y5696D01*
G01X23405Y5695D01*
G01X23482Y5694D01*
G01X23539Y5691D01*
G01X23579Y5685D01*
G01X23606Y5677D01*
G01X23621Y5665D01*
G01X23628Y5650D01*
G01X23630Y5630D01*
G01X23605Y5566D01*
G01X23544Y5498D01*
G01X23467Y5444D01*
G01X23395Y5423D01*
G01X23365Y5427D01*
G01X23326Y5438D01*
G01X23283Y5455D01*
G01X23239Y5475D01*
G01X23183Y5502D01*
G01X23144Y5509D01*
G01X23110Y5494D01*
G01X23069Y5456D01*
G01X23030Y5414D01*
G01X23016Y5387D01*
G01X23028Y5364D01*
G01X23065Y5335D01*
G01X23106Y5309D01*
G01X23154Y5286D01*
G01X23206Y5267D01*
G01X23260Y5252D01*
G01X23316Y5242D01*
G01X23371Y5236D01*
G01X23424Y5236D01*
G01X23472Y5242D01*
G01X23531Y5257D01*
G01X23585Y5276D01*
G01X23634Y5301D01*
G01X23676Y5331D01*
G01X23714Y5366D01*
G01X23746Y5407D01*
G01X23774Y5453D01*
G01X23796Y5505D01*
G01X23813Y5563D01*
G01X23825Y5627D01*
G01X23832Y5696D01*
G01X23835Y5772D01*
G01X23831Y5854D01*
G01X23819Y5931D01*
G01X23799Y6002D01*
G01X23772Y6066D01*
G01X23737Y6123D01*
G01X23696Y6174D01*
G01X23648Y6217D01*
G01X23593Y6251D01*
G01X23539Y6275D01*
G01X23484Y6291D01*
G01X23430Y6298D01*
G37*

%LPC*%
G36*
G01X23446Y6100D02*
G01X23406Y6102D01*
G01X23365Y6094D01*
G01X23327Y6078D01*
G01X23290Y6051D01*
G01X23257Y6015D01*
G01X23229Y5978D01*
G01X23207Y5943D01*
G01X23192Y5914D01*
G01X23186Y5896D01*
G01X23204Y5884D01*
G01X23251Y5875D01*
G01X23322Y5868D01*
G01X23408Y5866D01*
G01X23490Y5868D01*
G01X23553Y5875D01*
G01X23598Y5886D01*
G01X23625Y5903D01*
G01X23634Y5926D01*
G01X23626Y5956D01*
G01X23602Y5992D01*
G01X23562Y6037D01*
G01X23524Y6068D01*
G01X23486Y6089D01*
G01X23446Y6100D01*
G37*

%LPD*%
G36*
G01X30642Y6285D02*
G01X30569Y6293D01*
G01X30478Y6285D01*
G01X30387Y6265D01*
G01X30309Y6235D01*
G01X30271Y6209D01*
G01X30235Y6173D01*
G01X30202Y6128D01*
G01X30173Y6076D01*
G01X30149Y6019D01*
G01X30131Y5960D01*
G01X30119Y5900D01*
G01X30115Y5840D01*
G01X30115Y5696D01*
G01X30439Y5696D01*
G01X30559Y5694D01*
G01X30651Y5688D01*
G01X30715Y5677D01*
G01X30754Y5661D01*
G01X30768Y5636D01*
G01X30759Y5603D01*
G01X30729Y5560D01*
G01X30679Y5506D01*
G01X30642Y5474D01*
G01X30604Y5450D01*
G01X30564Y5434D01*
G01X30524Y5426D01*
G01X30483Y5427D01*
G01X30441Y5436D01*
G01X30400Y5452D01*
G01X30358Y5478D01*
G01X30312Y5507D01*
G01X30279Y5514D01*
G01X30247Y5499D01*
G01X30205Y5459D01*
G01X30164Y5415D01*
G01X30150Y5387D01*
G01X30161Y5364D01*
G01X30199Y5335D01*
G01X30246Y5303D01*
G01X30296Y5278D01*
G01X30347Y5258D01*
G01X30400Y5245D01*
G01X30453Y5237D01*
G01X30505Y5234D01*
G01X30558Y5237D01*
G01X30609Y5246D01*
G01X30659Y5260D01*
G01X30706Y5279D01*
G01X30751Y5302D01*
G01X30792Y5330D01*
G01X30829Y5364D01*
G01X30862Y5402D01*
G01X30890Y5444D01*
G01X30912Y5490D01*
G01X30935Y5554D01*
G01X30951Y5620D01*
G01X30962Y5684D01*
G01X30967Y5748D01*
G01X30966Y5811D01*
G01X30960Y5872D01*
G01X30948Y5932D01*
G01X30932Y5989D01*
G01X30911Y6042D01*
G01X30885Y6092D01*
G01X30854Y6138D01*
G01X30820Y6179D01*
G01X30781Y6214D01*
G01X30739Y6244D01*
G01X30692Y6268D01*
G01X30642Y6285D01*
G37*

%LPC*%
G36*
G01X30584Y6094D02*
G01X30544Y6102D01*
G01X30503Y6100D01*
G01X30463Y6089D01*
G01X30425Y6068D01*
G01X30388Y6037D01*
G01X30347Y5992D01*
G01X30323Y5956D01*
G01X30315Y5926D01*
G01X30325Y5903D01*
G01X30351Y5886D01*
G01X30396Y5875D01*
G01X30459Y5868D01*
G01X30541Y5866D01*
G01X30627Y5868D01*
G01X30698Y5875D01*
G01X30746Y5884D01*
G01X30763Y5896D01*
G01X30757Y5914D01*
G01X30742Y5943D01*
G01X30720Y5978D01*
G01X30692Y6015D01*
G01X30659Y6051D01*
G01X30622Y6078D01*
G01X30584Y6094D01*
G37*

%LPD*%
G36*
G01X25678Y4638D02*
G01X25575Y4638D01*
G01X25530Y4634D01*
G01X25498Y4624D01*
G01X25479Y4608D01*
G01X25473Y4584D01*
G01X25471Y4557D01*
G01X25460Y4548D01*
G01X25438Y4557D01*
G01X25397Y4584D01*
G01X25361Y4604D01*
G01X25316Y4619D01*
G01X25266Y4629D01*
G01X25213Y4635D01*
G01X25160Y4636D01*
G01X25111Y4631D01*
G01X25068Y4622D01*
G01X25034Y4607D01*
G01X25013Y4589D01*
G01X25007Y4567D01*
G01X25018Y4536D01*
G01X25045Y4491D01*
G01X25078Y4447D01*
G01X25113Y4423D01*
G01X25157Y4416D01*
G01X25220Y4423D01*
G01X25278Y4428D01*
G01X25326Y4424D01*
G01X25368Y4408D01*
G01X25406Y4381D01*
G01X25425Y4360D01*
G01X25441Y4337D01*
G01X25453Y4308D01*
G01X25461Y4269D01*
G01X25467Y4219D01*
G01X25471Y4154D01*
G01X25472Y4071D01*
G01X25473Y3966D01*
G01X25473Y3613D01*
G01X25678Y3613D01*
G01X25678Y4638D01*
G37*

%LPD*%
G36*
G01X29910Y4638D02*
G01X29790Y4638D01*
G01X29744Y4634D01*
G01X29706Y4627D01*
G01X29680Y4616D01*
G01X29671Y4602D01*
G01X29667Y4588D01*
G01X29655Y4584D01*
G01X29634Y4588D01*
G01X29605Y4602D01*
G01X29568Y4617D01*
G01X29521Y4627D01*
G01X29468Y4633D01*
G01X29411Y4636D01*
G01X29355Y4634D01*
G01X29304Y4628D01*
G01X29260Y4619D01*
G01X29228Y4605D01*
G01X29205Y4585D01*
G01X29200Y4564D01*
G01X29216Y4535D01*
G01X29253Y4492D01*
G01X29295Y4454D01*
G01X29338Y4432D01*
G01X29387Y4423D01*
G01X29449Y4426D01*
G01X29495Y4430D01*
G01X29535Y4431D01*
G01X29568Y4426D01*
G01X29595Y4416D01*
G01X29617Y4398D01*
G01X29635Y4372D01*
G01X29648Y4337D01*
G01X29658Y4291D01*
G01X29664Y4234D01*
G01X29668Y4165D01*
G01X29670Y4082D01*
G01X29671Y3985D01*
G01X29671Y3613D01*
G01X29910Y3613D01*
G01X29910Y4638D01*
G37*

%LPD*%
G36*
G01X31524Y6293D02*
G01X31467Y6305D01*
G01X31409Y6294D01*
G01X31324Y6260D01*
G01X31271Y6232D01*
G01X31226Y6195D01*
G01X31188Y6149D01*
G01X31157Y6092D01*
G01X31134Y6026D01*
G01X31117Y5950D01*
G01X31107Y5862D01*
G01X31104Y5764D01*
G01X31107Y5664D01*
G01X31118Y5575D01*
G01X31134Y5499D01*
G01X31158Y5433D01*
G01X31189Y5377D01*
G01X31228Y5331D01*
G01X31276Y5294D01*
G01X31331Y5265D01*
G01X31402Y5238D01*
G01X31458Y5229D01*
G01X31514Y5237D01*
G01X31588Y5263D01*
G01X31719Y5315D01*
G01X31719Y4821D01*
G01X31717Y4732D01*
G01X31714Y4667D01*
G01X31709Y4624D01*
G01X31701Y4599D01*
G01X31690Y4590D01*
G01X31674Y4592D01*
G01X31652Y4602D01*
G01X31615Y4617D01*
G01X31569Y4628D01*
G01X31517Y4634D01*
G01X31461Y4636D01*
G01X31407Y4634D01*
G01X31354Y4627D01*
G01X31308Y4616D01*
G01X31270Y4600D01*
G01X31242Y4582D01*
G01X31216Y4559D01*
G01X31194Y4530D01*
G01X31174Y4496D01*
G01X31157Y4455D01*
G01X31142Y4408D01*
G01X31130Y4355D01*
G01X31121Y4294D01*
G01X31113Y4226D01*
G01X31108Y4150D01*
G01X31105Y4066D01*
G01X31104Y3973D01*
G01X31104Y3613D01*
G01X31309Y3613D01*
G01X31310Y3929D01*
G01X31311Y4019D01*
G01X31314Y4098D01*
G01X31319Y4166D01*
G01X31326Y4225D01*
G01X31336Y4274D01*
G01X31350Y4315D01*
G01X31366Y4349D01*
G01X31387Y4375D01*
G01X31411Y4396D01*
G01X31439Y4411D01*
G01X31471Y4421D01*
G01X31508Y4427D01*
G01X31552Y4430D01*
G01X31589Y4429D01*
G01X31621Y4424D01*
G01X31647Y4412D01*
G01X31668Y4394D01*
G01X31684Y4368D01*
G01X31697Y4333D01*
G01X31706Y4288D01*
G01X31712Y4232D01*
G01X31716Y4163D01*
G01X31718Y4081D01*
G01X31719Y3985D01*
G01X31719Y3613D01*
G01X31957Y3613D01*
G01X31957Y6276D01*
G01X31838Y6276D01*
G01X31792Y6273D01*
G01X31754Y6266D01*
G01X31728Y6256D01*
G01X31719Y6243D01*
G01X31710Y6234D01*
G01X31686Y6235D01*
G01X31651Y6243D01*
G01X31608Y6259D01*
G01X31524Y6293D01*
G37*

%LPC*%
G36*
G01X31612Y6062D02*
G01X31523Y6069D01*
G01X31435Y6053D01*
G01X31373Y6015D01*
G01X31354Y5978D01*
G01X31339Y5920D01*
G01X31329Y5847D01*
G01X31326Y5764D01*
G01X31329Y5681D01*
G01X31339Y5608D01*
G01X31354Y5550D01*
G01X31373Y5513D01*
G01X31404Y5487D01*
G01X31443Y5469D01*
G01X31488Y5458D01*
G01X31536Y5456D01*
G01X31583Y5462D01*
G01X31625Y5475D01*
G01X31660Y5495D01*
G01X31683Y5522D01*
G01X31699Y5569D01*
G01X31710Y5633D01*
G01X31716Y5710D01*
G01X31717Y5792D01*
G01X31714Y5871D01*
G01X31706Y5942D01*
G01X31694Y5997D01*
G01X31678Y6030D01*
G01X31612Y6062D01*
G37*

%LPD*%
G36*
G01X26993Y4638D02*
G01X26878Y4638D01*
G01X26823Y4635D01*
G01X26791Y4627D01*
G01X26778Y4611D01*
G01X26782Y4587D01*
G01X26789Y4567D01*
G01X26801Y4531D01*
G01X26817Y4480D01*
G01X26838Y4416D01*
G01X26862Y4341D01*
G01X26888Y4258D01*
G01X26916Y4169D01*
G01X26945Y4075D01*
G01X26992Y3926D01*
G01X27029Y3813D01*
G01X27058Y3731D01*
G01X27083Y3675D01*
G01X27105Y3641D01*
G01X27128Y3622D01*
G01X27155Y3615D01*
G01X27187Y3613D01*
G01X27225Y3617D01*
G01X27259Y3626D01*
G01X27285Y3640D01*
G01X27298Y3656D01*
G01X27312Y3698D01*
G01X27337Y3780D01*
G01X27371Y3890D01*
G01X27409Y4017D01*
G01X27506Y4335D01*
G01X27608Y3983D01*
G01X27641Y3870D01*
G01X27668Y3784D01*
G01X27691Y3722D01*
G01X27710Y3678D01*
G01X27731Y3650D01*
G01X27753Y3633D01*
G01X27780Y3625D01*
G01X27813Y3621D01*
G01X27916Y3610D01*
G01X28058Y4067D01*
G01X28087Y4160D01*
G01X28115Y4248D01*
G01X28142Y4331D01*
G01X28165Y4406D01*
G01X28186Y4470D01*
G01X28203Y4522D01*
G01X28215Y4559D01*
G01X28222Y4580D01*
G01X28229Y4609D01*
G01X28218Y4626D01*
G01X28186Y4635D01*
G01X28129Y4638D01*
G01X28014Y4638D01*
G01X27933Y4322D01*
G01X27900Y4196D01*
G01X27869Y4086D01*
G01X27845Y4004D01*
G01X27829Y3961D01*
G01X27822Y3959D01*
G01X27811Y3972D01*
G01X27797Y3996D01*
G01X27780Y4034D01*
G01X27762Y4081D01*
G01X27740Y4138D01*
G01X27719Y4204D01*
G01X27695Y4277D01*
G01X27661Y4387D01*
G01X27633Y4472D01*
G01X27609Y4535D01*
G01X27589Y4580D01*
G01X27570Y4610D01*
G01X27549Y4627D01*
G01X27528Y4636D01*
G01X27502Y4638D01*
G01X27476Y4636D01*
G01X27454Y4627D01*
G01X27434Y4610D01*
G01X27415Y4581D01*
G01X27394Y4536D01*
G01X27371Y4472D01*
G01X27343Y4388D01*
G01X27310Y4279D01*
G01X27287Y4208D01*
G01X27265Y4143D01*
G01X27244Y4086D01*
G01X27225Y4038D01*
G01X27208Y4001D01*
G01X27195Y3975D01*
G01X27184Y3962D01*
G01X27178Y3963D01*
G01X27162Y4005D01*
G01X27138Y4086D01*
G01X27107Y4196D01*
G01X27074Y4322D01*
G01X26993Y4638D01*
G37*

%LPD*%
G36*
G01X24631Y4630D02*
G01X24564Y4637D01*
G01X24497Y4636D01*
G01X24430Y4625D01*
G01X24367Y4607D01*
G01X24310Y4579D01*
G01X24267Y4549D01*
G01X24228Y4511D01*
G01X24193Y4466D01*
G01X24164Y4416D01*
G01X24140Y4361D01*
G01X24122Y4302D01*
G01X24111Y4242D01*
G01X24108Y4180D01*
G01X24108Y4057D01*
G01X24532Y4057D01*
G01X24610Y4055D01*
G01X24667Y4052D01*
G01X24707Y4047D01*
G01X24733Y4039D01*
G01X24748Y4026D01*
G01X24754Y4010D01*
G01X24756Y3989D01*
G01X24745Y3929D01*
G01X24716Y3879D01*
G01X24671Y3838D01*
G01X24615Y3808D01*
G01X24552Y3792D01*
G01X24485Y3790D01*
G01X24419Y3803D01*
G01X24358Y3835D01*
G01X24316Y3860D01*
G01X24284Y3867D01*
G01X24250Y3853D01*
G01X24205Y3818D01*
G01X24160Y3778D01*
G01X24144Y3752D01*
G01X24155Y3729D01*
G01X24192Y3698D01*
G01X24250Y3660D01*
G01X24310Y3630D01*
G01X24373Y3608D01*
G01X24438Y3595D01*
G01X24502Y3591D01*
G01X24567Y3594D01*
G01X24629Y3606D01*
G01X24689Y3626D01*
G01X24745Y3653D01*
G01X24797Y3688D01*
G01X24843Y3731D01*
G01X24883Y3781D01*
G01X24920Y3846D01*
G01X24944Y3915D01*
G01X24957Y3995D01*
G01X24961Y4094D01*
G01X24959Y4180D01*
G01X24952Y4256D01*
G01X24941Y4323D01*
G01X24925Y4382D01*
G01X24902Y4434D01*
G01X24874Y4480D01*
G01X24839Y4522D01*
G01X24798Y4560D01*
G01X24750Y4592D01*
G01X24693Y4615D01*
G01X24631Y4630D01*
G37*

%LPC*%
G36*
G01X24650Y4430D02*
G01X24579Y4458D01*
G01X24503Y4454D01*
G01X24427Y4417D01*
G01X24397Y4392D01*
G01X24371Y4361D01*
G01X24349Y4328D01*
G01X24337Y4297D01*
G01X24333Y4259D01*
G01X24355Y4238D01*
G01X24418Y4230D01*
G01X24537Y4228D01*
G01X24614Y4230D01*
G01X24674Y4235D01*
G01X24717Y4243D01*
G01X24745Y4257D01*
G01X24757Y4276D01*
G01X24756Y4301D01*
G01X24741Y4333D01*
G01X24714Y4371D01*
G01X24650Y4430D01*
G37*

%LPD*%
G36*
G01X28579Y5047D02*
G01X28340Y5047D01*
G01X28340Y3613D01*
G01X28459Y3613D01*
G01X28505Y3616D01*
G01X28544Y3623D01*
G01X28569Y3633D01*
G01X28579Y3645D01*
G01X28587Y3653D01*
G01X28610Y3652D01*
G01X28644Y3641D01*
G01X28686Y3623D01*
G01X28742Y3600D01*
G01X28796Y3588D01*
G01X28851Y3589D01*
G01X28913Y3600D01*
G01X28973Y3621D01*
G01X29025Y3649D01*
G01X29069Y3688D01*
G01X29107Y3735D01*
G01X29137Y3791D01*
G01X29160Y3858D01*
G01X29176Y3934D01*
G01X29186Y4021D01*
G01X29191Y4099D01*
G01X29191Y4171D01*
G01X29189Y4237D01*
G01X29183Y4298D01*
G01X29174Y4354D01*
G01X29162Y4404D01*
G01X29145Y4450D01*
G01X29126Y4490D01*
G01X29103Y4525D01*
G01X29076Y4555D01*
G01X29046Y4581D01*
G01X29012Y4601D01*
G01X28974Y4617D01*
G01X28933Y4628D01*
G01X28887Y4636D01*
G01X28838Y4638D01*
G01X28777Y4635D01*
G01X28724Y4627D01*
G01X28684Y4617D01*
G01X28664Y4604D01*
G01X28645Y4578D01*
G01X28628Y4567D01*
G01X28613Y4572D01*
G01X28601Y4591D01*
G01X28591Y4624D01*
G01X28584Y4672D01*
G01X28580Y4733D01*
G01X28579Y4808D01*
G01X28579Y5047D01*
G37*

%LPC*%
G36*
G01X28807Y4431D02*
G01X28759Y4433D01*
G01X28713Y4427D01*
G01X28671Y4414D01*
G01X28637Y4394D01*
G01X28614Y4367D01*
G01X28600Y4325D01*
G01X28589Y4260D01*
G01X28582Y4180D01*
G01X28579Y4094D01*
G01X28582Y3983D01*
G01X28593Y3913D01*
G01X28619Y3868D01*
G01X28665Y3831D01*
G01X28708Y3810D01*
G01X28750Y3799D01*
G01X28792Y3800D01*
G01X28833Y3810D01*
G01X28871Y3830D01*
G01X28905Y3860D01*
G01X28935Y3899D01*
G01X28958Y3946D01*
G01X28971Y3994D01*
G01X28978Y4051D01*
G01X28980Y4114D01*
G01X28977Y4179D01*
G01X28970Y4242D01*
G01X28957Y4299D01*
G01X28940Y4347D01*
G01X28920Y4382D01*
G01X28890Y4406D01*
G01X28852Y4423D01*
G01X28807Y4431D01*
G37*

%LPD*%
G36*
G01X30592Y4643D02*
G01X30532Y4643D01*
G01X30472Y4639D01*
G01X30413Y4631D01*
G01X30358Y4618D01*
G01X30308Y4601D01*
G01X30264Y4580D01*
G01X30228Y4555D01*
G01X30196Y4527D01*
G01X30173Y4500D01*
G01X30155Y4469D01*
G01X30143Y4427D01*
G01X30134Y4369D01*
G01X30128Y4290D01*
G01X30124Y4183D01*
G01X30120Y4043D01*
G01X30109Y3613D01*
G01X30214Y3613D01*
G01X30255Y3616D01*
G01X30288Y3623D01*
G01X30311Y3633D01*
G01X30319Y3646D01*
G01X30327Y3655D01*
G01X30347Y3654D01*
G01X30377Y3645D01*
G01X30413Y3629D01*
G01X30483Y3601D01*
G01X30556Y3587D01*
G01X30630Y3586D01*
G01X30702Y3597D01*
G01X30770Y3620D01*
G01X30830Y3654D01*
G01X30880Y3698D01*
G01X30917Y3752D01*
G01X30953Y3834D01*
G01X30965Y3904D01*
G01X30952Y3975D01*
G01X30916Y4057D01*
G01X30890Y4097D01*
G01X30855Y4131D01*
G01X30811Y4160D01*
G01X30758Y4184D01*
G01X30697Y4203D01*
G01X30627Y4216D01*
G01X30550Y4225D01*
G01X30464Y4228D01*
G01X30391Y4231D01*
G01X30346Y4240D01*
G01X30325Y4261D01*
G01X30319Y4294D01*
G01X30340Y4354D01*
G01X30393Y4410D01*
G01X30464Y4451D01*
G01X30541Y4467D01*
G01X30573Y4463D01*
G01X30611Y4453D01*
G01X30647Y4438D01*
G01X30679Y4419D01*
G01X30718Y4396D01*
G01X30750Y4391D01*
G01X30785Y4405D01*
G01X30832Y4440D01*
G01X30915Y4508D01*
G01X30836Y4573D01*
G01X30800Y4596D01*
G01X30756Y4614D01*
G01X30706Y4628D01*
G01X30650Y4638D01*
G01X30592Y4643D01*
G37*

%LPC*%
G36*
G01X30573Y4043D02*
G01X30456Y4046D01*
G01X30391Y4040D01*
G01X30356Y4025D01*
G01X30343Y3995D01*
G01X30343Y3941D01*
G01X30358Y3867D01*
G01X30393Y3819D01*
G01X30453Y3793D01*
G01X30543Y3785D01*
G01X30634Y3797D01*
G01X30706Y3830D01*
G01X30750Y3879D01*
G01X30758Y3939D01*
G01X30729Y3988D01*
G01X30666Y4023D01*
G01X30573Y4043D01*
G37*

%LPD*%
G36*
G01X26407Y4631D02*
G01X26329Y4634D01*
G01X26252Y4632D01*
G01X26181Y4625D01*
G01X26121Y4614D01*
G01X26077Y4598D01*
G01X26044Y4579D01*
G01X26015Y4560D01*
G01X25992Y4538D01*
G01X25973Y4514D01*
G01X25957Y4485D01*
G01X25944Y4450D01*
G01X25934Y4407D01*
G01X25928Y4355D01*
G01X25923Y4293D01*
G01X25920Y4219D01*
G01X25918Y4133D01*
G01X25918Y4031D01*
G01X25917Y3613D01*
G01X26019Y3613D01*
G01X26059Y3616D01*
G01X26091Y3624D01*
G01X26113Y3635D01*
G01X26121Y3648D01*
G01X26128Y3658D01*
G01X26147Y3657D01*
G01X26174Y3646D01*
G01X26207Y3627D01*
G01X26258Y3602D01*
G01X26316Y3588D01*
G01X26378Y3583D01*
G01X26442Y3589D01*
G01X26504Y3603D01*
G01X26563Y3627D01*
G01X26616Y3659D01*
G01X26659Y3699D01*
G01X26694Y3749D01*
G01X26718Y3803D01*
G01X26733Y3860D01*
G01X26737Y3919D01*
G01X26731Y3976D01*
G01X26715Y4031D01*
G01X26689Y4080D01*
G01X26653Y4123D01*
G01X26602Y4162D01*
G01X26539Y4188D01*
G01X26456Y4207D01*
G01X26344Y4219D01*
G01X26217Y4232D01*
G01X26150Y4247D01*
G01X26127Y4275D01*
G01X26128Y4324D01*
G01X26140Y4365D01*
G01X26163Y4399D01*
G01X26195Y4426D01*
G01X26236Y4445D01*
G01X26284Y4456D01*
G01X26337Y4458D01*
G01X26394Y4451D01*
G01X26453Y4435D01*
G01X26512Y4417D01*
G01X26555Y4410D01*
G01X26588Y4416D01*
G01X26618Y4434D01*
G01X26656Y4479D01*
G01X26664Y4521D01*
G01X26642Y4561D01*
G01X26591Y4596D01*
G01X26543Y4612D01*
G01X26480Y4624D01*
G01X26407Y4631D01*
G37*

%LPC*%
G36*
G01X26232Y4053D02*
G01X26173Y4053D01*
G01X26140Y4041D01*
G01X26124Y4013D01*
G01X26121Y3962D01*
G01X26133Y3880D01*
G01X26169Y3825D01*
G01X26234Y3794D01*
G01X26331Y3784D01*
G01X26417Y3796D01*
G01X26492Y3826D01*
G01X26545Y3869D01*
G01X26565Y3919D01*
G01X26559Y3945D01*
G01X26540Y3969D01*
G01X26511Y3991D01*
G01X26471Y4010D01*
G01X26423Y4026D01*
G01X26366Y4040D01*
G01X26302Y4048D01*
G01X26232Y4053D01*
G37*

%LPD*%
G36*
G01X27919Y52961D02*
G01X27917Y52962D01*
G01X27915Y52961D01*
G01X27910Y52957D01*
G01X27904Y52953D01*
G01X27896Y52947D01*
G01X27887Y52938D01*
G01X27875Y52929D01*
G01X27862Y52917D01*
G01X27848Y52903D01*
G01X27832Y52888D01*
G01X27814Y52872D01*
G01X27794Y52853D01*
G01X27773Y52834D01*
G01X27751Y52812D01*
G01X27727Y52789D01*
G01X27702Y52764D01*
G01X27675Y52739D01*
G01X27617Y52683D01*
G01X27586Y52652D01*
G01X27553Y52621D01*
G01X27520Y52588D01*
G01X27485Y52554D01*
G01X27412Y52481D01*
G01X27373Y52443D01*
G01X27333Y52404D01*
G01X27292Y52364D01*
G01X27251Y52322D01*
G01X27207Y52280D01*
G01X27163Y52237D01*
G01X26977Y52051D01*
G01X26928Y52003D01*
G01X26878Y51953D01*
G01X26827Y51903D01*
G01X26776Y51851D01*
G01X26451Y51526D01*
G01X26394Y51470D01*
G01X26337Y51413D01*
G01X26221Y51296D01*
G01X26043Y51118D01*
G01X25922Y50996D01*
G01X25860Y50934D01*
G01X25799Y50872D01*
G01X25675Y50748D01*
G01X25550Y50622D01*
G01X25487Y50558D01*
G01X25296Y50367D01*
G01X25233Y50302D01*
G01X25169Y50238D01*
G01X25041Y50109D01*
G01X24978Y50045D01*
G01X24850Y49916D01*
G01X24723Y49787D01*
G01X24659Y49723D01*
G01X24596Y49658D01*
G01X24533Y49594D01*
G01X24470Y49531D01*
G01X24407Y49467D01*
G01X24344Y49404D01*
G01X24282Y49340D01*
G01X24220Y49278D01*
G01X24158Y49215D01*
G01X24097Y49153D01*
G01X24037Y49091D01*
G01X23976Y49030D01*
G01X23916Y48969D01*
G01X23857Y48908D01*
G01X23798Y48848D01*
G01X23739Y48789D01*
G01X23681Y48730D01*
G01X23625Y48671D01*
G01X23568Y48614D01*
G01X23512Y48556D01*
G01X23456Y48500D01*
G01X23402Y48444D01*
G01X23348Y48389D01*
G01X23242Y48281D01*
G01X23191Y48228D01*
G01X23140Y48176D01*
G01X23090Y48125D01*
G01X23041Y48075D01*
G01X22993Y48025D01*
G01X22946Y47977D01*
G01X22900Y47929D01*
G01X22854Y47883D01*
G01X22810Y47837D01*
G01X22767Y47793D01*
G01X22725Y47749D01*
G01X22684Y47707D01*
G01X22644Y47666D01*
G01X22568Y47586D01*
G01X22532Y47549D01*
G01X22497Y47512D01*
G01X22463Y47477D01*
G01X22431Y47443D01*
G01X22399Y47411D01*
G01X22370Y47380D01*
G01X22341Y47350D01*
G01X22314Y47321D01*
G01X22289Y47294D01*
G01X22265Y47268D01*
G01X22242Y47244D01*
G01X22221Y47222D01*
G01X22202Y47200D01*
G01X22183Y47181D01*
G01X22167Y47163D01*
G01X22152Y47146D01*
G01X22139Y47132D01*
G01X22128Y47119D01*
G01X22118Y47107D01*
G01X22110Y47098D01*
G01X22069Y47047D01*
G01X22029Y46997D01*
G01X21989Y46945D01*
G01X21950Y46895D01*
G01X21872Y46792D01*
G01X21835Y46741D01*
G01X21761Y46637D01*
G01X21725Y46585D01*
G01X21690Y46533D01*
G01X21655Y46480D01*
G01X21620Y46428D01*
G01X21552Y46322D01*
G01X21519Y46269D01*
G01X21487Y46215D01*
G01X21455Y46162D01*
G01X21362Y46000D01*
G01X21332Y45946D01*
G01X21275Y45836D01*
G01X21246Y45780D01*
G01X21218Y45725D01*
G01X21137Y45557D01*
G01X21111Y45501D01*
G01X21061Y45387D01*
G01X21037Y45329D01*
G01X21013Y45272D01*
G01X20989Y45214D01*
G01X20966Y45156D01*
G01X20944Y45097D01*
G01X20921Y45039D01*
G01X20879Y44920D01*
G01X20858Y44860D01*
G01X20818Y44740D01*
G01X20780Y44618D01*
G01X20744Y44495D01*
G01X20726Y44432D01*
G01X20710Y44370D01*
G01X20693Y44307D01*
G01X20677Y44244D01*
G01X20661Y44180D01*
G01X20631Y44052D01*
G01X20602Y43922D01*
G01X20563Y43724D01*
G01X20551Y43657D01*
G01X20539Y43589D01*
G01X20528Y43522D01*
G01X20517Y43454D01*
G01X20506Y43385D01*
G01X20496Y43315D01*
G01X20487Y43246D01*
G01X20477Y43178D01*
G01X20469Y43112D01*
G01X20461Y43047D01*
G01X20454Y42984D01*
G01X20448Y42921D01*
G01X20442Y42860D01*
G01X20437Y42800D01*
G01X20429Y42680D01*
G01X20426Y42621D01*
G01X20422Y42505D01*
G01X20421Y42446D01*
G01X20421Y42389D01*
G01X20422Y42331D01*
G01X20424Y42213D01*
G01X20427Y42154D01*
G01X20433Y42034D01*
G01X20438Y41973D01*
G01X20443Y41911D01*
G01X20449Y41848D01*
G01X20455Y41784D01*
G01X20462Y41718D01*
G01X20470Y41651D01*
G01X20479Y41583D01*
G01X20488Y41513D01*
G01X20498Y41441D01*
G01X20508Y41367D01*
G01X20518Y41303D01*
G01X20538Y41176D01*
G01X20549Y41114D01*
G01X20560Y41051D01*
G01X20571Y40990D01*
G01X20583Y40928D01*
G01X20595Y40867D01*
G01X20621Y40745D01*
G01X20648Y40625D01*
G01X20662Y40566D01*
G01X20692Y40448D01*
G01X20723Y40332D01*
G01X20740Y40274D01*
G01X20756Y40216D01*
G01X20774Y40159D01*
G01X20809Y40046D01*
G01X20828Y39989D01*
G01X20847Y39933D01*
G01X20866Y39878D01*
G01X20906Y39766D01*
G01X20948Y39656D01*
G01X20970Y39601D01*
G01X20992Y39547D01*
G01X21038Y39438D01*
G01X21086Y39330D01*
G01X21110Y39277D01*
G01X21135Y39223D01*
G01X21161Y39169D01*
G01X21187Y39116D01*
G01X21241Y39009D01*
G01X21268Y38956D01*
G01X21296Y38903D01*
G01X21354Y38797D01*
G01X21383Y38745D01*
G01X21444Y38640D01*
G01X21475Y38587D01*
G01X21507Y38534D01*
G01X21540Y38482D01*
G01X21572Y38429D01*
G01X21640Y38325D01*
G01X21674Y38272D01*
G01X21709Y38219D01*
G01X21745Y38167D01*
G01X21781Y38114D01*
G01X21818Y38061D01*
G01X21855Y38009D01*
G01X21891Y37958D01*
G01X21928Y37907D01*
G01X21965Y37858D01*
G01X22003Y37808D01*
G01X22079Y37710D01*
G01X22118Y37661D01*
G01X22157Y37613D01*
G01X22197Y37565D01*
G01X22237Y37518D01*
G01X22278Y37471D01*
G01X22318Y37424D01*
G01X22360Y37378D01*
G01X22401Y37331D01*
G01X22443Y37286D01*
G01X22486Y37240D01*
G01X22528Y37196D01*
G01X22571Y37151D01*
G01X22659Y37063D01*
G01X22747Y36977D01*
G01X22792Y36934D01*
G01X22838Y36892D01*
G01X22883Y36850D01*
G01X22929Y36809D01*
G01X23023Y36726D01*
G01X23069Y36686D01*
G01X23165Y36606D01*
G01X23213Y36567D01*
G01X23310Y36490D01*
G01X23359Y36453D01*
G01X23409Y36415D01*
G01X23508Y36341D01*
G01X23559Y36305D01*
G01X23609Y36269D01*
G01X23661Y36233D01*
G01X23712Y36198D01*
G01X23764Y36163D01*
G01X23868Y36095D01*
G01X23921Y36061D01*
G01X24027Y35995D01*
G01X24135Y35931D01*
G01X24243Y35869D01*
G01X24298Y35838D01*
G01X24408Y35778D01*
G01X24520Y35721D01*
G01X24576Y35692D01*
G01X24633Y35664D01*
G01X24689Y35637D01*
G01X24747Y35609D01*
G01X24862Y35556D01*
G01X24919Y35531D01*
G01X24977Y35505D01*
G01X25036Y35480D01*
G01X25213Y35408D01*
G01X25272Y35385D01*
G01X25332Y35362D01*
G01X25392Y35341D01*
G01X25452Y35319D01*
G01X25513Y35297D01*
G01X25573Y35277D01*
G01X25695Y35236D01*
G01X25881Y35179D01*
G01X26005Y35143D01*
G01X26068Y35126D01*
G01X26130Y35109D01*
G01X26256Y35077D01*
G01X26320Y35062D01*
G01X26383Y35047D01*
G01X26429Y35038D01*
G01X26476Y35029D01*
G01X26526Y35019D01*
G01X26578Y35011D01*
G01X26632Y35003D01*
G01X26688Y34995D01*
G01X26746Y34988D01*
G01X26806Y34981D01*
G01X26867Y34974D01*
G01X26930Y34968D01*
G01X26994Y34963D01*
G01X27060Y34958D01*
G01X27127Y34953D01*
G01X27195Y34948D01*
G01X27264Y34944D01*
G01X27333Y34941D01*
G01X27405Y34938D01*
G01X27476Y34935D01*
G01X27548Y34933D01*
G01X27621Y34931D01*
G01X27767Y34929D01*
G01X27841Y34928D01*
G01X27989Y34928D01*
G01X28062Y34929D01*
G01X28136Y34930D01*
G01X28209Y34931D01*
G01X28281Y34933D01*
G01X28354Y34935D01*
G01X28496Y34941D01*
G01X28566Y34944D01*
G01X28635Y34948D01*
G01X28703Y34953D01*
G01X28770Y34958D01*
G01X28836Y34963D01*
G01X28900Y34968D01*
G01X28963Y34974D01*
G01X29024Y34981D01*
G01X29084Y34988D01*
G01X29141Y34995D01*
G01X29198Y35003D01*
G01X29252Y35011D01*
G01X29303Y35019D01*
G01X29353Y35029D01*
G01X29401Y35038D01*
G01X29446Y35047D01*
G01X29510Y35062D01*
G01X29573Y35077D01*
G01X29699Y35109D01*
G01X29762Y35126D01*
G01X29824Y35143D01*
G01X30010Y35197D01*
G01X30133Y35236D01*
G01X30194Y35256D01*
G01X30255Y35277D01*
G01X30315Y35297D01*
G01X30376Y35319D01*
G01X30496Y35362D01*
G01X30556Y35385D01*
G01X30615Y35409D01*
G01X30674Y35432D01*
G01X30733Y35456D01*
G01X30850Y35506D01*
G01X30908Y35531D01*
G01X30966Y35557D01*
G01X31080Y35610D01*
G01X31138Y35637D01*
G01X31194Y35665D01*
G01X31251Y35693D01*
G01X31307Y35721D01*
G01X31419Y35779D01*
G01X31529Y35839D01*
G01X31584Y35870D01*
G01X31638Y35901D01*
G01X31693Y35933D01*
G01X31800Y35997D01*
G01X31854Y36030D01*
G01X31906Y36063D01*
G01X31959Y36096D01*
G01X32012Y36130D01*
G01X32063Y36165D01*
G01X32167Y36235D01*
G01X32319Y36343D01*
G01X32370Y36380D01*
G01X32420Y36418D01*
G01X32567Y36532D01*
G01X32616Y36571D01*
G01X32664Y36611D01*
G01X32712Y36650D01*
G01X32759Y36690D01*
G01X32807Y36730D01*
G01X32900Y36813D01*
G01X32946Y36854D01*
G01X32992Y36897D01*
G01X33037Y36939D01*
G01X33127Y37025D01*
G01X33171Y37068D01*
G01X33216Y37112D01*
G01X33259Y37157D01*
G01X33302Y37201D01*
G01X33346Y37247D01*
G01X33388Y37292D01*
G01X33472Y37384D01*
G01X33554Y37477D01*
G01X33595Y37524D01*
G01X33636Y37572D01*
G01X33715Y37669D01*
G01X33754Y37717D01*
G01X33793Y37766D01*
G01X33869Y37866D01*
G01X33906Y37916D01*
G01X33944Y37966D01*
G01X33980Y38017D01*
G01X34017Y38069D01*
G01X34052Y38120D01*
G01X34088Y38172D01*
G01X34123Y38224D01*
G01X34161Y38282D01*
G01X34200Y38341D01*
G01X34237Y38399D01*
G01X34309Y38515D01*
G01X34344Y38572D01*
G01X34412Y38687D01*
G01X34445Y38744D01*
G01X34509Y38858D01*
G01X34540Y38915D01*
G01X34600Y39029D01*
G01X34629Y39086D01*
G01X34658Y39142D01*
G01X34686Y39199D01*
G01X34713Y39256D01*
G01X34740Y39314D01*
G01X34765Y39371D01*
G01X34791Y39428D01*
G01X34816Y39486D01*
G01X34840Y39543D01*
G01X34864Y39601D01*
G01X34886Y39659D01*
G01X34909Y39717D01*
G01X34931Y39776D01*
G01X34952Y39834D01*
G01X34973Y39893D01*
G01X34994Y39953D01*
G01X35013Y40012D01*
G01X35033Y40072D01*
G01X35052Y40133D01*
G01X35070Y40193D01*
G01X35088Y40254D01*
G01X35105Y40315D01*
G01X35122Y40377D01*
G01X35138Y40439D01*
G01X35154Y40502D01*
G01X35185Y40629D01*
G01X35213Y40758D01*
G01X35227Y40823D01*
G01X35253Y40955D01*
G01X35265Y41023D01*
G01X35278Y41090D01*
G01X35311Y41297D01*
G01X35322Y41367D01*
G01X35332Y41441D01*
G01X35342Y41513D01*
G01X35351Y41583D01*
G01X35359Y41651D01*
G01X35367Y41718D01*
G01X35375Y41784D01*
G01X35381Y41848D01*
G01X35387Y41911D01*
G01X35392Y41973D01*
G01X35396Y42034D01*
G01X35400Y42094D01*
G01X35403Y42154D01*
G01X35406Y42213D01*
G01X35408Y42331D01*
G01X35409Y42389D01*
G01X35409Y42446D01*
G01X35408Y42505D01*
G01X35404Y42621D01*
G01X35400Y42680D01*
G01X35397Y42740D01*
G01X35387Y42860D01*
G01X35382Y42921D01*
G01X35376Y42984D01*
G01X35368Y43047D01*
G01X35361Y43112D01*
G01X35352Y43178D01*
G01X35343Y43246D01*
G01X35333Y43315D01*
G01X35323Y43385D01*
G01X35303Y43514D01*
G01X35281Y43642D01*
G01X35269Y43706D01*
G01X35245Y43832D01*
G01X35232Y43894D01*
G01X35219Y43957D01*
G01X35205Y44019D01*
G01X35191Y44080D01*
G01X35176Y44142D01*
G01X35162Y44203D01*
G01X35146Y44263D01*
G01X35131Y44324D01*
G01X35114Y44384D01*
G01X35098Y44444D01*
G01X35064Y44562D01*
G01X35046Y44622D01*
G01X35028Y44680D01*
G01X35009Y44739D01*
G01X34990Y44796D01*
G01X34950Y44912D01*
G01X34930Y44969D01*
G01X34909Y45027D01*
G01X34888Y45083D01*
G01X34866Y45140D01*
G01X34822Y45252D01*
G01X34799Y45308D01*
G01X34727Y45473D01*
G01X34678Y45582D01*
G01X34626Y45690D01*
G01X34599Y45744D01*
G01X34572Y45797D01*
G01X34546Y45850D01*
G01X34490Y45956D01*
G01X34432Y46060D01*
G01X34342Y46216D01*
G01X34280Y46318D01*
G01X34216Y46420D01*
G01X34117Y46570D01*
G01X34083Y46619D01*
G01X34048Y46669D01*
G01X33978Y46767D01*
G01X33906Y46865D01*
G01X33869Y46913D01*
G01X33832Y46962D01*
G01X33824Y46971D01*
G01X33815Y46983D01*
G01X33804Y46996D01*
G01X33792Y47010D01*
G01X33778Y47025D01*
G01X33764Y47042D01*
G01X33748Y47060D01*
G01X33730Y47079D01*
G01X33712Y47100D01*
G01X33692Y47122D01*
G01X33671Y47145D01*
G01X33648Y47169D01*
G01X33625Y47195D01*
G01X33600Y47222D01*
G01X33574Y47250D01*
G01X33547Y47279D01*
G01X33519Y47309D01*
G01X33490Y47340D01*
G01X33459Y47372D01*
G01X33428Y47406D01*
G01X33395Y47440D01*
G01X33362Y47475D01*
G01X33292Y47549D01*
G01X33218Y47627D01*
G01X33179Y47668D01*
G01X33139Y47709D01*
G01X33099Y47751D01*
G01X33058Y47794D01*
G01X33015Y47838D01*
G01X32929Y47928D01*
G01X32884Y47975D01*
G01X32838Y48022D01*
G01X32792Y48070D01*
G01X32745Y48119D01*
G01X32696Y48168D01*
G01X32648Y48218D01*
G01X32598Y48269D01*
G01X32548Y48321D01*
G01X32497Y48373D01*
G01X32446Y48426D01*
G01X32394Y48479D01*
G01X32341Y48534D01*
G01X32233Y48644D01*
G01X32179Y48700D01*
G01X32123Y48756D01*
G01X32068Y48814D01*
G01X32011Y48871D01*
G01X31897Y48987D01*
G01X31839Y49046D01*
G01X31780Y49106D01*
G01X31722Y49166D01*
G01X31663Y49226D01*
G01X31603Y49286D01*
G01X31543Y49347D01*
G01X31422Y49470D01*
G01X31360Y49532D01*
G01X31299Y49595D01*
G01X31112Y49782D01*
G01X31050Y49846D01*
G01X30987Y49909D01*
G01X30924Y49973D01*
G01X30861Y50036D01*
G01X30734Y50165D01*
G01X30450Y50449D01*
G01X30380Y50520D01*
G01X30039Y50861D01*
G01X29973Y50928D01*
G01X29907Y50994D01*
G01X29841Y51059D01*
G01X29777Y51124D01*
G01X29347Y51554D01*
G01X29288Y51612D01*
G01X29119Y51781D01*
G01X29064Y51835D01*
G01X29011Y51889D01*
G01X28958Y51941D01*
G01X28807Y52092D01*
G01X28758Y52140D01*
G01X28711Y52187D01*
G01X28664Y52233D01*
G01X28620Y52277D01*
G01X28576Y52320D01*
G01X28492Y52404D01*
G01X28412Y52482D01*
G01X28339Y52555D01*
G01X28304Y52589D01*
G01X28270Y52623D01*
G01X28238Y52654D01*
G01X28207Y52685D01*
G01X28177Y52713D01*
G01X28149Y52741D01*
G01X28123Y52766D01*
G01X28075Y52814D01*
G01X28052Y52835D01*
G01X28032Y52855D01*
G01X28013Y52873D01*
G01X27996Y52889D01*
G01X27980Y52904D01*
G01X27966Y52917D01*
G01X27944Y52939D01*
G01X27935Y52947D01*
G01X27927Y52953D01*
G01X27922Y52957D01*
G01X27919Y52961D01*
G37*

%LPC*%
G36*
G01X24456Y41631D02*
G01X24382Y41631D01*
G01X24308Y41628D01*
G01X24229Y41623D01*
G01X24155Y41617D01*
G01X24084Y41609D01*
G01X24017Y41600D01*
G01X23953Y41588D01*
G01X23892Y41575D01*
G01X23833Y41560D01*
G01X23775Y41543D01*
G01X23720Y41523D01*
G01X23665Y41502D01*
G01X23611Y41478D01*
G01X23557Y41452D01*
G01X23468Y41405D01*
G01X23398Y41363D01*
G01X23345Y41324D01*
G01X23305Y41286D01*
G01X23278Y41244D01*
G01X23259Y41195D01*
G01X23247Y41137D01*
G01X23239Y41067D01*
G01X23235Y41007D01*
G01X23236Y40955D01*
G01X23241Y40914D01*
G01X23250Y40882D01*
G01X23264Y40859D01*
G01X23283Y40846D01*
G01X23308Y40842D01*
G01X23340Y40846D01*
G01X23377Y40860D01*
G01X23421Y40882D01*
G01X23472Y40913D01*
G01X23530Y40952D01*
G01X23583Y40986D01*
G01X23637Y41018D01*
G01X23692Y41048D01*
G01X23749Y41076D01*
G01X23807Y41100D01*
G01X23866Y41123D01*
G01X23926Y41142D01*
G01X23987Y41160D01*
G01X24049Y41174D01*
G01X24111Y41186D01*
G01X24174Y41196D01*
G01X24236Y41203D01*
G01X24299Y41207D01*
G01X24362Y41208D01*
G01X24425Y41208D01*
G01X24487Y41204D01*
G01X24549Y41198D01*
G01X24611Y41189D01*
G01X24672Y41177D01*
G01X24731Y41163D01*
G01X24790Y41146D01*
G01X24848Y41127D01*
G01X24905Y41104D01*
G01X24960Y41079D01*
G01X25002Y41058D01*
G01X25043Y41033D01*
G01X25083Y41006D01*
G01X25121Y40977D01*
G01X25158Y40945D01*
G01X25195Y40911D01*
G01X25230Y40875D01*
G01X25264Y40837D01*
G01X25297Y40797D01*
G01X25329Y40755D01*
G01X25359Y40711D01*
G01X25389Y40665D01*
G01X25417Y40617D01*
G01X25444Y40568D01*
G01X25470Y40518D01*
G01X25494Y40466D01*
G01X25517Y40412D01*
G01X25539Y40358D01*
G01X25560Y40302D01*
G01X25579Y40245D01*
G01X25598Y40187D01*
G01X25614Y40128D01*
G01X25630Y40068D01*
G01X25643Y40008D01*
G01X25656Y39946D01*
G01X25667Y39885D01*
G01X25677Y39822D01*
G01X25686Y39760D01*
G01X25693Y39696D01*
G01X25698Y39633D01*
G01X25702Y39569D01*
G01X25705Y39506D01*
G01X25706Y39442D01*
G01X25706Y39378D01*
G01X25704Y39315D01*
G01X25700Y39252D01*
G01X25695Y39189D01*
G01X25689Y39126D01*
G01X25680Y39064D01*
G01X25671Y39003D01*
G01X25660Y38942D01*
G01X25647Y38881D01*
G01X25632Y38822D01*
G01X25616Y38764D01*
G01X25598Y38706D01*
G01X25579Y38650D01*
G01X25535Y38540D01*
G01X25510Y38488D01*
G01X25484Y38437D01*
G01X25455Y38387D01*
G01X25426Y38339D01*
G01X25393Y38291D01*
G01X25359Y38245D01*
G01X25323Y38202D01*
G01X25286Y38160D01*
G01X25247Y38121D01*
G01X25206Y38084D01*
G01X25164Y38049D01*
G01X25120Y38017D01*
G01X25075Y37986D01*
G01X25029Y37958D01*
G01X24981Y37932D01*
G01X24933Y37907D01*
G01X24883Y37886D01*
G01X24832Y37866D01*
G01X24781Y37849D01*
G01X24728Y37834D01*
G01X24674Y37821D01*
G01X24620Y37811D01*
G01X24565Y37802D01*
G01X24509Y37797D01*
G01X24452Y37793D01*
G01X24395Y37792D01*
G01X24337Y37792D01*
G01X24279Y37796D01*
G01X24221Y37801D01*
G01X24162Y37809D01*
G01X24103Y37820D01*
G01X24044Y37832D01*
G01X23984Y37848D01*
G01X23925Y37865D01*
G01X23865Y37885D01*
G01X23805Y37907D01*
G01X23745Y37931D01*
G01X23686Y37959D01*
G01X23627Y37988D01*
G01X23568Y38020D01*
G01X23227Y38212D01*
G01X23227Y37998D01*
G01X23230Y37949D01*
G01X23236Y37903D01*
G01X23248Y37859D01*
G01X23264Y37817D01*
G01X23286Y37776D01*
G01X23312Y37737D01*
G01X23344Y37701D01*
G01X23380Y37665D01*
G01X23422Y37632D01*
G01X23469Y37599D01*
G01X23522Y37568D01*
G01X23580Y37538D01*
G01X23645Y37510D01*
G01X23714Y37482D01*
G01X23791Y37456D01*
G01X23872Y37430D01*
G01X23934Y37413D01*
G01X23995Y37397D01*
G01X24056Y37384D01*
G01X24117Y37372D01*
G01X24177Y37362D01*
G01X24238Y37355D01*
G01X24298Y37349D01*
G01X24357Y37345D01*
G01X24417Y37342D01*
G01X24475Y37342D01*
G01X24533Y37343D01*
G01X24591Y37346D01*
G01X24649Y37351D01*
G01X24705Y37357D01*
G01X24761Y37366D01*
G01X24817Y37376D01*
G01X24872Y37388D01*
G01X24927Y37402D01*
G01X24980Y37417D01*
G01X25033Y37434D01*
G01X25085Y37453D01*
G01X25137Y37473D01*
G01X25188Y37495D01*
G01X25237Y37519D01*
G01X25286Y37544D01*
G01X25334Y37571D01*
G01X25382Y37600D01*
G01X25428Y37630D01*
G01X25474Y37662D01*
G01X25518Y37695D01*
G01X25561Y37730D01*
G01X25604Y37767D01*
G01X25645Y37805D01*
G01X25685Y37844D01*
G01X25724Y37886D01*
G01X25762Y37928D01*
G01X25834Y38018D01*
G01X25868Y38065D01*
G01X25901Y38114D01*
G01X25932Y38164D01*
G01X25963Y38215D01*
G01X25992Y38268D01*
G01X26019Y38323D01*
G01X26048Y38381D01*
G01X26073Y38436D01*
G01X26095Y38487D01*
G01X26114Y38536D01*
G01X26131Y38585D01*
G01X26145Y38633D01*
G01X26157Y38684D01*
G01X26167Y38737D01*
G01X26175Y38793D01*
G01X26181Y38855D01*
G01X26186Y38923D01*
G01X26189Y38999D01*
G01X26192Y39083D01*
G01X26194Y39177D01*
G01X26195Y39282D01*
G01X26195Y39491D01*
G01X26194Y39580D01*
G01X26191Y39665D01*
G01X26188Y39746D01*
G01X26184Y39824D01*
G01X26179Y39899D01*
G01X26173Y39970D01*
G01X26165Y40040D01*
G01X26156Y40106D01*
G01X26146Y40170D01*
G01X26135Y40231D01*
G01X26122Y40291D01*
G01X26108Y40348D01*
G01X26092Y40403D01*
G01X26075Y40457D01*
G01X26056Y40509D01*
G01X26036Y40560D01*
G01X26014Y40610D01*
G01X25990Y40659D01*
G01X25964Y40707D01*
G01X25937Y40754D01*
G01X25908Y40801D01*
G01X25877Y40848D01*
G01X25843Y40894D01*
G01X25808Y40940D01*
G01X25770Y40987D01*
G01X25731Y41034D01*
G01X25689Y41081D01*
G01X25641Y41132D01*
G01X25594Y41181D01*
G01X25546Y41227D01*
G01X25498Y41270D01*
G01X25449Y41311D01*
G01X25399Y41349D01*
G01X25349Y41384D01*
G01X25298Y41417D01*
G01X25246Y41447D01*
G01X25193Y41475D01*
G01X25140Y41501D01*
G01X25085Y41523D01*
G01X25029Y41544D01*
G01X24971Y41563D01*
G01X24913Y41579D01*
G01X24852Y41593D01*
G01X24791Y41605D01*
G01X24727Y41614D01*
G01X24662Y41621D01*
G01X24595Y41627D01*
G01X24526Y41630D01*
G01X24456Y41631D01*
G37*
G36*
G01X28914Y41585D02*
G01X28838Y41586D01*
G01X28760Y41585D01*
G01X28681Y41585D01*
G01X28601Y41584D01*
G01X28441Y41580D01*
G01X28363Y41577D01*
G01X28287Y41574D01*
G01X28214Y41571D01*
G01X28143Y41567D01*
G01X28077Y41562D01*
G01X28015Y41557D01*
G01X27958Y41551D01*
G01X27907Y41546D01*
G01X27863Y41539D01*
G01X27825Y41533D01*
G01X27796Y41525D01*
G01X27734Y41507D01*
G01X27675Y41486D01*
G01X27618Y41465D01*
G01X27564Y41442D01*
G01X27512Y41417D01*
G01X27462Y41390D01*
G01X27416Y41362D01*
G01X27371Y41333D01*
G01X27329Y41301D01*
G01X27289Y41268D01*
G01X27251Y41234D01*
G01X27216Y41198D01*
G01X27183Y41159D01*
G01X27153Y41120D01*
G01X27124Y41077D01*
G01X27098Y41034D01*
G01X27074Y40988D01*
G01X27052Y40941D01*
G01X27033Y40891D01*
G01X27015Y40840D01*
G01X27000Y40787D01*
G01X26986Y40731D01*
G01X26975Y40674D01*
G01X26966Y40615D01*
G01X26959Y40553D01*
G01X26954Y40489D01*
G01X26951Y40423D01*
G01X26950Y40355D01*
G01X26950Y40261D01*
G01X26952Y40179D01*
G01X26956Y40107D01*
G01X26962Y40044D01*
G01X26970Y39987D01*
G01X26981Y39935D01*
G01X26996Y39887D01*
G01X27015Y39840D01*
G01X27038Y39793D01*
G01X27066Y39744D01*
G01X27099Y39693D01*
G01X27138Y39636D01*
G01X27174Y39586D01*
G01X27212Y39539D01*
G01X27249Y39494D01*
G01X27288Y39452D01*
G01X27327Y39412D01*
G01X27369Y39374D01*
G01X27411Y39339D01*
G01X27454Y39305D01*
G01X27499Y39274D01*
G01X27546Y39246D01*
G01X27594Y39219D01*
G01X27644Y39194D01*
G01X27696Y39171D01*
G01X27751Y39150D01*
G01X27807Y39131D01*
G01X27865Y39113D01*
G01X27926Y39098D01*
G01X27990Y39085D01*
G01X28056Y39072D01*
G01X28125Y39062D01*
G01X28197Y39053D01*
G01X28271Y39045D01*
G01X28348Y39039D01*
G01X28429Y39035D01*
G01X28977Y39008D01*
G01X28977Y37399D01*
G01X29477Y37399D01*
G01X29477Y39864D01*
G01X29476Y39963D01*
G01X29476Y40061D01*
G01X29475Y40157D01*
G01X29474Y40251D01*
G01X29473Y40343D01*
G01X29472Y40432D01*
G01X29471Y40519D01*
G01X29470Y40603D01*
G01X29469Y40685D01*
G01X29468Y40764D01*
G01X29467Y40840D01*
G01X29465Y40912D01*
G01X29464Y40982D01*
G01X29462Y41048D01*
G01X29460Y41111D01*
G01X29459Y41170D01*
G01X29457Y41225D01*
G01X29455Y41276D01*
G01X29454Y41324D01*
G01X29452Y41366D01*
G01X29450Y41406D01*
G01X29448Y41440D01*
G01X29446Y41470D01*
G01X29444Y41494D01*
G01X29442Y41515D01*
G01X29440Y41530D01*
G01X29438Y41540D01*
G01X29436Y41545D01*
G01X29424Y41551D01*
G01X29403Y41557D01*
G01X29374Y41563D01*
G01X29337Y41568D01*
G01X29293Y41572D01*
G01X29242Y41576D01*
G01X29186Y41579D01*
G01X29124Y41581D01*
G01X29058Y41583D01*
G01X28988Y41584D01*
G01X28914Y41585D01*
G37*
G36*
G01X32141Y41634D02*
G01X32076Y41644D01*
G01X32004Y41628D01*
G01X31911Y41584D01*
G01X31900Y41578D01*
G01X31890Y41572D01*
G01X31881Y41565D01*
G01X31872Y41556D01*
G01X31864Y41547D01*
G01X31857Y41536D01*
G01X31850Y41523D01*
G01X31843Y41507D01*
G01X31837Y41489D01*
G01X31832Y41469D01*
G01X31827Y41445D01*
G01X31822Y41417D01*
G01X31818Y41386D01*
G01X31814Y41351D01*
G01X31810Y41311D01*
G01X31807Y41267D01*
G01X31804Y41218D01*
G01X31802Y41163D01*
G01X31800Y41103D01*
G01X31798Y41037D01*
G01X31796Y40965D01*
G01X31795Y40887D01*
G01X31794Y40802D01*
G01X31793Y40709D01*
G01X31792Y40610D01*
G01X31791Y40502D01*
G01X31791Y40387D01*
G01X31790Y40263D01*
G01X31790Y37840D01*
G01X30993Y37823D01*
G01X30196Y37805D01*
G01X30196Y37430D01*
G01X32259Y37430D01*
G01X32275Y39488D01*
G01X32276Y39636D01*
G01X32277Y39776D01*
G01X32278Y39911D01*
G01X32279Y40038D01*
G01X32279Y40681D01*
G01X32278Y40768D01*
G01X32277Y40850D01*
G01X32276Y40928D01*
G01X32275Y41000D01*
G01X32273Y41067D01*
G01X32272Y41130D01*
G01X32270Y41188D01*
G01X32268Y41241D01*
G01X32266Y41291D01*
G01X32263Y41336D01*
G01X32260Y41377D01*
G01X32257Y41414D01*
G01X32254Y41447D01*
G01X32250Y41477D01*
G01X32246Y41503D01*
G01X32242Y41525D01*
G01X32238Y41545D01*
G01X32234Y41561D01*
G01X32229Y41574D01*
G01X32223Y41584D01*
G01X32218Y41592D01*
G01X32213Y41597D01*
G01X32141Y41634D01*
G37*
G36*
G01X28052Y43942D02*
G01X27989Y43942D01*
G01X27924Y43938D01*
G01X27860Y43934D01*
G01X27795Y43927D01*
G01X27731Y43919D01*
G01X27668Y43909D01*
G01X27606Y43897D01*
G01X27545Y43884D01*
G01X27486Y43869D01*
G01X27430Y43852D01*
G01X27376Y43834D01*
G01X27326Y43815D01*
G01X27279Y43793D01*
G01X27235Y43771D01*
G01X26985Y43630D01*
G01X27454Y43077D01*
G01X27518Y43002D01*
G01X27580Y42931D01*
G01X27641Y42862D01*
G01X27698Y42799D01*
G01X27752Y42740D01*
G01X27802Y42686D01*
G01X27847Y42639D01*
G01X27886Y42600D01*
G01X27920Y42567D01*
G01X27947Y42543D01*
G01X27967Y42529D01*
G01X27979Y42524D01*
G01X27990Y42529D01*
G01X28009Y42544D01*
G01X28035Y42568D01*
G01X28068Y42599D01*
G01X28106Y42638D01*
G01X28149Y42684D01*
G01X28196Y42735D01*
G01X28247Y42790D01*
G01X28300Y42849D01*
G01X28355Y42912D01*
G01X28411Y42976D01*
G01X28468Y43041D01*
G01X28525Y43107D01*
G01X28580Y43172D01*
G01X28634Y43236D01*
G01X28685Y43297D01*
G01X28733Y43356D01*
G01X28777Y43411D01*
G01X28816Y43460D01*
G01X28849Y43505D01*
G01X28877Y43543D01*
G01X28898Y43573D01*
G01X28910Y43595D01*
G01X28915Y43608D01*
G01X28909Y43627D01*
G01X28891Y43649D01*
G01X28864Y43675D01*
G01X28827Y43703D01*
G01X28784Y43732D01*
G01X28735Y43761D01*
G01X28681Y43790D01*
G01X28625Y43819D01*
G01X28566Y43845D01*
G01X28508Y43868D01*
G01X28452Y43889D01*
G01X28398Y43904D01*
G01X28346Y43916D01*
G01X28292Y43925D01*
G01X28235Y43933D01*
G01X28176Y43938D01*
G01X28115Y43941D01*
G01X28052Y43942D01*
G37*
G36*
G01X27992Y45739D02*
G01X27934Y45739D01*
G01X27877Y45738D01*
G01X27819Y45735D01*
G01X27760Y45732D01*
G01X27702Y45728D01*
G01X27644Y45722D01*
G01X27528Y45708D01*
G01X27412Y45690D01*
G01X27354Y45678D01*
G01X27296Y45667D01*
G01X27238Y45653D01*
G01X27180Y45640D01*
G01X27122Y45625D01*
G01X27006Y45591D01*
G01X26949Y45573D01*
G01X26896Y45554D01*
G01X26838Y45532D01*
G01X26774Y45506D01*
G01X26707Y45477D01*
G01X26637Y45446D01*
G01X26565Y45412D01*
G01X26493Y45377D01*
G01X26420Y45341D01*
G01X26347Y45303D01*
G01X26276Y45266D01*
G01X26208Y45229D01*
G01X26143Y45193D01*
G01X26082Y45158D01*
G01X26026Y45125D01*
G01X25977Y45094D01*
G01X25934Y45066D01*
G01X25900Y45041D01*
G01X25874Y45019D01*
G01X25858Y45002D01*
G01X25853Y44990D01*
G01X25860Y44976D01*
G01X25883Y44945D01*
G01X25918Y44900D01*
G01X25964Y44842D01*
G01X26020Y44774D01*
G01X26085Y44696D01*
G01X26156Y44612D01*
G01X26233Y44523D01*
G01X26613Y44081D01*
G01X26873Y44232D01*
G01X26928Y44262D01*
G01X26982Y44290D01*
G01X27036Y44317D01*
G01X27091Y44343D01*
G01X27146Y44366D01*
G01X27201Y44388D01*
G01X27257Y44408D01*
G01X27313Y44426D01*
G01X27369Y44443D01*
G01X27425Y44458D01*
G01X27482Y44471D01*
G01X27539Y44483D01*
G01X27597Y44492D01*
G01X27654Y44500D01*
G01X27712Y44506D01*
G01X27770Y44511D01*
G01X27829Y44514D01*
G01X27888Y44515D01*
G01X27948Y44515D01*
G01X28008Y44512D01*
G01X28068Y44508D01*
G01X28128Y44502D01*
G01X28189Y44495D01*
G01X28251Y44486D01*
G01X28312Y44474D01*
G01X28375Y44462D01*
G01X28438Y44447D01*
G01X28501Y44431D01*
G01X28564Y44413D01*
G01X28629Y44394D01*
G01X28693Y44372D01*
G01X28758Y44349D01*
G01X28824Y44325D01*
G01X28890Y44298D01*
G01X28957Y44270D01*
G01X29024Y44240D01*
G01X29092Y44208D01*
G01X29160Y44175D01*
G01X29228Y44139D01*
G01X29298Y44103D01*
G01X29314Y44107D01*
G01X29343Y44129D01*
G01X29386Y44167D01*
G01X29439Y44219D01*
G01X29501Y44282D01*
G01X29570Y44357D01*
G01X29645Y44439D01*
G01X29723Y44529D01*
G01X30109Y44976D01*
G01X29885Y45129D01*
G01X29833Y45164D01*
G01X29780Y45197D01*
G01X29728Y45230D01*
G01X29674Y45262D01*
G01X29621Y45293D01*
G01X29567Y45323D01*
G01X29513Y45352D01*
G01X29459Y45380D01*
G01X29405Y45407D01*
G01X29351Y45432D01*
G01X29296Y45457D01*
G01X29240Y45481D01*
G01X29186Y45503D01*
G01X29130Y45525D01*
G01X29074Y45545D01*
G01X29019Y45565D01*
G01X28907Y45601D01*
G01X28851Y45617D01*
G01X28794Y45633D01*
G01X28738Y45647D01*
G01X28681Y45661D01*
G01X28624Y45673D01*
G01X28510Y45695D01*
G01X28453Y45704D01*
G01X28396Y45712D01*
G01X28338Y45719D01*
G01X28281Y45725D01*
G01X28223Y45730D01*
G01X28166Y45734D01*
G01X28108Y45737D01*
G01X27992Y45739D01*
G37*
G36*
G01X28102Y47452D02*
G01X27956Y47452D01*
G01X27884Y47451D01*
G01X27811Y47449D01*
G01X27739Y47447D01*
G01X27668Y47444D01*
G01X27598Y47441D01*
G01X27529Y47437D01*
G01X27461Y47431D01*
G01X27395Y47426D01*
G01X27331Y47420D01*
G01X27268Y47414D01*
G01X27208Y47406D01*
G01X27150Y47398D01*
G01X27095Y47390D01*
G01X27042Y47381D01*
G01X26992Y47371D01*
G01X26930Y47357D01*
G01X26867Y47343D01*
G01X26805Y47328D01*
G01X26681Y47296D01*
G01X26620Y47279D01*
G01X26559Y47261D01*
G01X26498Y47242D01*
G01X26438Y47223D01*
G01X26377Y47203D01*
G01X26317Y47182D01*
G01X26258Y47161D01*
G01X26199Y47139D01*
G01X26081Y47093D01*
G01X26022Y47068D01*
G01X25906Y47018D01*
G01X25849Y46992D01*
G01X25792Y46965D01*
G01X25736Y46937D01*
G01X25679Y46909D01*
G01X25624Y46880D01*
G01X25568Y46851D01*
G01X25458Y46790D01*
G01X25350Y46726D01*
G01X25296Y46693D01*
G01X25243Y46660D01*
G01X25190Y46625D01*
G01X25138Y46591D01*
G01X25034Y46519D01*
G01X24983Y46483D01*
G01X24933Y46445D01*
G01X24732Y46295D01*
G01X25078Y45879D01*
G01X25149Y45795D01*
G01X25216Y45716D01*
G01X25279Y45646D01*
G01X25335Y45584D01*
G01X25384Y45533D01*
G01X25423Y45494D01*
G01X25452Y45470D01*
G01X25468Y45461D01*
G01X25503Y45474D01*
G01X25568Y45509D01*
G01X25653Y45560D01*
G01X25749Y45623D01*
G01X25847Y45687D01*
G01X25897Y45717D01*
G01X26001Y45777D01*
G01X26054Y45805D01*
G01X26108Y45833D01*
G01X26162Y45860D01*
G01X26217Y45886D01*
G01X26273Y45911D01*
G01X26330Y45935D01*
G01X26388Y45959D01*
G01X26445Y45982D01*
G01X26504Y46003D01*
G01X26563Y46025D01*
G01X26623Y46045D01*
G01X26683Y46064D01*
G01X26744Y46083D01*
G01X26805Y46101D01*
G01X26866Y46118D01*
G01X26928Y46134D01*
G01X26990Y46149D01*
G01X27053Y46163D01*
G01X27115Y46177D01*
G01X27241Y46201D01*
G01X27305Y46212D01*
G01X27368Y46221D01*
G01X27432Y46231D01*
G01X27495Y46239D01*
G01X27559Y46246D01*
G01X27622Y46252D01*
G01X27750Y46262D01*
G01X27813Y46265D01*
G01X27877Y46267D01*
G01X27940Y46269D01*
G01X28065Y46269D01*
G01X28128Y46267D01*
G01X28190Y46265D01*
G01X28252Y46262D01*
G01X28314Y46257D01*
G01X28375Y46252D01*
G01X28436Y46246D01*
G01X28497Y46238D01*
G01X28557Y46230D01*
G01X28675Y46210D01*
G01X28734Y46199D01*
G01X28848Y46173D01*
G01X28900Y46159D01*
G01X28955Y46144D01*
G01X29012Y46126D01*
G01X29072Y46108D01*
G01X29134Y46087D01*
G01X29197Y46064D01*
G01X29262Y46041D01*
G01X29328Y46016D01*
G01X29395Y45989D01*
G01X29463Y45962D01*
G01X29531Y45934D01*
G01X29599Y45905D01*
G01X29666Y45876D01*
G01X29734Y45846D01*
G01X29800Y45816D01*
G01X29865Y45785D01*
G01X29929Y45754D01*
G01X29991Y45723D01*
G01X30051Y45692D01*
G01X30109Y45662D01*
G01X30164Y45631D01*
G01X30216Y45601D01*
G01X30265Y45572D01*
G01X30311Y45544D01*
G01X30488Y45430D01*
G01X30675Y45649D01*
G01X30716Y45698D01*
G01X30761Y45752D01*
G01X30810Y45810D01*
G01X30910Y45930D01*
G01X30958Y45989D01*
G01X31003Y46044D01*
G01X31043Y46094D01*
G01X31225Y46320D01*
G01X30865Y46572D01*
G01X30816Y46606D01*
G01X30766Y46641D01*
G01X30662Y46707D01*
G01X30610Y46739D01*
G01X30556Y46771D01*
G01X30448Y46833D01*
G01X30337Y46893D01*
G01X30281Y46922D01*
G01X30110Y47006D01*
G01X29994Y47059D01*
G01X29935Y47083D01*
G01X29877Y47108D01*
G01X29759Y47156D01*
G01X29700Y47178D01*
G01X29581Y47221D01*
G01X29521Y47240D01*
G01X29462Y47260D01*
G01X29403Y47279D01*
G01X29285Y47313D01*
G01X29226Y47329D01*
G01X29167Y47344D01*
G01X29108Y47358D01*
G01X29050Y47371D01*
G01X29002Y47381D01*
G01X28951Y47390D01*
G01X28898Y47398D01*
G01X28841Y47407D01*
G01X28782Y47414D01*
G01X28721Y47420D01*
G01X28658Y47426D01*
G01X28593Y47432D01*
G01X28526Y47437D01*
G01X28458Y47441D01*
G01X28389Y47444D01*
G01X28318Y47447D01*
G01X28174Y47451D01*
G01X28102Y47452D01*
G37*
G36*
G01X28501Y49375D02*
G01X28218Y49375D01*
G01X28140Y49374D01*
G01X28060Y49374D01*
G01X27979Y49373D01*
G01X27896Y49371D01*
G01X27812Y49370D01*
G01X27727Y49368D01*
G01X27631Y49366D01*
G01X27539Y49364D01*
G01X27451Y49361D01*
G01X27367Y49358D01*
G01X27287Y49355D01*
G01X27211Y49352D01*
G01X27137Y49348D01*
G01X27067Y49344D01*
G01X26999Y49340D01*
G01X26935Y49335D01*
G01X26873Y49329D01*
G01X26813Y49324D01*
G01X26756Y49318D01*
G01X26700Y49312D01*
G01X26647Y49305D01*
G01X26594Y49297D01*
G01X26544Y49290D01*
G01X26494Y49281D01*
G01X26398Y49263D01*
G01X26351Y49253D01*
G01X26259Y49231D01*
G01X26213Y49219D01*
G01X26156Y49203D01*
G01X26100Y49187D01*
G01X26042Y49170D01*
G01X25983Y49152D01*
G01X25923Y49133D01*
G01X25863Y49113D01*
G01X25802Y49092D01*
G01X25678Y49048D01*
G01X25616Y49025D01*
G01X25553Y49001D01*
G01X25427Y48951D01*
G01X25363Y48925D01*
G01X25236Y48873D01*
G01X25173Y48845D01*
G01X25109Y48817D01*
G01X25046Y48789D01*
G01X24984Y48760D01*
G01X24921Y48731D01*
G01X24859Y48702D01*
G01X24798Y48673D01*
G01X24737Y48643D01*
G01X24676Y48612D01*
G01X24616Y48582D01*
G01X24557Y48551D01*
G01X24499Y48521D01*
G01X24441Y48490D01*
G01X24385Y48459D01*
G01X24330Y48428D01*
G01X24276Y48398D01*
G01X24222Y48367D01*
G01X24120Y48305D01*
G01X24071Y48275D01*
G01X24023Y48245D01*
G01X23977Y48214D01*
G01X23932Y48185D01*
G01X23889Y48155D01*
G01X23848Y48126D01*
G01X23808Y48097D01*
G01X23770Y48068D01*
G01X23734Y48041D01*
G01X23700Y48013D01*
G01X23668Y47986D01*
G01X23639Y47959D01*
G01X23611Y47933D01*
G01X23464Y47788D01*
G01X23912Y47260D01*
G01X24359Y46731D01*
G01X24866Y47064D01*
G01X24921Y47100D01*
G01X24975Y47134D01*
G01X25085Y47202D01*
G01X25139Y47234D01*
G01X25194Y47266D01*
G01X25249Y47297D01*
G01X25304Y47327D01*
G01X25414Y47385D01*
G01X25470Y47413D01*
G01X25525Y47440D01*
G01X25581Y47467D01*
G01X25693Y47518D01*
G01X25748Y47542D01*
G01X25805Y47566D01*
G01X25861Y47588D01*
G01X25918Y47611D01*
G01X26032Y47653D01*
G01X26090Y47673D01*
G01X26147Y47692D01*
G01X26205Y47711D01*
G01X26264Y47729D01*
G01X26322Y47746D01*
G01X26381Y47763D01*
G01X26440Y47778D01*
G01X26499Y47794D01*
G01X26619Y47822D01*
G01X26680Y47835D01*
G01X26740Y47848D01*
G01X26802Y47860D01*
G01X26863Y47870D01*
G01X26925Y47881D01*
G01X26987Y47891D01*
G01X27050Y47900D01*
G01X27113Y47908D01*
G01X27176Y47917D01*
G01X27241Y47924D01*
G01X27305Y47930D01*
G01X27370Y47936D01*
G01X27502Y47946D01*
G01X27568Y47950D01*
G01X27635Y47954D01*
G01X27702Y47956D01*
G01X27770Y47959D01*
G01X27908Y47961D01*
G01X28047Y47961D01*
G01X28116Y47960D01*
G01X28184Y47959D01*
G01X28252Y47956D01*
G01X28320Y47954D01*
G01X28454Y47946D01*
G01X28519Y47941D01*
G01X28585Y47936D01*
G01X28650Y47930D01*
G01X28714Y47924D01*
G01X28778Y47917D01*
G01X28905Y47900D01*
G01X29030Y47881D01*
G01X29154Y47859D01*
G01X29215Y47848D01*
G01X29276Y47835D01*
G01X29336Y47822D01*
G01X29456Y47794D01*
G01X29515Y47778D01*
G01X29574Y47763D01*
G01X29692Y47729D01*
G01X29750Y47711D01*
G01X29807Y47692D01*
G01X29865Y47673D01*
G01X29980Y47632D01*
G01X30037Y47610D01*
G01X30093Y47588D01*
G01X30150Y47566D01*
G01X30207Y47542D01*
G01X30263Y47517D01*
G01X30318Y47492D01*
G01X30374Y47467D01*
G01X30486Y47413D01*
G01X30541Y47385D01*
G01X30596Y47356D01*
G01X30706Y47296D01*
G01X30816Y47234D01*
G01X30926Y47168D01*
G01X30980Y47134D01*
G01X31090Y47064D01*
G01X31598Y46729D01*
G01X32006Y47218D01*
G01X32061Y47284D01*
G01X32115Y47349D01*
G01X32165Y47412D01*
G01X32212Y47472D01*
G01X32255Y47528D01*
G01X32295Y47580D01*
G01X32330Y47628D01*
G01X32359Y47669D01*
G01X32382Y47705D01*
G01X32400Y47733D01*
G01X32411Y47755D01*
G01X32415Y47767D01*
G01X32411Y47777D01*
G01X32401Y47791D01*
G01X32385Y47809D01*
G01X32363Y47830D01*
G01X32335Y47854D01*
G01X32303Y47880D01*
G01X32265Y47909D01*
G01X32223Y47941D01*
G01X32178Y47975D01*
G01X32128Y48011D01*
G01X32076Y48048D01*
G01X32020Y48086D01*
G01X31962Y48125D01*
G01X31901Y48166D01*
G01X31839Y48207D01*
G01X31776Y48248D01*
G01X31711Y48289D01*
G01X31646Y48331D01*
G01X31581Y48372D01*
G01X31451Y48452D01*
G01X31387Y48490D01*
G01X31324Y48527D01*
G01X31263Y48562D01*
G01X31204Y48595D01*
G01X31148Y48626D01*
G01X31093Y48655D01*
G01X31042Y48681D01*
G01X30989Y48708D01*
G01X30935Y48733D01*
G01X30882Y48759D01*
G01X30828Y48784D01*
G01X30722Y48832D01*
G01X30668Y48855D01*
G01X30615Y48878D01*
G01X30507Y48922D01*
G01X30454Y48943D01*
G01X30399Y48964D01*
G01X30345Y48984D01*
G01X30290Y49005D01*
G01X30235Y49024D01*
G01X30123Y49062D01*
G01X30066Y49080D01*
G01X29951Y49116D01*
G01X29893Y49133D01*
G01X29833Y49151D01*
G01X29774Y49167D01*
G01X29713Y49184D01*
G01X29652Y49199D01*
G01X29590Y49215D01*
G01X29527Y49231D01*
G01X29463Y49246D01*
G01X29398Y49261D01*
G01X29332Y49276D01*
G01X29198Y49304D01*
G01X29129Y49319D01*
G01X29059Y49333D01*
G01X28988Y49347D01*
G01X28915Y49360D01*
G01X28899Y49363D01*
G01X28876Y49365D01*
G01X28847Y49367D01*
G01X28813Y49368D01*
G01X28773Y49370D01*
G01X28728Y49372D01*
G01X28678Y49373D01*
G01X28623Y49374D01*
G01X28564Y49374D01*
G01X28501Y49375D01*
G37*

%LPD*%
G36*
G01X28964Y40320D02*
G01X28981Y41212D01*
G01X28651Y41210D01*
G01X28563Y41208D01*
G01X28480Y41205D01*
G01X28399Y41199D01*
G01X28323Y41192D01*
G01X28249Y41182D01*
G01X28180Y41170D01*
G01X28114Y41156D01*
G01X28051Y41140D01*
G01X27992Y41122D01*
G01X27936Y41101D01*
G01X27884Y41079D01*
G01X27835Y41054D01*
G01X27789Y41027D01*
G01X27746Y40998D01*
G01X27707Y40967D01*
G01X27671Y40933D01*
G01X27637Y40899D01*
G01X27609Y40866D01*
G01X27585Y40834D01*
G01X27565Y40800D01*
G01X27549Y40764D01*
G01X27536Y40725D01*
G01X27526Y40681D01*
G01X27519Y40631D01*
G01X27514Y40573D01*
G01X27511Y40505D01*
G01X27509Y40428D01*
G01X27509Y40248D01*
G01X27511Y40169D01*
G01X27514Y40101D01*
G01X27519Y40042D01*
G01X27527Y39991D01*
G01X27538Y39946D01*
G01X27552Y39905D01*
G01X27570Y39868D01*
G01X27592Y39832D01*
G01X27619Y39796D01*
G01X27652Y39759D01*
G01X27690Y39718D01*
G01X27722Y39687D01*
G01X27757Y39658D01*
G01X27796Y39629D01*
G01X27838Y39602D01*
G01X27883Y39577D01*
G01X27931Y39552D01*
G01X27981Y39530D01*
G01X28033Y39509D01*
G01X28087Y39489D01*
G01X28143Y39472D01*
G01X28200Y39456D01*
G01X28258Y39442D01*
G01X28316Y39430D01*
G01X28375Y39420D01*
G01X28435Y39412D01*
G01X28494Y39407D01*
G01X28554Y39404D01*
G01X28613Y39403D01*
G01X28671Y39405D01*
G01X28727Y39409D01*
G01X28946Y39430D01*
G01X28964Y40320D01*
G37*

%LPD*%

%LPD*%
G36*
G01X41783Y52511D02*
G01X40165Y52511D01*
G01X40165Y52346D01*
G01X40614Y52346D01*
G01X40843Y52354D01*
G01X40806Y52314D01*
G01X40771Y52273D01*
G01X40740Y52230D01*
G01X40712Y52186D01*
G01X40689Y52140D01*
G01X40672Y52091D01*
G01X40661Y52040D01*
G01X40657Y51986D01*
G01X40660Y51930D01*
G01X40669Y51881D01*
G01X40685Y51836D01*
G01X40706Y51796D01*
G01X40733Y51761D01*
G01X40766Y51731D01*
G01X40805Y51706D01*
G01X40850Y51686D01*
G01X40901Y51670D01*
G01X40957Y51659D01*
G01X41019Y51652D01*
G01X41087Y51650D01*
G01X41783Y51650D01*
G01X41783Y51816D01*
G01X41107Y51816D01*
G01X41033Y51819D01*
G01X40969Y51828D01*
G01X40917Y51844D01*
G01X40875Y51867D01*
G01X40842Y51898D01*
G01X40820Y51935D01*
G01X40807Y51981D01*
G01X40802Y52034D01*
G01X40805Y52076D01*
G01X40813Y52116D01*
G01X40827Y52154D01*
G01X40847Y52191D01*
G01X40872Y52228D01*
G01X40903Y52266D01*
G01X40939Y52305D01*
G01X40980Y52346D01*
G01X41783Y52346D01*
G01X41783Y52511D01*
G37*

%LPD*%
G36*
G01X40822Y51424D02*
G01X40695Y51424D01*
G01X40685Y51252D01*
G01X40375Y51231D01*
G01X40375Y51094D01*
G01X40685Y51094D01*
G01X40685Y50789D01*
G01X40822Y50789D01*
G01X40822Y51094D01*
G01X41457Y51094D01*
G01X41548Y51086D01*
G01X41616Y51057D01*
G01X41659Y51004D01*
G01X41673Y50921D01*
G01X41671Y50889D01*
G01X41664Y50856D01*
G01X41654Y50822D01*
G01X41643Y50792D01*
G01X41767Y50759D01*
G01X41782Y50807D01*
G01X41795Y50856D01*
G01X41804Y50907D01*
G01X41808Y50954D01*
G01X41801Y51034D01*
G01X41783Y51099D01*
G01X41752Y51152D01*
G01X41710Y51192D01*
G01X41659Y51222D01*
G01X41598Y51242D01*
G01X41529Y51253D01*
G01X41452Y51257D01*
G01X40822Y51257D01*
G01X40822Y51424D01*
G37*

%LPD*%
G36*
G01X40822Y50718D02*
G01X40695Y50718D01*
G01X40685Y50546D01*
G01X40375Y50525D01*
G01X40375Y50388D01*
G01X40685Y50388D01*
G01X40685Y50086D01*
G01X40822Y50086D01*
G01X40822Y50388D01*
G01X41457Y50388D01*
G01X41548Y50379D01*
G01X41616Y50351D01*
G01X41659Y50298D01*
G01X41673Y50215D01*
G01X41671Y50183D01*
G01X41664Y50150D01*
G01X41654Y50117D01*
G01X41643Y50088D01*
G01X41767Y50055D01*
G01X41782Y50103D01*
G01X41795Y50153D01*
G01X41804Y50203D01*
G01X41808Y50251D01*
G01X41801Y50330D01*
G01X41783Y50395D01*
G01X41752Y50447D01*
G01X41710Y50488D01*
G01X41659Y50518D01*
G01X41598Y50538D01*
G01X41529Y50550D01*
G01X41452Y50553D01*
G01X40822Y50553D01*
G01X40822Y50718D01*
G37*

%LPD*%
G36*
G01X42255Y49834D02*
G01X40685Y49834D01*
G01X40685Y49700D01*
G01X40812Y49682D01*
G01X40812Y49677D01*
G01X40782Y49638D01*
G01X40754Y49597D01*
G01X40727Y49554D01*
G01X40704Y49510D01*
G01X40685Y49464D01*
G01X40670Y49418D01*
G01X40661Y49371D01*
G01X40657Y49324D01*
G01X40660Y49271D01*
G01X40667Y49223D01*
G01X40680Y49176D01*
G01X40697Y49134D01*
G01X40719Y49095D01*
G01X40745Y49059D01*
G01X40776Y49026D01*
G01X40810Y48997D01*
G01X40848Y48970D01*
G01X40891Y48948D01*
G01X40937Y48929D01*
G01X40986Y48913D01*
G01X41039Y48900D01*
G01X41095Y48891D01*
G01X41154Y48886D01*
G01X41216Y48884D01*
G01X41285Y48887D01*
G01X41350Y48895D01*
G01X41410Y48907D01*
G01X41467Y48923D01*
G01X41520Y48944D01*
G01X41569Y48969D01*
G01X41613Y48998D01*
G01X41653Y49029D01*
G01X41689Y49064D01*
G01X41720Y49101D01*
G01X41746Y49140D01*
G01X41768Y49182D01*
G01X41786Y49226D01*
G01X41798Y49271D01*
G01X41805Y49317D01*
G01X41808Y49364D01*
G01X41799Y49441D01*
G01X41775Y49518D01*
G01X41735Y49595D01*
G01X41681Y49672D01*
G01X41874Y49669D01*
G01X42255Y49669D01*
G01X42255Y49834D01*
G37*

%LPC*%
G36*
G01X41549Y49669D02*
G01X40954Y49669D01*
G01X40887Y49587D01*
G01X40838Y49510D01*
G01X40807Y49435D01*
G01X40797Y49362D01*
G01X40801Y49310D01*
G01X40811Y49263D01*
G01X40828Y49222D01*
G01X40851Y49186D01*
G01X40880Y49154D01*
G01X40914Y49128D01*
G01X40954Y49105D01*
G01X40999Y49088D01*
G01X41048Y49074D01*
G01X41101Y49065D01*
G01X41158Y49059D01*
G01X41219Y49057D01*
G01X41286Y49060D01*
G01X41348Y49068D01*
G01X41406Y49082D01*
G01X41458Y49100D01*
G01X41506Y49124D01*
G01X41547Y49151D01*
G01X41583Y49182D01*
G01X41613Y49217D01*
G01X41637Y49255D01*
G01X41654Y49297D01*
G01X41665Y49341D01*
G01X41668Y49387D01*
G01X41662Y49449D01*
G01X41642Y49518D01*
G01X41605Y49592D01*
G01X41549Y49669D01*
G37*

%LPD*%
G36*
G01X41689Y48670D02*
G01X41658Y48712D01*
G01X41546Y48628D01*
G01X41600Y48556D01*
G01X41642Y48479D01*
G01X41669Y48394D01*
G01X41678Y48298D01*
G01X41664Y48198D01*
G01X41625Y48126D01*
G01X41567Y48083D01*
G01X41495Y48069D01*
G01X41454Y48075D01*
G01X41419Y48091D01*
G01X41388Y48117D01*
G01X41361Y48151D01*
G01X41337Y48190D01*
G01X41316Y48233D01*
G01X41297Y48279D01*
G01X41280Y48326D01*
G01X41258Y48385D01*
G01X41233Y48443D01*
G01X41204Y48498D01*
G01X41171Y48547D01*
G01X41131Y48589D01*
G01X41084Y48622D01*
G01X41029Y48643D01*
G01X40965Y48651D01*
G01X40902Y48644D01*
G01X40844Y48626D01*
G01X40791Y48595D01*
G01X40746Y48553D01*
G01X40709Y48499D01*
G01X40681Y48435D01*
G01X40663Y48361D01*
G01X40657Y48277D01*
G01X40667Y48181D01*
G01X40692Y48092D01*
G01X40731Y48012D01*
G01X40779Y47945D01*
G01X40886Y48026D01*
G01X40848Y48082D01*
G01X40818Y48142D01*
G01X40797Y48207D01*
G01X40789Y48277D01*
G01X40803Y48372D01*
G01X40839Y48438D01*
G01X40891Y48477D01*
G01X40954Y48491D01*
G01X41026Y48471D01*
G01X41078Y48417D01*
G01X41118Y48341D01*
G01X41153Y48249D01*
G01X41176Y48189D01*
G01X41202Y48129D01*
G01X41232Y48072D01*
G01X41266Y48020D01*
G01X41307Y47976D01*
G01X41356Y47942D01*
G01X41416Y47920D01*
G01X41488Y47912D01*
G01X41552Y47918D01*
G01X41612Y47937D01*
G01X41666Y47968D01*
G01X41713Y48012D01*
G01X41753Y48067D01*
G01X41783Y48135D01*
G01X41801Y48213D01*
G01X41808Y48303D01*
G01X41805Y48361D01*
G01X41797Y48419D01*
G01X41783Y48474D01*
G01X41765Y48527D01*
G01X41743Y48578D01*
G01X41718Y48626D01*
G01X41689Y48670D01*
G37*

%LPD*%
G36*
G01X41732Y47678D02*
G01X41678Y47688D01*
G01X41623Y47678D01*
G01X41581Y47650D01*
G01X41553Y47611D01*
G01X41544Y47564D01*
G01X41553Y47515D01*
G01X41581Y47474D01*
G01X41623Y47447D01*
G01X41678Y47437D01*
G01X41732Y47447D01*
G01X41773Y47474D01*
G01X41799Y47515D01*
G01X41808Y47564D01*
G01X41799Y47611D01*
G01X41773Y47650D01*
G01X41732Y47678D01*
G37*

%LPD*%
G36*
G01X40903Y47678D02*
G01X40850Y47688D01*
G01X40795Y47678D01*
G01X40753Y47650D01*
G01X40725Y47611D01*
G01X40716Y47564D01*
G01X40725Y47515D01*
G01X40753Y47474D01*
G01X40795Y47447D01*
G01X40850Y47437D01*
G01X40903Y47447D01*
G01X40944Y47474D01*
G01X40970Y47515D01*
G01X40980Y47564D01*
G01X40970Y47611D01*
G01X40944Y47650D01*
G01X40903Y47678D01*
G37*

%LPD*%
G36*
G01X42143Y47142D02*
G01X42143Y47264D01*
G01X40172Y46636D01*
G01X40172Y46515D01*
G01X42143Y47142D01*
G37*

%LPD*%
G36*
G01X42143Y46347D02*
G01X42143Y46469D01*
G01X40172Y45841D01*
G01X40172Y45720D01*
G01X42143Y46347D01*
G37*

%LPD*%
G36*
G01X42041Y45607D02*
G01X41996Y45610D01*
G01X41926Y45599D01*
G01X41860Y45567D01*
G01X41798Y45516D01*
G01X41744Y45448D01*
G01X41737Y45448D01*
G01X41706Y45488D01*
G01X41665Y45519D01*
G01X41615Y45540D01*
G01X41554Y45547D01*
G01X41489Y45536D01*
G01X41434Y45507D01*
G01X41387Y45468D01*
G01X41351Y45425D01*
G01X41343Y45425D01*
G01X41292Y45477D01*
G01X41223Y45522D01*
G01X41140Y45555D01*
G01X41046Y45567D01*
G01X40989Y45564D01*
G01X40936Y45552D01*
G01X40886Y45535D01*
G01X40841Y45511D01*
G01X40801Y45482D01*
G01X40764Y45448D01*
G01X40732Y45409D01*
G01X40706Y45365D01*
G01X40685Y45319D01*
G01X40670Y45268D01*
G01X40660Y45216D01*
G01X40657Y45161D01*
G01X40659Y45117D01*
G01X40665Y45077D01*
G01X40675Y45041D01*
G01X40685Y45008D01*
G01X40685Y44630D01*
G01X40812Y44630D01*
G01X40812Y44861D01*
G01X40858Y44822D01*
G01X40914Y44792D01*
G01X40979Y44772D01*
G01X41051Y44764D01*
G01X41107Y44768D01*
G01X41161Y44779D01*
G01X41209Y44795D01*
G01X41254Y44818D01*
G01X41295Y44846D01*
G01X41330Y44880D01*
G01X41361Y44918D01*
G01X41387Y44960D01*
G01X41408Y45006D01*
G01X41422Y45055D01*
G01X41431Y45106D01*
G01X41435Y45161D01*
G01X41432Y45204D01*
G01X41425Y45248D01*
G01X41412Y45291D01*
G01X41394Y45331D01*
G01X41421Y45359D01*
G01X41452Y45383D01*
G01X41489Y45399D01*
G01X41534Y45405D01*
G01X41583Y45395D01*
G01X41621Y45363D01*
G01X41646Y45303D01*
G01X41656Y45209D01*
G01X41656Y44988D01*
G01X41660Y44900D01*
G01X41671Y44823D01*
G01X41691Y44758D01*
G01X41718Y44706D01*
G01X41755Y44665D01*
G01X41800Y44635D01*
G01X41854Y44618D01*
G01X41917Y44612D01*
G01X41966Y44617D01*
G01X42014Y44629D01*
G01X42059Y44651D01*
G01X42103Y44680D01*
G01X42143Y44716D01*
G01X42179Y44760D01*
G01X42212Y44811D01*
G01X42240Y44869D01*
G01X42262Y44933D01*
G01X42279Y45002D01*
G01X42289Y45077D01*
G01X42293Y45158D01*
G01X42291Y45224D01*
G01X42284Y45285D01*
G01X42273Y45343D01*
G01X42258Y45395D01*
G01X42238Y45443D01*
G01X42215Y45485D01*
G01X42187Y45522D01*
G01X42156Y45553D01*
G01X42122Y45577D01*
G01X42083Y45596D01*
G01X42041Y45607D01*
G37*

%LPC*%
G36*
G01X42019Y45460D02*
G01X41976Y45466D01*
G01X41925Y45458D01*
G01X41874Y45436D01*
G01X41825Y45398D01*
G01X41777Y45344D01*
G01X41786Y45305D01*
G01X41792Y45268D01*
G01X41796Y45233D01*
G01X41798Y45204D01*
G01X41798Y45003D01*
G01X41805Y44904D01*
G01X41829Y44833D01*
G01X41873Y44789D01*
G01X41940Y44775D01*
G01X41984Y44781D01*
G01X42027Y44800D01*
G01X42067Y44831D01*
G01X42103Y44873D01*
G01X42133Y44925D01*
G01X42156Y44987D01*
G01X42171Y45057D01*
G01X42176Y45135D01*
G01X42173Y45208D01*
G01X42162Y45273D01*
G01X42145Y45330D01*
G01X42122Y45378D01*
G01X42092Y45415D01*
G01X42058Y45443D01*
G01X42019Y45460D01*
G37*
G36*
G01X41106Y45402D02*
G01X41046Y45407D01*
G01X40987Y45402D01*
G01X40935Y45388D01*
G01X40890Y45365D01*
G01X40852Y45335D01*
G01X40822Y45299D01*
G01X40800Y45257D01*
G01X40786Y45210D01*
G01X40782Y45161D01*
G01X40786Y45112D01*
G01X40800Y45067D01*
G01X40822Y45026D01*
G01X40853Y44989D01*
G01X40891Y44959D01*
G01X40936Y44936D01*
G01X40988Y44922D01*
G01X41046Y44917D01*
G01X41106Y44922D01*
G01X41160Y44936D01*
G01X41206Y44959D01*
G01X41246Y44989D01*
G01X41278Y45026D01*
G01X41301Y45067D01*
G01X41315Y45112D01*
G01X41320Y45161D01*
G01X41315Y45209D01*
G01X41301Y45255D01*
G01X41278Y45297D01*
G01X41246Y45333D01*
G01X41206Y45364D01*
G01X41160Y45387D01*
G01X41106Y45402D01*
G37*

%LPD*%
G36*
G01X41783Y44391D02*
G01X40685Y44391D01*
G01X40685Y44226D01*
G01X41783Y44226D01*
G01X41783Y44391D01*
G37*

%LPD*%
G36*
G01X40382Y44416D02*
G01X40335Y44424D01*
G01X40288Y44416D01*
G01X40253Y44393D01*
G01X40231Y44356D01*
G01X40223Y44307D01*
G01X40231Y44263D01*
G01X40253Y44228D01*
G01X40288Y44204D01*
G01X40335Y44196D01*
G01X40382Y44204D01*
G01X40419Y44228D01*
G01X40441Y44263D01*
G01X40449Y44307D01*
G01X40441Y44356D01*
G01X40419Y44392D01*
G01X40382Y44416D01*
G37*

%LPD*%
G36*
G01X40822Y43982D02*
G01X40695Y43982D01*
G01X40685Y43809D01*
G01X40375Y43789D01*
G01X40375Y43649D01*
G01X40685Y43649D01*
G01X40685Y43347D01*
G01X40822Y43347D01*
G01X40822Y43649D01*
G01X41457Y43649D01*
G01X41548Y43641D01*
G01X41616Y43612D01*
G01X41659Y43559D01*
G01X41673Y43477D01*
G01X41671Y43445D01*
G01X41664Y43411D01*
G01X41654Y43379D01*
G01X41643Y43350D01*
G01X41767Y43317D01*
G01X41782Y43364D01*
G01X41795Y43414D01*
G01X41804Y43464D01*
G01X41808Y43512D01*
G01X41801Y43591D01*
G01X41783Y43656D01*
G01X41752Y43708D01*
G01X41710Y43749D01*
G01X41659Y43779D01*
G01X41598Y43799D01*
G01X41529Y43811D01*
G01X41452Y43815D01*
G01X40822Y43815D01*
G01X40822Y43982D01*
G37*

%LPD*%
G36*
G01X41783Y43096D02*
G01X40165Y43096D01*
G01X40165Y42931D01*
G01X40614Y42931D01*
G01X40843Y42936D01*
G01X40806Y42896D01*
G01X40771Y42856D01*
G01X40740Y42814D01*
G01X40712Y42770D01*
G01X40689Y42724D01*
G01X40672Y42676D01*
G01X40661Y42624D01*
G01X40657Y42570D01*
G01X40660Y42515D01*
G01X40669Y42465D01*
G01X40685Y42420D01*
G01X40706Y42380D01*
G01X40733Y42345D01*
G01X40766Y42315D01*
G01X40805Y42291D01*
G01X40850Y42270D01*
G01X40901Y42254D01*
G01X40957Y42243D01*
G01X41019Y42237D01*
G01X41087Y42235D01*
G01X41783Y42235D01*
G01X41783Y42400D01*
G01X41107Y42400D01*
G01X41033Y42403D01*
G01X40969Y42412D01*
G01X40917Y42429D01*
G01X40875Y42452D01*
G01X40842Y42482D01*
G01X40820Y42520D01*
G01X40807Y42565D01*
G01X40802Y42618D01*
G01X40805Y42660D01*
G01X40813Y42699D01*
G01X40827Y42737D01*
G01X40847Y42774D01*
G01X40872Y42812D01*
G01X40903Y42850D01*
G01X40939Y42889D01*
G01X40980Y42931D01*
G01X41783Y42931D01*
G01X41783Y43096D01*
G37*

%LPD*%
G36*
G01X41381Y41889D02*
G01X40685Y41889D01*
G01X40685Y41724D01*
G01X41361Y41724D01*
G01X41435Y41721D01*
G01X41498Y41712D01*
G01X41550Y41696D01*
G01X41593Y41673D01*
G01X41625Y41643D01*
G01X41648Y41605D01*
G01X41661Y41559D01*
G01X41666Y41506D01*
G01X41663Y41464D01*
G01X41654Y41425D01*
G01X41639Y41387D01*
G01X41619Y41350D01*
G01X41591Y41314D01*
G01X41558Y41277D01*
G01X41519Y41238D01*
G01X41473Y41198D01*
G01X40685Y41198D01*
G01X40685Y41033D01*
G01X41783Y41033D01*
G01X41783Y41168D01*
G01X41607Y41183D01*
G01X41607Y41188D01*
G01X41650Y41227D01*
G01X41689Y41268D01*
G01X41723Y41310D01*
G01X41753Y41353D01*
G01X41776Y41398D01*
G01X41793Y41447D01*
G01X41804Y41499D01*
G01X41808Y41554D01*
G01X41805Y41609D01*
G01X41796Y41659D01*
G01X41781Y41704D01*
G01X41760Y41743D01*
G01X41733Y41778D01*
G01X41700Y41808D01*
G01X41662Y41833D01*
G01X41617Y41854D01*
G01X41567Y41869D01*
G01X41511Y41881D01*
G01X41449Y41887D01*
G01X41381Y41889D01*
G37*

%LPD*%
G36*
G01X41783Y40650D02*
G01X40165Y40650D01*
G01X40165Y40485D01*
G01X40614Y40485D01*
G01X40815Y40492D01*
G01X40783Y40452D01*
G01X40754Y40410D01*
G01X40727Y40368D01*
G01X40704Y40323D01*
G01X40684Y40278D01*
G01X40670Y40232D01*
G01X40660Y40186D01*
G01X40657Y40139D01*
G01X40660Y40087D01*
G01X40667Y40038D01*
G01X40680Y39992D01*
G01X40697Y39949D01*
G01X40719Y39910D01*
G01X40745Y39874D01*
G01X40776Y39841D01*
G01X40810Y39812D01*
G01X40848Y39786D01*
G01X40891Y39763D01*
G01X40937Y39744D01*
G01X40986Y39728D01*
G01X41039Y39715D01*
G01X41095Y39707D01*
G01X41154Y39702D01*
G01X41216Y39700D01*
G01X41285Y39702D01*
G01X41350Y39710D01*
G01X41410Y39722D01*
G01X41467Y39739D01*
G01X41520Y39760D01*
G01X41569Y39785D01*
G01X41613Y39813D01*
G01X41653Y39844D01*
G01X41689Y39879D01*
G01X41720Y39916D01*
G01X41746Y39956D01*
G01X41768Y39997D01*
G01X41786Y40041D01*
G01X41798Y40086D01*
G01X41805Y40133D01*
G01X41808Y40180D01*
G01X41799Y40259D01*
G01X41771Y40339D01*
G01X41728Y40420D01*
G01X41668Y40497D01*
G01X41668Y40500D01*
G01X41783Y40518D01*
G01X41783Y40650D01*
G37*

%LPC*%
G36*
G01X41549Y40485D02*
G01X40954Y40485D01*
G01X40887Y40404D01*
G01X40838Y40326D01*
G01X40807Y40250D01*
G01X40797Y40177D01*
G01X40801Y40125D01*
G01X40811Y40079D01*
G01X40828Y40038D01*
G01X40851Y40001D01*
G01X40880Y39969D01*
G01X40914Y39943D01*
G01X40954Y39921D01*
G01X40999Y39903D01*
G01X41048Y39889D01*
G01X41101Y39880D01*
G01X41158Y39874D01*
G01X41219Y39872D01*
G01X41286Y39875D01*
G01X41348Y39884D01*
G01X41406Y39897D01*
G01X41458Y39916D01*
G01X41506Y39939D01*
G01X41547Y39966D01*
G01X41583Y39997D01*
G01X41613Y40032D01*
G01X41637Y40071D01*
G01X41654Y40112D01*
G01X41665Y40156D01*
G01X41668Y40203D01*
G01X41662Y40265D01*
G01X41642Y40334D01*
G01X41605Y40408D01*
G01X41549Y40485D01*
G37*

%LPD*%
G36*
G01X41732Y39458D02*
G01X41678Y39469D01*
G01X41623Y39458D01*
G01X41581Y39431D01*
G01X41553Y39391D01*
G01X41544Y39344D01*
G01X41553Y39295D01*
G01X41581Y39255D01*
G01X41623Y39227D01*
G01X41678Y39217D01*
G01X41732Y39227D01*
G01X41773Y39255D01*
G01X41799Y39295D01*
G01X41808Y39344D01*
G01X41799Y39391D01*
G01X41773Y39431D01*
G01X41732Y39458D01*
G37*

%LPD*%
G36*
G01X41300Y38983D02*
G01X41234Y38986D01*
G01X41167Y38983D01*
G01X41104Y38975D01*
G01X41045Y38962D01*
G01X40990Y38943D01*
G01X40938Y38921D01*
G01X40890Y38894D01*
G01X40847Y38864D01*
G01X40808Y38829D01*
G01X40774Y38792D01*
G01X40743Y38752D01*
G01X40717Y38709D01*
G01X40696Y38663D01*
G01X40679Y38616D01*
G01X40667Y38567D01*
G01X40660Y38517D01*
G01X40657Y38465D01*
G01X40668Y38365D01*
G01X40697Y38279D01*
G01X40739Y38206D01*
G01X40789Y38143D01*
G01X40896Y38232D01*
G01X40856Y38281D01*
G01X40824Y38334D01*
G01X40804Y38393D01*
G01X40797Y38458D01*
G01X40801Y38508D01*
G01X40811Y38556D01*
G01X40829Y38600D01*
G01X40853Y38642D01*
G01X40883Y38680D01*
G01X40918Y38714D01*
G01X40960Y38744D01*
G01X41005Y38769D01*
G01X41056Y38789D01*
G01X41111Y38804D01*
G01X41171Y38813D01*
G01X41234Y38816D01*
G01X41297Y38813D01*
G01X41357Y38804D01*
G01X41413Y38790D01*
G01X41463Y38771D01*
G01X41510Y38747D01*
G01X41550Y38718D01*
G01X41586Y38685D01*
G01X41615Y38648D01*
G01X41639Y38607D01*
G01X41657Y38562D01*
G01X41667Y38514D01*
G01X41671Y38463D01*
G01X41662Y38387D01*
G01X41638Y38316D01*
G01X41602Y38252D01*
G01X41559Y38196D01*
G01X41668Y38122D01*
G01X41700Y38160D01*
G01X41728Y38201D01*
G01X41752Y38243D01*
G01X41771Y38286D01*
G01X41787Y38332D01*
G01X41799Y38378D01*
G01X41805Y38426D01*
G01X41808Y38475D01*
G01X41805Y38529D01*
G01X41798Y38581D01*
G01X41786Y38630D01*
G01X41769Y38677D01*
G01X41748Y38722D01*
G01X41722Y38764D01*
G01X41692Y38803D01*
G01X41657Y38839D01*
G01X41618Y38872D01*
G01X41575Y38901D01*
G01X41528Y38926D01*
G01X41477Y38947D01*
G01X41422Y38964D01*
G01X41363Y38976D01*
G01X41300Y38983D01*
G37*

%LPD*%
G36*
G01X41300Y38003D02*
G01X41234Y38006D01*
G01X41167Y38003D01*
G01X41104Y37995D01*
G01X41045Y37982D01*
G01X40990Y37964D01*
G01X40938Y37943D01*
G01X40890Y37917D01*
G01X40847Y37887D01*
G01X40808Y37854D01*
G01X40774Y37818D01*
G01X40743Y37778D01*
G01X40717Y37737D01*
G01X40696Y37693D01*
G01X40679Y37647D01*
G01X40667Y37599D01*
G01X40660Y37550D01*
G01X40657Y37500D01*
G01X40660Y37450D01*
G01X40667Y37402D01*
G01X40679Y37354D01*
G01X40696Y37309D01*
G01X40717Y37265D01*
G01X40743Y37223D01*
G01X40774Y37184D01*
G01X40809Y37148D01*
G01X40847Y37114D01*
G01X40890Y37084D01*
G01X40938Y37058D01*
G01X40990Y37036D01*
G01X41045Y37018D01*
G01X41104Y37005D01*
G01X41167Y36997D01*
G01X41234Y36995D01*
G01X41300Y36997D01*
G01X41363Y37005D01*
G01X41422Y37018D01*
G01X41477Y37036D01*
G01X41528Y37058D01*
G01X41575Y37084D01*
G01X41618Y37114D01*
G01X41657Y37148D01*
G01X41692Y37184D01*
G01X41722Y37223D01*
G01X41748Y37265D01*
G01X41769Y37309D01*
G01X41786Y37354D01*
G01X41798Y37402D01*
G01X41805Y37450D01*
G01X41808Y37500D01*
G01X41805Y37550D01*
G01X41798Y37599D01*
G01X41786Y37647D01*
G01X41769Y37693D01*
G01X41748Y37737D01*
G01X41722Y37778D01*
G01X41692Y37818D01*
G01X41657Y37854D01*
G01X41618Y37887D01*
G01X41575Y37917D01*
G01X41528Y37943D01*
G01X41477Y37964D01*
G01X41422Y37982D01*
G01X41363Y37995D01*
G01X41300Y38003D01*
G37*

%LPC*%
G36*
G01X41297Y37832D02*
G01X41234Y37835D01*
G01X41171Y37832D01*
G01X41111Y37824D01*
G01X41056Y37811D01*
G01X41005Y37793D01*
G01X40960Y37769D01*
G01X40918Y37742D01*
G01X40883Y37710D01*
G01X40853Y37675D01*
G01X40829Y37636D01*
G01X40811Y37594D01*
G01X40801Y37548D01*
G01X40797Y37500D01*
G01X40801Y37452D01*
G01X40811Y37407D01*
G01X40829Y37365D01*
G01X40853Y37326D01*
G01X40883Y37291D01*
G01X40918Y37259D01*
G01X40960Y37231D01*
G01X41005Y37208D01*
G01X41056Y37190D01*
G01X41111Y37176D01*
G01X41171Y37168D01*
G01X41234Y37165D01*
G01X41297Y37168D01*
G01X41357Y37176D01*
G01X41413Y37190D01*
G01X41463Y37208D01*
G01X41510Y37231D01*
G01X41550Y37259D01*
G01X41586Y37291D01*
G01X41615Y37326D01*
G01X41639Y37365D01*
G01X41657Y37407D01*
G01X41667Y37452D01*
G01X41671Y37500D01*
G01X41667Y37548D01*
G01X41657Y37594D01*
G01X41639Y37636D01*
G01X41615Y37675D01*
G01X41586Y37710D01*
G01X41550Y37742D01*
G01X41510Y37769D01*
G01X41463Y37793D01*
G01X41413Y37811D01*
G01X41357Y37824D01*
G01X41297Y37832D01*
G37*

%LPD*%
G36*
G01X41783Y36697D02*
G01X40685Y36697D01*
G01X40685Y36563D01*
G01X40848Y36545D01*
G01X40848Y36540D01*
G01X40809Y36503D01*
G01X40773Y36464D01*
G01X40741Y36423D01*
G01X40713Y36381D01*
G01X40689Y36338D01*
G01X40672Y36293D01*
G01X40661Y36247D01*
G01X40657Y36200D01*
G01X40661Y36139D01*
G01X40673Y36085D01*
G01X40691Y36039D01*
G01X40715Y35998D01*
G01X40746Y35965D01*
G01X40783Y35936D01*
G01X40824Y35913D01*
G01X40871Y35895D01*
G01X40825Y35851D01*
G01X40784Y35807D01*
G01X40747Y35763D01*
G01X40716Y35717D01*
G01X40691Y35672D01*
G01X40673Y35626D01*
G01X40661Y35578D01*
G01X40657Y35529D01*
G01X40660Y35476D01*
G01X40669Y35427D01*
G01X40685Y35383D01*
G01X40706Y35344D01*
G01X40733Y35309D01*
G01X40766Y35279D01*
G01X40805Y35254D01*
G01X40850Y35233D01*
G01X40901Y35217D01*
G01X40957Y35205D01*
G01X41019Y35198D01*
G01X41087Y35196D01*
G01X41783Y35196D01*
G01X41783Y35364D01*
G01X41107Y35364D01*
G01X41033Y35367D01*
G01X40969Y35377D01*
G01X40917Y35392D01*
G01X40875Y35415D01*
G01X40842Y35445D01*
G01X40820Y35482D01*
G01X40807Y35526D01*
G01X40802Y35577D01*
G01X40813Y35645D01*
G01X40846Y35715D01*
G01X40902Y35788D01*
G01X40980Y35864D01*
G01X41783Y35864D01*
G01X41783Y36029D01*
G01X41107Y36029D01*
G01X41033Y36032D01*
G01X40969Y36043D01*
G01X40917Y36059D01*
G01X40875Y36082D01*
G01X40842Y36112D01*
G01X40820Y36149D01*
G01X40807Y36193D01*
G01X40802Y36245D01*
G01X40813Y36312D01*
G01X40846Y36382D01*
G01X40902Y36456D01*
G01X40980Y36532D01*
G01X41783Y36532D01*
G01X41783Y36697D01*
G37*

%LPD*%
G36*
G01X42143Y34879D02*
G01X42143Y35001D01*
G01X40172Y34371D01*
G01X40172Y34249D01*
G01X42143Y34879D01*
G37*

%LPD*%
G36*
G01X42041Y34139D02*
G01X41996Y34142D01*
G01X41926Y34131D01*
G01X41860Y34099D01*
G01X41798Y34048D01*
G01X41744Y33980D01*
G01X41737Y33980D01*
G01X41706Y34019D01*
G01X41665Y34050D01*
G01X41615Y34071D01*
G01X41554Y34079D01*
G01X41489Y34068D01*
G01X41434Y34039D01*
G01X41387Y33999D01*
G01X41351Y33957D01*
G01X41343Y33957D01*
G01X41292Y34009D01*
G01X41223Y34054D01*
G01X41140Y34087D01*
G01X41046Y34099D01*
G01X40989Y34095D01*
G01X40936Y34084D01*
G01X40886Y34066D01*
G01X40841Y34043D01*
G01X40801Y34013D01*
G01X40764Y33979D01*
G01X40732Y33939D01*
G01X40706Y33896D01*
G01X40685Y33850D01*
G01X40670Y33799D01*
G01X40660Y33747D01*
G01X40657Y33693D01*
G01X40659Y33648D01*
G01X40665Y33608D01*
G01X40675Y33572D01*
G01X40685Y33540D01*
G01X40685Y33162D01*
G01X40812Y33162D01*
G01X40812Y33393D01*
G01X40858Y33354D01*
G01X40914Y33324D01*
G01X40979Y33303D01*
G01X41051Y33296D01*
G01X41107Y33300D01*
G01X41161Y33311D01*
G01X41209Y33327D01*
G01X41254Y33350D01*
G01X41295Y33378D01*
G01X41330Y33412D01*
G01X41361Y33450D01*
G01X41387Y33491D01*
G01X41408Y33538D01*
G01X41422Y33586D01*
G01X41431Y33638D01*
G01X41435Y33693D01*
G01X41432Y33736D01*
G01X41425Y33779D01*
G01X41412Y33823D01*
G01X41394Y33863D01*
G01X41421Y33891D01*
G01X41452Y33914D01*
G01X41489Y33928D01*
G01X41534Y33934D01*
G01X41583Y33925D01*
G01X41621Y33894D01*
G01X41646Y33834D01*
G01X41656Y33741D01*
G01X41656Y33520D01*
G01X41660Y33431D01*
G01X41671Y33355D01*
G01X41691Y33290D01*
G01X41718Y33236D01*
G01X41755Y33195D01*
G01X41800Y33165D01*
G01X41854Y33148D01*
G01X41917Y33141D01*
G01X41966Y33146D01*
G01X42014Y33159D01*
G01X42059Y33180D01*
G01X42103Y33209D01*
G01X42143Y33246D01*
G01X42179Y33290D01*
G01X42212Y33341D01*
G01X42240Y33399D01*
G01X42262Y33463D01*
G01X42279Y33533D01*
G01X42289Y33609D01*
G01X42293Y33690D01*
G01X42291Y33756D01*
G01X42284Y33817D01*
G01X42273Y33874D01*
G01X42258Y33927D01*
G01X42238Y33975D01*
G01X42215Y34017D01*
G01X42187Y34054D01*
G01X42156Y34085D01*
G01X42122Y34109D01*
G01X42083Y34127D01*
G01X42041Y34139D01*
G37*

%LPC*%
G36*
G01X42019Y33989D02*
G01X41976Y33995D01*
G01X41925Y33988D01*
G01X41874Y33966D01*
G01X41825Y33929D01*
G01X41777Y33875D01*
G01X41786Y33837D01*
G01X41792Y33800D01*
G01X41796Y33765D01*
G01X41798Y33736D01*
G01X41798Y33535D01*
G01X41805Y33436D01*
G01X41829Y33363D01*
G01X41873Y33319D01*
G01X41940Y33304D01*
G01X41984Y33311D01*
G01X42027Y33330D01*
G01X42067Y33361D01*
G01X42103Y33403D01*
G01X42133Y33455D01*
G01X42156Y33517D01*
G01X42171Y33588D01*
G01X42176Y33667D01*
G01X42173Y33740D01*
G01X42162Y33805D01*
G01X42145Y33861D01*
G01X42122Y33908D01*
G01X42092Y33946D01*
G01X42058Y33973D01*
G01X42019Y33989D01*
G37*
G36*
G01X41106Y33934D02*
G01X41046Y33939D01*
G01X40987Y33934D01*
G01X40935Y33920D01*
G01X40890Y33897D01*
G01X40852Y33867D01*
G01X40822Y33831D01*
G01X40800Y33789D01*
G01X40786Y33742D01*
G01X40782Y33693D01*
G01X40786Y33643D01*
G01X40800Y33597D01*
G01X40822Y33555D01*
G01X40853Y33519D01*
G01X40891Y33489D01*
G01X40936Y33466D01*
G01X40988Y33451D01*
G01X41046Y33446D01*
G01X41106Y33451D01*
G01X41160Y33466D01*
G01X41206Y33489D01*
G01X41246Y33520D01*
G01X41278Y33556D01*
G01X41301Y33599D01*
G01X41315Y33644D01*
G01X41320Y33693D01*
G01X41315Y33741D01*
G01X41301Y33787D01*
G01X41278Y33829D01*
G01X41246Y33865D01*
G01X41206Y33896D01*
G01X41160Y33919D01*
G01X41106Y33934D01*
G37*

%LPD*%
G36*
G01X41582Y32923D02*
G01X40165Y32923D01*
G01X40165Y32758D01*
G01X41595Y32758D01*
G01X41629Y32754D01*
G01X41652Y32743D01*
G01X41666Y32727D01*
G01X41671Y32707D01*
G01X41671Y32699D01*
G01X41670Y32692D01*
G01X41669Y32682D01*
G01X41666Y32669D01*
G01X41795Y32644D01*
G01X41800Y32664D01*
G01X41804Y32687D01*
G01X41807Y32713D01*
G01X41808Y32745D01*
G01X41793Y32825D01*
G01X41749Y32881D01*
G01X41678Y32913D01*
G01X41582Y32923D01*
G37*

%LPD*%
G36*
G01X41300Y32438D02*
G01X41234Y32440D01*
G01X41167Y32438D01*
G01X41104Y32430D01*
G01X41045Y32417D01*
G01X40990Y32400D01*
G01X40938Y32378D01*
G01X40890Y32352D01*
G01X40847Y32323D01*
G01X40808Y32290D01*
G01X40774Y32254D01*
G01X40743Y32215D01*
G01X40717Y32173D01*
G01X40696Y32129D01*
G01X40679Y32084D01*
G01X40667Y32037D01*
G01X40660Y31987D01*
G01X40657Y31937D01*
G01X40660Y31887D01*
G01X40667Y31838D01*
G01X40679Y31791D01*
G01X40696Y31745D01*
G01X40717Y31701D01*
G01X40743Y31659D01*
G01X40774Y31620D01*
G01X40809Y31584D01*
G01X40847Y31551D01*
G01X40890Y31521D01*
G01X40938Y31495D01*
G01X40990Y31473D01*
G01X41045Y31455D01*
G01X41104Y31443D01*
G01X41167Y31435D01*
G01X41234Y31432D01*
G01X41300Y31435D01*
G01X41363Y31443D01*
G01X41422Y31455D01*
G01X41477Y31473D01*
G01X41528Y31495D01*
G01X41575Y31521D01*
G01X41618Y31551D01*
G01X41657Y31584D01*
G01X41692Y31620D01*
G01X41722Y31659D01*
G01X41748Y31701D01*
G01X41769Y31745D01*
G01X41786Y31791D01*
G01X41798Y31838D01*
G01X41805Y31887D01*
G01X41808Y31937D01*
G01X41805Y31987D01*
G01X41798Y32037D01*
G01X41786Y32084D01*
G01X41769Y32129D01*
G01X41748Y32173D01*
G01X41722Y32215D01*
G01X41692Y32254D01*
G01X41657Y32290D01*
G01X41618Y32323D01*
G01X41575Y32352D01*
G01X41528Y32378D01*
G01X41477Y32400D01*
G01X41422Y32417D01*
G01X41363Y32430D01*
G01X41300Y32438D01*
G37*

%LPC*%
G36*
G01X41297Y32268D02*
G01X41234Y32270D01*
G01X41171Y32268D01*
G01X41111Y32260D01*
G01X41056Y32246D01*
G01X41005Y32228D01*
G01X40960Y32205D01*
G01X40918Y32178D01*
G01X40883Y32147D01*
G01X40853Y32112D01*
G01X40829Y32073D01*
G01X40811Y32031D01*
G01X40801Y31986D01*
G01X40797Y31937D01*
G01X40801Y31889D01*
G01X40811Y31844D01*
G01X40829Y31801D01*
G01X40853Y31763D01*
G01X40883Y31727D01*
G01X40918Y31696D01*
G01X40960Y31668D01*
G01X41005Y31645D01*
G01X41056Y31627D01*
G01X41111Y31613D01*
G01X41171Y31605D01*
G01X41234Y31602D01*
G01X41297Y31605D01*
G01X41357Y31613D01*
G01X41413Y31627D01*
G01X41463Y31645D01*
G01X41510Y31668D01*
G01X41550Y31696D01*
G01X41586Y31727D01*
G01X41615Y31763D01*
G01X41639Y31801D01*
G01X41657Y31844D01*
G01X41667Y31889D01*
G01X41671Y31937D01*
G01X41667Y31986D01*
G01X41657Y32031D01*
G01X41639Y32073D01*
G01X41615Y32112D01*
G01X41586Y32147D01*
G01X41550Y32178D01*
G01X41510Y32205D01*
G01X41463Y32228D01*
G01X41413Y32246D01*
G01X41357Y32260D01*
G01X41297Y32268D01*
G37*

%LPD*%
G36*
G01X41300Y31216D02*
G01X41234Y31219D01*
G01X41167Y31216D01*
G01X41104Y31208D01*
G01X41045Y31195D01*
G01X40990Y31177D01*
G01X40938Y31156D01*
G01X40890Y31130D01*
G01X40847Y31100D01*
G01X40808Y31067D01*
G01X40774Y31031D01*
G01X40743Y30992D01*
G01X40717Y30950D01*
G01X40696Y30906D01*
G01X40679Y30860D01*
G01X40667Y30812D01*
G01X40660Y30763D01*
G01X40657Y30713D01*
G01X40660Y30663D01*
G01X40667Y30615D01*
G01X40679Y30567D01*
G01X40696Y30522D01*
G01X40717Y30478D01*
G01X40743Y30436D01*
G01X40774Y30397D01*
G01X40809Y30361D01*
G01X40847Y30327D01*
G01X40890Y30297D01*
G01X40938Y30271D01*
G01X40990Y30249D01*
G01X41045Y30232D01*
G01X41104Y30218D01*
G01X41167Y30210D01*
G01X41234Y30208D01*
G01X41300Y30210D01*
G01X41363Y30218D01*
G01X41422Y30232D01*
G01X41477Y30249D01*
G01X41528Y30271D01*
G01X41575Y30297D01*
G01X41618Y30327D01*
G01X41657Y30361D01*
G01X41692Y30397D01*
G01X41722Y30436D01*
G01X41748Y30478D01*
G01X41769Y30522D01*
G01X41786Y30567D01*
G01X41798Y30615D01*
G01X41805Y30663D01*
G01X41808Y30713D01*
G01X41805Y30763D01*
G01X41798Y30812D01*
G01X41786Y30860D01*
G01X41769Y30906D01*
G01X41748Y30950D01*
G01X41722Y30992D01*
G01X41692Y31031D01*
G01X41657Y31067D01*
G01X41618Y31100D01*
G01X41575Y31130D01*
G01X41528Y31156D01*
G01X41477Y31177D01*
G01X41422Y31195D01*
G01X41363Y31208D01*
G01X41300Y31216D01*
G37*

%LPC*%
G36*
G01X41297Y31045D02*
G01X41234Y31048D01*
G01X41171Y31045D01*
G01X41111Y31037D01*
G01X41056Y31024D01*
G01X41005Y31006D01*
G01X40960Y30982D01*
G01X40918Y30955D01*
G01X40883Y30923D01*
G01X40853Y30888D01*
G01X40829Y30849D01*
G01X40811Y30807D01*
G01X40801Y30761D01*
G01X40797Y30713D01*
G01X40801Y30665D01*
G01X40811Y30620D01*
G01X40829Y30578D01*
G01X40853Y30539D01*
G01X40883Y30504D01*
G01X40918Y30472D01*
G01X40960Y30444D01*
G01X41005Y30422D01*
G01X41056Y30403D01*
G01X41111Y30389D01*
G01X41171Y30381D01*
G01X41234Y30378D01*
G01X41297Y30381D01*
G01X41357Y30389D01*
G01X41413Y30403D01*
G01X41463Y30422D01*
G01X41510Y30444D01*
G01X41550Y30472D01*
G01X41586Y30504D01*
G01X41615Y30539D01*
G01X41639Y30578D01*
G01X41657Y30620D01*
G01X41667Y30665D01*
G01X41671Y30713D01*
G01X41667Y30761D01*
G01X41657Y30807D01*
G01X41639Y30849D01*
G01X41615Y30888D01*
G01X41586Y30923D01*
G01X41550Y30955D01*
G01X41510Y30982D01*
G01X41463Y31006D01*
G01X41413Y31024D01*
G01X41357Y31037D01*
G01X41297Y31045D01*
G37*

%LPD*%
G36*
G01X41783Y29911D02*
G01X40685Y29911D01*
G01X40685Y29776D01*
G01X40848Y29758D01*
G01X40848Y29753D01*
G01X40809Y29716D01*
G01X40773Y29677D01*
G01X40741Y29636D01*
G01X40713Y29595D01*
G01X40689Y29551D01*
G01X40672Y29506D01*
G01X40661Y29460D01*
G01X40657Y29413D01*
G01X40661Y29352D01*
G01X40673Y29298D01*
G01X40691Y29252D01*
G01X40715Y29212D01*
G01X40746Y29178D01*
G01X40783Y29150D01*
G01X40824Y29126D01*
G01X40871Y29108D01*
G01X40825Y29064D01*
G01X40784Y29020D01*
G01X40747Y28976D01*
G01X40716Y28931D01*
G01X40691Y28885D01*
G01X40673Y28839D01*
G01X40661Y28791D01*
G01X40657Y28742D01*
G01X40660Y28689D01*
G01X40669Y28640D01*
G01X40685Y28596D01*
G01X40706Y28557D01*
G01X40733Y28522D01*
G01X40766Y28492D01*
G01X40805Y28467D01*
G01X40850Y28446D01*
G01X40901Y28430D01*
G01X40957Y28419D01*
G01X41019Y28411D01*
G01X41087Y28409D01*
G01X41783Y28409D01*
G01X41783Y28577D01*
G01X41107Y28577D01*
G01X41033Y28580D01*
G01X40969Y28590D01*
G01X40917Y28605D01*
G01X40875Y28628D01*
G01X40842Y28658D01*
G01X40820Y28695D01*
G01X40807Y28739D01*
G01X40802Y28790D01*
G01X40813Y28858D01*
G01X40846Y28928D01*
G01X40902Y29001D01*
G01X40980Y29077D01*
G01X41783Y29077D01*
G01X41783Y29243D01*
G01X41107Y29243D01*
G01X41033Y29246D01*
G01X40969Y29256D01*
G01X40917Y29272D01*
G01X40875Y29295D01*
G01X40842Y29325D01*
G01X40820Y29362D01*
G01X40807Y29407D01*
G01X40802Y29458D01*
G01X40813Y29525D01*
G01X40846Y29595D01*
G01X40902Y29669D01*
G01X40980Y29745D01*
G01X41783Y29745D01*
G01X41783Y29911D01*
G37*

%LPD*%
G36*
G01X41788Y27767D02*
G01X40685Y28209D01*
G01X40685Y28036D01*
G01X41313Y27802D01*
G01X41388Y27775D01*
G01X41467Y27747D01*
G01X41546Y27720D01*
G01X41622Y27693D01*
G01X41622Y27683D01*
G01X41546Y27660D01*
G01X41388Y27612D01*
G01X41313Y27589D01*
G01X40685Y27383D01*
G01X40685Y27221D01*
G01X41884Y27640D01*
G01X41935Y27659D01*
G01X41985Y27680D01*
G01X42031Y27704D01*
G01X42075Y27729D01*
G01X42115Y27757D01*
G01X42151Y27788D01*
G01X42183Y27822D01*
G01X42211Y27859D01*
G01X42233Y27899D01*
G01X42249Y27943D01*
G01X42259Y27990D01*
G01X42263Y28041D01*
G01X42261Y28076D01*
G01X42257Y28109D01*
G01X42250Y28139D01*
G01X42240Y28166D01*
G01X42105Y28133D01*
G01X42111Y28114D01*
G01X42117Y28092D01*
G01X42121Y28070D01*
G01X42123Y28046D01*
G01X42118Y28000D01*
G01X42104Y27959D01*
G01X42082Y27922D01*
G01X42052Y27888D01*
G01X42015Y27859D01*
G01X41973Y27832D01*
G01X41925Y27809D01*
G01X41874Y27790D01*
G01X41788Y27767D01*
G37*

%LPD*%
G36*
G01X41571Y27110D02*
G01X41501Y27117D01*
G01X41457Y27114D01*
G01X41416Y27107D01*
G01X41378Y27094D01*
G01X41342Y27076D01*
G01X41309Y27054D01*
G01X41279Y27026D01*
G01X41250Y26992D01*
G01X41224Y26953D01*
G01X41201Y26909D01*
G01X41179Y26859D01*
G01X41160Y26803D01*
G01X41142Y26742D01*
G01X41126Y26674D01*
G01X41112Y26601D01*
G01X41100Y26521D01*
G01X41089Y26436D01*
G01X41034Y26438D01*
G01X40981Y26446D01*
G01X40931Y26460D01*
G01X40886Y26482D01*
G01X40849Y26513D01*
G01X40820Y26554D01*
G01X40801Y26605D01*
G01X40794Y26670D01*
G01X40805Y26766D01*
G01X40834Y26855D01*
G01X40873Y26936D01*
G01X40916Y27005D01*
G01X40802Y27071D01*
G01X40778Y27032D01*
G01X40753Y26989D01*
G01X40728Y26940D01*
G01X40706Y26888D01*
G01X40686Y26832D01*
G01X40671Y26772D01*
G01X40661Y26710D01*
G01X40657Y26644D01*
G01X40661Y26581D01*
G01X40672Y26524D01*
G01X40690Y26473D01*
G01X40714Y26429D01*
G01X40744Y26391D01*
G01X40781Y26359D01*
G01X40822Y26332D01*
G01X40869Y26310D01*
G01X40921Y26294D01*
G01X40977Y26282D01*
G01X41038Y26275D01*
G01X41102Y26273D01*
G01X41783Y26273D01*
G01X41783Y26408D01*
G01X41648Y26423D01*
G01X41648Y26428D01*
G01X41680Y26469D01*
G01X41710Y26512D01*
G01X41738Y26556D01*
G01X41761Y26601D01*
G01X41780Y26649D01*
G01X41795Y26697D01*
G01X41805Y26747D01*
G01X41808Y26799D01*
G01X41803Y26865D01*
G01X41788Y26925D01*
G01X41763Y26979D01*
G01X41729Y27026D01*
G01X41685Y27064D01*
G01X41632Y27092D01*
G01X41571Y27110D01*
G37*

%LPC*%
G36*
G01X41575Y26940D02*
G01X41490Y26957D01*
G01X41454Y26953D01*
G01X41420Y26945D01*
G01X41388Y26930D01*
G01X41359Y26908D01*
G01X41331Y26879D01*
G01X41307Y26842D01*
G01X41284Y26797D01*
G01X41263Y26744D01*
G01X41245Y26681D01*
G01X41228Y26610D01*
G01X41213Y26528D01*
G01X41201Y26436D01*
G01X41523Y26436D01*
G01X41589Y26517D01*
G01X41637Y26594D01*
G01X41666Y26672D01*
G01X41676Y26753D01*
G01X41666Y26832D01*
G01X41633Y26897D01*
G01X41575Y26940D01*
G37*

%LPD*%
G36*
G01X41783Y25910D02*
G01X40685Y25910D01*
G01X40685Y25775D01*
G01X40845Y25760D01*
G01X40845Y25755D01*
G01X40807Y25714D01*
G01X40772Y25673D01*
G01X40740Y25631D01*
G01X40712Y25586D01*
G01X40689Y25539D01*
G01X40672Y25490D01*
G01X40661Y25439D01*
G01X40657Y25384D01*
G01X40660Y25329D01*
G01X40669Y25280D01*
G01X40685Y25235D01*
G01X40706Y25196D01*
G01X40733Y25161D01*
G01X40766Y25131D01*
G01X40805Y25106D01*
G01X40850Y25085D01*
G01X40901Y25069D01*
G01X40957Y25058D01*
G01X41019Y25051D01*
G01X41087Y25049D01*
G01X41783Y25049D01*
G01X41783Y25217D01*
G01X41107Y25217D01*
G01X41033Y25220D01*
G01X40969Y25229D01*
G01X40917Y25245D01*
G01X40875Y25267D01*
G01X40842Y25297D01*
G01X40820Y25334D01*
G01X40807Y25380D01*
G01X40802Y25433D01*
G01X40805Y25475D01*
G01X40813Y25515D01*
G01X40827Y25553D01*
G01X40847Y25591D01*
G01X40872Y25628D01*
G01X40903Y25665D01*
G01X40939Y25704D01*
G01X40980Y25745D01*
G01X41783Y25745D01*
G01X41783Y25910D01*
G37*

%LPD*%
G36*
G01X41301Y24762D02*
G01X41234Y24765D01*
G01X41169Y24762D01*
G01X41108Y24754D01*
G01X41049Y24742D01*
G01X40995Y24725D01*
G01X40944Y24705D01*
G01X40896Y24680D01*
G01X40853Y24652D01*
G01X40813Y24620D01*
G01X40778Y24586D01*
G01X40747Y24549D01*
G01X40720Y24509D01*
G01X40698Y24468D01*
G01X40680Y24425D01*
G01X40667Y24380D01*
G01X40660Y24334D01*
G01X40657Y24287D01*
G01X40666Y24197D01*
G01X40692Y24118D01*
G01X40732Y24045D01*
G01X40787Y23972D01*
G01X40596Y23980D01*
G01X40165Y23980D01*
G01X40165Y23815D01*
G01X41783Y23815D01*
G01X41783Y23952D01*
G01X41650Y23967D01*
G01X41650Y23972D01*
G01X41682Y24006D01*
G01X41711Y24043D01*
G01X41738Y24082D01*
G01X41762Y24124D01*
G01X41781Y24168D01*
G01X41795Y24214D01*
G01X41805Y24263D01*
G01X41808Y24312D01*
G01X41805Y24363D01*
G01X41798Y24410D01*
G01X41787Y24456D01*
G01X41770Y24499D01*
G01X41749Y24539D01*
G01X41724Y24576D01*
G01X41694Y24610D01*
G01X41659Y24642D01*
G01X41620Y24669D01*
G01X41577Y24694D01*
G01X41530Y24715D01*
G01X41479Y24732D01*
G01X41424Y24746D01*
G01X41364Y24756D01*
G01X41301Y24762D01*
G37*

%LPC*%
G36*
G01X41299Y24589D02*
G01X41234Y24592D01*
G01X41171Y24589D01*
G01X41112Y24580D01*
G01X41058Y24566D01*
G01X41007Y24548D01*
G01X40961Y24524D01*
G01X40919Y24496D01*
G01X40883Y24465D01*
G01X40853Y24430D01*
G01X40829Y24392D01*
G01X40812Y24350D01*
G01X40801Y24307D01*
G01X40797Y24262D01*
G01X40804Y24191D01*
G01X40825Y24121D01*
G01X40864Y24052D01*
G01X40919Y23980D01*
G01X41513Y23980D01*
G01X41580Y24053D01*
G01X41629Y24125D01*
G01X41658Y24199D01*
G01X41668Y24277D01*
G01X41665Y24325D01*
G01X41654Y24370D01*
G01X41638Y24411D01*
G01X41615Y24448D01*
G01X41586Y24481D01*
G01X41552Y24509D01*
G01X41512Y24534D01*
G01X41466Y24555D01*
G01X41415Y24571D01*
G01X41359Y24583D01*
G01X41299Y24589D01*
G37*

%LPD*%
G36*
G01X41788Y23154D02*
G01X40685Y23599D01*
G01X40685Y23426D01*
G01X41313Y23192D01*
G01X41388Y23165D01*
G01X41467Y23137D01*
G01X41546Y23110D01*
G01X41622Y23083D01*
G01X41622Y23073D01*
G01X41546Y23049D01*
G01X41467Y23026D01*
G01X41388Y23002D01*
G01X41313Y22979D01*
G01X40685Y22773D01*
G01X40685Y22611D01*
G01X41884Y23030D01*
G01X41935Y23049D01*
G01X41985Y23070D01*
G01X42031Y23093D01*
G01X42075Y23119D01*
G01X42115Y23146D01*
G01X42151Y23176D01*
G01X42183Y23210D01*
G01X42211Y23247D01*
G01X42233Y23287D01*
G01X42249Y23330D01*
G01X42259Y23377D01*
G01X42263Y23428D01*
G01X42261Y23465D01*
G01X42257Y23498D01*
G01X42250Y23528D01*
G01X42240Y23555D01*
G01X42105Y23520D01*
G01X42111Y23503D01*
G01X42117Y23482D01*
G01X42121Y23459D01*
G01X42123Y23436D01*
G01X42118Y23390D01*
G01X42104Y23349D01*
G01X42082Y23312D01*
G01X42052Y23278D01*
G01X42015Y23249D01*
G01X41973Y23222D01*
G01X41925Y23199D01*
G01X41874Y23180D01*
G01X41788Y23154D01*
G37*

%LPD*%
G36*
G01X42143Y22473D02*
G01X42143Y22595D01*
G01X40172Y21968D01*
G01X40172Y21846D01*
G01X42143Y22473D01*
G37*

%LPD*%
G36*
G01X41783Y21615D02*
G01X40294Y21615D01*
G01X40294Y21160D01*
G01X40297Y21087D01*
G01X40304Y21017D01*
G01X40316Y20952D01*
G01X40334Y20892D01*
G01X40357Y20838D01*
G01X40387Y20789D01*
G01X40423Y20747D01*
G01X40465Y20711D01*
G01X40515Y20683D01*
G01X40571Y20662D01*
G01X40636Y20649D01*
G01X40708Y20645D01*
G01X40764Y20648D01*
G01X40817Y20656D01*
G01X40865Y20670D01*
G01X40909Y20688D01*
G01X40949Y20711D01*
G01X40986Y20739D01*
G01X41018Y20772D01*
G01X41047Y20808D01*
G01X41072Y20848D01*
G01X41093Y20892D01*
G01X41111Y20939D01*
G01X41125Y20990D01*
G01X41783Y20607D01*
G01X41783Y20797D01*
G01X41140Y21168D01*
G01X41140Y21447D01*
G01X41783Y21447D01*
G01X41783Y21615D01*
G37*

%LPC*%
G36*
G01X41003Y21447D02*
G01X40431Y21447D01*
G01X40431Y21186D01*
G01X40435Y21101D01*
G01X40446Y21027D01*
G01X40465Y20963D01*
G01X40494Y20911D01*
G01X40531Y20869D01*
G01X40579Y20839D01*
G01X40638Y20821D01*
G01X40708Y20815D01*
G01X40778Y20821D01*
G01X40838Y20839D01*
G01X40888Y20869D01*
G01X40930Y20911D01*
G01X40962Y20963D01*
G01X40984Y21027D01*
G01X40998Y21101D01*
G01X41003Y21186D01*
G01X41003Y21447D01*
G37*

%LPD*%
G36*
G01X41300Y20459D02*
G01X41234Y20462D01*
G01X41169Y20459D01*
G01X41107Y20451D01*
G01X41048Y20438D01*
G01X40994Y20421D01*
G01X40943Y20399D01*
G01X40895Y20374D01*
G01X40852Y20344D01*
G01X40812Y20312D01*
G01X40777Y20277D01*
G01X40746Y20239D01*
G01X40719Y20199D01*
G01X40697Y20156D01*
G01X40680Y20112D01*
G01X40667Y20067D01*
G01X40660Y20021D01*
G01X40657Y19974D01*
G01X40661Y19908D01*
G01X40673Y19847D01*
G01X40693Y19791D01*
G01X40720Y19739D01*
G01X40754Y19694D01*
G01X40795Y19654D01*
G01X40842Y19620D01*
G01X40896Y19592D01*
G01X40956Y19569D01*
G01X41022Y19553D01*
G01X41094Y19543D01*
G01X41170Y19540D01*
G01X41198Y19540D01*
G01X41225Y19542D01*
G01X41249Y19544D01*
G01X41269Y19547D01*
G01X41269Y20299D01*
G01X41329Y20294D01*
G01X41384Y20283D01*
G01X41436Y20267D01*
G01X41483Y20246D01*
G01X41526Y20220D01*
G01X41564Y20189D01*
G01X41597Y20154D01*
G01X41625Y20116D01*
G01X41647Y20073D01*
G01X41663Y20026D01*
G01X41672Y19977D01*
G01X41676Y19923D01*
G01X41670Y19845D01*
G01X41652Y19773D01*
G01X41625Y19706D01*
G01X41587Y19644D01*
G01X41696Y19583D01*
G01X41718Y19620D01*
G01X41739Y19659D01*
G01X41758Y19699D01*
G01X41775Y19742D01*
G01X41789Y19788D01*
G01X41799Y19836D01*
G01X41805Y19888D01*
G01X41808Y19944D01*
G01X41805Y19997D01*
G01X41798Y20048D01*
G01X41786Y20098D01*
G01X41769Y20146D01*
G01X41747Y20191D01*
G01X41722Y20234D01*
G01X41691Y20274D01*
G01X41656Y20310D01*
G01X41617Y20344D01*
G01X41574Y20373D01*
G01X41527Y20399D01*
G01X41476Y20421D01*
G01X41421Y20438D01*
G01X41362Y20451D01*
G01X41300Y20459D01*
G37*

%LPC*%
G36*
G01X41148Y19687D02*
G01X41148Y20299D01*
G01X41068Y20286D01*
G01X40998Y20262D01*
G01X40937Y20230D01*
G01X40886Y20188D01*
G01X40845Y20141D01*
G01X40816Y20088D01*
G01X40798Y20031D01*
G01X40792Y19972D01*
G01X40797Y19908D01*
G01X40815Y19851D01*
G01X40843Y19802D01*
G01X40882Y19762D01*
G01X40932Y19730D01*
G01X40994Y19706D01*
G01X41065Y19692D01*
G01X41148Y19687D01*
G37*

%LPD*%
G36*
G01X42255Y19263D02*
G01X40685Y19263D01*
G01X40685Y19128D01*
G01X40812Y19110D01*
G01X40812Y19105D01*
G01X40782Y19066D01*
G01X40754Y19025D01*
G01X40727Y18982D01*
G01X40704Y18938D01*
G01X40685Y18893D01*
G01X40670Y18847D01*
G01X40661Y18800D01*
G01X40657Y18752D01*
G01X40660Y18700D01*
G01X40667Y18651D01*
G01X40680Y18605D01*
G01X40697Y18562D01*
G01X40719Y18523D01*
G01X40745Y18487D01*
G01X40776Y18455D01*
G01X40810Y18425D01*
G01X40848Y18399D01*
G01X40891Y18376D01*
G01X40937Y18357D01*
G01X40986Y18341D01*
G01X41039Y18329D01*
G01X41095Y18320D01*
G01X41154Y18315D01*
G01X41216Y18313D01*
G01X41285Y18315D01*
G01X41350Y18323D01*
G01X41410Y18335D01*
G01X41467Y18352D01*
G01X41520Y18373D01*
G01X41569Y18398D01*
G01X41613Y18426D01*
G01X41653Y18458D01*
G01X41689Y18492D01*
G01X41720Y18529D01*
G01X41746Y18569D01*
G01X41768Y18611D01*
G01X41786Y18654D01*
G01X41798Y18699D01*
G01X41805Y18746D01*
G01X41808Y18793D01*
G01X41799Y18870D01*
G01X41775Y18947D01*
G01X41735Y19024D01*
G01X41681Y19100D01*
G01X41874Y19098D01*
G01X42255Y19098D01*
G01X42255Y19263D01*
G37*

%LPC*%
G36*
G01X41549Y19098D02*
G01X40954Y19098D01*
G01X40887Y19016D01*
G01X40838Y18938D01*
G01X40807Y18864D01*
G01X40797Y18790D01*
G01X40801Y18739D01*
G01X40811Y18692D01*
G01X40828Y18651D01*
G01X40851Y18614D01*
G01X40880Y18583D01*
G01X40914Y18556D01*
G01X40954Y18534D01*
G01X40999Y18516D01*
G01X41048Y18502D01*
G01X41101Y18493D01*
G01X41158Y18488D01*
G01X41219Y18486D01*
G01X41286Y18489D01*
G01X41348Y18497D01*
G01X41406Y18511D01*
G01X41458Y18529D01*
G01X41506Y18552D01*
G01X41547Y18579D01*
G01X41583Y18611D01*
G01X41613Y18646D01*
G01X41637Y18684D01*
G01X41654Y18725D01*
G01X41665Y18769D01*
G01X41668Y18816D01*
G01X41662Y18877D01*
G01X41642Y18946D01*
G01X41605Y19021D01*
G01X41549Y19098D01*
G37*

%LPD*%
G36*
G01X41783Y17998D02*
G01X40294Y17998D01*
G01X40294Y17543D01*
G01X40297Y17470D01*
G01X40304Y17400D01*
G01X40316Y17335D01*
G01X40334Y17275D01*
G01X40357Y17221D01*
G01X40387Y17172D01*
G01X40423Y17130D01*
G01X40465Y17094D01*
G01X40515Y17066D01*
G01X40571Y17045D01*
G01X40636Y17032D01*
G01X40708Y17028D01*
G01X40764Y17031D01*
G01X40817Y17039D01*
G01X40865Y17053D01*
G01X40909Y17071D01*
G01X40949Y17094D01*
G01X40986Y17122D01*
G01X41018Y17155D01*
G01X41047Y17191D01*
G01X41072Y17231D01*
G01X41093Y17275D01*
G01X41111Y17322D01*
G01X41125Y17373D01*
G01X41783Y16990D01*
G01X41783Y17180D01*
G01X41140Y17551D01*
G01X41140Y17830D01*
G01X41783Y17830D01*
G01X41783Y17998D01*
G37*

%LPC*%
G36*
G01X41003Y17830D02*
G01X40431Y17830D01*
G01X40431Y17569D01*
G01X40435Y17484D01*
G01X40446Y17410D01*
G01X40465Y17346D01*
G01X40494Y17294D01*
G01X40531Y17252D01*
G01X40579Y17222D01*
G01X40638Y17204D01*
G01X40708Y17198D01*
G01X40778Y17204D01*
G01X40838Y17222D01*
G01X40888Y17252D01*
G01X40930Y17294D01*
G01X40962Y17346D01*
G01X40984Y17410D01*
G01X40998Y17484D01*
G01X41003Y17569D01*
G01X41003Y17830D01*
G37*

%LPD*%
G36*
G01X41571Y16811D02*
G01X41501Y16817D01*
G01X41457Y16814D01*
G01X41416Y16807D01*
G01X41378Y16794D01*
G01X41342Y16777D01*
G01X41309Y16754D01*
G01X41279Y16726D01*
G01X41250Y16692D01*
G01X41224Y16654D01*
G01X41201Y16609D01*
G01X41179Y16559D01*
G01X41160Y16503D01*
G01X41142Y16442D01*
G01X41126Y16374D01*
G01X41112Y16301D01*
G01X41100Y16221D01*
G01X41089Y16136D01*
G01X41034Y16138D01*
G01X40981Y16145D01*
G01X40931Y16159D01*
G01X40886Y16181D01*
G01X40849Y16213D01*
G01X40820Y16253D01*
G01X40801Y16306D01*
G01X40794Y16370D01*
G01X40805Y16466D01*
G01X40834Y16555D01*
G01X40873Y16635D01*
G01X40916Y16703D01*
G01X40802Y16771D01*
G01X40778Y16733D01*
G01X40753Y16688D01*
G01X40728Y16640D01*
G01X40706Y16587D01*
G01X40686Y16531D01*
G01X40671Y16471D01*
G01X40661Y16409D01*
G01X40657Y16344D01*
G01X40661Y16281D01*
G01X40672Y16224D01*
G01X40690Y16174D01*
G01X40714Y16129D01*
G01X40744Y16090D01*
G01X40781Y16058D01*
G01X40822Y16030D01*
G01X40869Y16009D01*
G01X40921Y15992D01*
G01X40977Y15980D01*
G01X41038Y15973D01*
G01X41102Y15971D01*
G01X41783Y15971D01*
G01X41783Y16108D01*
G01X41648Y16123D01*
G01X41648Y16129D01*
G01X41680Y16169D01*
G01X41710Y16212D01*
G01X41738Y16256D01*
G01X41761Y16302D01*
G01X41780Y16349D01*
G01X41795Y16397D01*
G01X41805Y16448D01*
G01X41808Y16499D01*
G01X41803Y16565D01*
G01X41788Y16625D01*
G01X41763Y16679D01*
G01X41729Y16726D01*
G01X41685Y16764D01*
G01X41632Y16792D01*
G01X41571Y16811D01*
G37*

%LPC*%
G36*
G01X41575Y16641D02*
G01X41490Y16657D01*
G01X41454Y16654D01*
G01X41420Y16645D01*
G01X41388Y16630D01*
G01X41359Y16608D01*
G01X41331Y16579D01*
G01X41307Y16542D01*
G01X41284Y16497D01*
G01X41263Y16444D01*
G01X41245Y16381D01*
G01X41228Y16310D01*
G01X41213Y16228D01*
G01X41201Y16136D01*
G01X41523Y16136D01*
G01X41589Y16217D01*
G01X41637Y16295D01*
G01X41666Y16372D01*
G01X41676Y16454D01*
G01X41666Y16532D01*
G01X41633Y16597D01*
G01X41575Y16641D01*
G37*

%LPD*%
G36*
G01X42255Y15610D02*
G01X40685Y15610D01*
G01X40685Y15476D01*
G01X40812Y15460D01*
G01X40812Y15453D01*
G01X40782Y15414D01*
G01X40754Y15373D01*
G01X40727Y15330D01*
G01X40704Y15287D01*
G01X40685Y15242D01*
G01X40670Y15195D01*
G01X40661Y15148D01*
G01X40657Y15100D01*
G01X40660Y15047D01*
G01X40667Y14999D01*
G01X40680Y14952D01*
G01X40697Y14910D01*
G01X40719Y14871D01*
G01X40745Y14835D01*
G01X40776Y14802D01*
G01X40810Y14773D01*
G01X40848Y14746D01*
G01X40891Y14724D01*
G01X40937Y14705D01*
G01X40986Y14689D01*
G01X41039Y14676D01*
G01X41095Y14667D01*
G01X41154Y14662D01*
G01X41216Y14660D01*
G01X41285Y14663D01*
G01X41350Y14671D01*
G01X41410Y14683D01*
G01X41467Y14699D01*
G01X41520Y14720D01*
G01X41569Y14745D01*
G01X41613Y14774D01*
G01X41653Y14805D01*
G01X41689Y14840D01*
G01X41720Y14877D01*
G01X41746Y14916D01*
G01X41768Y14958D01*
G01X41786Y15002D01*
G01X41798Y15047D01*
G01X41805Y15093D01*
G01X41808Y15140D01*
G01X41799Y15217D01*
G01X41775Y15294D01*
G01X41735Y15372D01*
G01X41681Y15450D01*
G01X41874Y15445D01*
G01X42255Y15445D01*
G01X42255Y15610D01*
G37*

%LPC*%
G36*
G01X41549Y15445D02*
G01X40954Y15445D01*
G01X40887Y15363D01*
G01X40838Y15286D01*
G01X40807Y15211D01*
G01X40797Y15138D01*
G01X40801Y15086D01*
G01X40811Y15039D01*
G01X40828Y14998D01*
G01X40851Y14962D01*
G01X40880Y14930D01*
G01X40914Y14904D01*
G01X40954Y14881D01*
G01X40999Y14864D01*
G01X41048Y14850D01*
G01X41101Y14841D01*
G01X41158Y14835D01*
G01X41219Y14833D01*
G01X41286Y14836D01*
G01X41348Y14844D01*
G01X41406Y14859D01*
G01X41458Y14877D01*
G01X41506Y14900D01*
G01X41547Y14928D01*
G01X41583Y14960D01*
G01X41613Y14995D01*
G01X41637Y15033D01*
G01X41654Y15075D01*
G01X41665Y15119D01*
G01X41668Y15166D01*
G01X41662Y15226D01*
G01X41642Y15294D01*
G01X41605Y15368D01*
G01X41549Y15445D01*
G37*

%LPD*%
G36*
G01X41783Y14345D02*
G01X40294Y14345D01*
G01X40294Y13502D01*
G01X40436Y13502D01*
G01X40436Y14178D01*
G01X40962Y14178D01*
G01X40962Y13604D01*
G01X41104Y13604D01*
G01X41104Y14178D01*
G01X41783Y14178D01*
G01X41783Y14345D01*
G37*

%LPD*%
G36*
G01X41783Y13251D02*
G01X40685Y13251D01*
G01X40685Y13086D01*
G01X41783Y13086D01*
G01X41783Y13251D01*
G37*

%LPD*%
G36*
G01X40382Y13276D02*
G01X40335Y13284D01*
G01X40288Y13276D01*
G01X40253Y13252D01*
G01X40231Y13215D01*
G01X40223Y13167D01*
G01X40231Y13123D01*
G01X40253Y13087D01*
G01X40288Y13064D01*
G01X40335Y13055D01*
G01X40382Y13064D01*
G01X40419Y13087D01*
G01X40441Y13123D01*
G01X40449Y13167D01*
G01X40441Y13215D01*
G01X40419Y13252D01*
G01X40382Y13276D01*
G37*

%LPD*%
G36*
G01X41783Y12705D02*
G01X40685Y12705D01*
G01X40685Y12570D01*
G01X40886Y12555D01*
G01X40886Y12547D01*
G01X40837Y12518D01*
G01X40792Y12485D01*
G01X40753Y12450D01*
G01X40720Y12411D01*
G01X40693Y12370D01*
G01X40674Y12328D01*
G01X40661Y12283D01*
G01X40657Y12237D01*
G01X40658Y12205D01*
G01X40662Y12176D01*
G01X40669Y12148D01*
G01X40680Y12120D01*
G01X40825Y12153D01*
G01X40817Y12180D01*
G01X40811Y12204D01*
G01X40808Y12229D01*
G01X40807Y12258D01*
G01X40811Y12294D01*
G01X40821Y12331D01*
G01X40839Y12369D01*
G01X40865Y12406D01*
G01X40901Y12442D01*
G01X40945Y12478D01*
G01X41000Y12510D01*
G01X41066Y12539D01*
G01X41783Y12539D01*
G01X41783Y12705D01*
G37*

%LPD*%
G36*
G01X41783Y11935D02*
G01X40685Y11935D01*
G01X40685Y11800D01*
G01X40848Y11785D01*
G01X40848Y11777D01*
G01X40809Y11741D01*
G01X40773Y11702D01*
G01X40741Y11662D01*
G01X40713Y11619D01*
G01X40689Y11576D01*
G01X40672Y11531D01*
G01X40661Y11484D01*
G01X40657Y11437D01*
G01X40661Y11377D01*
G01X40673Y11324D01*
G01X40691Y11278D01*
G01X40715Y11237D01*
G01X40746Y11203D01*
G01X40783Y11176D01*
G01X40824Y11153D01*
G01X40871Y11135D01*
G01X40825Y11090D01*
G01X40784Y11046D01*
G01X40747Y11001D01*
G01X40716Y10957D01*
G01X40691Y10911D01*
G01X40673Y10865D01*
G01X40661Y10818D01*
G01X40657Y10769D01*
G01X40660Y10716D01*
G01X40669Y10666D01*
G01X40685Y10622D01*
G01X40706Y10583D01*
G01X40733Y10548D01*
G01X40766Y10518D01*
G01X40805Y10492D01*
G01X40850Y10471D01*
G01X40901Y10455D01*
G01X40957Y10443D01*
G01X41019Y10436D01*
G01X41087Y10434D01*
G01X41783Y10434D01*
G01X41783Y10601D01*
G01X41107Y10601D01*
G01X41033Y10605D01*
G01X40969Y10614D01*
G01X40917Y10630D01*
G01X40875Y10653D01*
G01X40842Y10683D01*
G01X40820Y10719D01*
G01X40807Y10764D01*
G01X40802Y10815D01*
G01X40813Y10882D01*
G01X40846Y10953D01*
G01X40902Y11027D01*
G01X40980Y11104D01*
G01X41783Y11104D01*
G01X41783Y11267D01*
G01X41107Y11267D01*
G01X41033Y11270D01*
G01X40969Y11280D01*
G01X40917Y11296D01*
G01X40875Y11320D01*
G01X40842Y11350D01*
G01X40820Y11387D01*
G01X40807Y11431D01*
G01X40802Y11483D01*
G01X40813Y11549D01*
G01X40846Y11619D01*
G01X40902Y11693D01*
G01X40980Y11770D01*
G01X41783Y11770D01*
G01X41783Y11935D01*
G37*

%LPD*%
G36*
G01X41783Y9895D02*
G01X40685Y10205D01*
G01X40685Y10038D01*
G01X41338Y9865D01*
G01X41415Y9847D01*
G01X41640Y9796D01*
G01X41640Y9789D01*
G01X41565Y9770D01*
G01X41490Y9752D01*
G01X41415Y9733D01*
G01X41338Y9712D01*
G01X40685Y9535D01*
G01X40685Y9367D01*
G01X41338Y9189D01*
G01X41415Y9170D01*
G01X41640Y9113D01*
G01X41640Y9103D01*
G01X41565Y9086D01*
G01X41490Y9068D01*
G01X41415Y9051D01*
G01X41338Y9032D01*
G01X40685Y8864D01*
G01X40685Y8707D01*
G01X41783Y9006D01*
G01X41783Y9207D01*
G01X41170Y9375D01*
G01X41093Y9396D01*
G01X41014Y9415D01*
G01X40935Y9433D01*
G01X40853Y9451D01*
G01X40853Y9461D01*
G01X40935Y9480D01*
G01X41016Y9499D01*
G01X41095Y9518D01*
G01X41173Y9540D01*
G01X41783Y9702D01*
G01X41783Y9895D01*
G37*

%LPD*%
G36*
G01X41571Y8548D02*
G01X41501Y8554D01*
G01X41457Y8552D01*
G01X41416Y8544D01*
G01X41378Y8532D01*
G01X41342Y8514D01*
G01X41309Y8491D01*
G01X41279Y8463D01*
G01X41250Y8429D01*
G01X41224Y8390D01*
G01X41201Y8345D01*
G01X41179Y8295D01*
G01X41160Y8240D01*
G01X41142Y8178D01*
G01X41126Y8111D01*
G01X41112Y8038D01*
G01X41100Y7958D01*
G01X41089Y7874D01*
G01X41034Y7875D01*
G01X40981Y7882D01*
G01X40931Y7896D01*
G01X40886Y7918D01*
G01X40849Y7949D01*
G01X40820Y7990D01*
G01X40801Y8042D01*
G01X40794Y8107D01*
G01X40805Y8203D01*
G01X40834Y8292D01*
G01X40873Y8371D01*
G01X40916Y8440D01*
G01X40802Y8506D01*
G01X40778Y8468D01*
G01X40753Y8425D01*
G01X40728Y8376D01*
G01X40706Y8324D01*
G01X40686Y8268D01*
G01X40671Y8208D01*
G01X40661Y8145D01*
G01X40657Y8079D01*
G01X40661Y8016D01*
G01X40672Y7959D01*
G01X40690Y7909D01*
G01X40714Y7864D01*
G01X40744Y7826D01*
G01X40781Y7794D01*
G01X40822Y7767D01*
G01X40869Y7745D01*
G01X40921Y7729D01*
G01X40977Y7718D01*
G01X41038Y7710D01*
G01X41102Y7708D01*
G01X41783Y7708D01*
G01X41783Y7843D01*
G01X41648Y7858D01*
G01X41648Y7863D01*
G01X41680Y7904D01*
G01X41710Y7947D01*
G01X41738Y7991D01*
G01X41761Y8037D01*
G01X41780Y8085D01*
G01X41795Y8134D01*
G01X41805Y8183D01*
G01X41808Y8234D01*
G01X41803Y8300D01*
G01X41788Y8360D01*
G01X41763Y8415D01*
G01X41729Y8462D01*
G01X41685Y8500D01*
G01X41632Y8529D01*
G01X41571Y8548D01*
G37*

%LPC*%
G36*
G01X41575Y8375D02*
G01X41490Y8392D01*
G01X41454Y8389D01*
G01X41420Y8380D01*
G01X41388Y8365D01*
G01X41359Y8343D01*
G01X41331Y8314D01*
G01X41307Y8277D01*
G01X41284Y8233D01*
G01X41263Y8179D01*
G01X41245Y8117D01*
G01X41228Y8046D01*
G01X41213Y7965D01*
G01X41201Y7874D01*
G01X41523Y7874D01*
G01X41589Y7954D01*
G01X41637Y8031D01*
G01X41666Y8108D01*
G01X41676Y8188D01*
G01X41666Y8267D01*
G01X41633Y8332D01*
G01X41575Y8375D01*
G37*

%LPD*%
G36*
G01X41783Y7345D02*
G01X40685Y7345D01*
G01X40685Y7213D01*
G01X40886Y7195D01*
G01X40886Y7190D01*
G01X40837Y7160D01*
G01X40792Y7127D01*
G01X40753Y7091D01*
G01X40720Y7052D01*
G01X40693Y7011D01*
G01X40674Y6968D01*
G01X40661Y6924D01*
G01X40657Y6878D01*
G01X40658Y6846D01*
G01X40662Y6817D01*
G01X40669Y6790D01*
G01X40680Y6764D01*
G01X40825Y6797D01*
G01X40817Y6822D01*
G01X40811Y6845D01*
G01X40808Y6870D01*
G01X40807Y6898D01*
G01X40811Y6934D01*
G01X40821Y6971D01*
G01X40839Y7009D01*
G01X40865Y7047D01*
G01X40901Y7084D01*
G01X40945Y7119D01*
G01X41000Y7152D01*
G01X41066Y7183D01*
G01X41783Y7183D01*
G01X41783Y7345D01*
G37*

%LPD*%
G36*
G01X41300Y6682D02*
G01X41234Y6685D01*
G01X41169Y6682D01*
G01X41107Y6674D01*
G01X41048Y6661D01*
G01X40994Y6644D01*
G01X40943Y6622D01*
G01X40895Y6596D01*
G01X40852Y6566D01*
G01X40812Y6534D01*
G01X40777Y6498D01*
G01X40746Y6460D01*
G01X40719Y6420D01*
G01X40697Y6377D01*
G01X40680Y6333D01*
G01X40667Y6288D01*
G01X40660Y6241D01*
G01X40657Y6195D01*
G01X40661Y6129D01*
G01X40673Y6067D01*
G01X40693Y6011D01*
G01X40720Y5960D01*
G01X40754Y5915D01*
G01X40795Y5875D01*
G01X40842Y5840D01*
G01X40896Y5812D01*
G01X40956Y5790D01*
G01X41022Y5773D01*
G01X41094Y5764D01*
G01X41170Y5760D01*
G01X41198Y5761D01*
G01X41225Y5762D01*
G01X41249Y5766D01*
G01X41269Y5770D01*
G01X41269Y6520D01*
G01X41329Y6514D01*
G01X41384Y6503D01*
G01X41436Y6487D01*
G01X41483Y6466D01*
G01X41526Y6440D01*
G01X41564Y6410D01*
G01X41597Y6375D01*
G01X41625Y6336D01*
G01X41647Y6293D01*
G01X41663Y6247D01*
G01X41672Y6197D01*
G01X41676Y6144D01*
G01X41670Y6066D01*
G01X41652Y5993D01*
G01X41625Y5927D01*
G01X41587Y5864D01*
G01X41696Y5803D01*
G01X41718Y5840D01*
G01X41739Y5879D01*
G01X41758Y5920D01*
G01X41775Y5963D01*
G01X41789Y6009D01*
G01X41799Y6057D01*
G01X41805Y6109D01*
G01X41808Y6164D01*
G01X41805Y6217D01*
G01X41798Y6269D01*
G01X41786Y6319D01*
G01X41769Y6367D01*
G01X41747Y6412D01*
G01X41722Y6455D01*
G01X41691Y6495D01*
G01X41656Y6532D01*
G01X41617Y6566D01*
G01X41574Y6596D01*
G01X41527Y6622D01*
G01X41476Y6644D01*
G01X41421Y6661D01*
G01X41362Y6674D01*
G01X41300Y6682D01*
G37*

%LPC*%
G36*
G01X41148Y5908D02*
G01X41148Y6522D01*
G01X41068Y6508D01*
G01X40998Y6484D01*
G01X40937Y6451D01*
G01X40886Y6409D01*
G01X40845Y6362D01*
G01X40816Y6309D01*
G01X40798Y6252D01*
G01X40792Y6192D01*
G01X40797Y6129D01*
G01X40815Y6073D01*
G01X40843Y6024D01*
G01X40882Y5983D01*
G01X40932Y5951D01*
G01X40994Y5927D01*
G01X41065Y5913D01*
G01X41148Y5908D01*
G37*

%LPD*%
G36*
G01X42143Y5532D02*
G01X42143Y5654D01*
G01X40172Y5026D01*
G01X40172Y4904D01*
G01X42143Y5532D01*
G37*

%LPD*%
M00*
M02*
