G04 Layer: BottomLayer*
G04 EasyEDA v6.3.53, 2020-07-02T17:27:03+02:00*
G04 4edb8fa5c3324583bf34438798551307,0d0e7d196270479aaefd99a7cd6f8dc4,10*
G04 Gerber Generator version 0.2*
G04 Scale: 100 percent, Rotated: No, Reflected: No *
G04 Dimensions in millimeters *
G04 leading zeros omitted , absolute positions ,3 integer and 3 decimal *
%FSLAX33Y33*%
%MOMM*%
G90*
G71D02*

%ADD10C,0.254000*%
%ADD11C,0.609600*%
%ADD14C,1.524000*%

%LPD*%
G54D10*
G01X31623Y26797D02*
G01X34798Y29972D01*
G01X38481Y29972D01*
G01X19177Y21082D02*
G01X19431Y21082D01*
G01X38481Y40132D01*
G01X25654Y38227D02*
G01X28194Y35687D01*
G01X28194Y35306D01*
G01X23368Y39370D02*
G01X23368Y32258D01*
G01X3810Y17066D02*
G01X1651Y19225D01*
G01X1651Y22225D01*
G01X2032Y22606D01*
G01X2032Y30988D01*
G01X2286Y31242D01*
G01X20574Y31242D01*
G01X10541Y17653D02*
G01X13843Y20955D01*
G01X17018Y20955D01*
G01X17399Y21336D01*
G01X17399Y22860D01*
G01X17780Y23241D01*
G01X19812Y23241D01*
G01X20701Y24130D01*
G01X38481Y42672D01*
G54D14*
G01X38481Y47752D03*
G01X38481Y45212D03*
G01X38481Y42672D03*
G01X38481Y40132D03*
G01X38481Y37592D03*
G01X38481Y35052D03*
G01X38481Y32512D03*
G01X38481Y29972D03*
G01X38481Y27432D03*
G01X38481Y24892D03*
G01X38481Y22352D03*
G01X38481Y19812D03*
G01X38481Y17272D03*
G01X38481Y14732D03*
G01X38481Y12192D03*
G01X15621Y12192D03*
G01X15621Y14732D03*
G01X15621Y17272D03*
G01X15621Y19812D03*
G01X15621Y22352D03*
G01X15621Y24892D03*
G01X15621Y27432D03*
G01X15621Y29972D03*
G01X15621Y32512D03*
G01X15621Y35052D03*
G01X15621Y37592D03*
G01X15621Y40132D03*
G01X15621Y42672D03*
G01X15621Y45212D03*
G01X15621Y47752D03*
G01X5715Y39116D03*
G01X3175Y39116D03*
G01X5715Y41656D03*
G01X3175Y41656D03*
G01X5715Y44196D03*
G01X3175Y44196D03*
G01X5715Y46736D03*
G01X3175Y46736D03*
G01X5715Y49276D03*
G01X3175Y49276D03*
G01X5715Y17907D03*
G01X3175Y17907D03*
G01X5715Y20447D03*
G01X3175Y20447D03*
G01X5715Y22987D03*
G01X3175Y22987D03*
G01X5715Y25527D03*
G01X3175Y25527D03*
G01X5715Y28067D03*
G01X3175Y28067D03*
G54D11*
G01X10541Y17653D03*
G01X20574Y31242D03*
G01X23368Y39370D03*
G01X23368Y32258D03*
G01X25654Y38227D03*
G01X28194Y35306D03*
G01X19177Y21082D03*
G01X31623Y26797D03*
M00*
M02*
