G04 Layer: TopSilkLayer*
G04 EasyEDA v6.3.53, 2020-07-02T17:27:03+02:00*
G04 4edb8fa5c3324583bf34438798551307,0d0e7d196270479aaefd99a7cd6f8dc4,10*
G04 Gerber Generator version 0.2*
G04 Scale: 100 percent, Rotated: No, Reflected: No *
G04 Dimensions in millimeters *
G04 leading zeros omitted , absolute positions ,3 integer and 3 decimal *
%FSLAX33Y33*%
%MOMM*%
G90*
G71D02*

%ADD10C,0.254000*%
%ADD15C,0.299720*%
%ADD16C,0.203200*%
%ADD17C,0.152400*%
%ADD18C,0.127000*%

%LPD*%

%LPD*%
G36*
G01X27130Y14036D02*
G01X26595Y14036D01*
G01X26595Y12787D01*
G01X27130Y12787D01*
G01X27240Y12789D01*
G01X27343Y12794D01*
G01X27434Y12803D01*
G01X27512Y12813D01*
G01X27576Y12826D01*
G01X27624Y12841D01*
G01X27654Y12859D01*
G01X27665Y12877D01*
G01X27657Y12895D01*
G01X27635Y12911D01*
G01X27599Y12927D01*
G01X27552Y12940D01*
G01X27496Y12950D01*
G01X27431Y12959D01*
G01X27359Y12964D01*
G01X27283Y12966D01*
G01X27164Y12967D01*
G01X27073Y12971D01*
G01X27005Y12981D01*
G01X26958Y12999D01*
G01X26928Y13027D01*
G01X26910Y13066D01*
G01X26903Y13120D01*
G01X26901Y13189D01*
G01X26903Y13254D01*
G01X26910Y13306D01*
G01X26924Y13345D01*
G01X26946Y13374D01*
G01X26980Y13392D01*
G01X27028Y13404D01*
G01X27089Y13410D01*
G01X27168Y13412D01*
G01X27272Y13419D01*
G01X27357Y13438D01*
G01X27414Y13466D01*
G01X27436Y13501D01*
G01X27414Y13535D01*
G01X27357Y13564D01*
G01X27272Y13583D01*
G01X27168Y13590D01*
G01X27047Y13598D01*
G01X26964Y13622D01*
G01X26916Y13663D01*
G01X26901Y13724D01*
G01X26905Y13758D01*
G01X26920Y13787D01*
G01X26945Y13810D01*
G01X26983Y13828D01*
G01X27035Y13841D01*
G01X27101Y13851D01*
G01X27184Y13856D01*
G01X27283Y13857D01*
G01X27359Y13859D01*
G01X27431Y13864D01*
G01X27496Y13872D01*
G01X27552Y13884D01*
G01X27599Y13897D01*
G01X27635Y13912D01*
G01X27657Y13928D01*
G01X27665Y13947D01*
G01X27654Y13965D01*
G01X27624Y13982D01*
G01X27576Y13997D01*
G01X27512Y14010D01*
G01X27434Y14021D01*
G01X27343Y14029D01*
G01X27240Y14034D01*
G01X27130Y14036D01*
G37*

%LPD*%
G36*
G01X25564Y14034D02*
G01X25182Y14036D01*
G01X25182Y12787D01*
G01X25564Y12789D01*
G01X25649Y12790D01*
G01X25729Y12794D01*
G01X25802Y12800D01*
G01X25870Y12809D01*
G01X25932Y12820D01*
G01X25989Y12834D01*
G01X26041Y12851D01*
G01X26088Y12871D01*
G01X26129Y12895D01*
G01X26167Y12921D01*
G01X26200Y12952D01*
G01X26229Y12986D01*
G01X26253Y13024D01*
G01X26274Y13066D01*
G01X26292Y13113D01*
G01X26305Y13163D01*
G01X26315Y13218D01*
G01X26323Y13278D01*
G01X26327Y13342D01*
G01X26328Y13412D01*
G01X26327Y13481D01*
G01X26323Y13545D01*
G01X26315Y13605D01*
G01X26305Y13660D01*
G01X26292Y13710D01*
G01X26274Y13757D01*
G01X26253Y13799D01*
G01X26229Y13837D01*
G01X26200Y13871D01*
G01X26167Y13902D01*
G01X26129Y13929D01*
G01X26088Y13952D01*
G01X26041Y13973D01*
G01X25989Y13989D01*
G01X25932Y14004D01*
G01X25870Y14015D01*
G01X25802Y14023D01*
G01X25729Y14029D01*
G01X25649Y14033D01*
G01X25564Y14034D01*
G37*

%LPC*%
G36*
G01X25798Y13904D02*
G01X25758Y13906D01*
G01X25719Y13901D01*
G01X25682Y13891D01*
G01X25646Y13874D01*
G01X25613Y13852D01*
G01X25581Y13823D01*
G01X25553Y13790D01*
G01X25527Y13751D01*
G01X25505Y13706D01*
G01X25485Y13657D01*
G01X25470Y13602D01*
G01X25459Y13543D01*
G01X25452Y13480D01*
G01X25449Y13412D01*
G01X25449Y13310D01*
G01X25450Y13224D01*
G01X25453Y13154D01*
G01X25459Y13098D01*
G01X25468Y13055D01*
G01X25481Y13022D01*
G01X25500Y12998D01*
G01X25524Y12982D01*
G01X25556Y12973D01*
G01X25596Y12968D01*
G01X25643Y12966D01*
G01X25701Y12966D01*
G01X25759Y12969D01*
G01X25814Y12979D01*
G01X25865Y12996D01*
G01X25913Y13019D01*
G01X25958Y13046D01*
G01X25998Y13078D01*
G01X26035Y13115D01*
G01X26068Y13155D01*
G01X26095Y13198D01*
G01X26118Y13244D01*
G01X26137Y13293D01*
G01X26150Y13343D01*
G01X26158Y13394D01*
G01X26160Y13447D01*
G01X26156Y13500D01*
G01X26147Y13552D01*
G01X26132Y13604D01*
G01X26109Y13655D01*
G01X26081Y13703D01*
G01X26045Y13751D01*
G01X26005Y13794D01*
G01X25963Y13830D01*
G01X25921Y13859D01*
G01X25880Y13881D01*
G01X25838Y13896D01*
G01X25798Y13904D01*
G37*

%LPD*%
G36*
G01X24363Y14005D02*
G01X24307Y14005D01*
G01X24250Y14000D01*
G01X24192Y13992D01*
G01X24133Y13978D01*
G01X24073Y13960D01*
G01X24012Y13936D01*
G01X23952Y13908D01*
G01X23907Y13883D01*
G01X23866Y13856D01*
G01X23828Y13826D01*
G01X23795Y13795D01*
G01X23765Y13761D01*
G01X23739Y13726D01*
G01X23716Y13690D01*
G01X23697Y13651D01*
G01X23681Y13612D01*
G01X23668Y13573D01*
G01X23659Y13532D01*
G01X23653Y13491D01*
G01X23650Y13449D01*
G01X23651Y13407D01*
G01X23654Y13365D01*
G01X23661Y13323D01*
G01X23670Y13282D01*
G01X23682Y13241D01*
G01X23697Y13200D01*
G01X23715Y13161D01*
G01X23736Y13122D01*
G01X23759Y13085D01*
G01X23785Y13049D01*
G01X23813Y13014D01*
G01X23843Y12982D01*
G01X23877Y12951D01*
G01X23912Y12923D01*
G01X23950Y12896D01*
G01X23990Y12872D01*
G01X24032Y12851D01*
G01X24077Y12832D01*
G01X24123Y12817D01*
G01X24171Y12804D01*
G01X24221Y12795D01*
G01X24274Y12789D01*
G01X24328Y12787D01*
G01X24380Y12791D01*
G01X24434Y12802D01*
G01X24486Y12819D01*
G01X24538Y12843D01*
G01X24589Y12872D01*
G01X24637Y12906D01*
G01X24683Y12945D01*
G01X24727Y12988D01*
G01X24767Y13033D01*
G01X24803Y13083D01*
G01X24835Y13134D01*
G01X24863Y13188D01*
G01X24884Y13243D01*
G01X24901Y13299D01*
G01X24911Y13355D01*
G01X24914Y13412D01*
G01X24912Y13473D01*
G01X24905Y13531D01*
G01X24893Y13586D01*
G01X24877Y13638D01*
G01X24856Y13688D01*
G01X24833Y13734D01*
G01X24805Y13776D01*
G01X24773Y13816D01*
G01X24738Y13852D01*
G01X24700Y13885D01*
G01X24659Y13914D01*
G01X24615Y13939D01*
G01X24569Y13960D01*
G01X24521Y13978D01*
G01X24470Y13991D01*
G01X24418Y13999D01*
G01X24363Y14005D01*
G37*

%LPC*%
G36*
G01X24313Y13863D02*
G01X24270Y13865D01*
G01X24228Y13861D01*
G01X24186Y13851D01*
G01X24147Y13835D01*
G01X24109Y13815D01*
G01X24074Y13788D01*
G01X24042Y13757D01*
G01X24012Y13721D01*
G01X23986Y13680D01*
G01X23964Y13635D01*
G01X23946Y13585D01*
G01X23932Y13531D01*
G01X23924Y13473D01*
G01X23922Y13412D01*
G01X23924Y13343D01*
G01X23932Y13280D01*
G01X23945Y13222D01*
G01X23963Y13170D01*
G01X23986Y13123D01*
G01X24014Y13082D01*
G01X24046Y13047D01*
G01X24083Y13019D01*
G01X24125Y12996D01*
G01X24171Y12979D01*
G01X24221Y12969D01*
G01X24275Y12966D01*
G01X24327Y12969D01*
G01X24375Y12979D01*
G01X24421Y12995D01*
G01X24463Y13017D01*
G01X24503Y13043D01*
G01X24538Y13075D01*
G01X24570Y13110D01*
G01X24599Y13149D01*
G01X24623Y13191D01*
G01X24643Y13235D01*
G01X24658Y13282D01*
G01X24669Y13330D01*
G01X24675Y13380D01*
G01X24676Y13431D01*
G01X24672Y13481D01*
G01X24662Y13531D01*
G01X24647Y13580D01*
G01X24625Y13628D01*
G01X24598Y13673D01*
G01X24565Y13717D01*
G01X24526Y13759D01*
G01X24485Y13793D01*
G01X24442Y13821D01*
G01X24400Y13841D01*
G01X24356Y13856D01*
G01X24313Y13863D01*
G37*

%LPD*%
G36*
G01X23287Y14092D02*
G01X23273Y14097D01*
G01X23259Y14096D01*
G01X23246Y14089D01*
G01X23232Y14077D01*
G01X23219Y14058D01*
G01X23206Y14034D01*
G01X23194Y14003D01*
G01X23183Y13965D01*
G01X23173Y13922D01*
G01X23164Y13871D01*
G01X23156Y13815D01*
G01X23149Y13751D01*
G01X23143Y13680D01*
G01X23120Y13324D01*
G01X22814Y13675D01*
G01X22757Y13740D01*
G01X22704Y13798D01*
G01X22654Y13850D01*
G01X22609Y13896D01*
G01X22566Y13935D01*
G01X22526Y13968D01*
G01X22490Y13995D01*
G01X22457Y14015D01*
G01X22426Y14028D01*
G01X22399Y14036D01*
G01X22374Y14036D01*
G01X22352Y14029D01*
G01X22331Y14016D01*
G01X22314Y13996D01*
G01X22298Y13970D01*
G01X22285Y13936D01*
G01X22274Y13895D01*
G01X22265Y13848D01*
G01X22257Y13793D01*
G01X22251Y13731D01*
G01X22246Y13662D01*
G01X22243Y13586D01*
G01X22241Y13503D01*
G01X22241Y13286D01*
G01X22243Y13179D01*
G01X22246Y13087D01*
G01X22250Y13010D01*
G01X22257Y12948D01*
G01X22265Y12898D01*
G01X22276Y12859D01*
G01X22290Y12830D01*
G01X22306Y12809D01*
G01X22326Y12797D01*
G01X22349Y12789D01*
G01X22376Y12787D01*
G01X22414Y12791D01*
G01X22444Y12802D01*
G01X22466Y12822D01*
G01X22481Y12855D01*
G01X22490Y12902D01*
G01X22492Y12964D01*
G01X22490Y13044D01*
G01X22483Y13144D01*
G01X22477Y13223D01*
G01X22475Y13292D01*
G01X22476Y13350D01*
G01X22481Y13397D01*
G01X22489Y13434D01*
G01X22501Y13460D01*
G01X22517Y13476D01*
G01X22538Y13481D01*
G01X22563Y13476D01*
G01X22592Y13460D01*
G01X22627Y13434D01*
G01X22667Y13397D01*
G01X22712Y13350D01*
G01X22762Y13292D01*
G01X22819Y13223D01*
G01X22881Y13144D01*
G01X22933Y13078D01*
G01X22981Y13020D01*
G01X23027Y12967D01*
G01X23069Y12920D01*
G01X23109Y12881D01*
G01X23146Y12847D01*
G01X23180Y12821D01*
G01X23211Y12801D01*
G01X23240Y12787D01*
G01X23266Y12781D01*
G01X23291Y12781D01*
G01X23313Y12787D01*
G01X23332Y12801D01*
G01X23350Y12821D01*
G01X23365Y12849D01*
G01X23379Y12883D01*
G01X23390Y12924D01*
G01X23400Y12972D01*
G01X23408Y13028D01*
G01X23414Y13090D01*
G01X23419Y13160D01*
G01X23422Y13236D01*
G01X23424Y13320D01*
G01X23425Y13412D01*
G01X23424Y13488D01*
G01X23421Y13562D01*
G01X23417Y13630D01*
G01X23412Y13695D01*
G01X23405Y13755D01*
G01X23396Y13810D01*
G01X23387Y13862D01*
G01X23377Y13908D01*
G01X23366Y13950D01*
G01X23354Y13986D01*
G01X23342Y14018D01*
G01X23328Y14045D01*
G01X23315Y14066D01*
G01X23301Y14082D01*
G01X23287Y14092D01*
G37*

%LPD*%
G36*
G01X32401Y14125D02*
G01X27818Y14125D01*
G01X27818Y12698D01*
G01X32401Y12698D01*
G01X32401Y14125D01*
G37*

%LPC*%
G36*
G01X31206Y14035D02*
G01X31160Y14036D01*
G01X31127Y14031D01*
G01X31097Y14019D01*
G01X31069Y13999D01*
G01X31043Y13973D01*
G01X31021Y13940D01*
G01X31000Y13901D01*
G01X30981Y13857D01*
G01X30966Y13809D01*
G01X30953Y13758D01*
G01X30942Y13702D01*
G01X30935Y13645D01*
G01X30929Y13585D01*
G01X30927Y13524D01*
G01X30927Y13462D01*
G01X30930Y13400D01*
G01X30936Y13339D01*
G01X30944Y13278D01*
G01X30956Y13219D01*
G01X30971Y13163D01*
G01X30989Y13109D01*
G01X31009Y13059D01*
G01X31033Y13012D01*
G01X31059Y12971D01*
G01X31089Y12935D01*
G01X31118Y12910D01*
G01X31155Y12886D01*
G01X31197Y12866D01*
G01X31246Y12847D01*
G01X31298Y12831D01*
G01X31355Y12817D01*
G01X31415Y12806D01*
G01X31476Y12798D01*
G01X31539Y12791D01*
G01X31603Y12787D01*
G01X31666Y12786D01*
G01X31728Y12788D01*
G01X31788Y12792D01*
G01X31845Y12800D01*
G01X31898Y12809D01*
G01X31947Y12821D01*
G01X31990Y12837D01*
G01X32027Y12854D01*
G01X32056Y12875D01*
G01X32078Y12899D01*
G01X32101Y12936D01*
G01X32121Y12979D01*
G01X32139Y13026D01*
G01X32155Y13078D01*
G01X32168Y13133D01*
G01X32179Y13192D01*
G01X32187Y13252D01*
G01X32193Y13315D01*
G01X32198Y13379D01*
G01X32200Y13443D01*
G01X32200Y13507D01*
G01X32198Y13570D01*
G01X32193Y13631D01*
G01X32187Y13691D01*
G01X32178Y13748D01*
G01X32168Y13802D01*
G01X32156Y13851D01*
G01X32142Y13896D01*
G01X32126Y13936D01*
G01X32108Y13971D01*
G01X32088Y13998D01*
G01X32067Y14019D01*
G01X32044Y14031D01*
G01X32019Y14036D01*
G01X31959Y14034D01*
G01X31914Y14026D01*
G01X31881Y14007D01*
G01X31859Y13974D01*
G01X31848Y13921D01*
G01X31843Y13845D01*
G01X31846Y13742D01*
G01X31854Y13607D01*
G01X31858Y13496D01*
G01X31859Y13400D01*
G01X31855Y13317D01*
G01X31845Y13246D01*
G01X31830Y13186D01*
G01X31810Y13135D01*
G01X31784Y13092D01*
G01X31752Y13055D01*
G01X31710Y13019D01*
G01X31671Y12994D01*
G01X31633Y12977D01*
G01X31597Y12971D01*
G01X31563Y12974D01*
G01X31532Y12986D01*
G01X31503Y13007D01*
G01X31476Y13038D01*
G01X31452Y13076D01*
G01X31431Y13124D01*
G01X31413Y13180D01*
G01X31397Y13244D01*
G01X31386Y13316D01*
G01X31377Y13396D01*
G01X31372Y13483D01*
G01X31370Y13578D01*
G01X31370Y13679D01*
G01X31368Y13765D01*
G01X31365Y13835D01*
G01X31360Y13892D01*
G01X31352Y13937D01*
G01X31340Y13972D01*
G01X31324Y13997D01*
G01X31304Y14015D01*
G01X31278Y14026D01*
G01X31245Y14032D01*
G01X31206Y14035D01*
G37*
G36*
G01X28166Y14036D02*
G01X27932Y14036D01*
G01X27932Y13271D01*
G01X27933Y13153D01*
G01X27935Y13056D01*
G01X27940Y12978D01*
G01X27948Y12917D01*
G01X27958Y12871D01*
G01X27973Y12837D01*
G01X27992Y12814D01*
G01X28017Y12799D01*
G01X28047Y12791D01*
G01X28084Y12788D01*
G01X28129Y12787D01*
G01X28188Y12789D01*
G01X28234Y12796D01*
G01X28267Y12810D01*
G01X28289Y12835D01*
G01X28302Y12871D01*
G01X28306Y12922D01*
G01X28303Y12990D01*
G01X28296Y13077D01*
G01X28265Y13367D01*
G01X28431Y13077D01*
G01X28479Y12995D01*
G01X28522Y12927D01*
G01X28560Y12875D01*
G01X28594Y12837D01*
G01X28626Y12815D01*
G01X28658Y12807D01*
G01X28689Y12815D01*
G01X28721Y12837D01*
G01X28756Y12875D01*
G01X28794Y12927D01*
G01X28837Y12995D01*
G01X28885Y13077D01*
G01X29050Y13367D01*
G01X29020Y13077D01*
G01X29012Y12987D01*
G01X29009Y12917D01*
G01X29014Y12866D01*
G01X29029Y12831D01*
G01X29056Y12808D01*
G01X29096Y12794D01*
G01X29152Y12789D01*
G01X29225Y12787D01*
G01X29460Y12787D01*
G01X29460Y14036D01*
G01X29173Y14036D01*
G01X29063Y14030D01*
G01X28976Y14016D01*
G01X28919Y13995D01*
G01X28903Y13968D01*
G01X28900Y13922D01*
G01X28878Y13844D01*
G01X28842Y13744D01*
G01X28796Y13636D01*
G01X28673Y13369D01*
G01X28536Y13702D01*
G01X28496Y13796D01*
G01X28458Y13871D01*
G01X28421Y13930D01*
G01X28382Y13973D01*
G01X28339Y14004D01*
G01X28291Y14023D01*
G01X28234Y14032D01*
G01X28166Y14036D01*
G37*
G36*
G01X30252Y14046D02*
G01X30193Y14046D01*
G01X30135Y14043D01*
G01X30078Y14036D01*
G01X30023Y14025D01*
G01X29970Y14012D01*
G01X29919Y13995D01*
G01X29870Y13976D01*
G01X29824Y13953D01*
G01X29779Y13927D01*
G01X29738Y13898D01*
G01X29699Y13866D01*
G01X29663Y13832D01*
G01X29630Y13795D01*
G01X29600Y13756D01*
G01X29574Y13713D01*
G01X29551Y13669D01*
G01X29533Y13622D01*
G01X29518Y13573D01*
G01X29507Y13521D01*
G01X29500Y13468D01*
G01X29498Y13412D01*
G01X29500Y13354D01*
G01X29506Y13299D01*
G01X29515Y13247D01*
G01X29529Y13197D01*
G01X29545Y13150D01*
G01X29566Y13105D01*
G01X29589Y13063D01*
G01X29616Y13024D01*
G01X29647Y12988D01*
G01X29680Y12954D01*
G01X29718Y12924D01*
G01X29758Y12896D01*
G01X29801Y12871D01*
G01X29847Y12850D01*
G01X29895Y12832D01*
G01X29947Y12816D01*
G01X30001Y12805D01*
G01X30059Y12797D01*
G01X30119Y12792D01*
G01X30181Y12791D01*
G01X30264Y12793D01*
G01X30342Y12800D01*
G01X30417Y12810D01*
G01X30486Y12823D01*
G01X30550Y12840D01*
G01X30609Y12859D01*
G01X30660Y12880D01*
G01X30706Y12904D01*
G01X30744Y12929D01*
G01X30775Y12956D01*
G01X30796Y12984D01*
G01X30810Y13013D01*
G01X30815Y13043D01*
G01X30810Y13073D01*
G01X30794Y13104D01*
G01X30769Y13134D01*
G01X30735Y13163D01*
G01X30703Y13183D01*
G01X30671Y13193D01*
G01X30637Y13193D01*
G01X30600Y13184D01*
G01X30559Y13164D01*
G01X30511Y13134D01*
G01X30455Y13093D01*
G01X30401Y13056D01*
G01X30348Y13028D01*
G01X30296Y13009D01*
G01X30244Y12997D01*
G01X30195Y12994D01*
G01X30147Y12998D01*
G01X30102Y13010D01*
G01X30060Y13029D01*
G01X30021Y13055D01*
G01X29986Y13087D01*
G01X29956Y13126D01*
G01X29929Y13172D01*
G01X29909Y13223D01*
G01X29893Y13281D01*
G01X29883Y13344D01*
G01X29880Y13412D01*
G01X29883Y13480D01*
G01X29893Y13543D01*
G01X29909Y13601D01*
G01X29930Y13652D01*
G01X29956Y13698D01*
G01X29987Y13737D01*
G01X30022Y13769D01*
G01X30061Y13795D01*
G01X30103Y13814D01*
G01X30148Y13825D01*
G01X30196Y13829D01*
G01X30246Y13825D01*
G01X30298Y13813D01*
G01X30350Y13793D01*
G01X30404Y13765D01*
G01X30459Y13727D01*
G01X30521Y13681D01*
G01X30571Y13648D01*
G01X30613Y13628D01*
G01X30648Y13619D01*
G01X30680Y13624D01*
G01X30711Y13641D01*
G01X30743Y13670D01*
G01X30781Y13711D01*
G01X30815Y13754D01*
G01X30839Y13789D01*
G01X30849Y13818D01*
G01X30847Y13843D01*
G01X30831Y13866D01*
G01X30800Y13889D01*
G01X30753Y13914D01*
G01X30690Y13943D01*
G01X30626Y13969D01*
G01X30563Y13991D01*
G01X30499Y14010D01*
G01X30436Y14024D01*
G01X30374Y14036D01*
G01X30313Y14043D01*
G01X30252Y14046D01*
G37*

%LPD*%
G36*
G01X27602Y25332D02*
G01X27235Y25332D01*
G01X27144Y25331D01*
G01X26688Y25331D01*
G01X26598Y25330D01*
G01X26329Y25330D01*
G01X26240Y25329D01*
G01X26152Y25329D01*
G01X26064Y25328D01*
G01X25978Y25328D01*
G01X25891Y25327D01*
G01X25805Y25327D01*
G01X25721Y25326D01*
G01X25636Y25326D01*
G01X25471Y25325D01*
G01X25389Y25324D01*
G01X25309Y25323D01*
G01X25229Y25323D01*
G01X25151Y25322D01*
G01X25074Y25321D01*
G01X24922Y25319D01*
G01X24849Y25319D01*
G01X24777Y25318D01*
G01X24635Y25316D01*
G01X24567Y25315D01*
G01X24500Y25314D01*
G01X24435Y25313D01*
G01X24371Y25312D01*
G01X24309Y25311D01*
G01X24248Y25310D01*
G01X24189Y25308D01*
G01X24132Y25307D01*
G01X24077Y25306D01*
G01X24023Y25305D01*
G01X23972Y25303D01*
G01X23922Y25302D01*
G01X23873Y25300D01*
G01X23828Y25299D01*
G01X23784Y25298D01*
G01X23742Y25296D01*
G01X23702Y25295D01*
G01X23664Y25293D01*
G01X23629Y25292D01*
G01X23596Y25290D01*
G01X23565Y25289D01*
G01X23537Y25287D01*
G01X23510Y25286D01*
G01X23487Y25284D01*
G01X23466Y25282D01*
G01X23447Y25281D01*
G01X23430Y25279D01*
G01X23417Y25277D01*
G01X23406Y25275D01*
G01X23398Y25274D01*
G01X23344Y25258D01*
G01X23291Y25240D01*
G01X23238Y25220D01*
G01X23187Y25198D01*
G01X23136Y25174D01*
G01X23087Y25148D01*
G01X23038Y25120D01*
G01X22990Y25090D01*
G01X22943Y25059D01*
G01X22898Y25026D01*
G01X22853Y24991D01*
G01X22810Y24954D01*
G01X22769Y24916D01*
G01X22728Y24877D01*
G01X22689Y24836D01*
G01X22652Y24793D01*
G01X22616Y24750D01*
G01X22581Y24705D01*
G01X22517Y24611D01*
G01X22488Y24563D01*
G01X22461Y24513D01*
G01X22435Y24463D01*
G01X22411Y24411D01*
G01X22390Y24359D01*
G01X22370Y24306D01*
G01X22353Y24252D01*
G01X22337Y24198D01*
G01X22335Y24189D01*
G01X22333Y24178D01*
G01X22332Y24165D01*
G01X22330Y24148D01*
G01X22328Y24129D01*
G01X22326Y24107D01*
G01X22325Y24083D01*
G01X22323Y24057D01*
G01X22322Y24028D01*
G01X22319Y23997D01*
G01X22318Y23964D01*
G01X22316Y23928D01*
G01X22315Y23891D01*
G01X22313Y23851D01*
G01X22312Y23809D01*
G01X22311Y23765D01*
G01X22309Y23719D01*
G01X22308Y23671D01*
G01X22307Y23620D01*
G01X22305Y23569D01*
G01X22304Y23515D01*
G01X22303Y23460D01*
G01X22302Y23403D01*
G01X22301Y23344D01*
G01X22299Y23283D01*
G01X22298Y23221D01*
G01X22297Y23157D01*
G01X22296Y23092D01*
G01X22295Y23025D01*
G01X22294Y22957D01*
G01X22293Y22887D01*
G01X22292Y22816D01*
G01X22292Y22744D01*
G01X22291Y22671D01*
G01X22290Y22595D01*
G01X22289Y22520D01*
G01X22287Y22364D01*
G01X22286Y22285D01*
G01X22286Y22205D01*
G01X22284Y22041D01*
G01X22284Y21958D01*
G01X22283Y21874D01*
G01X22283Y21790D01*
G01X22282Y21704D01*
G01X22282Y21618D01*
G01X22281Y21532D01*
G01X22281Y21356D01*
G01X22280Y21268D01*
G01X22280Y21090D01*
G01X22279Y21000D01*
G01X22279Y20547D01*
G01X22278Y20456D01*
G01X22278Y20090D01*
G01X22279Y19999D01*
G01X22279Y19546D01*
G01X22280Y19456D01*
G01X22280Y19278D01*
G01X22281Y19190D01*
G01X22281Y19014D01*
G01X22282Y18928D01*
G01X22282Y18842D01*
G01X22283Y18756D01*
G01X22283Y18672D01*
G01X22284Y18588D01*
G01X22284Y18505D01*
G01X22286Y18341D01*
G01X22286Y18261D01*
G01X22287Y18182D01*
G01X22289Y18026D01*
G01X22291Y17876D01*
G01X22292Y17802D01*
G01X22292Y17730D01*
G01X22293Y17659D01*
G01X22295Y17521D01*
G01X22296Y17454D01*
G01X22297Y17389D01*
G01X22298Y17325D01*
G01X22299Y17263D01*
G01X22301Y17202D01*
G01X22302Y17143D01*
G01X22303Y17086D01*
G01X22304Y17031D01*
G01X22305Y16977D01*
G01X22307Y16926D01*
G01X22308Y16875D01*
G01X22309Y16828D01*
G01X22311Y16781D01*
G01X22312Y16737D01*
G01X22313Y16695D01*
G01X22315Y16655D01*
G01X22316Y16618D01*
G01X22318Y16582D01*
G01X22319Y16549D01*
G01X22322Y16518D01*
G01X22323Y16489D01*
G01X22325Y16463D01*
G01X22326Y16439D01*
G01X22328Y16417D01*
G01X22330Y16398D01*
G01X22332Y16381D01*
G01X22333Y16368D01*
G01X22335Y16357D01*
G01X22337Y16348D01*
G01X22353Y16293D01*
G01X22370Y16238D01*
G01X22390Y16184D01*
G01X22412Y16132D01*
G01X22436Y16080D01*
G01X22462Y16029D01*
G01X22489Y15980D01*
G01X22519Y15931D01*
G01X22550Y15884D01*
G01X22583Y15837D01*
G01X22618Y15792D01*
G01X22654Y15749D01*
G01X22692Y15706D01*
G01X22731Y15665D01*
G01X22772Y15626D01*
G01X22814Y15588D01*
G01X22858Y15552D01*
G01X22903Y15517D01*
G01X22949Y15484D01*
G01X22997Y15453D01*
G01X23045Y15423D01*
G01X23095Y15395D01*
G01X23146Y15370D01*
G01X23197Y15346D01*
G01X23250Y15324D01*
G01X23303Y15304D01*
G01X23357Y15286D01*
G01X23413Y15271D01*
G01X23421Y15269D01*
G01X23433Y15267D01*
G01X23447Y15265D01*
G01X23463Y15263D01*
G01X23482Y15262D01*
G01X23504Y15260D01*
G01X23528Y15258D01*
G01X23554Y15257D01*
G01X23583Y15255D01*
G01X23614Y15253D01*
G01X23647Y15252D01*
G01X23683Y15250D01*
G01X23721Y15249D01*
G01X23761Y15247D01*
G01X23803Y15246D01*
G01X23847Y15244D01*
G01X23893Y15243D01*
G01X23941Y15242D01*
G01X23991Y15240D01*
G01X24043Y15239D01*
G01X24096Y15237D01*
G01X24152Y15236D01*
G01X24209Y15235D01*
G01X24268Y15234D01*
G01X24329Y15233D01*
G01X24391Y15231D01*
G01X24455Y15230D01*
G01X24520Y15229D01*
G01X24587Y15228D01*
G01X24655Y15227D01*
G01X24725Y15226D01*
G01X24796Y15225D01*
G01X24868Y15225D01*
G01X25016Y15223D01*
G01X25093Y15222D01*
G01X25169Y15221D01*
G01X25248Y15221D01*
G01X25327Y15220D01*
G01X25407Y15219D01*
G01X25488Y15218D01*
G01X25571Y15218D01*
G01X25654Y15217D01*
G01X25737Y15217D01*
G01X25822Y15216D01*
G01X25908Y15216D01*
G01X25993Y15215D01*
G01X26080Y15215D01*
G01X26168Y15214D01*
G01X26344Y15214D01*
G01X26433Y15213D01*
G01X26702Y15213D01*
G01X26792Y15212D01*
G01X27885Y15212D01*
G01X27976Y15213D01*
G01X28245Y15213D01*
G01X28334Y15214D01*
G01X28510Y15214D01*
G01X28597Y15215D01*
G01X28770Y15216D01*
G01X28855Y15216D01*
G01X28940Y15217D01*
G01X29024Y15217D01*
G01X29107Y15218D01*
G01X29189Y15218D01*
G01X29270Y15219D01*
G01X29350Y15220D01*
G01X29429Y15221D01*
G01X29508Y15221D01*
G01X29585Y15222D01*
G01X29661Y15223D01*
G01X29736Y15224D01*
G01X29809Y15225D01*
G01X29882Y15225D01*
G01X29953Y15226D01*
G01X30022Y15227D01*
G01X30090Y15228D01*
G01X30157Y15229D01*
G01X30222Y15230D01*
G01X30286Y15231D01*
G01X30348Y15233D01*
G01X30409Y15234D01*
G01X30468Y15235D01*
G01X30525Y15236D01*
G01X30581Y15237D01*
G01X30634Y15239D01*
G01X30686Y15240D01*
G01X30737Y15242D01*
G01X30831Y15244D01*
G01X30875Y15246D01*
G01X30917Y15247D01*
G01X30957Y15249D01*
G01X30995Y15250D01*
G01X31030Y15252D01*
G01X31063Y15253D01*
G01X31095Y15255D01*
G01X31123Y15257D01*
G01X31150Y15258D01*
G01X31174Y15260D01*
G01X31195Y15262D01*
G01X31215Y15263D01*
G01X31231Y15265D01*
G01X31245Y15267D01*
G01X31256Y15269D01*
G01X31265Y15271D01*
G01X31320Y15286D01*
G01X31374Y15304D01*
G01X31428Y15324D01*
G01X31480Y15346D01*
G01X31532Y15370D01*
G01X31583Y15395D01*
G01X31632Y15423D01*
G01X31681Y15453D01*
G01X31728Y15484D01*
G01X31774Y15517D01*
G01X31819Y15552D01*
G01X31863Y15588D01*
G01X31905Y15626D01*
G01X31946Y15665D01*
G01X31985Y15706D01*
G01X32023Y15749D01*
G01X32059Y15792D01*
G01X32094Y15837D01*
G01X32127Y15884D01*
G01X32158Y15931D01*
G01X32188Y15980D01*
G01X32216Y16029D01*
G01X32242Y16080D01*
G01X32266Y16132D01*
G01X32287Y16184D01*
G01X32307Y16238D01*
G01X32325Y16293D01*
G01X32340Y16348D01*
G01X32342Y16357D01*
G01X32344Y16368D01*
G01X32346Y16381D01*
G01X32348Y16398D01*
G01X32349Y16418D01*
G01X32351Y16439D01*
G01X32353Y16463D01*
G01X32355Y16489D01*
G01X32356Y16518D01*
G01X32358Y16549D01*
G01X32360Y16583D01*
G01X32361Y16618D01*
G01X32363Y16656D01*
G01X32364Y16696D01*
G01X32365Y16738D01*
G01X32367Y16782D01*
G01X32368Y16828D01*
G01X32370Y16876D01*
G01X32371Y16926D01*
G01X32372Y16978D01*
G01X32373Y17031D01*
G01X32375Y17087D01*
G01X32376Y17144D01*
G01X32377Y17203D01*
G01X32378Y17263D01*
G01X32380Y17389D01*
G01X32382Y17521D01*
G01X32383Y17590D01*
G01X32385Y17660D01*
G01X32386Y17731D01*
G01X32387Y17803D01*
G01X32387Y17877D01*
G01X32388Y17951D01*
G01X32389Y18027D01*
G01X32390Y18104D01*
G01X32391Y18182D01*
G01X32391Y18262D01*
G01X32392Y18342D01*
G01X32393Y18423D01*
G01X32393Y18505D01*
G01X32394Y18588D01*
G01X32394Y18672D01*
G01X32395Y18757D01*
G01X32395Y18842D01*
G01X32396Y19015D01*
G01X32397Y19102D01*
G01X32397Y19279D01*
G01X32398Y19368D01*
G01X32398Y19637D01*
G01X32399Y19727D01*
G01X32399Y20729D01*
G01X32398Y20820D01*
G01X32398Y21091D01*
G01X32397Y21180D01*
G01X32397Y21357D01*
G01X32396Y21445D01*
G01X32396Y21619D01*
G01X32395Y21705D01*
G01X32395Y21791D01*
G01X32394Y21876D01*
G01X32394Y21959D01*
G01X32393Y22042D01*
G01X32392Y22124D01*
G01X32392Y22206D01*
G01X32391Y22286D01*
G01X32390Y22365D01*
G01X32389Y22443D01*
G01X32389Y22521D01*
G01X32387Y22671D01*
G01X32386Y22745D01*
G01X32385Y22817D01*
G01X32384Y22888D01*
G01X32383Y22958D01*
G01X32382Y23026D01*
G01X32381Y23093D01*
G01X32380Y23158D01*
G01X32379Y23222D01*
G01X32378Y23284D01*
G01X32377Y23345D01*
G01X32375Y23404D01*
G01X32374Y23461D01*
G01X32373Y23516D01*
G01X32372Y23570D01*
G01X32370Y23622D01*
G01X32369Y23672D01*
G01X32368Y23720D01*
G01X32366Y23766D01*
G01X32365Y23810D01*
G01X32364Y23852D01*
G01X32362Y23892D01*
G01X32361Y23930D01*
G01X32359Y23965D01*
G01X32358Y23998D01*
G01X32356Y24030D01*
G01X32354Y24058D01*
G01X32352Y24085D01*
G01X32351Y24109D01*
G01X32349Y24131D01*
G01X32347Y24149D01*
G01X32345Y24166D01*
G01X32344Y24180D01*
G01X32342Y24191D01*
G01X32340Y24200D01*
G01X32325Y24255D01*
G01X32307Y24309D01*
G01X32287Y24363D01*
G01X32265Y24416D01*
G01X32241Y24467D01*
G01X32215Y24518D01*
G01X32188Y24567D01*
G01X32158Y24616D01*
G01X32127Y24663D01*
G01X32094Y24710D01*
G01X32059Y24754D01*
G01X32023Y24798D01*
G01X31985Y24840D01*
G01X31946Y24881D01*
G01X31862Y24959D01*
G01X31819Y24995D01*
G01X31773Y25030D01*
G01X31727Y25063D01*
G01X31680Y25094D01*
G01X31631Y25123D01*
G01X31581Y25151D01*
G01X31531Y25177D01*
G01X31479Y25201D01*
G01X31426Y25223D01*
G01X31373Y25243D01*
G01X31318Y25260D01*
G01X31263Y25276D01*
G01X31255Y25278D01*
G01X31244Y25279D01*
G01X31230Y25281D01*
G01X31213Y25283D01*
G01X31194Y25285D01*
G01X31173Y25286D01*
G01X31149Y25288D01*
G01X31123Y25289D01*
G01X31094Y25291D01*
G01X31063Y25292D01*
G01X31030Y25294D01*
G01X30994Y25295D01*
G01X30957Y25297D01*
G01X30916Y25298D01*
G01X30875Y25300D01*
G01X30831Y25301D01*
G01X30784Y25302D01*
G01X30736Y25304D01*
G01X30686Y25305D01*
G01X30634Y25307D01*
G01X30581Y25308D01*
G01X30525Y25309D01*
G01X30467Y25310D01*
G01X30408Y25311D01*
G01X30348Y25312D01*
G01X30285Y25313D01*
G01X30221Y25314D01*
G01X30156Y25315D01*
G01X30089Y25316D01*
G01X29951Y25318D01*
G01X29880Y25319D01*
G01X29807Y25320D01*
G01X29733Y25321D01*
G01X29658Y25322D01*
G01X29582Y25322D01*
G01X29505Y25323D01*
G01X29426Y25324D01*
G01X29347Y25324D01*
G01X29185Y25326D01*
G01X29102Y25326D01*
G01X29018Y25327D01*
G01X28935Y25327D01*
G01X28764Y25328D01*
G01X28678Y25329D01*
G01X28503Y25329D01*
G01X28414Y25330D01*
G01X28237Y25330D01*
G01X28147Y25331D01*
G01X27694Y25331D01*
G01X27602Y25332D01*
G37*

%LPC*%
G36*
G01X27360Y23807D02*
G01X27304Y23807D01*
G01X27248Y23806D01*
G01X27192Y23804D01*
G01X27137Y23801D01*
G01X27081Y23796D01*
G01X27026Y23791D01*
G01X26971Y23785D01*
G01X26916Y23777D01*
G01X26862Y23769D01*
G01X26807Y23760D01*
G01X26699Y23738D01*
G01X26593Y23712D01*
G01X26540Y23698D01*
G01X26487Y23682D01*
G01X26435Y23666D01*
G01X26383Y23649D01*
G01X26331Y23631D01*
G01X26280Y23612D01*
G01X26229Y23592D01*
G01X26179Y23571D01*
G01X26128Y23549D01*
G01X26079Y23526D01*
G01X26029Y23503D01*
G01X25981Y23478D01*
G01X25932Y23453D01*
G01X25884Y23426D01*
G01X25837Y23400D01*
G01X25790Y23372D01*
G01X25743Y23343D01*
G01X25697Y23313D01*
G01X25652Y23283D01*
G01X25607Y23251D01*
G01X25563Y23219D01*
G01X25518Y23186D01*
G01X25475Y23153D01*
G01X25433Y23118D01*
G01X25390Y23083D01*
G01X25349Y23047D01*
G01X25308Y23010D01*
G01X25267Y22972D01*
G01X25228Y22934D01*
G01X25189Y22895D01*
G01X25150Y22855D01*
G01X25112Y22814D01*
G01X25075Y22773D01*
G01X25039Y22731D01*
G01X25003Y22688D01*
G01X24968Y22645D01*
G01X24934Y22600D01*
G01X24901Y22556D01*
G01X24868Y22510D01*
G01X24836Y22464D01*
G01X24805Y22417D01*
G01X24774Y22369D01*
G01X24745Y22321D01*
G01X24716Y22272D01*
G01X24688Y22223D01*
G01X24660Y22173D01*
G01X24634Y22122D01*
G01X24609Y22071D01*
G01X24584Y22019D01*
G01X24560Y21966D01*
G01X24516Y21859D01*
G01X24495Y21805D01*
G01X24475Y21750D01*
G01X24437Y21638D01*
G01X24420Y21582D01*
G01X24404Y21524D01*
G01X24389Y21467D01*
G01X24374Y21409D01*
G01X24361Y21350D01*
G01X24345Y21305D01*
G01X24312Y21273D01*
G01X24254Y21249D01*
G01X24159Y21226D01*
G01X24103Y21213D01*
G01X24046Y21196D01*
G01X23988Y21176D01*
G01X23930Y21154D01*
G01X23872Y21128D01*
G01X23815Y21100D01*
G01X23757Y21070D01*
G01X23699Y21037D01*
G01X23643Y21001D01*
G01X23587Y20964D01*
G01X23532Y20925D01*
G01X23478Y20884D01*
G01X23425Y20841D01*
G01X23374Y20797D01*
G01X23325Y20751D01*
G01X23277Y20704D01*
G01X23231Y20656D01*
G01X23188Y20607D01*
G01X23147Y20557D01*
G01X23108Y20507D01*
G01X23073Y20456D01*
G01X23040Y20404D01*
G01X23010Y20353D01*
G01X22983Y20301D01*
G01X22943Y20211D01*
G01X22926Y20167D01*
G01X22908Y20122D01*
G01X22893Y20078D01*
G01X22878Y20033D01*
G01X22865Y19988D01*
G01X22853Y19944D01*
G01X22833Y19854D01*
G01X22825Y19809D01*
G01X22818Y19765D01*
G01X22812Y19721D01*
G01X22807Y19676D01*
G01X22804Y19632D01*
G01X22802Y19587D01*
G01X22800Y19543D01*
G01X22800Y19499D01*
G01X22802Y19454D01*
G01X22804Y19410D01*
G01X22807Y19366D01*
G01X22812Y19323D01*
G01X22817Y19279D01*
G01X22824Y19235D01*
G01X22842Y19149D01*
G01X22852Y19105D01*
G01X22863Y19062D01*
G01X22875Y19019D01*
G01X22889Y18976D01*
G01X22903Y18934D01*
G01X22919Y18892D01*
G01X22936Y18849D01*
G01X22953Y18808D01*
G01X22972Y18766D01*
G01X22992Y18724D01*
G01X23013Y18683D01*
G01X23035Y18642D01*
G01X23081Y18560D01*
G01X23133Y18480D01*
G01X23160Y18439D01*
G01X23188Y18400D01*
G01X23217Y18361D01*
G01X23277Y18283D01*
G01X23309Y18244D01*
G01X23342Y18206D01*
G01X23376Y18168D01*
G01X23410Y18131D01*
G01X23446Y18093D01*
G01X23482Y18057D01*
G01X23520Y18020D01*
G01X23598Y17948D01*
G01X23638Y17913D01*
G01X23679Y17878D01*
G01X23721Y17843D01*
G01X23807Y17775D01*
G01X23852Y17741D01*
G01X23944Y17675D01*
G01X23991Y17643D01*
G01X24039Y17611D01*
G01X24088Y17580D01*
G01X24138Y17549D01*
G01X24188Y17519D01*
G01X24292Y17459D01*
G01X24345Y17430D01*
G01X24398Y17402D01*
G01X24508Y17346D01*
G01X24564Y17319D01*
G01X24621Y17292D01*
G01X24679Y17266D01*
G01X24737Y17241D01*
G01X24797Y17216D01*
G01X24856Y17191D01*
G01X24917Y17167D01*
G01X24978Y17144D01*
G01X25040Y17121D01*
G01X25166Y17077D01*
G01X25231Y17056D01*
G01X25295Y17036D01*
G01X25361Y17016D01*
G01X25427Y16997D01*
G01X25494Y16978D01*
G01X25562Y16960D01*
G01X25630Y16943D01*
G01X25699Y16926D01*
G01X25768Y16910D01*
G01X25910Y16879D01*
G01X25981Y16866D01*
G01X26053Y16852D01*
G01X26126Y16839D01*
G01X26196Y16828D01*
G01X26267Y16817D01*
G01X26337Y16807D01*
G01X26477Y16788D01*
G01X26617Y16773D01*
G01X26687Y16767D01*
G01X26757Y16760D01*
G01X26827Y16755D01*
G01X26967Y16747D01*
G01X27036Y16744D01*
G01X27106Y16741D01*
G01X27175Y16739D01*
G01X27244Y16738D01*
G01X27451Y16738D01*
G01X27587Y16742D01*
G01X27656Y16744D01*
G01X27724Y16747D01*
G01X27791Y16751D01*
G01X27859Y16756D01*
G01X27926Y16761D01*
G01X28060Y16773D01*
G01X28192Y16787D01*
G01X28259Y16796D01*
G01X28390Y16814D01*
G01X28455Y16824D01*
G01X28519Y16834D01*
G01X28584Y16845D01*
G01X28712Y16869D01*
G01X28775Y16882D01*
G01X28901Y16909D01*
G01X29025Y16939D01*
G01X29086Y16955D01*
G01X29147Y16970D01*
G01X29207Y16987D01*
G01X29268Y17004D01*
G01X29328Y17022D01*
G01X29387Y17040D01*
G01X29446Y17059D01*
G01X29504Y17078D01*
G01X29562Y17098D01*
G01X29619Y17118D01*
G01X29733Y17160D01*
G01X29789Y17182D01*
G01X29844Y17204D01*
G01X29899Y17227D01*
G01X29953Y17250D01*
G01X30007Y17274D01*
G01X30113Y17322D01*
G01X30165Y17347D01*
G01X30267Y17399D01*
G01X30317Y17425D01*
G01X30367Y17452D01*
G01X30417Y17480D01*
G01X30513Y17536D01*
G01X30560Y17565D01*
G01X30652Y17623D01*
G01X30742Y17683D01*
G01X30828Y17745D01*
G01X30870Y17776D01*
G01X30912Y17808D01*
G01X30953Y17841D01*
G01X30993Y17873D01*
G01X31071Y17941D01*
G01X31108Y17974D01*
G01X31145Y18009D01*
G01X31182Y18043D01*
G01X31252Y18113D01*
G01X31286Y18149D01*
G01X31319Y18185D01*
G01X31351Y18221D01*
G01X31382Y18259D01*
G01X31442Y18333D01*
G01X31471Y18371D01*
G01X31499Y18409D01*
G01X31525Y18447D01*
G01X31551Y18486D01*
G01X31601Y18564D01*
G01X31624Y18604D01*
G01X31668Y18684D01*
G01X31688Y18725D01*
G01X31726Y18807D01*
G01X31743Y18848D01*
G01X31760Y18890D01*
G01X31790Y18974D01*
G01X31803Y19016D01*
G01X31816Y19060D01*
G01X31827Y19102D01*
G01X31837Y19146D01*
G01X31847Y19189D01*
G01X31855Y19233D01*
G01X31862Y19277D01*
G01X31868Y19321D01*
G01X31872Y19366D01*
G01X31877Y19411D01*
G01X31880Y19466D01*
G01X31880Y19522D01*
G01X31879Y19577D01*
G01X31876Y19633D01*
G01X31871Y19689D01*
G01X31864Y19744D01*
G01X31855Y19799D01*
G01X31844Y19853D01*
G01X31831Y19908D01*
G01X31817Y19962D01*
G01X31801Y20015D01*
G01X31783Y20068D01*
G01X31763Y20121D01*
G01X31742Y20173D01*
G01X31720Y20224D01*
G01X31695Y20275D01*
G01X31669Y20325D01*
G01X31642Y20374D01*
G01X31613Y20422D01*
G01X31582Y20470D01*
G01X31551Y20516D01*
G01X31517Y20562D01*
G01X31483Y20607D01*
G01X31447Y20650D01*
G01X31411Y20692D01*
G01X31373Y20734D01*
G01X31333Y20774D01*
G01X31293Y20813D01*
G01X31251Y20850D01*
G01X31208Y20887D01*
G01X31165Y20921D01*
G01X31120Y20955D01*
G01X31074Y20987D01*
G01X31028Y21017D01*
G01X30980Y21046D01*
G01X30932Y21073D01*
G01X30883Y21099D01*
G01X30833Y21123D01*
G01X30782Y21144D01*
G01X30730Y21165D01*
G01X30679Y21183D01*
G01X30626Y21199D01*
G01X30572Y21214D01*
G01X30519Y21226D01*
G01X30424Y21249D01*
G01X30365Y21274D01*
G01X30333Y21305D01*
G01X30316Y21350D01*
G01X30302Y21412D01*
G01X30287Y21474D01*
G01X30271Y21535D01*
G01X30235Y21655D01*
G01X30215Y21714D01*
G01X30195Y21772D01*
G01X30173Y21831D01*
G01X30150Y21888D01*
G01X30126Y21945D01*
G01X30102Y22001D01*
G01X30076Y22057D01*
G01X30049Y22112D01*
G01X30021Y22167D01*
G01X29992Y22220D01*
G01X29962Y22274D01*
G01X29900Y22378D01*
G01X29867Y22429D01*
G01X29799Y22529D01*
G01X29764Y22578D01*
G01X29727Y22625D01*
G01X29690Y22673D01*
G01X29652Y22719D01*
G01X29613Y22765D01*
G01X29573Y22810D01*
G01X29532Y22854D01*
G01X29491Y22897D01*
G01X29448Y22940D01*
G01X29405Y22981D01*
G01X29361Y23022D01*
G01X29317Y23062D01*
G01X29271Y23101D01*
G01X29225Y23139D01*
G01X29178Y23176D01*
G01X29130Y23212D01*
G01X29081Y23248D01*
G01X29032Y23282D01*
G01X28932Y23348D01*
G01X28880Y23379D01*
G01X28829Y23409D01*
G01X28776Y23439D01*
G01X28723Y23467D01*
G01X28668Y23495D01*
G01X28614Y23521D01*
G01X28559Y23546D01*
G01X28447Y23594D01*
G01X28390Y23615D01*
G01X28332Y23636D01*
G01X28274Y23656D01*
G01X28216Y23675D01*
G01X28156Y23692D01*
G01X28097Y23709D01*
G01X28040Y23723D01*
G01X27926Y23749D01*
G01X27869Y23760D01*
G01X27813Y23769D01*
G01X27756Y23778D01*
G01X27699Y23786D01*
G01X27642Y23792D01*
G01X27585Y23797D01*
G01X27529Y23801D01*
G01X27473Y23804D01*
G01X27416Y23806D01*
G01X27360Y23807D01*
G37*

%LPD*%
G36*
G01X28142Y22798D02*
G01X28097Y22800D01*
G01X28056Y22793D01*
G01X28011Y22776D01*
G01X27966Y22750D01*
G01X27927Y22718D01*
G01X27901Y22690D01*
G01X27882Y22663D01*
G01X27867Y22633D01*
G01X27857Y22596D01*
G01X27850Y22547D01*
G01X27846Y22484D01*
G01X27845Y22400D01*
G01X27844Y22295D01*
G01X27846Y22205D01*
G01X27850Y22126D01*
G01X27857Y22056D01*
G01X27868Y21996D01*
G01X27882Y21944D01*
G01X27899Y21900D01*
G01X27921Y21864D01*
G01X27947Y21836D01*
G01X27978Y21815D01*
G01X28013Y21800D01*
G01X28052Y21792D01*
G01X28097Y21789D01*
G01X28142Y21792D01*
G01X28181Y21800D01*
G01X28216Y21815D01*
G01X28246Y21836D01*
G01X28272Y21864D01*
G01X28294Y21900D01*
G01X28312Y21944D01*
G01X28326Y21996D01*
G01X28336Y22056D01*
G01X28344Y22126D01*
G01X28348Y22205D01*
G01X28349Y22295D01*
G01X28348Y22384D01*
G01X28344Y22463D01*
G01X28336Y22533D01*
G01X28326Y22594D01*
G01X28312Y22646D01*
G01X28294Y22689D01*
G01X28272Y22725D01*
G01X28246Y22753D01*
G01X28216Y22774D01*
G01X28181Y22789D01*
G01X28142Y22798D01*
G37*

%LPD*%
G36*
G01X27387Y22798D02*
G01X27339Y22800D01*
G01X27296Y22795D01*
G01X27249Y22781D01*
G01X27204Y22761D01*
G01X27166Y22736D01*
G01X27141Y22714D01*
G01X27122Y22691D01*
G01X27107Y22663D01*
G01X27098Y22626D01*
G01X27092Y22575D01*
G01X27088Y22505D01*
G01X27087Y22413D01*
G01X27086Y22295D01*
G01X27087Y22197D01*
G01X27090Y22112D01*
G01X27096Y22040D01*
G01X27105Y21978D01*
G01X27118Y21927D01*
G01X27134Y21885D01*
G01X27155Y21852D01*
G01X27180Y21827D01*
G01X27211Y21809D01*
G01X27248Y21798D01*
G01X27290Y21791D01*
G01X27339Y21789D01*
G01X27387Y21791D01*
G01X27430Y21798D01*
G01X27467Y21809D01*
G01X27497Y21827D01*
G01X27522Y21852D01*
G01X27543Y21885D01*
G01X27560Y21927D01*
G01X27572Y21978D01*
G01X27581Y22040D01*
G01X27587Y22112D01*
G01X27591Y22197D01*
G01X27592Y22295D01*
G01X27591Y22393D01*
G01X27587Y22477D01*
G01X27581Y22550D01*
G01X27572Y22612D01*
G01X27560Y22663D01*
G01X27543Y22705D01*
G01X27522Y22737D01*
G01X27497Y22762D01*
G01X27467Y22780D01*
G01X27430Y22792D01*
G01X27387Y22798D01*
G37*

%LPD*%
G36*
G01X26625Y22798D02*
G01X26581Y22800D01*
G01X26540Y22793D01*
G01X26495Y22776D01*
G01X26450Y22750D01*
G01X26411Y22718D01*
G01X26385Y22690D01*
G01X26365Y22663D01*
G01X26351Y22633D01*
G01X26340Y22596D01*
G01X26334Y22547D01*
G01X26330Y22484D01*
G01X26329Y22400D01*
G01X26328Y22295D01*
G01X26329Y22205D01*
G01X26334Y22126D01*
G01X26341Y22056D01*
G01X26351Y21996D01*
G01X26366Y21944D01*
G01X26383Y21900D01*
G01X26405Y21864D01*
G01X26431Y21836D01*
G01X26462Y21815D01*
G01X26496Y21800D01*
G01X26536Y21792D01*
G01X26581Y21789D01*
G01X26625Y21792D01*
G01X26665Y21800D01*
G01X26700Y21815D01*
G01X26730Y21836D01*
G01X26756Y21864D01*
G01X26778Y21900D01*
G01X26796Y21944D01*
G01X26810Y21996D01*
G01X26820Y22056D01*
G01X26828Y22126D01*
G01X26832Y22205D01*
G01X26834Y22295D01*
G01X26832Y22384D01*
G01X26828Y22463D01*
G01X26820Y22533D01*
G01X26810Y22594D01*
G01X26796Y22646D01*
G01X26778Y22689D01*
G01X26756Y22725D01*
G01X26730Y22753D01*
G01X26700Y22774D01*
G01X26665Y22789D01*
G01X26625Y22798D01*
G37*

%LPD*%
G36*
G01X29427Y21294D02*
G01X29360Y21295D01*
G01X29293Y21294D01*
G01X29227Y21290D01*
G01X29164Y21282D01*
G01X29105Y21272D01*
G01X29052Y21259D01*
G01X29005Y21243D01*
G01X28966Y21223D01*
G01X28938Y21201D01*
G01X28906Y21162D01*
G01X28879Y21117D01*
G01X28862Y21072D01*
G01X28855Y21031D01*
G01X28857Y20987D01*
G01X28866Y20947D01*
G01X28881Y20912D01*
G01X28902Y20882D01*
G01X28930Y20856D01*
G01X28966Y20834D01*
G01X29009Y20816D01*
G01X29061Y20802D01*
G01X29122Y20791D01*
G01X29192Y20784D01*
G01X29271Y20780D01*
G01X29360Y20779D01*
G01X29466Y20779D01*
G01X29549Y20781D01*
G01X29612Y20784D01*
G01X29661Y20791D01*
G01X29699Y20801D01*
G01X29729Y20816D01*
G01X29756Y20836D01*
G01X29783Y20861D01*
G01X29818Y20902D01*
G01X29842Y20944D01*
G01X29857Y20988D01*
G01X29862Y21031D01*
G01X29857Y21075D01*
G01X29842Y21119D01*
G01X29818Y21161D01*
G01X29783Y21201D01*
G01X29754Y21223D01*
G01X29715Y21243D01*
G01X29669Y21259D01*
G01X29615Y21272D01*
G01X29556Y21282D01*
G01X29493Y21290D01*
G01X29427Y21294D01*
G37*

%LPD*%
G36*
G01X25385Y21294D02*
G01X25317Y21295D01*
G01X25250Y21294D01*
G01X25184Y21290D01*
G01X25121Y21282D01*
G01X25062Y21272D01*
G01X25008Y21259D01*
G01X24962Y21243D01*
G01X24924Y21223D01*
G01X24895Y21201D01*
G01X24863Y21162D01*
G01X24836Y21117D01*
G01X24819Y21072D01*
G01X24812Y21031D01*
G01X24815Y20987D01*
G01X24823Y20947D01*
G01X24838Y20912D01*
G01X24859Y20882D01*
G01X24887Y20856D01*
G01X24923Y20834D01*
G01X24967Y20816D01*
G01X25019Y20802D01*
G01X25079Y20791D01*
G01X25149Y20784D01*
G01X25228Y20780D01*
G01X25317Y20779D01*
G01X25423Y20779D01*
G01X25506Y20781D01*
G01X25570Y20784D01*
G01X25618Y20791D01*
G01X25656Y20801D01*
G01X25686Y20816D01*
G01X25713Y20836D01*
G01X25740Y20861D01*
G01X25774Y20902D01*
G01X25799Y20944D01*
G01X25814Y20988D01*
G01X25819Y21031D01*
G01X25814Y21075D01*
G01X25799Y21119D01*
G01X25774Y21161D01*
G01X25740Y21201D01*
G01X25711Y21223D01*
G01X25673Y21243D01*
G01X25626Y21259D01*
G01X25573Y21272D01*
G01X25513Y21282D01*
G01X25450Y21290D01*
G01X25385Y21294D01*
G37*

%LPD*%
G36*
G01X29325Y20537D02*
G01X29254Y20537D01*
G01X29190Y20535D01*
G01X29135Y20532D01*
G01X29087Y20527D01*
G01X29047Y20520D01*
G01X29015Y20511D01*
G01X28990Y20501D01*
G01X28952Y20476D01*
G01X28920Y20444D01*
G01X28895Y20407D01*
G01X28876Y20365D01*
G01X28864Y20321D01*
G01X28859Y20274D01*
G01X28863Y20228D01*
G01X28874Y20181D01*
G01X28888Y20147D01*
G01X28906Y20117D01*
G01X28927Y20091D01*
G01X28952Y20070D01*
G01X28983Y20051D01*
G01X29020Y20037D01*
G01X29063Y20026D01*
G01X29113Y20018D01*
G01X29172Y20012D01*
G01X29240Y20010D01*
G01X29318Y20009D01*
G01X29405Y20011D01*
G01X29491Y20014D01*
G01X29567Y20020D01*
G01X29632Y20028D01*
G01X29688Y20039D01*
G01X29735Y20053D01*
G01X29773Y20071D01*
G01X29804Y20093D01*
G01X29828Y20119D01*
G01X29846Y20150D01*
G01X29857Y20185D01*
G01X29863Y20227D01*
G01X29865Y20273D01*
G01X29863Y20320D01*
G01X29857Y20361D01*
G01X29846Y20397D01*
G01X29828Y20427D01*
G01X29804Y20453D01*
G01X29773Y20475D01*
G01X29735Y20493D01*
G01X29688Y20507D01*
G01X29632Y20518D01*
G01X29567Y20526D01*
G01X29491Y20532D01*
G01X29405Y20535D01*
G01X29325Y20537D01*
G37*

%LPD*%
G36*
G01X25283Y20537D02*
G01X25211Y20537D01*
G01X25148Y20535D01*
G01X25092Y20532D01*
G01X25044Y20527D01*
G01X25004Y20520D01*
G01X24972Y20511D01*
G01X24947Y20501D01*
G01X24910Y20476D01*
G01X24878Y20444D01*
G01X24852Y20407D01*
G01X24833Y20365D01*
G01X24821Y20321D01*
G01X24816Y20274D01*
G01X24820Y20228D01*
G01X24832Y20181D01*
G01X24846Y20147D01*
G01X24863Y20117D01*
G01X24884Y20091D01*
G01X24909Y20070D01*
G01X24940Y20051D01*
G01X24977Y20037D01*
G01X25020Y20026D01*
G01X25071Y20018D01*
G01X25130Y20012D01*
G01X25197Y20010D01*
G01X25275Y20009D01*
G01X25362Y20011D01*
G01X25449Y20014D01*
G01X25524Y20020D01*
G01X25589Y20028D01*
G01X25645Y20039D01*
G01X25692Y20053D01*
G01X25731Y20071D01*
G01X25762Y20093D01*
G01X25785Y20119D01*
G01X25803Y20150D01*
G01X25814Y20185D01*
G01X25821Y20227D01*
G01X25823Y20273D01*
G01X25821Y20320D01*
G01X25814Y20361D01*
G01X25803Y20397D01*
G01X25785Y20427D01*
G01X25762Y20453D01*
G01X25731Y20475D01*
G01X25692Y20493D01*
G01X25645Y20507D01*
G01X25589Y20518D01*
G01X25524Y20526D01*
G01X25449Y20532D01*
G01X25362Y20535D01*
G01X25283Y20537D01*
G37*

%LPD*%
G36*
G01X29450Y19766D02*
G01X29360Y19768D01*
G01X29254Y19767D01*
G01X29171Y19766D01*
G01X29108Y19762D01*
G01X29059Y19755D01*
G01X29022Y19745D01*
G01X28992Y19730D01*
G01X28965Y19710D01*
G01X28938Y19685D01*
G01X28906Y19646D01*
G01X28879Y19601D01*
G01X28862Y19555D01*
G01X28855Y19515D01*
G01X28857Y19470D01*
G01X28866Y19431D01*
G01X28881Y19395D01*
G01X28902Y19365D01*
G01X28930Y19340D01*
G01X28966Y19318D01*
G01X29009Y19300D01*
G01X29061Y19286D01*
G01X29122Y19275D01*
G01X29192Y19268D01*
G01X29271Y19263D01*
G01X29360Y19262D01*
G01X29450Y19263D01*
G01X29529Y19268D01*
G01X29599Y19275D01*
G01X29659Y19286D01*
G01X29711Y19300D01*
G01X29755Y19318D01*
G01X29790Y19340D01*
G01X29819Y19365D01*
G01X29839Y19395D01*
G01X29854Y19431D01*
G01X29863Y19470D01*
G01X29865Y19515D01*
G01X29863Y19560D01*
G01X29854Y19599D01*
G01X29839Y19634D01*
G01X29819Y19665D01*
G01X29790Y19691D01*
G01X29755Y19712D01*
G01X29711Y19730D01*
G01X29659Y19744D01*
G01X29599Y19755D01*
G01X29529Y19762D01*
G01X29450Y19766D01*
G37*

%LPD*%
G36*
G01X25407Y19766D02*
G01X25317Y19768D01*
G01X25212Y19767D01*
G01X25129Y19766D01*
G01X25065Y19762D01*
G01X25016Y19755D01*
G01X24979Y19745D01*
G01X24949Y19730D01*
G01X24922Y19710D01*
G01X24895Y19685D01*
G01X24863Y19646D01*
G01X24836Y19601D01*
G01X24819Y19555D01*
G01X24812Y19515D01*
G01X24815Y19470D01*
G01X24823Y19431D01*
G01X24838Y19395D01*
G01X24859Y19365D01*
G01X24887Y19340D01*
G01X24923Y19318D01*
G01X24967Y19300D01*
G01X25019Y19286D01*
G01X25079Y19275D01*
G01X25149Y19268D01*
G01X25228Y19263D01*
G01X25317Y19262D01*
G01X25407Y19263D01*
G01X25486Y19268D01*
G01X25556Y19275D01*
G01X25616Y19286D01*
G01X25668Y19300D01*
G01X25712Y19318D01*
G01X25747Y19340D01*
G01X25776Y19365D01*
G01X25797Y19395D01*
G01X25811Y19431D01*
G01X25820Y19470D01*
G01X25823Y19515D01*
G01X25820Y19560D01*
G01X25811Y19599D01*
G01X25797Y19634D01*
G01X25776Y19665D01*
G01X25747Y19691D01*
G01X25712Y19712D01*
G01X25668Y19730D01*
G01X25616Y19744D01*
G01X25556Y19755D01*
G01X25486Y19762D01*
G01X25407Y19766D01*
G37*

%LPD*%
G36*
G01X27037Y21552D02*
G01X26862Y21552D01*
G01X26779Y21551D01*
G01X26699Y21550D01*
G01X26623Y21549D01*
G01X26552Y21547D01*
G01X26485Y21545D01*
G01X26424Y21543D01*
G01X26369Y21540D01*
G01X26321Y21537D01*
G01X26279Y21533D01*
G01X26245Y21529D01*
G01X26219Y21524D01*
G01X26201Y21519D01*
G01X26182Y21510D01*
G01X26165Y21500D01*
G01X26148Y21488D01*
G01X26134Y21472D01*
G01X26121Y21453D01*
G01X26110Y21430D01*
G01X26101Y21401D01*
G01X26092Y21366D01*
G01X26085Y21325D01*
G01X26079Y21277D01*
G01X26074Y21220D01*
G01X26070Y21154D01*
G01X26067Y21078D01*
G01X26065Y20993D01*
G01X26063Y20896D01*
G01X26063Y20531D01*
G01X26064Y20382D01*
G01X26065Y20218D01*
G01X26067Y20076D01*
G01X26068Y19946D01*
G01X26070Y19829D01*
G01X26071Y19723D01*
G01X26073Y19628D01*
G01X26074Y19543D01*
G01X26076Y19468D01*
G01X26078Y19401D01*
G01X26081Y19343D01*
G01X26083Y19292D01*
G01X26086Y19249D01*
G01X26090Y19212D01*
G01X26093Y19181D01*
G01X26098Y19154D01*
G01X26103Y19132D01*
G01X26108Y19115D01*
G01X26114Y19100D01*
G01X26120Y19088D01*
G01X26127Y19078D01*
G01X26136Y19069D01*
G01X26146Y19063D01*
G01X26165Y19056D01*
G01X26190Y19050D01*
G01X26223Y19044D01*
G01X26262Y19039D01*
G01X26306Y19034D01*
G01X26357Y19030D01*
G01X26412Y19025D01*
G01X26473Y19021D01*
G01X26537Y19017D01*
G01X26606Y19014D01*
G01X26679Y19011D01*
G01X26754Y19009D01*
G01X26833Y19006D01*
G01X26913Y19005D01*
G01X26996Y19003D01*
G01X27080Y19002D01*
G01X27166Y19001D01*
G01X27339Y19000D01*
G01X27425Y19001D01*
G01X27512Y19001D01*
G01X27597Y19002D01*
G01X27681Y19003D01*
G01X27764Y19005D01*
G01X27845Y19007D01*
G01X27923Y19009D01*
G01X27999Y19011D01*
G01X28071Y19014D01*
G01X28140Y19017D01*
G01X28205Y19022D01*
G01X28265Y19025D01*
G01X28321Y19030D01*
G01X28371Y19034D01*
G01X28416Y19039D01*
G01X28455Y19045D01*
G01X28487Y19051D01*
G01X28513Y19057D01*
G01X28531Y19063D01*
G01X28542Y19070D01*
G01X28549Y19080D01*
G01X28555Y19099D01*
G01X28561Y19125D01*
G01X28567Y19157D01*
G01X28572Y19196D01*
G01X28577Y19241D01*
G01X28582Y19291D01*
G01X28586Y19347D01*
G01X28590Y19407D01*
G01X28594Y19472D01*
G01X28597Y19540D01*
G01X28600Y19613D01*
G01X28603Y19688D01*
G01X28605Y19767D01*
G01X28607Y19848D01*
G01X28609Y19930D01*
G01X28611Y20100D01*
G01X28611Y20446D01*
G01X28610Y20532D01*
G01X28609Y20616D01*
G01X28607Y20698D01*
G01X28605Y20779D01*
G01X28603Y20858D01*
G01X28600Y20933D01*
G01X28597Y21006D01*
G01X28594Y21074D01*
G01X28590Y21139D01*
G01X28586Y21200D01*
G01X28582Y21255D01*
G01X28578Y21306D01*
G01X28572Y21350D01*
G01X28567Y21389D01*
G01X28561Y21422D01*
G01X28555Y21447D01*
G01X28549Y21466D01*
G01X28542Y21477D01*
G01X28532Y21482D01*
G01X28513Y21488D01*
G01X28485Y21493D01*
G01X28449Y21498D01*
G01X28406Y21503D01*
G01X28356Y21508D01*
G01X28299Y21512D01*
G01X28237Y21517D01*
G01X28170Y21521D01*
G01X28097Y21525D01*
G01X28020Y21529D01*
G01X27940Y21532D01*
G01X27856Y21535D01*
G01X27769Y21538D01*
G01X27680Y21541D01*
G01X27589Y21543D01*
G01X27497Y21546D01*
G01X27405Y21547D01*
G01X27312Y21549D01*
G01X27219Y21550D01*
G01X27127Y21551D01*
G01X27037Y21552D01*
G37*

%LPC*%
G36*
G01X27763Y20904D02*
G01X27737Y20911D01*
G01X27682Y20904D01*
G01X27633Y20888D01*
G01X27589Y20865D01*
G01X27552Y20836D01*
G01X27522Y20801D01*
G01X27500Y20761D01*
G01X27484Y20718D01*
G01X27478Y20673D01*
G01X27479Y20626D01*
G01X27490Y20578D01*
G01X27511Y20530D01*
G01X27541Y20485D01*
G01X27583Y20420D01*
G01X27605Y20363D01*
G01X27605Y20322D01*
G01X27582Y20307D01*
G01X27553Y20325D01*
G01X27495Y20376D01*
G01X27415Y20451D01*
G01X27322Y20543D01*
G01X27251Y20613D01*
G01X27194Y20667D01*
G01X27146Y20709D01*
G01X27106Y20739D01*
G01X27070Y20759D01*
G01X27036Y20771D01*
G01X27000Y20777D01*
G01X26961Y20779D01*
G01X26834Y20779D01*
G01X26834Y20453D01*
G01X26833Y20371D01*
G01X26831Y20300D01*
G01X26827Y20240D01*
G01X26822Y20189D01*
G01X26816Y20148D01*
G01X26808Y20116D01*
G01X26798Y20091D01*
G01X26785Y20074D01*
G01X26751Y20030D01*
G01X26727Y19987D01*
G01X26714Y19944D01*
G01X26710Y19901D01*
G01X26716Y19858D01*
G01X26733Y19816D01*
G01X26760Y19773D01*
G01X26797Y19731D01*
G01X26841Y19694D01*
G01X26886Y19669D01*
G01X26931Y19654D01*
G01X26976Y19649D01*
G01X27018Y19654D01*
G01X27059Y19667D01*
G01X27096Y19687D01*
G01X27129Y19713D01*
G01X27157Y19746D01*
G01X27179Y19783D01*
G01X27194Y19824D01*
G01X27201Y19869D01*
G01X27200Y19916D01*
G01X27190Y19964D01*
G01X27169Y20013D01*
G01X27137Y20061D01*
G01X27095Y20126D01*
G01X27072Y20183D01*
G01X27072Y20224D01*
G01X27095Y20239D01*
G01X27124Y20221D01*
G01X27183Y20170D01*
G01X27263Y20095D01*
G01X27356Y20004D01*
G01X27426Y19933D01*
G01X27484Y19879D01*
G01X27531Y19837D01*
G01X27572Y19807D01*
G01X27608Y19787D01*
G01X27642Y19775D01*
G01X27677Y19769D01*
G01X27717Y19768D01*
G01X27844Y19768D01*
G01X27844Y20093D01*
G01X27845Y20176D01*
G01X27847Y20246D01*
G01X27850Y20306D01*
G01X27855Y20357D01*
G01X27862Y20398D01*
G01X27870Y20430D01*
G01X27880Y20455D01*
G01X27892Y20472D01*
G01X27926Y20516D01*
G01X27950Y20559D01*
G01X27963Y20601D01*
G01X27967Y20644D01*
G01X27961Y20687D01*
G01X27946Y20728D01*
G01X27920Y20770D01*
G01X27884Y20811D01*
G01X27841Y20851D01*
G01X27799Y20883D01*
G01X27763Y20904D01*
G37*

%LPD*%
G36*
G01X28142Y18754D02*
G01X28097Y18757D01*
G01X28056Y18750D01*
G01X28011Y18733D01*
G01X27966Y18706D01*
G01X27927Y18674D01*
G01X27901Y18647D01*
G01X27882Y18620D01*
G01X27867Y18590D01*
G01X27857Y18552D01*
G01X27850Y18503D01*
G01X27846Y18440D01*
G01X27845Y18357D01*
G01X27844Y18251D01*
G01X27846Y18162D01*
G01X27850Y18083D01*
G01X27857Y18013D01*
G01X27868Y17952D01*
G01X27882Y17900D01*
G01X27899Y17857D01*
G01X27921Y17821D01*
G01X27947Y17793D01*
G01X27978Y17772D01*
G01X28013Y17757D01*
G01X28052Y17749D01*
G01X28097Y17746D01*
G01X28142Y17749D01*
G01X28181Y17757D01*
G01X28216Y17772D01*
G01X28246Y17793D01*
G01X28272Y17821D01*
G01X28294Y17857D01*
G01X28312Y17900D01*
G01X28326Y17952D01*
G01X28336Y18013D01*
G01X28344Y18083D01*
G01X28348Y18162D01*
G01X28349Y18251D01*
G01X28348Y18341D01*
G01X28344Y18420D01*
G01X28336Y18490D01*
G01X28326Y18550D01*
G01X28312Y18602D01*
G01X28294Y18646D01*
G01X28272Y18682D01*
G01X28246Y18710D01*
G01X28216Y18731D01*
G01X28181Y18746D01*
G01X28142Y18754D01*
G37*

%LPD*%
G36*
G01X27387Y18755D02*
G01X27339Y18757D01*
G01X27296Y18752D01*
G01X27249Y18738D01*
G01X27204Y18717D01*
G01X27166Y18692D01*
G01X27141Y18671D01*
G01X27122Y18648D01*
G01X27107Y18620D01*
G01X27098Y18582D01*
G01X27092Y18531D01*
G01X27088Y18461D01*
G01X27087Y18370D01*
G01X27086Y18251D01*
G01X27087Y18153D01*
G01X27090Y18069D01*
G01X27096Y17996D01*
G01X27105Y17934D01*
G01X27118Y17883D01*
G01X27134Y17841D01*
G01X27155Y17809D01*
G01X27180Y17784D01*
G01X27211Y17766D01*
G01X27248Y17754D01*
G01X27290Y17748D01*
G01X27339Y17746D01*
G01X27387Y17748D01*
G01X27430Y17754D01*
G01X27467Y17766D01*
G01X27497Y17784D01*
G01X27522Y17809D01*
G01X27543Y17841D01*
G01X27560Y17883D01*
G01X27572Y17934D01*
G01X27581Y17996D01*
G01X27587Y18069D01*
G01X27591Y18153D01*
G01X27592Y18251D01*
G01X27591Y18349D01*
G01X27587Y18434D01*
G01X27581Y18506D01*
G01X27572Y18568D01*
G01X27560Y18619D01*
G01X27543Y18661D01*
G01X27522Y18694D01*
G01X27497Y18719D01*
G01X27467Y18737D01*
G01X27430Y18748D01*
G01X27387Y18755D01*
G37*

%LPD*%
G36*
G01X26625Y18754D02*
G01X26581Y18757D01*
G01X26540Y18750D01*
G01X26495Y18733D01*
G01X26450Y18706D01*
G01X26411Y18674D01*
G01X26385Y18647D01*
G01X26365Y18620D01*
G01X26351Y18590D01*
G01X26340Y18552D01*
G01X26334Y18503D01*
G01X26330Y18440D01*
G01X26329Y18357D01*
G01X26328Y18251D01*
G01X26329Y18162D01*
G01X26334Y18083D01*
G01X26341Y18013D01*
G01X26351Y17952D01*
G01X26366Y17900D01*
G01X26383Y17857D01*
G01X26405Y17821D01*
G01X26431Y17793D01*
G01X26462Y17772D01*
G01X26496Y17757D01*
G01X26536Y17749D01*
G01X26581Y17746D01*
G01X26625Y17749D01*
G01X26665Y17757D01*
G01X26700Y17772D01*
G01X26730Y17793D01*
G01X26756Y17821D01*
G01X26778Y17857D01*
G01X26796Y17900D01*
G01X26810Y17952D01*
G01X26820Y18013D01*
G01X26828Y18083D01*
G01X26832Y18162D01*
G01X26834Y18251D01*
G01X26832Y18341D01*
G01X26828Y18420D01*
G01X26820Y18490D01*
G01X26810Y18550D01*
G01X26796Y18602D01*
G01X26778Y18646D01*
G01X26756Y18682D01*
G01X26730Y18710D01*
G01X26700Y18731D01*
G01X26665Y18746D01*
G01X26625Y18754D01*
G37*

%LPD*%
G36*
G01X27415Y42872D02*
G01X27054Y42872D01*
G01X27000Y42748D01*
G01X26979Y42697D01*
G01X26962Y42652D01*
G01X26950Y42617D01*
G01X26946Y42597D01*
G01X26962Y42582D01*
G01X27007Y42558D01*
G01X27073Y42529D01*
G01X27155Y42498D01*
G01X27186Y42487D01*
G01X27224Y42472D01*
G01X27266Y42455D01*
G01X27313Y42436D01*
G01X27363Y42415D01*
G01X27416Y42392D01*
G01X27471Y42368D01*
G01X27528Y42343D01*
G01X27641Y42292D01*
G01X27697Y42266D01*
G01X27752Y42240D01*
G01X27808Y42213D01*
G01X27864Y42185D01*
G01X27974Y42129D01*
G01X28029Y42100D01*
G01X28083Y42071D01*
G01X28138Y42041D01*
G01X28191Y42010D01*
G01X28245Y41980D01*
G01X28404Y41884D01*
G01X28456Y41852D01*
G01X28559Y41785D01*
G01X28610Y41750D01*
G01X28712Y41681D01*
G01X28811Y41610D01*
G01X28861Y41574D01*
G01X28959Y41500D01*
G01X29007Y41463D01*
G01X29055Y41425D01*
G01X29102Y41386D01*
G01X29150Y41348D01*
G01X29196Y41309D01*
G01X29289Y41229D01*
G01X29379Y41148D01*
G01X29424Y41107D01*
G01X29513Y41024D01*
G01X29556Y40981D01*
G01X29600Y40938D01*
G01X29684Y40852D01*
G01X29727Y40808D01*
G01X29768Y40764D01*
G01X29850Y40674D01*
G01X29890Y40629D01*
G01X29969Y40537D01*
G01X30009Y40491D01*
G01X30123Y40350D01*
G01X30160Y40302D01*
G01X30233Y40206D01*
G01X30304Y40108D01*
G01X30339Y40058D01*
G01X30373Y40009D01*
G01X30407Y39959D01*
G01X30441Y39908D01*
G01X30474Y39858D01*
G01X30538Y39756D01*
G01X30570Y39704D01*
G01X30632Y39600D01*
G01X30662Y39548D01*
G01X30721Y39442D01*
G01X30749Y39389D01*
G01X30777Y39335D01*
G01X30805Y39282D01*
G01X30832Y39227D01*
G01X30858Y39173D01*
G01X30910Y39063D01*
G01X30960Y38953D01*
G01X30983Y38897D01*
G01X31007Y38841D01*
G01X31030Y38785D01*
G01X31088Y38648D01*
G01X31129Y38575D01*
G01X31169Y38551D01*
G01X31223Y38557D01*
G01X31292Y38574D01*
G01X31345Y38592D01*
G01X31384Y38614D01*
G01X31410Y38645D01*
G01X31426Y38688D01*
G01X31436Y38747D01*
G01X31440Y38826D01*
G01X31440Y38995D01*
G01X31438Y39060D01*
G01X31435Y39125D01*
G01X31431Y39190D01*
G01X31426Y39255D01*
G01X31420Y39320D01*
G01X31404Y39450D01*
G01X31384Y39580D01*
G01X31372Y39644D01*
G01X31359Y39709D01*
G01X31345Y39773D01*
G01X31330Y39837D01*
G01X31314Y39900D01*
G01X31297Y39964D01*
G01X31279Y40027D01*
G01X31239Y40153D01*
G01X31218Y40215D01*
G01X31195Y40278D01*
G01X31172Y40339D01*
G01X31148Y40401D01*
G01X31122Y40462D01*
G01X31095Y40523D01*
G01X31068Y40583D01*
G01X31039Y40643D01*
G01X31010Y40702D01*
G01X30979Y40761D01*
G01X30948Y40819D01*
G01X30882Y40935D01*
G01X30847Y40992D01*
G01X30812Y41048D01*
G01X30776Y41104D01*
G01X30738Y41159D01*
G01X30709Y41200D01*
G01X30677Y41242D01*
G01X30643Y41287D01*
G01X30605Y41332D01*
G01X30566Y41378D01*
G01X30525Y41425D01*
G01X30481Y41474D01*
G01X30436Y41522D01*
G01X30390Y41571D01*
G01X30342Y41619D01*
G01X30294Y41668D01*
G01X30244Y41716D01*
G01X30195Y41764D01*
G01X30144Y41811D01*
G01X30093Y41857D01*
G01X30043Y41902D01*
G01X29993Y41945D01*
G01X29944Y41987D01*
G01X29895Y42027D01*
G01X29847Y42065D01*
G01X29800Y42101D01*
G01X29755Y42134D01*
G01X29711Y42165D01*
G01X29669Y42192D01*
G01X29616Y42225D01*
G01X29564Y42257D01*
G01X29458Y42319D01*
G01X29405Y42349D01*
G01X29350Y42378D01*
G01X29296Y42406D01*
G01X29186Y42460D01*
G01X29130Y42486D01*
G01X29075Y42510D01*
G01X29018Y42535D01*
G01X28962Y42558D01*
G01X28905Y42581D01*
G01X28791Y42623D01*
G01X28733Y42643D01*
G01X28617Y42681D01*
G01X28559Y42698D01*
G01X28500Y42715D01*
G01X28441Y42731D01*
G01X28382Y42746D01*
G01X28323Y42760D01*
G01X28263Y42774D01*
G01X28204Y42787D01*
G01X28144Y42799D01*
G01X28084Y42809D01*
G01X28023Y42819D01*
G01X27963Y42828D01*
G01X27902Y42837D01*
G01X27782Y42851D01*
G01X27599Y42866D01*
G01X27538Y42869D01*
G01X27476Y42871D01*
G01X27415Y42872D01*
G37*

%LPD*%
G36*
G01X25546Y42423D02*
G01X25526Y42425D01*
G01X25484Y42413D01*
G01X25415Y42382D01*
G01X25328Y42338D01*
G01X25233Y42282D01*
G01X25184Y42251D01*
G01X25130Y42217D01*
G01X25075Y42180D01*
G01X25020Y42142D01*
G01X24967Y42105D01*
G01X24916Y42069D01*
G01X24871Y42034D01*
G01X24832Y42004D01*
G01X24778Y41960D01*
G01X24737Y41924D01*
G01X24707Y41892D01*
G01X24687Y41861D01*
G01X24674Y41829D01*
G01X24666Y41791D01*
G01X24663Y41744D01*
G01X24663Y41686D01*
G01X24664Y41603D01*
G01X24670Y41511D01*
G01X24677Y41421D01*
G01X24686Y41345D01*
G01X24708Y41186D01*
G01X24982Y41186D01*
G01X25037Y41185D01*
G01X25093Y41184D01*
G01X25149Y41181D01*
G01X25204Y41178D01*
G01X25261Y41174D01*
G01X25318Y41169D01*
G01X25376Y41163D01*
G01X25433Y41156D01*
G01X25491Y41148D01*
G01X25549Y41139D01*
G01X25608Y41130D01*
G01X25667Y41120D01*
G01X25785Y41096D01*
G01X25845Y41083D01*
G01X25904Y41069D01*
G01X25964Y41055D01*
G01X26084Y41023D01*
G01X26264Y40969D01*
G01X26384Y40929D01*
G01X26444Y40908D01*
G01X26504Y40886D01*
G01X26624Y40840D01*
G01X26684Y40815D01*
G01X26743Y40790D01*
G01X26803Y40764D01*
G01X26862Y40738D01*
G01X26921Y40711D01*
G01X27039Y40655D01*
G01X27213Y40565D01*
G01X27327Y40501D01*
G01X27441Y40435D01*
G01X27497Y40401D01*
G01X27552Y40366D01*
G01X27593Y40340D01*
G01X27635Y40310D01*
G01X27680Y40278D01*
G01X27726Y40244D01*
G01X27773Y40208D01*
G01X27822Y40169D01*
G01X27871Y40128D01*
G01X27922Y40086D01*
G01X27973Y40043D01*
G01X28024Y39997D01*
G01X28076Y39951D01*
G01X28128Y39904D01*
G01X28180Y39856D01*
G01X28232Y39807D01*
G01X28283Y39758D01*
G01X28333Y39708D01*
G01X28383Y39659D01*
G01X28432Y39609D01*
G01X28480Y39559D01*
G01X28526Y39510D01*
G01X28571Y39461D01*
G01X28614Y39414D01*
G01X28655Y39367D01*
G01X28694Y39321D01*
G01X28731Y39277D01*
G01X28765Y39233D01*
G01X28797Y39192D01*
G01X28826Y39152D01*
G01X28863Y39099D01*
G01X28899Y39046D01*
G01X28934Y38993D01*
G01X29002Y38883D01*
G01X29068Y38773D01*
G01X29130Y38661D01*
G01X29160Y38604D01*
G01X29190Y38548D01*
G01X29218Y38490D01*
G01X29246Y38433D01*
G01X29273Y38375D01*
G01X29325Y38259D01*
G01X29350Y38200D01*
G01X29374Y38141D01*
G01X29396Y38082D01*
G01X29419Y38023D01*
G01X29440Y37964D01*
G01X29460Y37904D01*
G01X29480Y37845D01*
G01X29499Y37785D01*
G01X29517Y37726D01*
G01X29534Y37666D01*
G01X29566Y37546D01*
G01X29594Y37426D01*
G01X29606Y37366D01*
G01X29618Y37307D01*
G01X29629Y37247D01*
G01X29639Y37188D01*
G01X29647Y37128D01*
G01X29656Y37069D01*
G01X29663Y37010D01*
G01X29669Y36950D01*
G01X29674Y36891D01*
G01X29678Y36833D01*
G01X29684Y36738D01*
G01X29689Y36656D01*
G01X29693Y36586D01*
G01X29697Y36527D01*
G01X29703Y36479D01*
G01X29710Y36440D01*
G01X29721Y36409D01*
G01X29734Y36386D01*
G01X29752Y36368D01*
G01X29774Y36356D01*
G01X29803Y36348D01*
G01X29838Y36344D01*
G01X29880Y36342D01*
G01X29930Y36341D01*
G01X29989Y36340D01*
G01X30058Y36339D01*
G01X30400Y36329D01*
G01X30561Y36520D01*
G01X30596Y36562D01*
G01X30634Y36611D01*
G01X30674Y36662D01*
G01X30713Y36716D01*
G01X30753Y36771D01*
G01X30790Y36823D01*
G01X30824Y36874D01*
G01X30853Y36920D01*
G01X30985Y37129D01*
G01X30941Y37391D01*
G01X30931Y37451D01*
G01X30920Y37511D01*
G01X30909Y37570D01*
G01X30897Y37630D01*
G01X30883Y37689D01*
G01X30870Y37748D01*
G01X30856Y37807D01*
G01X30826Y37925D01*
G01X30810Y37984D01*
G01X30793Y38042D01*
G01X30776Y38101D01*
G01X30740Y38217D01*
G01X30721Y38275D01*
G01X30701Y38332D01*
G01X30681Y38390D01*
G01X30639Y38504D01*
G01X30617Y38561D01*
G01X30571Y38675D01*
G01X30548Y38730D01*
G01X30523Y38787D01*
G01X30498Y38843D01*
G01X30473Y38898D01*
G01X30447Y38953D01*
G01X30393Y39063D01*
G01X30365Y39118D01*
G01X30337Y39172D01*
G01X30279Y39280D01*
G01X30249Y39333D01*
G01X30218Y39386D01*
G01X30187Y39440D01*
G01X30091Y39596D01*
G01X30057Y39648D01*
G01X30024Y39699D01*
G01X29990Y39750D01*
G01X29955Y39801D01*
G01X29920Y39851D01*
G01X29884Y39901D01*
G01X29847Y39951D01*
G01X29773Y40049D01*
G01X29697Y40145D01*
G01X29658Y40193D01*
G01X29538Y40334D01*
G01X29496Y40381D01*
G01X29454Y40427D01*
G01X29412Y40472D01*
G01X29369Y40518D01*
G01X29326Y40562D01*
G01X29237Y40651D01*
G01X29147Y40737D01*
G01X29101Y40780D01*
G01X29008Y40864D01*
G01X28961Y40905D01*
G01X28912Y40946D01*
G01X28864Y40986D01*
G01X28815Y41027D01*
G01X28767Y41066D01*
G01X28717Y41105D01*
G01X28666Y41144D01*
G01X28616Y41182D01*
G01X28565Y41220D01*
G01X28514Y41257D01*
G01X28462Y41294D01*
G01X28410Y41330D01*
G01X28358Y41365D01*
G01X28305Y41401D01*
G01X28252Y41436D01*
G01X28199Y41470D01*
G01X28145Y41504D01*
G01X28090Y41537D01*
G01X27981Y41602D01*
G01X27926Y41633D01*
G01X27814Y41695D01*
G01X27702Y41755D01*
G01X27531Y41839D01*
G01X27473Y41867D01*
G01X27357Y41920D01*
G01X27299Y41945D01*
G01X27240Y41970D01*
G01X27182Y41994D01*
G01X27064Y42042D01*
G01X26945Y42086D01*
G01X26885Y42108D01*
G01X26705Y42168D01*
G01X26644Y42187D01*
G01X26584Y42205D01*
G01X26523Y42223D01*
G01X26462Y42240D01*
G01X26340Y42272D01*
G01X26278Y42287D01*
G01X26217Y42302D01*
G01X26156Y42316D01*
G01X26094Y42329D01*
G01X25971Y42353D01*
G01X25892Y42368D01*
G01X25817Y42381D01*
G01X25746Y42393D01*
G01X25681Y42404D01*
G01X25626Y42412D01*
G01X25580Y42419D01*
G01X25546Y42423D01*
G37*

%LPD*%
G36*
G01X24952Y40734D02*
G01X24895Y40734D01*
G01X24827Y40733D01*
G01X24758Y40729D01*
G01X24691Y40725D01*
G01X24625Y40719D01*
G01X24565Y40712D01*
G01X24511Y40705D01*
G01X24465Y40696D01*
G01X24429Y40687D01*
G01X24365Y40666D01*
G01X24303Y40643D01*
G01X24242Y40618D01*
G01X24183Y40591D01*
G01X24125Y40562D01*
G01X24070Y40530D01*
G01X24016Y40497D01*
G01X23964Y40462D01*
G01X23914Y40425D01*
G01X23865Y40387D01*
G01X23818Y40346D01*
G01X23773Y40304D01*
G01X23731Y40260D01*
G01X23690Y40214D01*
G01X23651Y40166D01*
G01X23614Y40117D01*
G01X23580Y40067D01*
G01X23547Y40015D01*
G01X23517Y39961D01*
G01X23489Y39906D01*
G01X23463Y39850D01*
G01X23440Y39792D01*
G01X23418Y39733D01*
G01X23399Y39673D01*
G01X23382Y39612D01*
G01X23368Y39549D01*
G01X23356Y39485D01*
G01X23347Y39420D01*
G01X23341Y39358D01*
G01X23336Y39297D01*
G01X23334Y39236D01*
G01X23334Y39177D01*
G01X23337Y39119D01*
G01X23341Y39061D01*
G01X23348Y39004D01*
G01X23357Y38948D01*
G01X23369Y38894D01*
G01X23382Y38839D01*
G01X23398Y38786D01*
G01X23416Y38734D01*
G01X23437Y38683D01*
G01X23459Y38632D01*
G01X23484Y38583D01*
G01X23512Y38534D01*
G01X23541Y38486D01*
G01X23573Y38439D01*
G01X23607Y38393D01*
G01X23644Y38347D01*
G01X23682Y38303D01*
G01X23724Y38259D01*
G01X23767Y38216D01*
G01X23813Y38174D01*
G01X23861Y38132D01*
G01X23910Y38092D01*
G01X23958Y38055D01*
G01X24007Y38021D01*
G01X24056Y37989D01*
G01X24106Y37960D01*
G01X24156Y37933D01*
G01X24208Y37908D01*
G01X24261Y37886D01*
G01X24315Y37865D01*
G01X24371Y37846D01*
G01X24429Y37829D01*
G01X24489Y37814D01*
G01X24550Y37801D01*
G01X24614Y37789D01*
G01X24681Y37779D01*
G01X24740Y37770D01*
G01X24800Y37762D01*
G01X24858Y37754D01*
G01X24914Y37746D01*
G01X24965Y37739D01*
G01X25009Y37733D01*
G01X25046Y37727D01*
G01X25073Y37723D01*
G01X25125Y37714D01*
G01X25177Y37701D01*
G01X25230Y37684D01*
G01X25284Y37664D01*
G01X25337Y37640D01*
G01X25390Y37613D01*
G01X25443Y37583D01*
G01X25496Y37551D01*
G01X25547Y37516D01*
G01X25598Y37478D01*
G01X25647Y37439D01*
G01X25695Y37396D01*
G01X25741Y37353D01*
G01X25786Y37307D01*
G01X25828Y37260D01*
G01X25868Y37212D01*
G01X25905Y37161D01*
G01X25940Y37110D01*
G01X25972Y37059D01*
G01X26000Y37006D01*
G01X26024Y36957D01*
G01X26045Y36906D01*
G01X26063Y36853D01*
G01X26079Y36800D01*
G01X26093Y36746D01*
G01X26105Y36690D01*
G01X26113Y36634D01*
G01X26120Y36577D01*
G01X26124Y36520D01*
G01X26126Y36463D01*
G01X26126Y36405D01*
G01X26123Y36347D01*
G01X26118Y36290D01*
G01X26111Y36233D01*
G01X26101Y36176D01*
G01X26089Y36120D01*
G01X26075Y36064D01*
G01X26058Y36010D01*
G01X26040Y35957D01*
G01X26019Y35905D01*
G01X25996Y35855D01*
G01X25970Y35805D01*
G01X25943Y35758D01*
G01X25913Y35712D01*
G01X25806Y35558D01*
G01X25919Y35446D01*
G01X25967Y35399D01*
G01X26015Y35357D01*
G01X26061Y35320D01*
G01X26109Y35285D01*
G01X26156Y35255D01*
G01X26206Y35227D01*
G01X26257Y35202D01*
G01X26311Y35180D01*
G01X26367Y35160D01*
G01X26428Y35142D01*
G01X26492Y35126D01*
G01X26561Y35111D01*
G01X26670Y35090D01*
G01X26761Y35074D01*
G01X26838Y35062D01*
G01X26901Y35057D01*
G01X26952Y35058D01*
G01X26995Y35066D01*
G01X27030Y35082D01*
G01X27061Y35107D01*
G01X27089Y35142D01*
G01X27117Y35186D01*
G01X27146Y35241D01*
G01X27179Y35307D01*
G01X27231Y35419D01*
G01X27254Y35476D01*
G01X27277Y35532D01*
G01X27298Y35589D01*
G01X27317Y35646D01*
G01X27335Y35704D01*
G01X27352Y35761D01*
G01X27368Y35819D01*
G01X27382Y35877D01*
G01X27406Y35993D01*
G01X27415Y36051D01*
G01X27424Y36110D01*
G01X27431Y36168D01*
G01X27437Y36227D01*
G01X27441Y36285D01*
G01X27444Y36343D01*
G01X27445Y36402D01*
G01X27446Y36460D01*
G01X27444Y36518D01*
G01X27442Y36577D01*
G01X27438Y36635D01*
G01X27433Y36693D01*
G01X27426Y36751D01*
G01X27418Y36809D01*
G01X27408Y36866D01*
G01X27397Y36923D01*
G01X27385Y36981D01*
G01X27372Y37038D01*
G01X27357Y37095D01*
G01X27341Y37152D01*
G01X27305Y37264D01*
G01X27284Y37320D01*
G01X27262Y37375D01*
G01X27239Y37430D01*
G01X27215Y37485D01*
G01X27190Y37539D01*
G01X27163Y37593D01*
G01X27105Y37699D01*
G01X27074Y37752D01*
G01X27008Y37856D01*
G01X26973Y37907D01*
G01X26937Y37957D01*
G01X26899Y38008D01*
G01X26864Y38052D01*
G01X26827Y38096D01*
G01X26789Y38139D01*
G01X26750Y38181D01*
G01X26709Y38223D01*
G01X26667Y38264D01*
G01X26624Y38304D01*
G01X26579Y38343D01*
G01X26487Y38419D01*
G01X26439Y38456D01*
G01X26391Y38491D01*
G01X26341Y38526D01*
G01X26291Y38560D01*
G01X26187Y38624D01*
G01X26134Y38655D01*
G01X26026Y38713D01*
G01X25971Y38740D01*
G01X25915Y38767D01*
G01X25803Y38815D01*
G01X25745Y38838D01*
G01X25688Y38859D01*
G01X25631Y38879D01*
G01X25572Y38898D01*
G01X25514Y38916D01*
G01X25455Y38932D01*
G01X25397Y38947D01*
G01X25338Y38960D01*
G01X25279Y38972D01*
G01X25161Y38992D01*
G01X25102Y38999D01*
G01X25043Y39005D01*
G01X24957Y39016D01*
G01X24880Y39031D01*
G01X24813Y39051D01*
G01X24756Y39075D01*
G01X24709Y39103D01*
G01X24673Y39135D01*
G01X24647Y39170D01*
G01X24632Y39209D01*
G01X24628Y39251D01*
G01X24636Y39295D01*
G01X24655Y39343D01*
G01X24686Y39392D01*
G01X24706Y39418D01*
G01X24726Y39438D01*
G01X24750Y39451D01*
G01X24782Y39459D01*
G01X24826Y39463D01*
G01X24886Y39463D01*
G01X24966Y39459D01*
G01X25070Y39453D01*
G01X25129Y39449D01*
G01X25188Y39444D01*
G01X25246Y39437D01*
G01X25305Y39429D01*
G01X25363Y39420D01*
G01X25421Y39410D01*
G01X25478Y39399D01*
G01X25536Y39387D01*
G01X25593Y39373D01*
G01X25650Y39358D01*
G01X25706Y39343D01*
G01X25762Y39326D01*
G01X25818Y39308D01*
G01X25874Y39289D01*
G01X25984Y39247D01*
G01X26038Y39225D01*
G01X26092Y39201D01*
G01X26146Y39176D01*
G01X26199Y39151D01*
G01X26252Y39124D01*
G01X26305Y39096D01*
G01X26357Y39067D01*
G01X26408Y39037D01*
G01X26459Y39006D01*
G01X26510Y38973D01*
G01X26560Y38940D01*
G01X26610Y38906D01*
G01X26659Y38871D01*
G01X26708Y38834D01*
G01X26804Y38758D01*
G01X26851Y38719D01*
G01X26898Y38678D01*
G01X26990Y38594D01*
G01X27036Y38549D01*
G01X27081Y38503D01*
G01X27125Y38458D01*
G01X27168Y38411D01*
G01X27209Y38365D01*
G01X27249Y38318D01*
G01X27288Y38271D01*
G01X27325Y38222D01*
G01X27361Y38174D01*
G01X27396Y38124D01*
G01X27430Y38074D01*
G01X27464Y38023D01*
G01X27495Y37971D01*
G01X27526Y37918D01*
G01X27556Y37864D01*
G01X27585Y37810D01*
G01X27613Y37754D01*
G01X27640Y37697D01*
G01X27666Y37639D01*
G01X27692Y37580D01*
G01X27716Y37519D01*
G01X27740Y37457D01*
G01X27763Y37394D01*
G01X27786Y37330D01*
G01X27805Y37269D01*
G01X27823Y37214D01*
G01X27837Y37160D01*
G01X27850Y37108D01*
G01X27861Y37055D01*
G01X27870Y36999D01*
G01X27877Y36940D01*
G01X27884Y36876D01*
G01X27889Y36805D01*
G01X27893Y36725D01*
G01X27897Y36635D01*
G01X27900Y36534D01*
G01X27903Y36444D01*
G01X27905Y36363D01*
G01X27905Y36218D01*
G01X27903Y36154D01*
G01X27899Y36092D01*
G01X27894Y36033D01*
G01X27887Y35975D01*
G01X27879Y35917D01*
G01X27867Y35858D01*
G01X27854Y35797D01*
G01X27838Y35732D01*
G01X27820Y35663D01*
G01X27798Y35587D01*
G01X27774Y35506D01*
G01X27747Y35416D01*
G01X27742Y35394D01*
G01X27745Y35375D01*
G01X27756Y35356D01*
G01X27778Y35338D01*
G01X27814Y35318D01*
G01X27865Y35295D01*
G01X27934Y35268D01*
G01X28319Y35128D01*
G01X28542Y35195D01*
G01X28621Y35220D01*
G01X28712Y35251D01*
G01X28808Y35286D01*
G01X28902Y35321D01*
G01X28988Y35354D01*
G01X29057Y35382D01*
G01X29104Y35404D01*
G01X29122Y35415D01*
G01X29126Y35440D01*
G01X29137Y35504D01*
G01X29154Y35598D01*
G01X29175Y35712D01*
G01X29184Y35761D01*
G01X29191Y35812D01*
G01X29198Y35867D01*
G01X29204Y35925D01*
G01X29209Y35984D01*
G01X29214Y36045D01*
G01X29218Y36108D01*
G01X29221Y36173D01*
G01X29223Y36238D01*
G01X29225Y36304D01*
G01X29226Y36371D01*
G01X29226Y36506D01*
G01X29225Y36573D01*
G01X29223Y36640D01*
G01X29220Y36706D01*
G01X29217Y36770D01*
G01X29213Y36834D01*
G01X29207Y36896D01*
G01X29202Y36957D01*
G01X29196Y37015D01*
G01X29189Y37071D01*
G01X29181Y37124D01*
G01X29172Y37175D01*
G01X29161Y37236D01*
G01X29149Y37297D01*
G01X29121Y37419D01*
G01X29106Y37480D01*
G01X29090Y37540D01*
G01X29072Y37600D01*
G01X29055Y37659D01*
G01X29036Y37719D01*
G01X29016Y37777D01*
G01X28996Y37836D01*
G01X28974Y37895D01*
G01X28952Y37953D01*
G01X28929Y38010D01*
G01X28905Y38067D01*
G01X28880Y38124D01*
G01X28854Y38181D01*
G01X28800Y38293D01*
G01X28772Y38348D01*
G01X28743Y38404D01*
G01X28713Y38458D01*
G01X28683Y38513D01*
G01X28652Y38566D01*
G01X28620Y38619D01*
G01X28587Y38672D01*
G01X28553Y38724D01*
G01X28519Y38777D01*
G01X28484Y38828D01*
G01X28448Y38879D01*
G01X28411Y38929D01*
G01X28335Y39029D01*
G01X28297Y39077D01*
G01X28257Y39126D01*
G01X28217Y39173D01*
G01X28176Y39221D01*
G01X28135Y39267D01*
G01X28092Y39314D01*
G01X28049Y39359D01*
G01X28006Y39405D01*
G01X27961Y39449D01*
G01X27916Y39492D01*
G01X27870Y39536D01*
G01X27824Y39578D01*
G01X27730Y39662D01*
G01X27682Y39702D01*
G01X27633Y39742D01*
G01X27584Y39781D01*
G01X27534Y39820D01*
G01X27483Y39858D01*
G01X27432Y39895D01*
G01X27328Y39967D01*
G01X27222Y40037D01*
G01X27168Y40071D01*
G01X27113Y40104D01*
G01X27058Y40136D01*
G01X27003Y40167D01*
G01X26946Y40198D01*
G01X26889Y40228D01*
G01X26833Y40256D01*
G01X26774Y40285D01*
G01X26714Y40313D01*
G01X26655Y40340D01*
G01X26594Y40367D01*
G01X26534Y40393D01*
G01X26473Y40417D01*
G01X26413Y40441D01*
G01X26351Y40464D01*
G01X26291Y40486D01*
G01X26229Y40507D01*
G01X26168Y40527D01*
G01X26106Y40547D01*
G01X26044Y40565D01*
G01X25983Y40583D01*
G01X25859Y40615D01*
G01X25797Y40630D01*
G01X25735Y40644D01*
G01X25674Y40656D01*
G01X25612Y40668D01*
G01X25551Y40679D01*
G01X25490Y40689D01*
G01X25429Y40698D01*
G01X25369Y40707D01*
G01X25308Y40713D01*
G01X25248Y40719D01*
G01X25188Y40724D01*
G01X25129Y40728D01*
G01X25069Y40731D01*
G01X25011Y40733D01*
G01X24952Y40734D01*
G37*

%LPD*%
G36*
G01X23996Y42208D02*
G01X23977Y42218D01*
G01X23952Y42200D01*
G01X23900Y42150D01*
G01X23830Y42076D01*
G01X23749Y41986D01*
G01X23663Y41886D01*
G01X23621Y41835D01*
G01X23580Y41784D01*
G01X23500Y41680D01*
G01X23461Y41628D01*
G01X23350Y41469D01*
G01X23280Y41361D01*
G01X23247Y41307D01*
G01X23214Y41252D01*
G01X23182Y41197D01*
G01X23150Y41141D01*
G01X23120Y41086D01*
G01X23090Y41029D01*
G01X23061Y40973D01*
G01X23033Y40916D01*
G01X23006Y40858D01*
G01X22979Y40801D01*
G01X22929Y40685D01*
G01X22905Y40627D01*
G01X22882Y40568D01*
G01X22860Y40508D01*
G01X22839Y40449D01*
G01X22818Y40389D01*
G01X22798Y40329D01*
G01X22779Y40269D01*
G01X22761Y40208D01*
G01X22744Y40147D01*
G01X22727Y40085D01*
G01X22712Y40024D01*
G01X22697Y39962D01*
G01X22683Y39899D01*
G01X22670Y39837D01*
G01X22658Y39774D01*
G01X22647Y39710D01*
G01X22638Y39658D01*
G01X22630Y39603D01*
G01X22623Y39547D01*
G01X22617Y39490D01*
G01X22611Y39432D01*
G01X22606Y39373D01*
G01X22602Y39313D01*
G01X22596Y39191D01*
G01X22593Y39066D01*
G01X22593Y38939D01*
G01X22594Y38876D01*
G01X22598Y38748D01*
G01X22605Y38621D01*
G01X22615Y38495D01*
G01X22627Y38371D01*
G01X22634Y38311D01*
G01X22643Y38250D01*
G01X22651Y38191D01*
G01X22660Y38133D01*
G01X22671Y38076D01*
G01X22681Y38020D01*
G01X22692Y37965D01*
G01X22704Y37912D01*
G01X22717Y37860D01*
G01X22730Y37810D01*
G01X22747Y37749D01*
G01X22783Y37629D01*
G01X22803Y37569D01*
G01X22822Y37510D01*
G01X22864Y37392D01*
G01X22886Y37334D01*
G01X22909Y37277D01*
G01X22933Y37219D01*
G01X22957Y37163D01*
G01X22981Y37106D01*
G01X23007Y37050D01*
G01X23033Y36995D01*
G01X23060Y36939D01*
G01X23116Y36831D01*
G01X23174Y36723D01*
G01X23205Y36670D01*
G01X23267Y36566D01*
G01X23300Y36514D01*
G01X23332Y36463D01*
G01X23366Y36412D01*
G01X23401Y36363D01*
G01X23436Y36313D01*
G01X23471Y36264D01*
G01X23507Y36215D01*
G01X23544Y36167D01*
G01X23582Y36119D01*
G01X23620Y36072D01*
G01X23659Y36025D01*
G01X23698Y35979D01*
G01X23738Y35933D01*
G01X23820Y35843D01*
G01X23862Y35799D01*
G01X23905Y35755D01*
G01X23948Y35712D01*
G01X23992Y35669D01*
G01X24082Y35585D01*
G01X24127Y35544D01*
G01X24174Y35504D01*
G01X24220Y35464D01*
G01X24268Y35424D01*
G01X24316Y35386D01*
G01X24365Y35347D01*
G01X24414Y35310D01*
G01X24464Y35272D01*
G01X24515Y35235D01*
G01X24565Y35200D01*
G01X24617Y35165D01*
G01X24668Y35130D01*
G01X24772Y35064D01*
G01X24876Y35000D01*
G01X24929Y34969D01*
G01X24982Y34939D01*
G01X25090Y34881D01*
G01X25143Y34853D01*
G01X25198Y34826D01*
G01X25252Y34800D01*
G01X25362Y34748D01*
G01X25417Y34724D01*
G01X25473Y34700D01*
G01X25528Y34677D01*
G01X25640Y34633D01*
G01X25696Y34613D01*
G01X25753Y34593D01*
G01X25809Y34573D01*
G01X25866Y34555D01*
G01X25923Y34536D01*
G01X25980Y34519D01*
G01X26095Y34487D01*
G01X26152Y34471D01*
G01X26268Y34443D01*
G01X26326Y34430D01*
G01X26442Y34406D01*
G01X26501Y34396D01*
G01X26559Y34386D01*
G01X26618Y34376D01*
G01X26677Y34367D01*
G01X26735Y34359D01*
G01X26853Y34345D01*
G01X26911Y34339D01*
G01X26970Y34334D01*
G01X27030Y34330D01*
G01X27089Y34326D01*
G01X27148Y34323D01*
G01X27206Y34320D01*
G01X27266Y34318D01*
G01X27325Y34317D01*
G01X27384Y34317D01*
G01X27502Y34319D01*
G01X27562Y34321D01*
G01X27620Y34324D01*
G01X27679Y34327D01*
G01X27738Y34331D01*
G01X27856Y34341D01*
G01X27915Y34347D01*
G01X27974Y34354D01*
G01X28033Y34362D01*
G01X28091Y34370D01*
G01X28150Y34378D01*
G01X28209Y34388D01*
G01X28267Y34399D01*
G01X28326Y34410D01*
G01X28383Y34422D01*
G01X28442Y34434D01*
G01X28500Y34447D01*
G01X28558Y34461D01*
G01X28615Y34476D01*
G01X28673Y34491D01*
G01X28730Y34507D01*
G01X28787Y34524D01*
G01X28845Y34541D01*
G01X28902Y34559D01*
G01X28959Y34578D01*
G01X29071Y34618D01*
G01X29128Y34639D01*
G01X29184Y34661D01*
G01X29239Y34683D01*
G01X29295Y34706D01*
G01X29350Y34730D01*
G01X29406Y34754D01*
G01X29460Y34780D01*
G01X29570Y34832D01*
G01X29624Y34859D01*
G01X29678Y34887D01*
G01X29785Y34945D01*
G01X29838Y34976D01*
G01X29891Y35006D01*
G01X29995Y35070D01*
G01X30047Y35103D01*
G01X30099Y35137D01*
G01X30150Y35171D01*
G01X30201Y35206D01*
G01X30252Y35242D01*
G01X30352Y35316D01*
G01X30411Y35360D01*
G01X30468Y35405D01*
G01X30523Y35448D01*
G01X30574Y35489D01*
G01X30619Y35526D01*
G01X30657Y35559D01*
G01X30687Y35585D01*
G01X30706Y35605D01*
G01X30744Y35649D01*
G01X30751Y35684D01*
G01X30723Y35728D01*
G01X30655Y35798D01*
G01X30605Y35845D01*
G01X30561Y35883D01*
G01X30527Y35909D01*
G01X30506Y35918D01*
G01X30480Y35905D01*
G01X30430Y35869D01*
G01X30363Y35816D01*
G01X30285Y35750D01*
G01X30241Y35712D01*
G01X30196Y35675D01*
G01X30150Y35638D01*
G01X30103Y35601D01*
G01X30054Y35565D01*
G01X30005Y35530D01*
G01X29955Y35494D01*
G01X29853Y35426D01*
G01X29747Y35360D01*
G01X29639Y35296D01*
G01X29583Y35266D01*
G01X29528Y35235D01*
G01X29471Y35206D01*
G01X29356Y35149D01*
G01X29298Y35122D01*
G01X29239Y35095D01*
G01X29181Y35069D01*
G01X29061Y35019D01*
G01X29001Y34996D01*
G01X28940Y34973D01*
G01X28879Y34951D01*
G01X28818Y34930D01*
G01X28757Y34910D01*
G01X28695Y34890D01*
G01X28571Y34854D01*
G01X28509Y34837D01*
G01X28448Y34821D01*
G01X28385Y34806D01*
G01X28323Y34792D01*
G01X28261Y34779D01*
G01X28209Y34770D01*
G01X28156Y34760D01*
G01X28101Y34752D01*
G01X28044Y34744D01*
G01X27985Y34737D01*
G01X27925Y34730D01*
G01X27864Y34724D01*
G01X27802Y34719D01*
G01X27739Y34714D01*
G01X27611Y34708D01*
G01X27546Y34705D01*
G01X27482Y34703D01*
G01X27352Y34701D01*
G01X27288Y34702D01*
G01X27223Y34703D01*
G01X27097Y34707D01*
G01X27036Y34710D01*
G01X26975Y34714D01*
G01X26915Y34718D01*
G01X26857Y34723D01*
G01X26801Y34729D01*
G01X26747Y34736D01*
G01X26694Y34743D01*
G01X26643Y34751D01*
G01X26595Y34759D01*
G01X26529Y34773D01*
G01X26464Y34786D01*
G01X26399Y34801D01*
G01X26334Y34817D01*
G01X26269Y34834D01*
G01X26139Y34870D01*
G01X26075Y34890D01*
G01X26010Y34910D01*
G01X25946Y34932D01*
G01X25883Y34953D01*
G01X25819Y34976D01*
G01X25756Y35000D01*
G01X25694Y35025D01*
G01X25632Y35049D01*
G01X25570Y35076D01*
G01X25509Y35102D01*
G01X25389Y35158D01*
G01X25271Y35216D01*
G01X25214Y35246D01*
G01X25157Y35277D01*
G01X25100Y35309D01*
G01X25045Y35340D01*
G01X24937Y35406D01*
G01X24884Y35440D01*
G01X24782Y35508D01*
G01X24733Y35543D01*
G01X24684Y35579D01*
G01X24637Y35615D01*
G01X24591Y35651D01*
G01X24546Y35689D01*
G01X24502Y35726D01*
G01X24324Y35882D01*
G01X24482Y35810D01*
G01X24535Y35789D01*
G01X24588Y35771D01*
G01X24641Y35759D01*
G01X24693Y35751D01*
G01X24745Y35746D01*
G01X24796Y35746D01*
G01X24846Y35750D01*
G01X24896Y35757D01*
G01X24944Y35768D01*
G01X24992Y35783D01*
G01X25037Y35800D01*
G01X25081Y35820D01*
G01X25125Y35843D01*
G01X25165Y35870D01*
G01X25205Y35898D01*
G01X25242Y35929D01*
G01X25277Y35963D01*
G01X25310Y35998D01*
G01X25340Y36036D01*
G01X25368Y36075D01*
G01X25393Y36116D01*
G01X25415Y36158D01*
G01X25435Y36202D01*
G01X25451Y36247D01*
G01X25464Y36293D01*
G01X25474Y36339D01*
G01X25480Y36387D01*
G01X25483Y36435D01*
G01X25481Y36483D01*
G01X25476Y36532D01*
G01X25467Y36581D01*
G01X25454Y36629D01*
G01X25436Y36678D01*
G01X25414Y36725D01*
G01X25387Y36773D01*
G01X25356Y36819D01*
G01X25318Y36868D01*
G01X25277Y36911D01*
G01X25234Y36951D01*
G01X25188Y36986D01*
G01X25140Y37017D01*
G01X25091Y37045D01*
G01X25039Y37068D01*
G01X24987Y37087D01*
G01X24933Y37101D01*
G01X24879Y37111D01*
G01X24824Y37118D01*
G01X24770Y37120D01*
G01X24714Y37117D01*
G01X24659Y37111D01*
G01X24605Y37100D01*
G01X24552Y37086D01*
G01X24499Y37067D01*
G01X24448Y37043D01*
G01X24398Y37016D01*
G01X24350Y36985D01*
G01X24305Y36949D01*
G01X24261Y36909D01*
G01X24220Y36866D01*
G01X24182Y36817D01*
G01X24151Y36774D01*
G01X24127Y36735D01*
G01X24109Y36697D01*
G01X24095Y36659D01*
G01X24085Y36619D01*
G01X24079Y36573D01*
G01X24076Y36521D01*
G01X24075Y36458D01*
G01X24079Y36360D01*
G01X24091Y36270D01*
G01X24110Y36191D01*
G01X24138Y36127D01*
G01X24201Y36008D01*
G01X24112Y36088D01*
G01X24082Y36117D01*
G01X24051Y36148D01*
G01X24019Y36183D01*
G01X23986Y36220D01*
G01X23953Y36261D01*
G01X23918Y36304D01*
G01X23884Y36349D01*
G01X23848Y36396D01*
G01X23813Y36446D01*
G01X23777Y36497D01*
G01X23741Y36550D01*
G01X23705Y36604D01*
G01X23669Y36660D01*
G01X23634Y36717D01*
G01X23599Y36775D01*
G01X23564Y36834D01*
G01X23530Y36892D01*
G01X23496Y36952D01*
G01X23464Y37011D01*
G01X23432Y37071D01*
G01X23401Y37131D01*
G01X23371Y37190D01*
G01X23343Y37249D01*
G01X23316Y37307D01*
G01X23290Y37364D01*
G01X23266Y37420D01*
G01X23244Y37475D01*
G01X23223Y37528D01*
G01X23202Y37586D01*
G01X23183Y37644D01*
G01X23164Y37705D01*
G01X23146Y37766D01*
G01X23128Y37828D01*
G01X23096Y37956D01*
G01X23081Y38021D01*
G01X23055Y38153D01*
G01X23043Y38220D01*
G01X23032Y38288D01*
G01X23022Y38356D01*
G01X23013Y38425D01*
G01X23005Y38493D01*
G01X22998Y38562D01*
G01X22992Y38631D01*
G01X22982Y38769D01*
G01X22979Y38838D01*
G01X22975Y38974D01*
G01X22975Y39042D01*
G01X22976Y39109D01*
G01X22978Y39176D01*
G01X22981Y39241D01*
G01X22984Y39307D01*
G01X22990Y39372D01*
G01X22996Y39435D01*
G01X23003Y39498D01*
G01X23011Y39559D01*
G01X23020Y39619D01*
G01X23031Y39678D01*
G01X23042Y39738D01*
G01X23068Y39858D01*
G01X23098Y39978D01*
G01X23132Y40098D01*
G01X23170Y40218D01*
G01X23191Y40278D01*
G01X23213Y40337D01*
G01X23235Y40397D01*
G01X23258Y40456D01*
G01X23282Y40515D01*
G01X23307Y40574D01*
G01X23359Y40690D01*
G01X23415Y40806D01*
G01X23474Y40919D01*
G01X23505Y40975D01*
G01X23537Y41031D01*
G01X23569Y41086D01*
G01X23635Y41194D01*
G01X23669Y41248D01*
G01X23704Y41300D01*
G01X23740Y41352D01*
G01X23776Y41403D01*
G01X23813Y41454D01*
G01X23850Y41503D01*
G01X23888Y41552D01*
G01X23927Y41600D01*
G01X23966Y41647D01*
G01X24006Y41694D01*
G01X24046Y41739D01*
G01X24087Y41783D01*
G01X24128Y41826D01*
G01X24266Y41968D01*
G01X24133Y42093D01*
G01X24079Y42142D01*
G01X24032Y42182D01*
G01X23996Y42208D01*
G37*

%LPD*%
G54D10*
G01X21073Y34159D02*
G01X22324Y34159D01*
G01X21073Y36198D02*
G01X22324Y36198D01*
G01X20074Y34159D02*
G01X18823Y34159D01*
G01X20074Y36198D02*
G01X18823Y36198D01*
G01X22324Y34159D02*
G01X22324Y36198D01*
G01X18823Y34159D02*
G01X18823Y36198D01*
G01X32127Y37600D02*
G01X32127Y36349D01*
G01X34166Y37600D02*
G01X34166Y36349D01*
G01X32127Y38599D02*
G01X32127Y39850D01*
G01X34166Y38599D02*
G01X34166Y39850D01*
G01X32127Y36349D02*
G01X34166Y36349D01*
G01X32127Y39850D02*
G01X34166Y39850D01*
G01X20565Y48891D02*
G01X21816Y48891D01*
G01X20565Y50930D02*
G01X21816Y50930D01*
G01X19566Y48891D02*
G01X18315Y48891D01*
G01X19566Y50930D02*
G01X18315Y50930D01*
G01X21816Y48891D02*
G01X21816Y50930D01*
G01X18315Y48891D02*
G01X18315Y50930D01*
G01X18284Y25789D02*
G01X18284Y24538D01*
G01X20323Y25789D02*
G01X20323Y24538D01*
G01X18284Y26788D02*
G01X18284Y28039D01*
G01X20323Y26788D02*
G01X20323Y28039D01*
G01X18284Y24538D02*
G01X20323Y24538D01*
G01X18284Y28039D02*
G01X20323Y28039D01*
G01X19427Y39124D02*
G01X19427Y37873D01*
G01X21466Y39124D02*
G01X21466Y37873D01*
G01X19427Y40123D02*
G01X19427Y41374D01*
G01X21466Y40123D02*
G01X21466Y41374D01*
G01X19427Y37873D02*
G01X21466Y37873D01*
G01X19427Y41374D02*
G01X21466Y41374D01*
G01X19681Y17153D02*
G01X19681Y15902D01*
G01X21720Y17153D02*
G01X21720Y15902D01*
G01X19681Y18152D02*
G01X19681Y19403D01*
G01X21720Y18152D02*
G01X21720Y19403D01*
G01X19681Y15902D02*
G01X21720Y15902D01*
G01X19681Y19403D02*
G01X21720Y19403D01*
G01X14351Y6181D02*
G01X14351Y52441D01*
G01X38750Y5181D02*
G01X15351Y5181D01*
G01X39750Y52441D02*
G01X39750Y6181D01*
G01X15351Y53441D02*
G01X38750Y53441D01*
G01X19431Y44546D02*
G01X19431Y29306D01*
G01X34671Y29306D01*
G01X34671Y44546D01*
G01X19431Y44546D01*
G54D15*
G01X31851Y47518D02*
G01X31851Y52204D01*
G01X34518Y47594D02*
G01X34518Y52217D01*
G01X29083Y52217D01*
G01X29083Y49626D01*
G01X26492Y49626D01*
G01X26492Y52217D01*
G01X23952Y52217D01*
G01X23952Y49626D01*
G01X21539Y49626D01*
G01X21539Y52217D01*
G01X19507Y52217D01*
G01X19507Y47594D01*
G54D10*
G01X17960Y47081D02*
G01X33959Y47081D01*
G01X35961Y47081D01*
G01X35961Y53080D02*
G01X35961Y27581D01*
G01X17960Y53080D02*
G01X35961Y53080D01*
G01X17960Y27581D02*
G01X35961Y27581D01*
G01X17960Y53080D02*
G01X17960Y39580D01*
G01X17960Y27581D01*
G01X32258Y6053D02*
G01X34798Y6053D01*
G01X34798Y9609D01*
G01X32258Y9609D01*
G01X32258Y6053D01*
G01X32766Y6053D01*
G01X32766Y5545D01*
G01X34290Y5545D01*
G01X34290Y6053D01*
G01X32766Y9609D02*
G01X32766Y10117D01*
G01X34290Y10117D01*
G01X34290Y9702D01*
G01X19710Y6053D02*
G01X22250Y6053D01*
G01X22250Y9609D01*
G01X19710Y9609D01*
G01X19710Y6053D01*
G01X20218Y6053D01*
G01X20218Y5545D01*
G01X21742Y5545D01*
G01X21742Y6053D01*
G01X20218Y9609D02*
G01X20218Y10117D01*
G01X21742Y10117D01*
G01X21742Y9677D01*
G01X31035Y3954D02*
G01X30755Y4386D01*
G01X31216Y4071D02*
G01X31035Y3954D01*
G01X30962Y4529D02*
G01X31216Y4097D01*
G01X23516Y3954D02*
G01X23796Y4411D01*
G01X23317Y4071D02*
G01X23516Y3954D01*
G01X23596Y4529D02*
G01X23342Y4097D01*
G01X30374Y4309D02*
G01X30374Y4106D01*
G01X30374Y4335D02*
G01X30374Y4309D01*
G01X24177Y4309D02*
G01X24177Y4106D01*
G01X24177Y4335D02*
G01X24177Y4309D01*
G01X24329Y3954D02*
G01X30222Y3954D01*
G01X24329Y4157D02*
G01X30222Y4157D01*
G01X30730Y4538D02*
G01X30607Y4529D01*
G01X30988Y4554D02*
G01X30730Y4538D01*
G01X23821Y4538D02*
G01X23571Y4529D01*
G01X23977Y4503D02*
G01X23821Y4538D01*
G01X30988Y5519D02*
G01X30988Y4605D01*
G01X23571Y5519D02*
G01X23571Y4605D01*
G01X30480Y9558D02*
G01X30988Y9558D01*
G01X30988Y7907D01*
G01X23977Y9558D02*
G01X23571Y9558D01*
G01X23571Y8008D01*
G01X23596Y5189D02*
G01X30962Y5189D01*
G01X23571Y4554D02*
G01X23571Y9558D01*
G01X30988Y9558D01*
G01X30988Y4554D01*
G01X7112Y41656D02*
G01X8890Y41656D01*
G01X8813Y41706D01*
G01X7112Y41656D02*
G01X7112Y46736D01*
G01X8864Y46736D01*
G01X8813Y46736D01*
G01X44Y34045D02*
G01X44Y54345D01*
G01X8845Y54345D01*
G01X8845Y34045D01*
G01X44Y34045D01*
G01X19300Y44331D02*
G01X19300Y43080D01*
G01X21339Y44331D02*
G01X21339Y43080D01*
G01X19300Y45330D02*
G01X19300Y46581D01*
G01X21339Y45330D02*
G01X21339Y46581D01*
G01X19300Y43080D02*
G01X21339Y43080D01*
G01X19300Y46581D02*
G01X21339Y46581D01*
G01X7112Y20446D02*
G01X8890Y20446D01*
G01X8813Y20497D01*
G01X7112Y20446D02*
G01X7112Y25526D01*
G01X8864Y25526D01*
G01X8813Y25526D01*
G01X44Y12836D02*
G01X44Y33136D01*
G01X8845Y33136D01*
G01X8845Y12836D01*
G01X44Y12836D01*
G54D16*
G01X19304Y4437D02*
G01X19304Y3482D01*
G01X19304Y4437D02*
G01X19712Y4437D01*
G01X19850Y4391D01*
G01X19895Y4345D01*
G01X19941Y4257D01*
G01X19941Y4165D01*
G01X19895Y4074D01*
G01X19850Y4028D01*
G01X19712Y3982D01*
G01X19304Y3982D01*
G01X19621Y3982D02*
G01X19941Y3482D01*
G01X20241Y3848D02*
G01X20784Y3848D01*
G01X20784Y3937D01*
G01X20739Y4028D01*
G01X20695Y4074D01*
G01X20604Y4119D01*
G01X20467Y4119D01*
G01X20375Y4074D01*
G01X20286Y3982D01*
G01X20241Y3848D01*
G01X20241Y3756D01*
G01X20286Y3619D01*
G01X20375Y3528D01*
G01X20467Y3482D01*
G01X20604Y3482D01*
G01X20695Y3528D01*
G01X20784Y3619D01*
G01X21087Y4119D02*
G01X21358Y3482D01*
G01X21630Y4119D02*
G01X21358Y3482D01*
G01X22631Y4257D02*
G01X22722Y4302D01*
G01X22857Y4437D01*
G01X22857Y3482D01*

%LPD*%
G36*
G01X37038Y2697D02*
G01X36639Y2697D01*
G01X36639Y1397D01*
G01X36786Y1397D01*
G01X36786Y1958D01*
G01X37030Y1958D01*
G01X37355Y1397D01*
G01X37520Y1397D01*
G01X37185Y1973D01*
G01X37251Y1992D01*
G01X37310Y2018D01*
G01X37361Y2052D01*
G01X37405Y2094D01*
G01X37440Y2143D01*
G01X37466Y2200D01*
G01X37482Y2264D01*
G01X37487Y2336D01*
G01X37484Y2399D01*
G01X37473Y2456D01*
G01X37454Y2505D01*
G01X37429Y2548D01*
G01X37398Y2585D01*
G01X37361Y2617D01*
G01X37319Y2642D01*
G01X37272Y2663D01*
G01X37220Y2678D01*
G01X37163Y2689D01*
G01X37102Y2695D01*
G01X37038Y2697D01*
G37*

%LPC*%
G36*
G01X37015Y2580D02*
G01X36786Y2580D01*
G01X36786Y2080D01*
G01X37015Y2080D01*
G01X37089Y2084D01*
G01X37154Y2096D01*
G01X37209Y2115D01*
G01X37256Y2143D01*
G01X37292Y2179D01*
G01X37319Y2224D01*
G01X37334Y2276D01*
G01X37340Y2336D01*
G01X37334Y2398D01*
G01X37319Y2450D01*
G01X37292Y2492D01*
G01X37256Y2525D01*
G01X37209Y2550D01*
G01X37154Y2567D01*
G01X37089Y2577D01*
G01X37015Y2580D01*
G37*

%LPD*%
G36*
G01X34759Y2697D02*
G01X34399Y2697D01*
G01X34399Y1397D01*
G01X34546Y1397D01*
G01X34546Y1922D01*
G01X34767Y1922D01*
G01X34837Y1925D01*
G01X34902Y1933D01*
G01X34962Y1947D01*
G01X35018Y1966D01*
G01X35068Y1990D01*
G01X35112Y2021D01*
G01X35151Y2056D01*
G01X35183Y2098D01*
G01X35208Y2145D01*
G01X35227Y2198D01*
G01X35238Y2257D01*
G01X35242Y2321D01*
G01X35238Y2387D01*
G01X35227Y2446D01*
G01X35207Y2498D01*
G01X35182Y2543D01*
G01X35149Y2581D01*
G01X35110Y2614D01*
G01X35065Y2641D01*
G01X35014Y2661D01*
G01X34958Y2678D01*
G01X34897Y2688D01*
G01X34830Y2695D01*
G01X34759Y2697D01*
G37*

%LPC*%
G36*
G01X34739Y2580D02*
G01X34546Y2580D01*
G01X34546Y2044D01*
G01X34744Y2044D01*
G01X34828Y2048D01*
G01X34900Y2060D01*
G01X34961Y2081D01*
G01X35010Y2110D01*
G01X35048Y2149D01*
G01X35076Y2197D01*
G01X35092Y2253D01*
G01X35097Y2321D01*
G01X35092Y2388D01*
G01X35074Y2444D01*
G01X35046Y2489D01*
G01X35007Y2524D01*
G01X34956Y2550D01*
G01X34895Y2567D01*
G01X34822Y2577D01*
G01X34739Y2580D01*
G37*

%LPD*%
G36*
G01X31361Y2381D02*
G01X31333Y2382D01*
G01X31254Y2367D01*
G01X31181Y2327D01*
G01X31116Y2263D01*
G01X31061Y2181D01*
G01X31056Y2181D01*
G01X31041Y2357D01*
G01X30924Y2357D01*
G01X30924Y1397D01*
G01X31069Y1397D01*
G01X31069Y2021D01*
G01X31124Y2128D01*
G01X31186Y2199D01*
G01X31252Y2238D01*
G01X31315Y2250D01*
G01X31341Y2249D01*
G01X31363Y2246D01*
G01X31384Y2241D01*
G01X31407Y2235D01*
G01X31435Y2359D01*
G01X31411Y2370D01*
G01X31387Y2377D01*
G01X31361Y2381D01*
G37*

%LPD*%
G36*
G01X25547Y2697D02*
G01X25387Y2697D01*
G01X24942Y1397D01*
G01X25090Y1397D01*
G01X25222Y1808D01*
G01X25707Y1808D01*
G01X25836Y1397D01*
G01X25994Y1397D01*
G01X25547Y2697D01*
G37*

%LPC*%
G36*
G01X25468Y2575D02*
G01X25460Y2575D01*
G01X25444Y2518D01*
G01X25428Y2462D01*
G01X25412Y2407D01*
G01X25395Y2353D01*
G01X25379Y2299D01*
G01X25362Y2245D01*
G01X25346Y2191D01*
G01X25328Y2136D01*
G01X25260Y1922D01*
G01X25671Y1922D01*
G01X25603Y2136D01*
G01X25584Y2191D01*
G01X25566Y2245D01*
G01X25533Y2354D01*
G01X25516Y2408D01*
G01X25500Y2463D01*
G01X25468Y2575D01*
G37*

%LPD*%
G36*
G01X24000Y2697D02*
G01X23604Y2697D01*
G01X23604Y1397D01*
G01X23751Y1397D01*
G01X23751Y1958D01*
G01X23995Y1958D01*
G01X24320Y1397D01*
G01X24485Y1397D01*
G01X24147Y1973D01*
G01X24213Y1992D01*
G01X24273Y2018D01*
G01X24325Y2052D01*
G01X24368Y2094D01*
G01X24403Y2143D01*
G01X24428Y2200D01*
G01X24444Y2264D01*
G01X24450Y2336D01*
G01X24446Y2399D01*
G01X24435Y2456D01*
G01X24417Y2505D01*
G01X24392Y2548D01*
G01X24362Y2585D01*
G01X24325Y2617D01*
G01X24282Y2642D01*
G01X24235Y2663D01*
G01X24183Y2678D01*
G01X24126Y2689D01*
G01X24065Y2695D01*
G01X24000Y2697D01*
G37*

%LPC*%
G36*
G01X23977Y2580D02*
G01X23751Y2580D01*
G01X23751Y2080D01*
G01X23977Y2080D01*
G01X24052Y2084D01*
G01X24117Y2096D01*
G01X24173Y2115D01*
G01X24219Y2143D01*
G01X24255Y2179D01*
G01X24281Y2224D01*
G01X24297Y2276D01*
G01X24302Y2336D01*
G01X24297Y2398D01*
G01X24281Y2450D01*
G01X24255Y2492D01*
G01X24219Y2525D01*
G01X24173Y2550D01*
G01X24117Y2567D01*
G01X24052Y2577D01*
G01X23977Y2580D01*
G37*

%LPD*%
G36*
G01X22613Y2697D02*
G01X22466Y2697D01*
G01X22466Y1397D01*
G01X22613Y1397D01*
G01X22613Y1816D01*
G01X22847Y2092D01*
G01X23248Y1397D01*
G01X23411Y1397D01*
G01X22941Y2204D01*
G01X23350Y2697D01*
G01X23182Y2697D01*
G01X22618Y2029D01*
G01X22613Y2029D01*
G01X22613Y2697D01*
G37*

%LPD*%
G36*
G01X20787Y2697D02*
G01X20048Y2697D01*
G01X20048Y1397D01*
G01X20195Y1397D01*
G01X20195Y1991D01*
G01X20695Y1991D01*
G01X20695Y2115D01*
G01X20195Y2115D01*
G01X20195Y2573D01*
G01X20787Y2573D01*
G01X20787Y2697D01*
G37*

%LPD*%
G36*
G01X19817Y2697D02*
G01X19075Y2697D01*
G01X19075Y1397D01*
G01X19222Y1397D01*
G01X19222Y1991D01*
G01X19725Y1991D01*
G01X19725Y2115D01*
G01X19222Y2115D01*
G01X19222Y2573D01*
G01X19817Y2573D01*
G01X19817Y2697D01*
G37*

%LPD*%
G36*
G01X18359Y2697D02*
G01X17960Y2697D01*
G01X17960Y1397D01*
G01X18110Y1397D01*
G01X18110Y1958D01*
G01X18351Y1958D01*
G01X18676Y1397D01*
G01X18844Y1397D01*
G01X18506Y1973D01*
G01X18571Y1992D01*
G01X18630Y2018D01*
G01X18682Y2052D01*
G01X18726Y2094D01*
G01X18761Y2143D01*
G01X18787Y2200D01*
G01X18803Y2264D01*
G01X18808Y2336D01*
G01X18805Y2399D01*
G01X18793Y2456D01*
G01X18775Y2505D01*
G01X18750Y2548D01*
G01X18719Y2585D01*
G01X18683Y2617D01*
G01X18640Y2642D01*
G01X18593Y2663D01*
G01X18540Y2678D01*
G01X18484Y2689D01*
G01X18423Y2695D01*
G01X18359Y2697D01*
G37*

%LPC*%
G36*
G01X18336Y2580D02*
G01X18110Y2580D01*
G01X18110Y2080D01*
G01X18336Y2080D01*
G01X18410Y2084D01*
G01X18475Y2096D01*
G01X18531Y2115D01*
G01X18578Y2143D01*
G01X18614Y2179D01*
G01X18640Y2224D01*
G01X18656Y2276D01*
G01X18661Y2336D01*
G01X18656Y2398D01*
G01X18640Y2450D01*
G01X18614Y2492D01*
G01X18578Y2525D01*
G01X18531Y2550D01*
G01X18475Y2567D01*
G01X18410Y2577D01*
G01X18336Y2580D01*
G37*

%LPD*%
G36*
G01X36064Y2719D02*
G01X36007Y2722D01*
G01X35946Y2719D01*
G01X35887Y2711D01*
G01X35831Y2696D01*
G01X35778Y2676D01*
G01X35728Y2650D01*
G01X35680Y2619D01*
G01X35637Y2583D01*
G01X35597Y2542D01*
G01X35561Y2496D01*
G01X35529Y2445D01*
G01X35501Y2389D01*
G01X35478Y2329D01*
G01X35459Y2265D01*
G01X35446Y2196D01*
G01X35438Y2123D01*
G01X35435Y2047D01*
G01X35438Y1970D01*
G01X35446Y1897D01*
G01X35459Y1828D01*
G01X35477Y1764D01*
G01X35500Y1704D01*
G01X35527Y1648D01*
G01X35559Y1598D01*
G01X35595Y1552D01*
G01X35634Y1511D01*
G01X35676Y1475D01*
G01X35723Y1445D01*
G01X35771Y1419D01*
G01X35824Y1400D01*
G01X35878Y1385D01*
G01X35935Y1377D01*
G01X35994Y1374D01*
G01X36056Y1377D01*
G01X36114Y1386D01*
G01X36168Y1402D01*
G01X36219Y1422D01*
G01X36267Y1449D01*
G01X36311Y1481D01*
G01X36354Y1517D01*
G01X36393Y1559D01*
G01X36309Y1653D01*
G01X36243Y1589D01*
G01X36171Y1542D01*
G01X36091Y1513D01*
G01X36001Y1503D01*
G01X35939Y1508D01*
G01X35882Y1520D01*
G01X35828Y1541D01*
G01X35779Y1570D01*
G01X35736Y1607D01*
G01X35697Y1651D01*
G01X35664Y1702D01*
G01X35636Y1759D01*
G01X35614Y1824D01*
G01X35598Y1894D01*
G01X35588Y1970D01*
G01X35585Y2052D01*
G01X35588Y2132D01*
G01X35599Y2207D01*
G01X35615Y2276D01*
G01X35638Y2339D01*
G01X35666Y2396D01*
G01X35701Y2446D01*
G01X35740Y2489D01*
G01X35785Y2525D01*
G01X35833Y2553D01*
G01X35887Y2574D01*
G01X35945Y2586D01*
G01X36007Y2590D01*
G01X36088Y2582D01*
G01X36159Y2557D01*
G01X36223Y2518D01*
G01X36278Y2466D01*
G01X36360Y2562D01*
G01X36330Y2592D01*
G01X36296Y2622D01*
G01X36257Y2649D01*
G01X36214Y2673D01*
G01X36168Y2693D01*
G01X36118Y2709D01*
G01X36064Y2719D01*
G37*

%LPD*%
G36*
G01X32138Y2811D02*
G01X31996Y2811D01*
G01X31996Y1397D01*
G01X32108Y1397D01*
G01X32125Y1496D01*
G01X32128Y1496D01*
G01X32195Y1444D01*
G01X32266Y1406D01*
G01X32336Y1382D01*
G01X32405Y1374D01*
G01X32460Y1378D01*
G01X32514Y1389D01*
G01X32565Y1409D01*
G01X32613Y1435D01*
G01X32657Y1469D01*
G01X32698Y1510D01*
G01X32734Y1558D01*
G01X32765Y1612D01*
G01X32790Y1673D01*
G01X32808Y1739D01*
G01X32820Y1813D01*
G01X32824Y1892D01*
G01X32821Y1963D01*
G01X32813Y2030D01*
G01X32800Y2092D01*
G01X32780Y2150D01*
G01X32756Y2202D01*
G01X32726Y2247D01*
G01X32692Y2287D01*
G01X32652Y2321D01*
G01X32606Y2347D01*
G01X32556Y2366D01*
G01X32501Y2378D01*
G01X32440Y2382D01*
G01X32359Y2371D01*
G01X32279Y2341D01*
G01X32202Y2296D01*
G01X32131Y2242D01*
G01X32138Y2420D01*
G01X32138Y2811D01*
G37*

%LPC*%
G36*
G01X32474Y2250D02*
G01X32407Y2258D01*
G01X32343Y2249D01*
G01X32277Y2223D01*
G01X32209Y2180D01*
G01X32138Y2120D01*
G01X32138Y1600D01*
G01X32205Y1551D01*
G01X32270Y1519D01*
G01X32331Y1501D01*
G01X32385Y1496D01*
G01X32445Y1503D01*
G01X32500Y1523D01*
G01X32550Y1557D01*
G01X32592Y1602D01*
G01X32627Y1659D01*
G01X32652Y1727D01*
G01X32668Y1805D01*
G01X32674Y1892D01*
G01X32671Y1970D01*
G01X32659Y2040D01*
G01X32641Y2103D01*
G01X32613Y2155D01*
G01X32577Y2199D01*
G01X32530Y2231D01*
G01X32474Y2250D01*
G37*

%LPD*%
G36*
G01X30360Y2378D02*
G01X30302Y2382D01*
G01X30247Y2378D01*
G01X30193Y2366D01*
G01X30141Y2346D01*
G01X30092Y2320D01*
G01X30046Y2286D01*
G01X30004Y2245D01*
G01X29967Y2199D01*
G01X29934Y2145D01*
G01X29909Y2086D01*
G01X29889Y2022D01*
G01X29877Y1952D01*
G01X29872Y1877D01*
G01X29877Y1800D01*
G01X29889Y1729D01*
G01X29908Y1664D01*
G01X29934Y1605D01*
G01X29967Y1552D01*
G01X30006Y1506D01*
G01X30050Y1467D01*
G01X30098Y1434D01*
G01X30151Y1408D01*
G01X30208Y1389D01*
G01X30267Y1378D01*
G01X30330Y1374D01*
G01X30423Y1381D01*
G01X30505Y1402D01*
G01X30579Y1433D01*
G01X30645Y1470D01*
G01X30591Y1567D01*
G01X30536Y1534D01*
G01X30478Y1509D01*
G01X30415Y1494D01*
G01X30347Y1488D01*
G01X30278Y1495D01*
G01X30216Y1513D01*
G01X30161Y1544D01*
G01X30114Y1585D01*
G01X30075Y1637D01*
G01X30046Y1698D01*
G01X30026Y1767D01*
G01X30017Y1844D01*
G01X30673Y1844D01*
G01X30677Y1863D01*
G01X30679Y1885D01*
G01X30680Y1908D01*
G01X30680Y1932D01*
G01X30677Y1999D01*
G01X30669Y2062D01*
G01X30655Y2119D01*
G01X30635Y2172D01*
G01X30611Y2219D01*
G01X30582Y2261D01*
G01X30547Y2297D01*
G01X30507Y2327D01*
G01X30463Y2351D01*
G01X30413Y2368D01*
G01X30360Y2378D01*
G37*

%LPC*%
G36*
G01X30360Y2260D02*
G01X30304Y2265D01*
G01X30252Y2260D01*
G01X30202Y2244D01*
G01X30155Y2218D01*
G01X30114Y2182D01*
G01X30078Y2137D01*
G01X30049Y2083D01*
G01X30027Y2021D01*
G01X30015Y1950D01*
G01X30553Y1950D01*
G01X30549Y2023D01*
G01X30536Y2086D01*
G01X30515Y2140D01*
G01X30487Y2185D01*
G01X30451Y2220D01*
G01X30408Y2245D01*
G01X30360Y2260D01*
G37*

%LPD*%
G36*
G01X29489Y2628D02*
G01X29370Y2628D01*
G01X29352Y2357D01*
G01X29199Y2346D01*
G01X29199Y2237D01*
G01X29347Y2237D01*
G01X29347Y1686D01*
G01X29350Y1620D01*
G01X29360Y1559D01*
G01X29377Y1506D01*
G01X29404Y1461D01*
G01X29439Y1423D01*
G01X29485Y1397D01*
G01X29542Y1379D01*
G01X29611Y1374D01*
G01X29652Y1377D01*
G01X29696Y1385D01*
G01X29739Y1396D01*
G01X29781Y1409D01*
G01X29753Y1518D01*
G01X29727Y1509D01*
G01X29698Y1501D01*
G01X29669Y1495D01*
G01X29641Y1493D01*
G01X29568Y1506D01*
G01X29521Y1543D01*
G01X29497Y1602D01*
G01X29489Y1681D01*
G01X29489Y2237D01*
G01X29756Y2237D01*
G01X29756Y2357D01*
G01X29489Y2357D01*
G01X29489Y2628D01*
G37*

%LPD*%
G36*
G01X27670Y2379D02*
G01X27614Y2382D01*
G01X27558Y2379D01*
G01X27504Y2370D01*
G01X27451Y2357D01*
G01X27402Y2339D01*
G01X27356Y2320D01*
G01X27313Y2298D01*
G01X27275Y2276D01*
G01X27241Y2255D01*
G01X27302Y2153D01*
G01X27361Y2192D01*
G01X27430Y2226D01*
G01X27508Y2250D01*
G01X27592Y2260D01*
G01X27648Y2255D01*
G01X27694Y2238D01*
G01X27730Y2213D01*
G01X27757Y2180D01*
G01X27777Y2142D01*
G01X27790Y2098D01*
G01X27796Y2052D01*
G01X27797Y2004D01*
G01X27699Y1990D01*
G01X27609Y1975D01*
G01X27530Y1956D01*
G01X27458Y1935D01*
G01X27396Y1912D01*
G01X27344Y1884D01*
G01X27299Y1854D01*
G01X27263Y1819D01*
G01X27235Y1782D01*
G01X27216Y1739D01*
G01X27204Y1693D01*
G01X27200Y1643D01*
G01X27206Y1582D01*
G01X27222Y1528D01*
G01X27247Y1482D01*
G01X27281Y1443D01*
G01X27322Y1413D01*
G01X27370Y1391D01*
G01X27422Y1378D01*
G01X27480Y1374D01*
G01X27569Y1384D01*
G01X27653Y1414D01*
G01X27732Y1458D01*
G01X27805Y1513D01*
G01X27810Y1513D01*
G01X27823Y1397D01*
G01X27942Y1397D01*
G01X27942Y1991D01*
G01X27940Y2048D01*
G01X27934Y2101D01*
G01X27924Y2150D01*
G01X27909Y2196D01*
G01X27890Y2237D01*
G01X27866Y2274D01*
G01X27837Y2306D01*
G01X27803Y2333D01*
G01X27764Y2354D01*
G01X27720Y2369D01*
G01X27670Y2379D01*
G37*

%LPC*%
G36*
G01X27797Y1625D02*
G01X27797Y1905D01*
G01X27680Y1888D01*
G01X27583Y1868D01*
G01X27504Y1843D01*
G01X27442Y1814D01*
G01X27397Y1781D01*
G01X27366Y1742D01*
G01X27348Y1700D01*
G01X27343Y1653D01*
G01X27356Y1578D01*
G01X27394Y1528D01*
G01X27451Y1500D01*
G01X27520Y1490D01*
G01X27591Y1499D01*
G01X27658Y1525D01*
G01X27726Y1567D01*
G01X27797Y1625D01*
G37*

%LPD*%
G36*
G01X26929Y2811D02*
G01X26784Y2811D01*
G01X26784Y2435D01*
G01X26791Y2268D01*
G01X26727Y2315D01*
G01X26662Y2352D01*
G01X26593Y2374D01*
G01X26515Y2382D01*
G01X26460Y2378D01*
G01X26407Y2366D01*
G01X26356Y2346D01*
G01X26308Y2320D01*
G01X26264Y2286D01*
G01X26223Y2245D01*
G01X26187Y2199D01*
G01X26157Y2145D01*
G01X26132Y2086D01*
G01X26114Y2022D01*
G01X26102Y1952D01*
G01X26098Y1877D01*
G01X26101Y1799D01*
G01X26111Y1727D01*
G01X26126Y1662D01*
G01X26147Y1603D01*
G01X26174Y1550D01*
G01X26206Y1504D01*
G01X26243Y1465D01*
G01X26284Y1433D01*
G01X26331Y1407D01*
G01X26381Y1388D01*
G01X26436Y1377D01*
G01X26494Y1374D01*
G01X26579Y1384D01*
G01X26658Y1414D01*
G01X26729Y1457D01*
G01X26791Y1511D01*
G01X26797Y1511D01*
G01X26809Y1397D01*
G01X26929Y1397D01*
G01X26929Y2811D01*
G37*

%LPC*%
G36*
G01X26599Y2252D02*
G01X26537Y2258D01*
G01X26478Y2250D01*
G01X26424Y2230D01*
G01X26374Y2196D01*
G01X26332Y2151D01*
G01X26297Y2096D01*
G01X26270Y2030D01*
G01X26253Y1957D01*
G01X26248Y1877D01*
G01X26252Y1792D01*
G01X26266Y1718D01*
G01X26289Y1652D01*
G01X26319Y1598D01*
G01X26359Y1554D01*
G01X26406Y1522D01*
G01X26462Y1502D01*
G01X26525Y1496D01*
G01X26592Y1504D01*
G01X26656Y1530D01*
G01X26720Y1573D01*
G01X26784Y1633D01*
G01X26784Y2151D01*
G01X26721Y2201D01*
G01X26660Y2234D01*
G01X26599Y2252D01*
G37*

%LPD*%
G36*
G01X21840Y2719D02*
G01X21783Y2722D01*
G01X21726Y2719D01*
G01X21672Y2711D01*
G01X21623Y2697D01*
G01X21576Y2678D01*
G01X21533Y2654D01*
G01X21495Y2626D01*
G01X21462Y2594D01*
G01X21434Y2558D01*
G01X21411Y2519D01*
G01X21395Y2476D01*
G01X21385Y2430D01*
G01X21381Y2382D01*
G01X21388Y2315D01*
G01X21406Y2257D01*
G01X21434Y2207D01*
G01X21469Y2165D01*
G01X21510Y2129D01*
G01X21555Y2098D01*
G01X21602Y2073D01*
G01X21648Y2052D01*
G01X21836Y1968D01*
G01X21881Y1947D01*
G01X21923Y1927D01*
G01X21960Y1905D01*
G01X21993Y1880D01*
G01X22020Y1851D01*
G01X22040Y1817D01*
G01X22052Y1775D01*
G01X22057Y1727D01*
G01X22052Y1679D01*
G01X22037Y1636D01*
G01X22013Y1598D01*
G01X21980Y1565D01*
G01X21940Y1539D01*
G01X21891Y1519D01*
G01X21835Y1507D01*
G01X21772Y1503D01*
G01X21721Y1506D01*
G01X21670Y1515D01*
G01X21620Y1529D01*
G01X21572Y1548D01*
G01X21527Y1571D01*
G01X21484Y1600D01*
G01X21444Y1632D01*
G01X21407Y1668D01*
G01X21318Y1567D01*
G01X21361Y1524D01*
G01X21410Y1486D01*
G01X21461Y1453D01*
G01X21516Y1425D01*
G01X21575Y1403D01*
G01X21637Y1387D01*
G01X21702Y1377D01*
G01X21770Y1374D01*
G01X21835Y1377D01*
G01X21896Y1386D01*
G01X21952Y1402D01*
G01X22003Y1422D01*
G01X22049Y1448D01*
G01X22089Y1479D01*
G01X22124Y1514D01*
G01X22153Y1552D01*
G01X22176Y1595D01*
G01X22193Y1639D01*
G01X22203Y1687D01*
G01X22207Y1737D01*
G01X22201Y1805D01*
G01X22185Y1865D01*
G01X22160Y1916D01*
G01X22127Y1961D01*
G01X22087Y1999D01*
G01X22042Y2032D01*
G01X21991Y2061D01*
G01X21937Y2087D01*
G01X21747Y2166D01*
G01X21671Y2201D01*
G01X21602Y2245D01*
G01X21551Y2306D01*
G01X21531Y2392D01*
G01X21536Y2436D01*
G01X21549Y2474D01*
G01X21571Y2509D01*
G01X21601Y2537D01*
G01X21637Y2560D01*
G01X21680Y2577D01*
G01X21729Y2587D01*
G01X21783Y2590D01*
G01X21871Y2582D01*
G01X21950Y2557D01*
G01X22021Y2518D01*
G01X22085Y2466D01*
G01X22164Y2562D01*
G01X22127Y2596D01*
G01X22087Y2627D01*
G01X22044Y2654D01*
G01X21998Y2678D01*
G01X21948Y2696D01*
G01X21896Y2711D01*
G01X21840Y2719D01*
G37*

%LPD*%
G36*
G01X28764Y2378D02*
G01X28704Y2382D01*
G01X28621Y2370D01*
G01X28540Y2340D01*
G01X28464Y2296D01*
G01X28394Y2245D01*
G01X28389Y2245D01*
G01X28374Y2357D01*
G01X28257Y2357D01*
G01X28257Y985D01*
G01X28402Y985D01*
G01X28402Y1315D01*
G01X28397Y1485D01*
G01X28465Y1438D01*
G01X28533Y1403D01*
G01X28601Y1381D01*
G01X28668Y1374D01*
G01X28723Y1378D01*
G01X28776Y1389D01*
G01X28827Y1409D01*
G01X28875Y1435D01*
G01X28920Y1469D01*
G01X28961Y1510D01*
G01X28997Y1558D01*
G01X29028Y1612D01*
G01X29053Y1673D01*
G01X29072Y1739D01*
G01X29084Y1813D01*
G01X29088Y1892D01*
G01X29085Y1963D01*
G01X29076Y2030D01*
G01X29063Y2092D01*
G01X29043Y2150D01*
G01X29019Y2202D01*
G01X28989Y2247D01*
G01X28954Y2287D01*
G01X28914Y2321D01*
G01X28869Y2347D01*
G01X28819Y2366D01*
G01X28764Y2378D01*
G37*

%LPC*%
G36*
G01X28737Y2250D02*
G01X28671Y2258D01*
G01X28607Y2249D01*
G01X28541Y2223D01*
G01X28473Y2180D01*
G01X28402Y2120D01*
G01X28402Y1600D01*
G01X28469Y1551D01*
G01X28534Y1519D01*
G01X28594Y1501D01*
G01X28646Y1496D01*
G01X28706Y1503D01*
G01X28762Y1523D01*
G01X28812Y1557D01*
G01X28854Y1602D01*
G01X28889Y1659D01*
G01X28916Y1727D01*
G01X28932Y1805D01*
G01X28938Y1892D01*
G01X28934Y1970D01*
G01X28923Y2040D01*
G01X28904Y2103D01*
G01X28876Y2155D01*
G01X28839Y2199D01*
G01X28793Y2231D01*
G01X28737Y2250D01*
G37*

%LPD*%
G36*
G01X33086Y2357D02*
G01X32933Y2357D01*
G01X33322Y1391D01*
G01X33299Y1315D01*
G01X33261Y1230D01*
G01X33212Y1161D01*
G01X33150Y1116D01*
G01X33075Y1099D01*
G01X33056Y1101D01*
G01X33036Y1104D01*
G01X33017Y1109D01*
G01X33002Y1115D01*
G01X32971Y998D01*
G01X32995Y989D01*
G01X33021Y983D01*
G01X33049Y979D01*
G01X33080Y977D01*
G01X33147Y984D01*
G01X33205Y1003D01*
G01X33257Y1034D01*
G01X33302Y1074D01*
G01X33342Y1123D01*
G01X33376Y1179D01*
G01X33406Y1241D01*
G01X33431Y1308D01*
G01X33797Y2357D01*
G01X33655Y2357D01*
G01X33477Y1808D01*
G01X33456Y1742D01*
G01X33435Y1674D01*
G01X33414Y1604D01*
G01X33393Y1536D01*
G01X33385Y1536D01*
G01X33360Y1604D01*
G01X33336Y1674D01*
G01X33312Y1742D01*
G01X33289Y1808D01*
G01X33086Y2357D01*
G37*

%LPD*%

%LPD*%
G36*
G01X41296Y17019D02*
G01X41231Y17020D01*
G01X41167Y17019D01*
G01X41104Y17015D01*
G01X41042Y17010D01*
G01X40981Y17002D01*
G01X40922Y16992D01*
G01X40864Y16980D01*
G01X40807Y16966D01*
G01X40750Y16950D01*
G01X40695Y16932D01*
G01X40641Y16913D01*
G01X40588Y16891D01*
G01X40535Y16868D01*
G01X40484Y16843D01*
G01X40432Y16816D01*
G01X40382Y16788D01*
G01X40332Y16758D01*
G01X40375Y16670D01*
G01X40423Y16697D01*
G01X40472Y16723D01*
G01X40522Y16747D01*
G01X40572Y16770D01*
G01X40624Y16790D01*
G01X40676Y16809D01*
G01X40729Y16826D01*
G01X40783Y16841D01*
G01X40838Y16854D01*
G01X40893Y16866D01*
G01X40948Y16876D01*
G01X41004Y16884D01*
G01X41061Y16890D01*
G01X41118Y16895D01*
G01X41174Y16897D01*
G01X41231Y16898D01*
G01X41288Y16897D01*
G01X41345Y16895D01*
G01X41402Y16890D01*
G01X41458Y16884D01*
G01X41514Y16876D01*
G01X41570Y16866D01*
G01X41625Y16854D01*
G01X41679Y16841D01*
G01X41733Y16826D01*
G01X41787Y16809D01*
G01X41839Y16790D01*
G01X41890Y16770D01*
G01X41941Y16747D01*
G01X41991Y16723D01*
G01X42040Y16697D01*
G01X42087Y16670D01*
G01X42130Y16758D01*
G01X42081Y16788D01*
G01X42030Y16816D01*
G01X41980Y16843D01*
G01X41928Y16868D01*
G01X41875Y16891D01*
G01X41822Y16913D01*
G01X41768Y16932D01*
G01X41713Y16950D01*
G01X41658Y16966D01*
G01X41600Y16980D01*
G01X41542Y16992D01*
G01X41483Y17002D01*
G01X41422Y17010D01*
G01X41360Y17015D01*
G01X41296Y17019D01*
G37*

%LPD*%
G36*
G01X41209Y16505D02*
G01X41127Y16507D01*
G01X41045Y16505D01*
G01X40969Y16500D01*
G01X40899Y16491D01*
G01X40833Y16479D01*
G01X40773Y16464D01*
G01X40717Y16445D01*
G01X40668Y16424D01*
G01X40623Y16399D01*
G01X40584Y16372D01*
G01X40550Y16342D01*
G01X40522Y16309D01*
G01X40498Y16274D01*
G01X40480Y16237D01*
G01X40467Y16197D01*
G01X40459Y16155D01*
G01X40457Y16111D01*
G01X40459Y16066D01*
G01X40467Y16023D01*
G01X40480Y15982D01*
G01X40498Y15944D01*
G01X40521Y15909D01*
G01X40550Y15876D01*
G01X40583Y15845D01*
G01X40622Y15818D01*
G01X40667Y15793D01*
G01X40716Y15771D01*
G01X40771Y15753D01*
G01X40832Y15737D01*
G01X40898Y15725D01*
G01X40969Y15717D01*
G01X41045Y15711D01*
G01X41127Y15709D01*
G01X41209Y15711D01*
G01X41287Y15717D01*
G01X41359Y15725D01*
G01X41425Y15737D01*
G01X41486Y15753D01*
G01X41542Y15771D01*
G01X41592Y15793D01*
G01X41637Y15818D01*
G01X41676Y15845D01*
G01X41711Y15876D01*
G01X41740Y15909D01*
G01X41763Y15944D01*
G01X41781Y15982D01*
G01X41795Y16023D01*
G01X41803Y16066D01*
G01X41805Y16111D01*
G01X41803Y16155D01*
G01X41795Y16197D01*
G01X41781Y16237D01*
G01X41763Y16274D01*
G01X41740Y16309D01*
G01X41711Y16342D01*
G01X41676Y16372D01*
G01X41637Y16399D01*
G01X41592Y16424D01*
G01X41542Y16445D01*
G01X41486Y16464D01*
G01X41425Y16479D01*
G01X41359Y16491D01*
G01X41287Y16500D01*
G01X41209Y16505D01*
G37*

%LPC*%
G36*
G01X41219Y16363D02*
G01X41127Y16365D01*
G01X41036Y16363D01*
G01X40954Y16357D01*
G01X40880Y16346D01*
G01X40815Y16333D01*
G01X40758Y16315D01*
G01X40709Y16295D01*
G01X40667Y16271D01*
G01X40634Y16244D01*
G01X40609Y16215D01*
G01X40590Y16182D01*
G01X40580Y16148D01*
G01X40576Y16111D01*
G01X40580Y16073D01*
G01X40590Y16038D01*
G01X40609Y16005D01*
G01X40634Y15974D01*
G01X40667Y15947D01*
G01X40709Y15922D01*
G01X40758Y15900D01*
G01X40815Y15883D01*
G01X40880Y15868D01*
G01X40954Y15858D01*
G01X41036Y15851D01*
G01X41127Y15849D01*
G01X41219Y15851D01*
G01X41303Y15858D01*
G01X41378Y15868D01*
G01X41444Y15883D01*
G01X41503Y15900D01*
G01X41553Y15922D01*
G01X41595Y15947D01*
G01X41629Y15974D01*
G01X41655Y16005D01*
G01X41674Y16038D01*
G01X41685Y16073D01*
G01X41689Y16111D01*
G01X41685Y16148D01*
G01X41674Y16182D01*
G01X41655Y16215D01*
G01X41629Y16244D01*
G01X41595Y16271D01*
G01X41552Y16295D01*
G01X41503Y16315D01*
G01X41444Y16333D01*
G01X41378Y16346D01*
G01X41303Y16357D01*
G01X41219Y16363D01*
G37*

%LPD*%
G36*
G01X41783Y15529D02*
G01X41658Y15529D01*
G01X41658Y15156D01*
G01X41659Y15104D01*
G01X41660Y15051D01*
G01X41664Y14996D01*
G01X41668Y14942D01*
G01X41613Y15001D01*
G01X41558Y15057D01*
G01X41504Y15109D01*
G01X41450Y15160D01*
G01X41397Y15206D01*
G01X41345Y15249D01*
G01X41292Y15289D01*
G01X41240Y15325D01*
G01X41189Y15358D01*
G01X41138Y15386D01*
G01X41088Y15411D01*
G01X41037Y15431D01*
G01X40987Y15447D01*
G01X40937Y15458D01*
G01X40887Y15466D01*
G01X40838Y15468D01*
G01X40782Y15465D01*
G01X40729Y15456D01*
G01X40681Y15442D01*
G01X40636Y15423D01*
G01X40596Y15398D01*
G01X40560Y15368D01*
G01X40530Y15333D01*
G01X40504Y15294D01*
G01X40484Y15251D01*
G01X40469Y15202D01*
G01X40460Y15151D01*
G01X40457Y15095D01*
G01X40460Y15036D01*
G01X40471Y14981D01*
G01X40488Y14931D01*
G01X40510Y14883D01*
G01X40538Y14839D01*
G01X40570Y14797D01*
G01X40607Y14756D01*
G01X40647Y14716D01*
G01X40731Y14800D01*
G01X40669Y14861D01*
G01X40620Y14928D01*
G01X40588Y15000D01*
G01X40576Y15079D01*
G01X40581Y15138D01*
G01X40596Y15189D01*
G01X40620Y15231D01*
G01X40652Y15265D01*
G01X40691Y15292D01*
G01X40737Y15311D01*
G01X40787Y15322D01*
G01X40843Y15326D01*
G01X40885Y15324D01*
G01X40930Y15317D01*
G01X40974Y15306D01*
G01X41021Y15290D01*
G01X41068Y15270D01*
G01X41117Y15245D01*
G01X41166Y15216D01*
G01X41218Y15181D01*
G01X41271Y15142D01*
G01X41326Y15097D01*
G01X41383Y15048D01*
G01X41441Y14994D01*
G01X41502Y14934D01*
G01X41565Y14869D01*
G01X41629Y14799D01*
G01X41696Y14724D01*
G01X41783Y14724D01*
G01X41783Y15529D01*
G37*

%LPD*%
G36*
G01X42100Y14074D02*
G01X40375Y14622D01*
G01X40375Y14516D01*
G01X42100Y13967D01*
G01X42100Y14074D01*
G37*

%LPD*%
G36*
G01X40568Y13863D02*
G01X40482Y13863D01*
G01X40482Y13058D01*
G01X40606Y13058D01*
G01X40606Y13698D01*
G01X40660Y13661D01*
G01X40712Y13626D01*
G01X40765Y13593D01*
G01X40817Y13563D01*
G01X40870Y13535D01*
G01X40923Y13508D01*
G01X40976Y13484D01*
G01X41030Y13462D01*
G01X41085Y13442D01*
G01X41140Y13424D01*
G01X41197Y13407D01*
G01X41255Y13392D01*
G01X41314Y13379D01*
G01X41375Y13368D01*
G01X41438Y13357D01*
G01X41502Y13349D01*
G01X41569Y13341D01*
G01X41638Y13336D01*
G01X41709Y13330D01*
G01X41783Y13327D01*
G01X41783Y13479D01*
G01X41708Y13483D01*
G01X41636Y13487D01*
G01X41566Y13491D01*
G01X41499Y13498D01*
G01X41434Y13505D01*
G01X41371Y13513D01*
G01X41309Y13523D01*
G01X41249Y13535D01*
G01X41190Y13548D01*
G01X41133Y13564D01*
G01X41076Y13581D01*
G01X41019Y13601D01*
G01X40964Y13623D01*
G01X40908Y13648D01*
G01X40853Y13676D01*
G01X40797Y13707D01*
G01X40741Y13741D01*
G01X40684Y13778D01*
G01X40627Y13819D01*
G01X40568Y13863D01*
G37*

%LPD*%
G36*
G01X41209Y12878D02*
G01X41127Y12880D01*
G01X41045Y12878D01*
G01X40969Y12873D01*
G01X40899Y12864D01*
G01X40833Y12852D01*
G01X40773Y12837D01*
G01X40717Y12819D01*
G01X40668Y12798D01*
G01X40623Y12773D01*
G01X40584Y12746D01*
G01X40550Y12716D01*
G01X40522Y12684D01*
G01X40498Y12648D01*
G01X40480Y12611D01*
G01X40467Y12570D01*
G01X40459Y12528D01*
G01X40457Y12484D01*
G01X40459Y12439D01*
G01X40467Y12396D01*
G01X40480Y12356D01*
G01X40498Y12319D01*
G01X40521Y12283D01*
G01X40550Y12250D01*
G01X40583Y12220D01*
G01X40622Y12193D01*
G01X40667Y12168D01*
G01X40716Y12147D01*
G01X40771Y12128D01*
G01X40832Y12113D01*
G01X40898Y12101D01*
G01X40969Y12092D01*
G01X41045Y12087D01*
G01X41127Y12085D01*
G01X41209Y12087D01*
G01X41287Y12092D01*
G01X41359Y12101D01*
G01X41425Y12113D01*
G01X41486Y12128D01*
G01X41542Y12147D01*
G01X41592Y12168D01*
G01X41637Y12193D01*
G01X41676Y12220D01*
G01X41711Y12250D01*
G01X41740Y12283D01*
G01X41763Y12319D01*
G01X41781Y12356D01*
G01X41795Y12396D01*
G01X41803Y12439D01*
G01X41805Y12484D01*
G01X41803Y12528D01*
G01X41795Y12570D01*
G01X41781Y12611D01*
G01X41763Y12648D01*
G01X41740Y12684D01*
G01X41711Y12716D01*
G01X41676Y12746D01*
G01X41637Y12773D01*
G01X41592Y12798D01*
G01X41542Y12819D01*
G01X41486Y12837D01*
G01X41425Y12852D01*
G01X41359Y12864D01*
G01X41287Y12873D01*
G01X41209Y12878D01*
G37*

%LPC*%
G36*
G01X41219Y12738D02*
G01X41127Y12740D01*
G01X41036Y12738D01*
G01X40954Y12732D01*
G01X40880Y12721D01*
G01X40815Y12708D01*
G01X40758Y12690D01*
G01X40709Y12669D01*
G01X40667Y12645D01*
G01X40634Y12618D01*
G01X40609Y12588D01*
G01X40590Y12556D01*
G01X40580Y12521D01*
G01X40576Y12484D01*
G01X40580Y12446D01*
G01X40590Y12410D01*
G01X40609Y12378D01*
G01X40634Y12347D01*
G01X40667Y12320D01*
G01X40709Y12296D01*
G01X40758Y12275D01*
G01X40815Y12257D01*
G01X40880Y12243D01*
G01X40954Y12233D01*
G01X41036Y12227D01*
G01X41127Y12225D01*
G01X41219Y12227D01*
G01X41303Y12233D01*
G01X41378Y12243D01*
G01X41444Y12257D01*
G01X41503Y12275D01*
G01X41553Y12296D01*
G01X41595Y12320D01*
G01X41629Y12347D01*
G01X41655Y12378D01*
G01X41674Y12410D01*
G01X41685Y12446D01*
G01X41689Y12484D01*
G01X41685Y12521D01*
G01X41674Y12556D01*
G01X41655Y12588D01*
G01X41629Y12618D01*
G01X41595Y12645D01*
G01X41552Y12669D01*
G01X41503Y12690D01*
G01X41444Y12708D01*
G01X41378Y12721D01*
G01X41303Y12732D01*
G01X41219Y12738D01*
G37*

%LPD*%
G36*
G01X40423Y11895D02*
G01X40375Y11922D01*
G01X40332Y11833D01*
G01X40382Y11803D01*
G01X40432Y11775D01*
G01X40484Y11749D01*
G01X40535Y11724D01*
G01X40588Y11701D01*
G01X40641Y11679D01*
G01X40695Y11660D01*
G01X40750Y11641D01*
G01X40807Y11626D01*
G01X40864Y11612D01*
G01X40922Y11600D01*
G01X40981Y11590D01*
G01X41042Y11582D01*
G01X41104Y11576D01*
G01X41167Y11573D01*
G01X41231Y11572D01*
G01X41296Y11573D01*
G01X41360Y11576D01*
G01X41422Y11582D01*
G01X41483Y11590D01*
G01X41542Y11600D01*
G01X41600Y11612D01*
G01X41658Y11626D01*
G01X41713Y11641D01*
G01X41768Y11660D01*
G01X41822Y11679D01*
G01X41875Y11701D01*
G01X41928Y11724D01*
G01X41980Y11749D01*
G01X42030Y11775D01*
G01X42081Y11803D01*
G01X42130Y11833D01*
G01X42087Y11922D01*
G01X42040Y11895D01*
G01X41991Y11869D01*
G01X41941Y11845D01*
G01X41890Y11822D01*
G01X41839Y11802D01*
G01X41787Y11783D01*
G01X41733Y11766D01*
G01X41679Y11751D01*
G01X41625Y11737D01*
G01X41570Y11726D01*
G01X41514Y11716D01*
G01X41458Y11708D01*
G01X41402Y11702D01*
G01X41345Y11697D01*
G01X41288Y11695D01*
G01X41231Y11694D01*
G01X41174Y11695D01*
G01X41118Y11697D01*
G01X41061Y11702D01*
G01X41004Y11708D01*
G01X40948Y11716D01*
G01X40893Y11726D01*
G01X40838Y11737D01*
G01X40783Y11751D01*
G01X40729Y11766D01*
G01X40676Y11783D01*
G01X40624Y11802D01*
G01X40572Y11822D01*
G01X40522Y11845D01*
G01X40472Y11869D01*
G01X40423Y11895D01*
G37*

%LPD*%
G36*
G01X41783Y10919D02*
G01X41658Y10919D01*
G01X41658Y10546D01*
G01X41659Y10494D01*
G01X41660Y10441D01*
G01X41664Y10386D01*
G01X41668Y10332D01*
G01X41613Y10391D01*
G01X41558Y10447D01*
G01X41504Y10499D01*
G01X41450Y10549D01*
G01X41397Y10596D01*
G01X41345Y10639D01*
G01X41292Y10679D01*
G01X41240Y10715D01*
G01X41189Y10748D01*
G01X41138Y10776D01*
G01X41088Y10801D01*
G01X41037Y10821D01*
G01X40987Y10837D01*
G01X40937Y10848D01*
G01X40887Y10855D01*
G01X40838Y10858D01*
G01X40782Y10855D01*
G01X40729Y10846D01*
G01X40681Y10832D01*
G01X40636Y10813D01*
G01X40596Y10788D01*
G01X40560Y10758D01*
G01X40530Y10723D01*
G01X40504Y10684D01*
G01X40484Y10641D01*
G01X40469Y10592D01*
G01X40460Y10541D01*
G01X40457Y10485D01*
G01X40460Y10426D01*
G01X40471Y10371D01*
G01X40488Y10321D01*
G01X40510Y10273D01*
G01X40538Y10229D01*
G01X40570Y10186D01*
G01X40607Y10146D01*
G01X40647Y10106D01*
G01X40731Y10190D01*
G01X40669Y10250D01*
G01X40620Y10317D01*
G01X40588Y10389D01*
G01X40576Y10467D01*
G01X40581Y10526D01*
G01X40596Y10578D01*
G01X40620Y10620D01*
G01X40652Y10655D01*
G01X40691Y10682D01*
G01X40737Y10701D01*
G01X40787Y10712D01*
G01X40843Y10716D01*
G01X40885Y10714D01*
G01X40930Y10707D01*
G01X40974Y10696D01*
G01X41021Y10680D01*
G01X41068Y10660D01*
G01X41117Y10635D01*
G01X41166Y10606D01*
G01X41218Y10571D01*
G01X41271Y10532D01*
G01X41326Y10487D01*
G01X41383Y10438D01*
G01X41441Y10384D01*
G01X41502Y10324D01*
G01X41565Y10259D01*
G01X41629Y10189D01*
G01X41696Y10114D01*
G01X41783Y10114D01*
G01X41783Y10919D01*
G37*

%LPD*%
G36*
G01X41783Y9220D02*
G01X40482Y9636D01*
G01X40482Y9486D01*
G01X41198Y9271D01*
G01X41255Y9253D01*
G01X41310Y9237D01*
G01X41363Y9222D01*
G01X41415Y9206D01*
G01X41468Y9192D01*
G01X41520Y9176D01*
G01X41574Y9159D01*
G01X41630Y9141D01*
G01X41630Y9136D01*
G01X41574Y9118D01*
G01X41520Y9101D01*
G01X41468Y9085D01*
G01X41363Y9054D01*
G01X41310Y9039D01*
G01X41255Y9023D01*
G01X41198Y9006D01*
G01X40482Y8788D01*
G01X40482Y8633D01*
G01X41783Y9052D01*
G01X41783Y9220D01*
G37*

%LPD*%
G36*
G01X41783Y8534D02*
G01X41658Y8534D01*
G01X41658Y7919D01*
G01X41158Y7919D01*
G01X41158Y8420D01*
G01X41033Y8420D01*
G01X41033Y7919D01*
G01X40606Y7919D01*
G01X40606Y8514D01*
G01X40482Y8514D01*
G01X40482Y7772D01*
G01X41783Y7772D01*
G01X41783Y8534D01*
G37*

%LPD*%
G36*
G01X41783Y7373D02*
G01X41783Y7541D01*
G01X41206Y7203D01*
G01X41187Y7268D01*
G01X41161Y7327D01*
G01X41127Y7379D01*
G01X41086Y7422D01*
G01X41036Y7458D01*
G01X40979Y7484D01*
G01X40915Y7500D01*
G01X40843Y7505D01*
G01X40780Y7502D01*
G01X40723Y7490D01*
G01X40674Y7472D01*
G01X40631Y7447D01*
G01X40594Y7416D01*
G01X40562Y7380D01*
G01X40537Y7337D01*
G01X40516Y7290D01*
G01X40501Y7237D01*
G01X40490Y7181D01*
G01X40484Y7120D01*
G01X40482Y7056D01*
G01X40482Y6657D01*
G01X41783Y6657D01*
G01X41783Y6807D01*
G01X41221Y6807D01*
G01X41221Y7048D01*
G01X41783Y7373D01*
G37*

%LPC*%
G36*
G01X40903Y7353D02*
G01X40843Y7358D01*
G01X40781Y7353D01*
G01X40729Y7337D01*
G01X40687Y7311D01*
G01X40654Y7275D01*
G01X40629Y7228D01*
G01X40612Y7172D01*
G01X40602Y7107D01*
G01X40599Y7033D01*
G01X40599Y6807D01*
G01X41099Y6807D01*
G01X41099Y7033D01*
G01X41095Y7107D01*
G01X41083Y7172D01*
G01X41064Y7228D01*
G01X41036Y7275D01*
G01X41000Y7311D01*
G01X40955Y7337D01*
G01X40903Y7353D01*
G37*

%LPD*%
G54D17*
G01X20684Y32501D02*
G01X20684Y33591D01*
G01X20684Y32501D02*
G01X20217Y32501D01*
G01X20062Y32552D01*
G01X20009Y32605D01*
G01X19958Y32710D01*
G01X19958Y32814D01*
G01X20009Y32918D01*
G01X20062Y32969D01*
G01X20217Y33020D01*
G01X20684Y33020D01*
G01X20321Y33020D02*
G01X19958Y33591D01*
G01X18990Y32501D02*
G01X19511Y32501D01*
G01X19562Y32969D01*
G01X19511Y32918D01*
G01X19354Y32865D01*
G01X19199Y32865D01*
G01X19044Y32918D01*
G01X18940Y33020D01*
G01X18886Y33177D01*
G01X18886Y33281D01*
G01X18940Y33436D01*
G01X19044Y33540D01*
G01X19199Y33591D01*
G01X19354Y33591D01*
G01X19511Y33540D01*
G01X19562Y33489D01*
G01X19615Y33385D01*
G01X30469Y37989D02*
G01X31559Y37989D01*
G01X30469Y37989D02*
G01X30469Y38456D01*
G01X30520Y38611D01*
G01X30573Y38664D01*
G01X30678Y38715D01*
G01X30782Y38715D01*
G01X30886Y38664D01*
G01X30937Y38611D01*
G01X30988Y38456D01*
G01X30988Y37989D01*
G01X30988Y38352D02*
G01X31559Y38715D01*
G01X30469Y39579D02*
G01X31196Y39058D01*
G01X31196Y39838D01*
G01X30469Y39579D02*
G01X31559Y39579D01*
G01X20176Y47233D02*
G01X20176Y48323D01*
G01X20176Y47233D02*
G01X19709Y47233D01*
G01X19554Y47284D01*
G01X19501Y47337D01*
G01X19450Y47442D01*
G01X19450Y47546D01*
G01X19501Y47650D01*
G01X19554Y47701D01*
G01X19709Y47752D01*
G01X20176Y47752D01*
G01X19813Y47752D02*
G01X19450Y48323D01*
G01X19003Y47233D02*
G01X18432Y47233D01*
G01X18741Y47650D01*
G01X18586Y47650D01*
G01X18482Y47701D01*
G01X18432Y47752D01*
G01X18378Y47909D01*
G01X18378Y48013D01*
G01X18432Y48168D01*
G01X18536Y48272D01*
G01X18691Y48323D01*
G01X18846Y48323D01*
G01X19003Y48272D01*
G01X19054Y48221D01*
G01X19107Y48117D01*
G01X16626Y26178D02*
G01X17716Y26178D01*
G01X16626Y26178D02*
G01X16626Y26645D01*
G01X16677Y26800D01*
G01X16730Y26853D01*
G01X16835Y26904D01*
G01X16939Y26904D01*
G01X17043Y26853D01*
G01X17094Y26800D01*
G01X17145Y26645D01*
G01X17145Y26178D01*
G01X17145Y26541D02*
G01X17716Y26904D01*
G01X16781Y27872D02*
G01X16677Y27818D01*
G01X16626Y27663D01*
G01X16626Y27559D01*
G01X16677Y27404D01*
G01X16835Y27300D01*
G01X17094Y27247D01*
G01X17353Y27247D01*
G01X17561Y27300D01*
G01X17665Y27404D01*
G01X17716Y27559D01*
G01X17716Y27613D01*
G01X17665Y27768D01*
G01X17561Y27872D01*
G01X17406Y27922D01*
G01X17353Y27922D01*
G01X17198Y27872D01*
G01X17094Y27768D01*
G01X17043Y27613D01*
G01X17043Y27559D01*
G01X17094Y27404D01*
G01X17198Y27300D01*
G01X17353Y27247D01*
G01X17769Y39513D02*
G01X18859Y39513D01*
G01X17769Y39513D02*
G01X17769Y39980D01*
G01X17820Y40135D01*
G01X17873Y40188D01*
G01X17978Y40239D01*
G01X18082Y40239D01*
G01X18186Y40188D01*
G01X18237Y40135D01*
G01X18288Y39980D01*
G01X18288Y39513D01*
G01X18288Y39876D02*
G01X18859Y40239D01*
G01X18028Y40635D02*
G01X17978Y40635D01*
G01X17873Y40686D01*
G01X17820Y40739D01*
G01X17769Y40843D01*
G01X17769Y41049D01*
G01X17820Y41153D01*
G01X17873Y41207D01*
G01X17978Y41257D01*
G01X18082Y41257D01*
G01X18186Y41207D01*
G01X18341Y41103D01*
G01X18859Y40582D01*
G01X18859Y41311D01*
G01X18023Y17542D02*
G01X19113Y17542D01*
G01X18023Y17542D02*
G01X18023Y18009D01*
G01X18074Y18164D01*
G01X18127Y18217D01*
G01X18232Y18268D01*
G01X18336Y18268D01*
G01X18440Y18217D01*
G01X18491Y18164D01*
G01X18542Y18009D01*
G01X18542Y17542D01*
G01X18542Y17905D02*
G01X19113Y18268D01*
G01X18023Y19340D02*
G01X19113Y18819D01*
G01X18023Y18611D02*
G01X18023Y19340D01*
G54D18*
G01X36507Y8895D02*
G01X37236Y8895D01*
G01X36507Y8895D02*
G01X36507Y9136D01*
G01X36542Y9240D01*
G01X36611Y9311D01*
G01X36682Y9344D01*
G01X36784Y9380D01*
G01X36959Y9380D01*
G01X37063Y9344D01*
G01X37132Y9311D01*
G01X37200Y9240D01*
G01X37236Y9136D01*
G01X37236Y8895D01*
G01X36959Y9608D02*
G01X36959Y10025D01*
G01X36888Y10025D01*
G01X36819Y9989D01*
G01X36784Y9954D01*
G01X36751Y9885D01*
G01X36751Y9781D01*
G01X36784Y9712D01*
G01X36855Y9644D01*
G01X36959Y9608D01*
G01X37028Y9608D01*
G01X37132Y9644D01*
G01X37200Y9712D01*
G01X37236Y9781D01*
G01X37236Y9885D01*
G01X37200Y9954D01*
G01X37132Y10025D01*
G01X36855Y10634D02*
G01X36784Y10599D01*
G01X36751Y10495D01*
G01X36751Y10391D01*
G01X36784Y10287D01*
G01X36855Y10253D01*
G01X36923Y10287D01*
G01X36959Y10355D01*
G01X36992Y10530D01*
G01X37028Y10599D01*
G01X37096Y10634D01*
G01X37132Y10634D01*
G01X37200Y10599D01*
G01X37236Y10495D01*
G01X37236Y10391D01*
G01X37200Y10287D01*
G01X37132Y10253D01*
G01X36507Y10863D02*
G01X36542Y10896D01*
G01X36507Y10932D01*
G01X36474Y10896D01*
G01X36507Y10863D01*
G01X36751Y10896D02*
G01X37236Y10896D01*
G01X36751Y11574D02*
G01X37304Y11574D01*
G01X37409Y11541D01*
G01X37444Y11506D01*
G01X37477Y11437D01*
G01X37477Y11333D01*
G01X37444Y11264D01*
G01X36855Y11574D02*
G01X36784Y11506D01*
G01X36751Y11437D01*
G01X36751Y11333D01*
G01X36784Y11264D01*
G01X36855Y11193D01*
G01X36959Y11160D01*
G01X37028Y11160D01*
G01X37132Y11193D01*
G01X37200Y11264D01*
G01X37236Y11333D01*
G01X37236Y11437D01*
G01X37200Y11506D01*
G01X37132Y11574D01*
G01X36751Y11803D02*
G01X37236Y11803D01*
G01X36888Y11803D02*
G01X36784Y11907D01*
G01X36751Y11978D01*
G01X36751Y12082D01*
G01X36784Y12151D01*
G01X36888Y12184D01*
G01X37236Y12184D01*
G01X36959Y12412D02*
G01X36959Y12829D01*
G01X36888Y12829D01*
G01X36819Y12793D01*
G01X36784Y12760D01*
G01X36751Y12692D01*
G01X36751Y12588D01*
G01X36784Y12517D01*
G01X36855Y12448D01*
G01X36959Y12412D01*
G01X37028Y12412D01*
G01X37132Y12448D01*
G01X37200Y12517D01*
G01X37236Y12588D01*
G01X37236Y12692D01*
G01X37200Y12760D01*
G01X37132Y12829D01*
G01X36507Y13474D02*
G01X37236Y13474D01*
G01X36855Y13474D02*
G01X36784Y13403D01*
G01X36751Y13335D01*
G01X36751Y13230D01*
G01X36784Y13162D01*
G01X36855Y13093D01*
G01X36959Y13058D01*
G01X37028Y13058D01*
G01X37132Y13093D01*
G01X37200Y13162D01*
G01X37236Y13230D01*
G01X37236Y13335D01*
G01X37200Y13403D01*
G01X37132Y13474D01*
G01X36507Y14236D02*
G01X37236Y14236D01*
G01X36855Y14236D02*
G01X36784Y14305D01*
G01X36751Y14373D01*
G01X36751Y14478D01*
G01X36784Y14546D01*
G01X36855Y14617D01*
G01X36959Y14650D01*
G01X37028Y14650D01*
G01X37132Y14617D01*
G01X37200Y14546D01*
G01X37236Y14478D01*
G01X37236Y14373D01*
G01X37200Y14305D01*
G01X37132Y14236D01*
G01X36751Y14914D02*
G01X37236Y15123D01*
G01X36751Y15331D02*
G01X37236Y15123D01*
G01X37373Y15054D01*
G01X37444Y14983D01*
G01X37477Y14914D01*
G01X37477Y14879D01*
G01X36507Y16438D02*
G01X37063Y16438D01*
G01X37165Y16403D01*
G01X37200Y16370D01*
G01X37236Y16299D01*
G01X37236Y16230D01*
G01X37200Y16162D01*
G01X37165Y16126D01*
G01X37063Y16093D01*
G01X36992Y16093D01*
G01X36751Y16840D02*
G01X36784Y16771D01*
G01X36855Y16703D01*
G01X36959Y16667D01*
G01X37028Y16667D01*
G01X37132Y16703D01*
G01X37200Y16771D01*
G01X37236Y16840D01*
G01X37236Y16944D01*
G01X37200Y17012D01*
G01X37132Y17084D01*
G01X37028Y17117D01*
G01X36959Y17117D01*
G01X36855Y17084D01*
G01X36784Y17012D01*
G01X36751Y16944D01*
G01X36751Y16840D01*
G01X36507Y17345D02*
G01X37236Y17345D01*
G01X36855Y17345D02*
G01X36784Y17416D01*
G01X36751Y17485D01*
G01X36751Y17589D01*
G01X36784Y17658D01*
G01X36855Y17726D01*
G01X36959Y17762D01*
G01X37028Y17762D01*
G01X37132Y17726D01*
G01X37200Y17658D01*
G01X37236Y17589D01*
G01X37236Y17485D01*
G01X37200Y17416D01*
G01X37132Y17345D01*
G01X36855Y18371D02*
G01X36784Y18336D01*
G01X36751Y18232D01*
G01X36751Y18127D01*
G01X36784Y18026D01*
G01X36855Y17990D01*
G01X36923Y18026D01*
G01X36959Y18094D01*
G01X36992Y18267D01*
G01X37028Y18336D01*
G01X37096Y18371D01*
G01X37132Y18371D01*
G01X37200Y18336D01*
G01X37236Y18232D01*
G01X37236Y18127D01*
G01X37200Y18026D01*
G01X37132Y17990D01*
G01X36751Y18773D02*
G01X36784Y18704D01*
G01X36855Y18635D01*
G01X36959Y18600D01*
G01X37028Y18600D01*
G01X37132Y18635D01*
G01X37200Y18704D01*
G01X37236Y18773D01*
G01X37236Y18877D01*
G01X37200Y18945D01*
G01X37132Y19016D01*
G01X37028Y19050D01*
G01X36959Y19050D01*
G01X36855Y19016D01*
G01X36784Y18945D01*
G01X36751Y18877D01*
G01X36751Y18773D01*
G01X36751Y19278D02*
G01X37236Y19278D01*
G01X36888Y19278D02*
G01X36784Y19382D01*
G01X36751Y19451D01*
G01X36751Y19555D01*
G01X36784Y19626D01*
G01X36888Y19659D01*
G01X37236Y19659D01*
G54D17*
G01X24384Y33020D02*
G01X24384Y32049D01*
G01X24384Y33020D02*
G01X24983Y33020D01*
G01X24384Y32557D02*
G01X24752Y32557D01*
G01X24384Y32049D02*
G01X24983Y32049D01*
G01X25935Y32882D02*
G01X25844Y32974D01*
G01X25704Y33020D01*
G01X25519Y33020D01*
G01X25382Y32974D01*
G01X25288Y32882D01*
G01X25288Y32788D01*
G01X25336Y32697D01*
G01X25382Y32651D01*
G01X25473Y32605D01*
G01X25750Y32512D01*
G01X25844Y32466D01*
G01X25890Y32420D01*
G01X25935Y32326D01*
G01X25935Y32189D01*
G01X25844Y32097D01*
G01X25704Y32049D01*
G01X25519Y32049D01*
G01X25382Y32097D01*
G01X25288Y32189D01*
G01X26240Y33020D02*
G01X26240Y32049D01*
G01X26240Y33020D02*
G01X26657Y33020D01*
G01X26794Y32974D01*
G01X26840Y32928D01*
G01X26885Y32834D01*
G01X26885Y32697D01*
G01X26840Y32605D01*
G01X26794Y32557D01*
G01X26657Y32512D01*
G01X26240Y32512D01*
G01X27190Y32466D02*
G01X28023Y32466D01*
G01X28328Y32834D02*
G01X28420Y32882D01*
G01X28559Y33020D01*
G01X28559Y32049D01*
G01X28910Y32788D02*
G01X28910Y32834D01*
G01X28956Y32928D01*
G01X29001Y32974D01*
G01X29095Y33020D01*
G01X29278Y33020D01*
G01X29372Y32974D01*
G01X29418Y32928D01*
G01X29464Y32834D01*
G01X29464Y32743D01*
G01X29418Y32651D01*
G01X29324Y32512D01*
G01X28864Y32049D01*
G01X29509Y32049D01*
G01X29814Y33020D02*
G01X29814Y32049D01*
G01X29814Y33020D02*
G01X30416Y33020D01*
G01X29814Y32557D02*
G01X30185Y32557D01*
G01X29814Y32049D02*
G01X30416Y32049D01*
G01X9641Y42164D02*
G01X10731Y42164D01*
G01X9641Y42164D02*
G01X9641Y42839D01*
G01X10160Y42164D02*
G01X10160Y42580D01*
G01X10731Y42164D02*
G01X10731Y42839D01*
G01X9641Y43182D02*
G01X10731Y43908D01*
G01X9641Y43908D02*
G01X10731Y43182D01*
G01X9641Y44251D02*
G01X10731Y44251D01*
G01X9641Y44251D02*
G01X9641Y44719D01*
G01X9692Y44876D01*
G01X9745Y44927D01*
G01X9850Y44980D01*
G01X10005Y44980D01*
G01X10109Y44927D01*
G01X10160Y44876D01*
G01X10213Y44719D01*
G01X10213Y44251D01*
G01X9900Y45374D02*
G01X9850Y45374D01*
G01X9745Y45427D01*
G01X9692Y45478D01*
G01X9641Y45582D01*
G01X9641Y45791D01*
G01X9692Y45895D01*
G01X9745Y45946D01*
G01X9850Y45999D01*
G01X9954Y45999D01*
G01X10058Y45946D01*
G01X10213Y45841D01*
G01X10731Y45323D01*
G01X10731Y46050D01*
G01X17642Y44720D02*
G01X18732Y44720D01*
G01X17642Y44720D02*
G01X17642Y45187D01*
G01X17693Y45342D01*
G01X17746Y45395D01*
G01X17851Y45446D01*
G01X17955Y45446D01*
G01X18059Y45395D01*
G01X18110Y45342D01*
G01X18161Y45187D01*
G01X18161Y44720D01*
G01X18161Y45083D02*
G01X18732Y45446D01*
G01X17851Y45789D02*
G01X17797Y45893D01*
G01X17642Y46050D01*
G01X18732Y46050D01*
G01X9514Y21160D02*
G01X10604Y21160D01*
G01X9514Y21160D02*
G01X9514Y21835D01*
G01X10033Y21160D02*
G01X10033Y21576D01*
G01X10604Y21160D02*
G01X10604Y21835D01*
G01X9514Y22178D02*
G01X10604Y22904D01*
G01X9514Y22904D02*
G01X10604Y22178D01*
G01X9514Y23247D02*
G01X10604Y23247D01*
G01X9514Y23247D02*
G01X9514Y23715D01*
G01X9565Y23872D01*
G01X9618Y23923D01*
G01X9723Y23976D01*
G01X9878Y23976D01*
G01X9982Y23923D01*
G01X10033Y23872D01*
G01X10086Y23715D01*
G01X10086Y23247D01*
G01X9723Y24319D02*
G01X9669Y24423D01*
G01X9514Y24578D01*
G01X10604Y24578D01*
G54D10*
G75*
G01X14351Y52442D02*
G02X15351Y53442I1000J0D01*
G01*
G75*
G01X15351Y5182D02*
G02X14351Y6182I0J1000D01*
G01*
G75*
G01X39743Y6215D02*
G02X38743Y5215I-1000J0D01*
G01*
G75*
G01X38751Y53442D02*
G02X39751Y52442I0J-1000D01*
G01*
G75*
G01X30782Y4422D02*
G02X30759Y4529I132J85D01*
G01*
G75*
G01X23810Y4428D02*
G03X23851Y4529I-116J105D01*
G01*
G75*
G01X30394Y4374D02*
G02X30785Y4529I329J-261D01*
G01*
G75*
G01X30241Y4184D02*
G03X30394Y4329I3J150D01*
G01*
G75*
G01X30241Y3968D02*
G03X30394Y4123I3J150D01*
G01*
G75*
G01X24194Y4123D02*
G03X24346Y3968I150J-5D01*
G01*
G75*
G01X24194Y4329D02*
G03X24346Y4184I150J5D01*
G01*
G75*
G01X23749Y4529D02*
G02X24194Y4374I70J-514D01*
G01*
G75*
G01X34290Y7831D02*
G03X34290Y7831I-762J0D01*
G01*
G75*
G01X34036Y7831D02*
G03X34036Y7831I-508J0D01*
G01*
G75*
G01X33782Y7831D02*
G03X33782Y7831I-254J0D01*
G01*
G75*
G01X33782Y7958D02*
G03X33782Y7958I-127J0D01*
G01*
G75*
G01X33528Y7704D02*
G03X33528Y7704I-127J0D01*
G01*
G75*
G01X21742Y7831D02*
G03X21742Y7831I-762J0D01*
G01*
G75*
G01X21488Y7831D02*
G03X21488Y7831I-508J0D01*
G01*
G75*
G01X21234Y7831D02*
G03X21234Y7831I-254J0D01*
G01*
G75*
G01X21234Y7958D02*
G03X21234Y7958I-127J0D01*
G01*
G75*
G01X20980Y7704D02*
G03X20980Y7704I-127J0D01*
G01*
M00*
M02*
