G04 Layer: TopSolderMaskLayer*
G04 EasyEDA v6.3.53, 2020-07-02T17:27:03+02:00*
G04 cd291f7992904801b7ca3d7210451973,0d0e7d196270479aaefd99a7cd6f8dc4,10*
G04 Gerber Generator version 0.2*
G04 Scale: 100 percent, Rotated: No, Reflected: No *
G04 Dimensions in millimeters *
G04 leading zeros omitted , absolute positions ,3 integer and 3 decimal *
%FSLAX33Y33*%
%MOMM*%
G90*
G71D02*

%ADD21C,1.727200*%

%LPD*%
G36*
G01X18971Y34302D02*
G01X18971Y36055D01*
G01X20175Y36055D01*
G01X20175Y34302D01*
G01X18971Y34302D01*
G37*
G36*
G01X20972Y34302D02*
G01X20972Y36055D01*
G01X22176Y36055D01*
G01X22176Y34302D01*
G01X20972Y34302D01*
G37*
G36*
G01X32270Y38498D02*
G01X32270Y39702D01*
G01X34023Y39702D01*
G01X34023Y38498D01*
G01X32270Y38498D01*
G37*
G36*
G01X32270Y36497D02*
G01X32270Y37701D01*
G01X34023Y37701D01*
G01X34023Y36497D01*
G01X32270Y36497D01*
G37*
G36*
G01X18463Y49034D02*
G01X18463Y50787D01*
G01X19667Y50787D01*
G01X19667Y49034D01*
G01X18463Y49034D01*
G37*
G36*
G01X20464Y49034D02*
G01X20464Y50787D01*
G01X21668Y50787D01*
G01X21668Y49034D01*
G01X20464Y49034D01*
G37*
G36*
G01X18427Y26687D02*
G01X18427Y27891D01*
G01X20180Y27891D01*
G01X20180Y26687D01*
G01X18427Y26687D01*
G37*
G36*
G01X18427Y24686D02*
G01X18427Y25890D01*
G01X20180Y25890D01*
G01X20180Y24686D01*
G01X18427Y24686D01*
G37*
G36*
G01X19570Y40022D02*
G01X19570Y41226D01*
G01X21323Y41226D01*
G01X21323Y40022D01*
G01X19570Y40022D01*
G37*
G36*
G01X19570Y38021D02*
G01X19570Y39225D01*
G01X21323Y39225D01*
G01X21323Y38021D01*
G01X19570Y38021D01*
G37*
G36*
G01X19824Y18051D02*
G01X19824Y19255D01*
G01X21577Y19255D01*
G01X21577Y18051D01*
G01X19824Y18051D01*
G37*
G36*
G01X19824Y16050D02*
G01X19824Y17254D01*
G01X21577Y17254D01*
G01X21577Y16050D01*
G01X19824Y16050D01*
G37*
G54D21*
G01X38481Y47752D03*
G01X38481Y45212D03*
G01X38481Y42672D03*
G01X38481Y40132D03*
G01X38481Y37592D03*
G01X38481Y35052D03*
G01X38481Y32512D03*
G01X38481Y29972D03*
G01X38481Y27432D03*
G01X38481Y24892D03*
G01X38481Y22352D03*
G01X38481Y19812D03*
G01X38481Y17272D03*
G01X38481Y14732D03*
G01X38481Y12192D03*
G01X15621Y12192D03*
G01X15621Y14732D03*
G01X15621Y17272D03*
G01X15621Y19812D03*
G01X15621Y22352D03*
G01X15621Y24892D03*
G01X15621Y27432D03*
G01X15621Y29972D03*
G01X15621Y32512D03*
G01X15621Y35052D03*
G01X15621Y37592D03*
G01X15621Y40132D03*
G01X15621Y42672D03*
G01X15621Y45212D03*
G01X15621Y47752D03*
G01X5715Y39116D03*
G01X3175Y39116D03*
G01X5715Y41656D03*
G01X3175Y41656D03*
G01X5715Y44196D03*
G01X3175Y44196D03*
G01X5715Y46736D03*
G01X3175Y46736D03*
G01X5715Y49276D03*
G01X3175Y49276D03*
G36*
G01X19443Y45229D02*
G01X19443Y46433D01*
G01X21196Y46433D01*
G01X21196Y45229D01*
G01X19443Y45229D01*
G37*
G36*
G01X19443Y43228D02*
G01X19443Y44432D01*
G01X21196Y44432D01*
G01X21196Y43228D01*
G01X19443Y43228D01*
G37*
G01X5715Y17907D03*
G01X3175Y17907D03*
G01X5715Y20447D03*
G01X3175Y20447D03*
G01X5715Y22987D03*
G01X3175Y22987D03*
G01X5715Y25527D03*
G01X3175Y25527D03*
G01X5715Y28067D03*
G01X3175Y28067D03*
M00*
M02*
