G04 Layer: BottomSolderMaskLayer*
G04 EasyEDA v6.3.53, 2020-07-02T17:27:03+02:00*
G04 4edb8fa5c3324583bf34438798551307,0d0e7d196270479aaefd99a7cd6f8dc4,10*
G04 Gerber Generator version 0.2*
G04 Scale: 100 percent, Rotated: No, Reflected: No *
G04 Dimensions in millimeters *
G04 leading zeros omitted , absolute positions ,3 integer and 3 decimal *
%FSLAX33Y33*%
%MOMM*%
G90*
G71D02*

%ADD21C,1.727200*%

%LPD*%
G54D21*
G01X38481Y47752D03*
G01X38481Y45212D03*
G01X38481Y42672D03*
G01X38481Y40132D03*
G01X38481Y37592D03*
G01X38481Y35052D03*
G01X38481Y32512D03*
G01X38481Y29972D03*
G01X38481Y27432D03*
G01X38481Y24892D03*
G01X38481Y22352D03*
G01X38481Y19812D03*
G01X38481Y17272D03*
G01X38481Y14732D03*
G01X38481Y12192D03*
G01X15621Y12192D03*
G01X15621Y14732D03*
G01X15621Y17272D03*
G01X15621Y19812D03*
G01X15621Y22352D03*
G01X15621Y24892D03*
G01X15621Y27432D03*
G01X15621Y29972D03*
G01X15621Y32512D03*
G01X15621Y35052D03*
G01X15621Y37592D03*
G01X15621Y40132D03*
G01X15621Y42672D03*
G01X15621Y45212D03*
G01X15621Y47752D03*
G01X5715Y39116D03*
G01X3175Y39116D03*
G01X5715Y41656D03*
G01X3175Y41656D03*
G01X5715Y44196D03*
G01X3175Y44196D03*
G01X5715Y46736D03*
G01X3175Y46736D03*
G01X5715Y49276D03*
G01X3175Y49276D03*
G01X5715Y17907D03*
G01X3175Y17907D03*
G01X5715Y20447D03*
G01X3175Y20447D03*
G01X5715Y22987D03*
G01X3175Y22987D03*
G01X5715Y25527D03*
G01X3175Y25527D03*
G01X5715Y28067D03*
G01X3175Y28067D03*
M00*
M02*
