;Layer: Drill PTH
;EasyEDA v6.3.53, 2020-07-02T17:27:03+02:00
;cd291f7992904801b7ca3d7210451973,0d0e7d196270479aaefd99a7cd6f8dc4,10
;Gerber Generator version 0.2
M48
METRIC,LZ,000.000
;Holesize 1 = 0.305 METRIC
T01C0.305
;Holesize 2 = 0.915 METRIC
T02C0.915
;Holesize 3 = 1.100 METRIC
T03C1.100
%
G05
G90
T01
X+010541Y+017653
X+020574Y+031242
X+023368Y+039370
X+023368Y+032258
X+025654Y+038227
X+028194Y+035306
X+019177Y+021082
X+031623Y+026797
T02
X+038481Y+047752
X+038481Y+045212
X+038481Y+042672
X+038481Y+040132
X+038481Y+037592
X+038481Y+035052
X+038481Y+032512
X+038481Y+029972
X+038481Y+027432
X+038481Y+024892
X+038481Y+022352
X+038481Y+019812
X+038481Y+017272
X+038481Y+014732
X+038481Y+012192
X+015621Y+012192
X+015621Y+014732
X+015621Y+017272
X+015621Y+019812
X+015621Y+022352
X+015621Y+024892
X+015621Y+027432
X+015621Y+029972
X+015621Y+032512
X+015621Y+035052
X+015621Y+037592
X+015621Y+040132
X+015621Y+042672
X+015621Y+045212
X+015621Y+047752
T03
X+005715Y+039116
X+003175Y+039116
X+005715Y+041656
X+003175Y+041656
X+005715Y+044196
X+003175Y+044196
X+005715Y+046736
X+003175Y+046736
X+005715Y+049276
X+003175Y+049276
X+005715Y+017907
X+003175Y+017907
X+005715Y+020447
X+003175Y+020447
X+005715Y+022987
X+003175Y+022987
X+005715Y+025527
X+003175Y+025527
X+005715Y+028067
X+003175Y+028067
M30
